<svg xmlns="http://www.w3.org/2000/svg" xmlns:xlink="http://www.w3.org/1999/xlink" width="59.40301513671875" height="59.402984619140625" viewBox="0 0 59.40301513671875 59.402984619140625" fill="none">
<path d="M28.427 1.7L28.427 5.94C28.427 6.88 29.187 7.64 30.127 7.64C31.057 7.64 31.817 6.88 31.817 5.94L31.817 1.7C31.817 0.76 31.057 0 30.127 0C29.187 0 28.427 0.76 28.427 1.7ZM8.483 8.6952C7.763 9.4252 7.763 10.5952 8.483 11.3252L11.113 13.9452C11.833 14.6752 13.013 14.6752 13.733 13.9452C14.463 13.2252 14.463 12.0452 13.733 11.3252L11.113 8.6952C10.383 7.9752 9.213 7.9752 8.483 8.6952ZM47.8643 8.6952L45.2343 11.3252C44.5143 12.0452 44.5143 13.2252 45.2343 13.9452C45.9643 14.6752 47.1343 14.6752 47.8643 13.9452L50.4843 11.3252C51.2143 10.5952 51.2143 9.4252 50.4843 8.6952C49.7643 7.9752 48.5843 7.9752 47.8643 8.6952ZM12.304 29.28C12.304 38.88 20.094 46.67 29.704 46.67C39.304 46.67 47.094 38.88 47.094 29.28C47.094 19.67 39.304 11.88 29.704 11.88C20.094 11.88 12.304 19.67 12.304 29.28ZM1.7 27.579C0.76 27.579 0 28.339 0 29.279C0 30.209 0.76 30.969 1.7 30.969L5.94 30.969C6.88 30.969 7.64 30.209 7.64 29.279C7.64 28.339 6.88 27.579 5.94 27.579L1.7 27.579ZM53.463 27.579C52.523 27.579 51.763 28.339 51.763 29.279C51.763 30.209 52.523 30.969 53.463 30.969L57.703 30.969C58.643 30.969 59.403 30.209 59.403 29.279C59.403 28.339 58.643 27.579 57.703 27.579L53.463 27.579ZM11.113 45.4473L8.483 48.0773C7.763 48.7973 7.763 49.9773 8.483 50.6973C9.213 51.4273 10.383 51.4273 11.113 50.6973L13.733 48.0773C14.463 47.3473 14.463 46.1773 13.733 45.4473C13.013 44.7273 11.833 44.7273 11.113 45.4473ZM45.2343 45.4473C44.5143 46.1773 44.5143 47.3473 45.2343 48.0773L47.8643 50.6973C48.5843 51.4273 49.7643 51.4273 50.4843 50.6973C51.2143 49.9773 51.2143 48.7973 50.4843 48.0773L47.8643 45.4473C47.1343 44.7273 45.9643 44.7273 45.2343 45.4473ZM28.427 57.703L28.427 53.463C28.427 52.523 29.187 51.763 30.127 51.763C31.057 51.763 31.817 52.523 31.817 53.463L31.817 57.703C31.817 58.643 31.057 59.403 30.127 59.403C29.187 59.403 28.427 58.643 28.427 57.703Z" fill-rule="evenodd"  fill="#D8B63A" >
</path>
</svg>
