<svg xmlns="http://www.w3.org/2000/svg" xmlns:xlink="http://www.w3.org/1999/xlink" width="16.000377655029297" height="16" viewBox="0 0 16.000377655029297 16" fill="none">
<path d="M4.74538 1.777C4.77083 1.89148 4.83452 1.99387 4.92595 2.0673C5.01739 2.14074 5.13111 2.18084 5.24838 2.181C5.28603 2.18095 5.32357 2.17693 5.36038 2.169C5.49395 2.13913 5.61023 2.0575 5.68371 1.94203C5.75719 1.82656 5.78189 1.68665 5.75238 1.553L5.49638 0.403C5.46104 0.275548 5.3781 0.166532 5.2647 0.0984632C5.1513 0.0303942 5.01609 0.00846906 4.88699 0.037215C4.75789 0.0659609 4.64476 0.143183 4.57095 0.252936C4.49715 0.362689 4.4683 0.496593 4.49038 0.627L4.74538 1.777ZM1.02338 3.535L2.01738 4.168C2.13263 4.23605 2.26982 4.25665 2.39997 4.22546C2.53013 4.19426 2.64308 4.11372 2.71497 4.00082C2.78686 3.88793 2.81207 3.75151 2.78528 3.62038C2.75849 3.48925 2.68179 3.37365 2.57138 3.298L1.57738 2.665C1.46212 2.59695 1.32494 2.57635 1.19478 2.60754C1.06462 2.63873 0.95168 2.71928 0.879789 2.83218C0.807899 2.94507 0.782688 3.08149 0.809479 3.21262C0.83627 3.34375 0.912966 3.45935 1.02338 3.535ZM0.628378 8.043L1.77838 7.787C1.84456 7.77236 1.90722 7.74482 1.96276 7.70597C2.01831 7.66711 2.06565 7.61769 2.1021 7.56054C2.13855 7.50338 2.16338 7.43961 2.17518 7.37286C2.18698 7.30611 2.18552 7.23769 2.17088 7.1715C2.15624 7.10531 2.1287 7.04266 2.08984 6.98711C2.05099 6.93157 2.00157 6.88422 1.94442 6.84778C1.88726 6.81133 1.82349 6.7865 1.75674 6.7747C1.68999 6.76289 1.62156 6.76436 1.55538 6.779L0.405378 7.035C0.281088 7.06228 0.171262 7.13453 0.096999 7.23786C0.0227361 7.34119 -0.0107263 7.46832 0.00304011 7.59482C0.0168065 7.72133 0.0768309 7.83828 0.171582 7.92322C0.266333 8.00816 0.389128 8.05509 0.516378 8.055C0.554029 8.05495 0.591571 8.05093 0.628378 8.043ZM10.8664 5.763C10.904 5.76295 10.9416 5.75893 10.9784 5.751L12.1284 5.495C12.1946 5.48029 12.2572 5.45269 12.3127 5.41377C12.3682 5.37486 12.4156 5.32539 12.452 5.26819C12.4884 5.21099 12.5131 5.14717 12.5249 5.0804C12.5366 5.01362 12.5351 4.94519 12.5204 4.879C12.5057 4.81281 12.4781 4.75017 12.4392 4.69465C12.4002 4.63913 12.3508 4.59182 12.2936 4.55542C12.2364 4.51902 12.1726 4.49424 12.1058 4.4825C12.039 4.47076 11.9706 4.47229 11.9044 4.487L10.7544 4.743C10.63 4.7703 10.5201 4.84263 10.4458 4.94606C10.3716 5.0495 10.3382 5.17675 10.3521 5.30332C10.366 5.4299 10.4262 5.54687 10.5211 5.63172C10.6161 5.71658 10.739 5.76334 10.8664 5.763ZM8.52238 2.728C8.63777 2.80139 8.77757 2.82597 8.91107 2.79634C9.04458 2.76672 9.16086 2.68531 9.23438 2.57L9.86738 1.576C9.93542 1.46075 9.95603 1.32356 9.92484 1.1934C9.89364 1.06325 9.8131 0.950302 9.7002 0.878412C9.5873 0.806521 9.45089 0.78131 9.31976 0.808101C9.18862 0.834892 9.07303 0.911589 8.99738 1.022L8.36438 2.016C8.29099 2.13139 8.26641 2.27119 8.29604 2.4047C8.32566 2.5382 8.40707 2.65448 8.52238 2.728ZM2.81938 7.032C2.89055 7.33542 3.00187 7.628 3.15038 7.902C3.4778 7.79125 3.78462 7.62702 4.05838 7.416C3.95439 7.22454 3.87637 7.02007 3.82638 6.808C3.68215 6.15982 3.8013 5.48088 4.15761 4.92054C4.51392 4.36019 5.07821 3.96432 5.72638 3.82C6.04736 3.74804 6.37938 3.74013 6.70342 3.79673C7.02746 3.85333 7.33715 3.97332 7.61473 4.14983C7.89231 4.32634 8.13233 4.55589 8.32103 4.82533C8.50973 5.09477 8.6434 5.3988 8.71438 5.72L8.71838 5.758C9.08056 5.80527 9.43704 5.88903 9.78238 6.008C9.77463 5.83607 9.75424 5.66494 9.72138 5.496C9.51769 4.58074 8.95876 3.78388 8.16755 3.28072C7.37633 2.77756 6.41764 2.60931 5.50238 2.813C4.58712 3.01669 3.79025 3.57562 3.28709 4.36683C2.78393 5.15805 2.61569 6.11674 2.81938 7.032Z"  style="mix-blend-mode:normal" fill="url(#linear_fill_SuR0rOVsxu6dHWNjxMETV)" >
</path>
<path d="M11.9948 14.3957C11.1349 15.3767 9.8466 16 8.40661 16C6.99485 16 5.72885 15.4009 4.86948 14.453C4.54326 14.58 4.18658 14.65 3.81288 14.65C2.25958 14.65 1.00038 13.4412 1.00038 11.95C1.00038 10.4588 2.25958 9.25 3.81288 9.25C3.98607 9.25 4.15561 9.26503 4.32016 9.2938C5.12396 7.92463 6.65281 7 8.40661 7C10.1751 7 11.7148 7.94015 12.5131 9.32822C12.7292 9.27711 12.9553 9.25 13.1879 9.25C14.7412 9.25 16.0004 10.4588 16.0004 11.95C16.0004 13.4412 14.7412 14.65 13.1879 14.65C12.7613 14.65 12.357 14.5588 11.9948 14.3957Z"  style="mix-blend-mode:normal" fill="url(#linear_fill_Fk2SjBhdwwyT4-eFZGiXg)" >
</path>
<defs>
<linearGradient id="linear_fill_SuR0rOVsxu6dHWNjxMETV" x1="0.000011444091796875" y1="4.039878845214844" x2="12.530010223388672" y2="4.039878845214844" gradientUnits="userSpaceOnUse">
<stop offset="0" stop-color="#FAA448"  />
<stop offset="1" stop-color="#32B4FA" stop-opacity="0.56" />
</linearGradient>
<linearGradient id="linear_fill_Fk2SjBhdwwyT4-eFZGiXg" x1="1.0003776550292969" y1="11.5" x2="16.000377655029297" y2="11.5" gradientUnits="userSpaceOnUse">
<stop offset="0" stop-color="#FAA448"  />
<stop offset="1" stop-color="#32B4FA" stop-opacity="0.56" />
</linearGradient>
</defs>
</svg>
