<svg xmlns="http://www.w3.org/2000/svg" xmlns:xlink="http://www.w3.org/1999/xlink" width="59.399993896484375" height="59.399993896484375" viewBox="0 0 59.399993896484375 59.399993896484375" fill="none">
<g opacity="0">
<path d="M59.4 59.4L59.4 0L0 0L0 59.4L59.4 59.4Z"   fill="#D8D8D8" >
</path>
</g>
<path d="M20.35 25.28C22.15 25.86 23.84 26.77 25.35 27.99C26.15 28.64 26.29 29.83 25.65 30.66C25.01 31.48 23.84 31.62 23.03 30.97C21.61 29.82 19.97 29.02 18.23 28.63C18.23 28.63 17.72 28.52 17.45 28.48C17.33 28.46 17.07 28.43 17.07 28.43L16.64 28.39C16.64 28.39 16.39 28.37 16.22 28.36L16.17 28.36C16.18 28.36 16.2 28.36 16.22 28.36L16.53 28.38L16.13 28.36L15.7 28.35C9.02001 28.35 3.60001 34.09 3.60001 41.18C3.60001 48.26 9.02001 54 15.7 54C16.01 54 16.64 54 16.64 54L47.36 53.99L47.83 54C53.22 54 57.6 49.53 57.6 44.02C57.6 38.52 53.22 34.05 47.83 34.05C47.32 34.05 46.82 34.09 46.34 34.17C45.52 26.09 39.2 19.8 31.53 19.8C27.07 19.8 23.08 21.92 20.35 25.28ZM16.22 28.36C16.2 28.36 16.18 28.36 16.17 28.36L16.22 28.36ZM16.91 28.41L16.64 28.39C16.64 28.39 16.79 28.4 16.91 28.41Z" fill-rule="evenodd"  fill="#FFFFFF" >
</path>
<path d="M23.508 2.91C23.508 4.51 22.188 5.82 20.568 5.82C18.948 5.82 17.628 4.51 17.628 2.91C17.628 1.3 18.948 0 20.568 0C22.188 0 23.508 1.3 23.508 2.91ZM34.5838 6.2437C35.7338 5.1137 37.5938 5.1137 38.7438 6.2437C39.8838 7.3837 39.8838 9.2237 38.7438 10.3537C37.5938 11.4937 35.7338 11.4937 34.5838 10.3537C33.4338 9.2237 33.4338 7.3837 34.5838 6.2437ZM9.4908 7.213C10.6308 8.353 10.6308 10.193 9.4908 11.323C8.3408 12.463 6.4808 12.463 5.3308 11.323C4.1808 10.193 4.1808 8.353 5.3308 7.213C6.4808 6.083 8.3408 6.083 9.4908 7.213ZM15.254 24.243C15.064 24.233 14.884 24.233 14.694 24.233C12.734 24.233 10.864 24.573 9.124 25.203C8.924 24.263 8.814 23.293 8.814 22.293C8.814 14.793 14.954 8.723 22.524 8.723C27.714 8.723 32.224 11.573 34.554 15.783C33.514 15.603 32.434 15.503 31.344 15.503C24.794 15.503 18.844 18.873 15.254 24.243ZM2.94 19.385C4.56 19.385 5.88 20.685 5.88 22.295C5.88 23.895 4.56 25.205 2.94 25.205C1.32 25.205 0 23.895 0 22.295C0 20.685 1.32 19.385 2.94 19.385Z" fill-rule="evenodd"  fill="#D8B63A" >
</path>
</svg>
