<svg xmlns="http://www.w3.org/2000/svg" xmlns:xlink="http://www.w3.org/1999/xlink" width="59.8499755859375" height="48.0625" viewBox="0 0 59.8499755859375 48.0625" fill="none">
<path d="M0.93 22.84C4.08 19.07 8.83 16.65 14.17 16.65L14.75 16.66C18.46 11.23 24.61 7.84 31.37 7.84C33.55 7.84 35.64 8.19 37.61 8.83C35.66 3.66 30.81 0 25.12 0C19.91 0 15.39 3.09 13.18 7.59C12.44 7.43 11.67 7.35 10.89 7.35C4.87 7.35 0 12.28 0 18.37C0 19.96 0.33 21.48 0.93 22.84Z"   fill="#757A9D" >
</path>
<path d="M17.5899 20.8925L17.2099 20.8225C17.0899 20.8025 16.9299 20.7825 16.7099 20.7525L16.2699 20.7125C16.2699 20.7125 16.1799 20.7025 16.0699 20.7025L15.7099 20.6825L15.2899 20.6725C8.17992 20.6725 2.41992 26.8025 2.41992 34.3625C2.41992 41.9325 8.17992 48.0625 15.2899 48.0625C15.6199 48.0625 16.2799 48.0625 16.2799 48.0625L48.9599 48.0525L49.4599 48.0625C55.1899 48.0625 59.8499 43.2925 59.8499 37.4125C59.8499 31.5225 55.1899 26.7625 49.4599 26.7625C48.9199 26.7625 48.3899 26.8025 47.8699 26.8825C46.9999 18.2525 40.2799 11.5425 32.1199 11.5425C27.3899 11.5425 23.1399 13.8025 20.2299 17.3925C22.1499 18.0125 23.9399 18.9925 25.5499 20.2825C26.3999 20.9825 26.5499 22.2525 25.8699 23.1325C25.1899 24.0125 23.9399 24.1625 23.0899 23.4625C21.5699 22.2325 19.8199 21.3825 17.9599 20.9725C17.9599 20.9725 17.6799 20.9025 17.5899 20.8925ZM17.2099 20.8225C17.2199 20.8225 17.2199 20.8225 17.2299 20.8225L17.1499 20.8125L17.2099 20.8225ZM16.5799 20.7425C16.4399 20.7225 16.2699 20.7125 16.2699 20.7125L16.5799 20.7425ZM17.5499 20.8825C17.4599 20.8625 17.3599 20.8425 17.2299 20.8225L17.5499 20.8825ZM16.0599 20.6925C15.9899 20.6925 15.9199 20.6925 15.8599 20.6825L16.0599 20.6925ZM16.0699 20.7025L16.1499 20.7025L16.0599 20.6925C16.0699 20.6925 16.0699 20.7025 16.0699 20.7025Z" fill-rule="evenodd"  fill="#FFFFFF" >
</path>
</svg>
