<svg xmlns="http://www.w3.org/2000/svg" xmlns:xlink="http://www.w3.org/1999/xlink" width="16" height="16" viewBox="0 0 16 16" fill="none">
<path     fill="#000000" fill-opacity="0" d="M0 16L16 16L16 0L0 0L0 16Z">
</path>
<path d="M5.06301 9C5.28503 9.86261 6.06808 10.5 7 10.5L7.66668 10.5L7.94449 13.0003C6.62737 13.0148 5.02637 13.5393 3.60765 14.1458L3.33334 12.5L4 12.5C4.93192 12.5 5.71497 11.8626 5.93699 11C5.97812 10.8402 6 10.6726 6 10.5L5 10.5C4.06808 10.5 3.28503 11.1374 3.06301 12C3.02188 12.1598 3 12.3274 3 12.5C3 12.3274 2.97812 12.1598 2.93699 12C2.71497 11.1374 1.93192 10.5 1 10.5L0 10.5C0 10.6726 0.0218766 10.8402 0.0630088 11C0.28503 11.8626 1.06808 12.5 2 12.5L2.66668 12.5L2.98686 14.4211C2.40363 14.6888 1.86711 14.9598 1.41456 15.2C0.556248 15.6555 0 16 0 16L16 16C16 16 15.4438 15.6555 14.5854 15.2C14.2829 15.0394 13.9428 14.8651 13.5764 14.6872L13.3333 12.5L14 12.5C14.9319 12.5 15.715 11.8626 15.937 11C15.9781 10.8402 16 10.6726 16 10.5L15 10.5C14.0681 10.5 13.285 11.1374 13.063 12C13.0219 12.1598 13 12.3274 13 12.5C13 12.3274 12.9781 12.1598 12.937 12C12.715 11.1374 11.9319 10.5 11 10.5L10 10.5C10 10.6726 10.0219 10.8402 10.063 11C10.285 11.8626 11.0681 12.5 12 12.5L12.6667 12.5L12.873 14.3573C11.5338 13.7519 9.96955 13.1778 8.61492 13.0342L8.33334 10.5L9 10.5C9.93192 10.5 10.715 9.86261 10.937 9C10.9781 8.84019 11 8.67265 11 8.5L10 8.5C9.06808 8.5 8.28503 9.13739 8.06301 10C8.02188 10.1598 8 10.3274 8 10.5C8 10.3274 7.97812 10.1598 7.93699 10C7.71497 9.13739 6.93192 8.5 6 8.5L5 8.5C5 8.67265 5.02188 8.84019 5.06301 9ZM6 9C6.65311 9 7.20873 9.4174 7.41465 10L7 10C6.34689 10 5.79127 9.5826 5.58535 9L6 9ZM8.58535 10C8.79127 9.4174 9.34689 9 10 9L10.4146 9C10.2087 9.5826 9.65311 10 9 10L8.58535 10ZM1 11C1.65311 11 2.20873 11.4174 2.41465 12L2 12C1.34689 12 0.791271 11.5826 0.585353 11L1 11ZM3.58535 12C3.79127 11.4174 4.34689 11 5 11L5.41465 11C5.20873 11.5826 4.65311 12 4 12L3.58535 12ZM12.4146 12L12 12C11.3469 12 10.7913 11.5826 10.5854 11L11 11C11.6531 11 12.2087 11.4174 12.4146 12ZM15 11L15.4146 11C15.2087 11.5826 14.6531 12 14 12L13.5854 12C13.7913 11.4174 14.3469 11 15 11ZM8 13.8C9.32509 13.8 11.14 14.4533 12.7406 15.2L3.25939 15.2C4.85999 14.4533 6.67491 13.8 8 13.8Z"  style="mix-blend-mode:normal" fill="url(#linear_fill_Wk_eqJ7DjrIONVDuXGP-w)" >
</path>
<path d="M8.22731 0.630706C8.12681 0.456432 7.87319 0.456431 7.77269 0.630706L4.03488 7.11189C3.93515 7.28482 4.06117 7.5 4.2622 7.5L11.7378 7.5C11.9388 7.5 12.0649 7.28483 11.9651 7.11189L8.22731 0.630706ZM7.37744 2.7743C7.34539 2.49246 7.6333 2.25 8 2.25C8.3667 2.25 8.65461 2.49246 8.62256 2.7743L8.34109 5.25L7.65891 5.25L7.37744 2.7743ZM8.50389 6.25001C8.50389 6.52615 8.28004 6.75001 8.00389 6.75001C7.72775 6.75001 7.50389 6.52615 7.50389 6.25001C7.50389 5.97386 7.72775 5.75001 8.00389 5.75001C8.28004 5.75001 8.50389 5.97386 8.50389 6.25001Z"  style="mix-blend-mode:normal" fill="url(#linear_fill_WYhhNfpmZMjeOLkGI2P8N)" >
</path>
<defs>
<linearGradient id="linear_fill_Wk_eqJ7DjrIONVDuXGP-w" x1="0" y1="12.25" x2="16" y2="12.25" gradientUnits="userSpaceOnUse">
<stop offset="0" stop-color="#36F7BD"  />
<stop offset="1" stop-color="#FA1E6F" stop-opacity="0.88" />
</linearGradient>
<linearGradient id="linear_fill_WYhhNfpmZMjeOLkGI2P8N" x1="4" y1="4" x2="12" y2="4" gradientUnits="userSpaceOnUse">
<stop offset="0" stop-color="#57F28B" stop-opacity="0.74" />
<stop offset="1" stop-color="#FA2A2A" stop-opacity="0.74" />
</linearGradient>
</defs>
</svg>
