<svg xmlns="http://www.w3.org/2000/svg" xmlns:xlink="http://www.w3.org/1999/xlink" width="18" height="18" viewBox="0 0 18 18" fill="none">
<path  transform="matrix(-1, 0, 0, 1, 9, 1)"   fill="#000000" fill-opacity="0" d="M0 8L8 8L8 0L0 0L0 8Z">
</path>
<path d="M5.46437 3.46666C5.46437 3.20893 5.25529 3 4.99736 3C4.73944 3 4.53035 3.20893 4.53035 3.46666L4.53035 4.19171L3.90199 3.82919C3.67862 3.70033 3.393 3.77679 3.26404 4C3.13508 4.22321 3.21161 4.50862 3.43498 4.63748L4.06334 5L3.43498 5.36252C3.21161 5.49138 3.13508 5.77679 3.26404 6C3.393 6.22321 3.67862 6.29967 3.90199 6.17081L4.53035 5.80829L4.53035 6.53334C4.53035 6.79107 4.73944 7 4.99736 7C5.25529 7 5.46437 6.79107 5.46437 6.53334L5.46437 5.8083L6.09274 6.17082C6.31611 6.29968 6.60173 6.22321 6.73069 6C6.85965 5.77679 6.78312 5.49138 6.55975 5.36252L5.93139 5L6.55975 4.63748C6.78312 4.50862 6.85965 4.22321 6.73069 4C6.60173 3.77679 6.31611 3.70032 6.09274 3.82918L5.46437 4.1917L5.46437 3.46666Z"  style="mix-blend-mode:normal" fill="url(#linear_fill_-fhixqeIyQ6M7SVMtlB2C)" >
</path>
<path d="M1.6755 2.87172L4.825 1.04759C4.87815 1.01643 4.93864 1 5.00025 1C5.06186 1 5.12235 1.01643 5.1755 1.04759L8.3245 2.87172C8.37783 2.90269 8.42211 2.94711 8.45291 3.00055C8.4837 3.05398 8.49994 3.11457 8.5 3.17624L8.5 6.8245C8.5 6.95001 8.433 7.06602 8.3245 7.12902L5.1755 8.95316C5.12244 8.98457 5.06191 9.00115 5.00025 9.00115C4.93859 9.00115 4.87806 8.98457 4.825 8.95316L1.676 7.12902C1.62251 7.0982 1.57807 7.05382 1.54718 7.00036C1.51628 6.9469 1.50001 6.88625 1.5 6.8245L1.5 3.17624C1.50006 3.11457 1.5163 3.05398 1.54709 3.00055C1.57789 2.94711 1.62217 2.90269 1.6755 2.87172L1.6755 2.87172ZM2.2015 6.62149L5 8.24261L7.7985 6.62149L7.7985 3.37976L5 1.75814L2.2015 3.37926L2.2015 6.62149L2.2015 6.62149Z"  style="mix-blend-mode:normal" fill="url(#linear_fill_FC0iEh7XBdrt-Djuag2sW)" >
</path>
<path d="M10.9172 9.5763L11.4787 9.26763L11.9928 3.39152C12.0554 2.67629 12.6859 2.1472 13.4012 2.20977C14.1164 2.27235 14.6455 2.90289 14.5829 3.61813L14.0688 9.49423L14.5682 9.89572C15.4005 10.5648 15.8905 11.6195 15.7909 12.7582C15.6321 14.5738 14.0314 15.9169 12.2158 15.758C10.8495 15.6385 9.75082 14.7025 9.35841 13.4727L8.24026 13.9147C8.79627 15.5532 10.2769 16.793 12.1113 16.9535C14.5871 17.1701 16.7697 15.3386 16.9863 12.8628C17.1223 11.3085 16.4511 9.86978 15.3201 8.96048L15.7783 3.72272C15.8987 2.34726 14.8812 1.13468 13.5057 1.01434C12.1303 0.894004 10.9177 1.91148 10.7974 3.28694L10.3391 8.5247C9.59245 8.93515 8.97021 9.55284 8.55614 10.3075L9.58038 10.9368C9.88327 10.3599 10.3508 9.88766 10.9172 9.5763ZM10.5723 12.993L12.0054 12.4266L10.6927 11.6201C10.9698 11.0303 11.5239 10.6054 12.1742 10.4974L12.354 8.44222C12.378 8.16713 12.6206 7.96364 12.8957 7.9877C13.1707 8.01177 13.3742 8.25429 13.3502 8.52938L13.1704 10.5845C14.0104 10.8809 14.5771 11.7165 14.4958 12.6449C14.3996 13.7453 13.4295 14.5592 12.3291 14.463C11.4699 14.3878 10.7852 13.7798 10.5723 12.993ZM8.02116 12.0717C8.02097 12.0739 8.02077 12.0762 8.02058 12.0784C8.02038 12.0806 8.02019 12.0828 8.02 12.085L8.02116 12.0717Z" fill-rule="evenodd" style="mix-blend-mode:normal" fill="url(#linear_fill_LVu5lAWYElerIivijGnaJ)" >
</path>
<path d="M1.5223 10.6917L1.2 11.0708L3.88689 13.8558L5.53085 12.0834L6.26242 13.4187L8.18915 11.9748L10.6396 12.5476L8.05189 10.923L6.70396 11.6615L5.40135 10.3114L3.66897 12.1791L1.5223 10.6917Z"  style="mix-blend-mode:normal" fill="url(#linear_fill_GkRM4NX4bKSgMxKcJwoxT)" >
</path>
<path fill-rule="evenodd" transform="translate(1, 1)" fill="url(#linear_border_TKhLPBEHlC517aLLkT_or_0)"  d="M-1 17L-1 -1L17 -1L17 17L-1 17ZM16 16L0 16L0 0L16 0L16 16Z">
</path>
<defs>
<linearGradient id="linear_border_TKhLPBEHlC517aLLkT_or_0" x1="0" y1="0" x2="0" y2="0" gradientUnits="userSpaceOnUse">
</linearGradient>
<linearGradient id="linear_fill_-fhixqeIyQ6M7SVMtlB2C" x1="6.7933349609375" y1="5" x2="3.20404052734375" y2="5" gradientUnits="userSpaceOnUse">
<stop offset="0" stop-color="#CBFA20"  />
<stop offset="1" stop-color="#EF32FC" stop-opacity="0" />
</linearGradient>
<linearGradient id="linear_fill_FC0iEh7XBdrt-Djuag2sW" x1="8.5" y1="5.0002899169921875" x2="1.5" y2="5.0002899169921875" gradientUnits="userSpaceOnUse">
<stop offset="0" stop-color="#CBFA20"  />
<stop offset="1" stop-color="#EF32FC" stop-opacity="0" />
</linearGradient>
<linearGradient id="linear_fill_LVu5lAWYElerIivijGnaJ" x1="8.02001953125" y1="8.989677429199219" x2="17" y2="8.989677429199219" gradientUnits="userSpaceOnUse">
<stop offset="0" stop-color="#CBFA20"  />
<stop offset="1" stop-color="#EF32FC" stop-opacity="0" />
</linearGradient>
<linearGradient id="linear_fill_GkRM4NX4bKSgMxKcJwoxT" x1="1.20001220703125" y1="12.081375122070312" x2="10.6400146484375" y2="12.081375122070312" gradientUnits="userSpaceOnUse">
<stop offset="0" stop-color="#CBFA20"  />
<stop offset="1" stop-color="#EF32FC" stop-opacity="0" />
</linearGradient>
</defs>
</svg>
