<svg xmlns="http://www.w3.org/2000/svg" xmlns:xlink="http://www.w3.org/1999/xlink" width="16" height="16" viewBox="0 0 16 16" fill="none">
<path     fill="#000000" fill-opacity="0" d="M0 16L16 16L16 0L0 0L0 16Z">
</path>
<path d="M11.7727 0.630706C11.8732 0.456431 12.1268 0.456432 12.2273 0.630706L15.9651 7.11189C16.0649 7.28483 15.9388 7.5 15.7378 7.5L8.2622 7.5C8.06117 7.5 7.93515 7.28482 8.03488 7.11189L11.7727 0.630706ZM12 2.25C11.6333 2.25 11.3454 2.49246 11.3774 2.7743L11.6589 5.25L12.3411 5.25L12.6226 2.7743C12.6546 2.49246 12.3667 2.25 12 2.25ZM12.0039 6.75001C12.28 6.75001 12.5039 6.52615 12.5039 6.25001C12.5039 5.97386 12.28 5.75001 12.0039 5.75001C11.7278 5.75001 11.5039 5.97386 11.5039 6.25001C11.5039 6.52615 11.7278 6.75001 12.0039 6.75001ZM2.7684 7.73205L3.63443 7.23205C4.44149 6.76609 4.80094 5.82257 4.56191 4.96452C4.51763 4.80555 4.4528 4.64952 4.36648 4.5L3.50045 5C2.69339 5.46596 2.33394 6.40948 2.57297 7.26753C2.61724 7.42646 2.68211 7.58257 2.7684 7.73205ZM3.75045 5.43301L4.10955 5.22569C4.22251 5.83319 3.95004 6.47248 3.38443 6.79904L3.02533 7.00636C2.91236 6.39886 3.18484 5.75957 3.75045 5.43301ZM0.0630088 7.5C0.28503 8.36261 1.06808 9 2 9L3 9L4 9C4.93192 9 5.71497 8.36261 5.93699 7.5C5.97812 7.34019 6 7.17265 6 7L5 7C4.06808 7 3.28503 7.63739 3.06301 8.5C3.02188 8.65981 3 8.82735 3 9C3 8.82735 2.97812 8.65981 2.93699 8.5C2.71497 7.63739 1.93192 7 1 7L0 7C0 7.17265 0.0218766 7.34019 0.0630088 7.5ZM1 7.5C1.65311 7.5 2.20873 7.9174 2.41465 8.5L2 8.5C1.34689 8.5 0.791271 8.0826 0.585353 7.5L1 7.5ZM5 7.5L5.41465 7.5C5.20873 8.0826 4.65311 8.5 4 8.5L3.58535 8.5C3.79127 7.9174 4.34689 7.5 5 7.5ZM16 9.48999L16 15.9966L0 15.9966L0 9.52042L0.380952 9.52042C2.28812 9.52042 3.53765 9.55864 4.77439 9.73176C5.98557 9.90131 7.17303 10.1986 8.94409 10.7027C10.8773 10.0701 12.9881 9.72168 15.5898 9.52154L16 9.48999ZM7.71791 11.1519C6.49801 10.8209 5.58698 10.6148 4.66877 10.4863C3.94059 10.3844 3.20336 10.3306 2.29903 10.3043C2.59346 10.4455 2.85805 10.5862 3.11547 10.7407C3.76341 11.1294 4.3558 11.5993 5.26357 12.3622C6.07594 11.8908 6.88453 11.4909 7.71791 11.1519ZM4.57424 12.7787C3.78322 12.1184 3.27072 11.7224 2.72347 11.394C2.20172 11.081 1.64052 10.8248 0.761905 10.4659L0.761905 15.2347L1.19766 15.2347C2.38817 14.2686 3.49173 13.4581 4.57424 12.7787ZM2.42163 15.2347L5.93121 15.2347C8.06062 13.0019 10.2805 11.6991 12.8703 10.584C11.476 10.7906 10.238 11.0733 9.07312 11.4625C6.80281 12.2212 4.78683 13.3927 2.42163 15.2347ZM13.6769 11.0706C11.1366 12.1232 9.01635 13.2839 7.00392 15.2347L10.6301 15.2347C11.3105 13.9848 11.8952 13.0607 12.5942 12.2219C12.9247 11.8252 13.2786 11.4503 13.6769 11.0706ZM11.5002 15.2347L15.2374 15.2347L15.2381 10.7041C14.3808 11.4205 13.7409 12.036 13.1795 12.7097C12.5917 13.415 12.0823 14.1935 11.5002 15.2347Z" fill-rule="evenodd" style="mix-blend-mode:normal" fill="url(#linear_fill_f1cVVhN3c3K7QHHRXvnnT)" >
</path>
<defs>
<linearGradient id="linear_fill_f1cVVhN3c3K7QHHRXvnnT" x1="0" y1="8.25" x2="16" y2="8.25" gradientUnits="userSpaceOnUse">
<stop offset="0" stop-color="#36F7BD"  />
<stop offset="1" stop-color="#FA1E6F" stop-opacity="0.88" />
</linearGradient>
</defs>
</svg>
