<svg xmlns="http://www.w3.org/2000/svg" xmlns:xlink="http://www.w3.org/1999/xlink" width="16" height="16" viewBox="0 0 16 16" fill="none">
<path     fill="#000000" fill-opacity="0" d="M0 16L16 16L16 0L0 0L0 16Z">
</path>
<path d="M12.9997 4.23205L12.1336 3.73205C11.3266 3.26609 10.9671 2.32257 11.2062 1.46452C11.2504 1.30555 11.3153 1.14952 11.4016 1L12.2676 1.5C13.0747 1.96596 13.4341 2.90948 13.1951 3.76753C13.1508 3.92646 13.086 4.08257 12.9997 4.23205ZM12.0176 1.93301L11.6585 1.72569C11.5456 2.33319 11.818 2.97248 12.3836 3.29904L12.7427 3.50636C12.8557 2.89886 12.5832 2.25957 12.0176 1.93301ZM10.0631 4.50001C10.2851 5.36263 11.0682 6.00001 12.0001 6.00001L13.9999 6.00001C14.9318 6.00001 15.7149 5.36263 15.9369 4.50001C15.978 4.3402 15.9999 4.17266 15.9999 4.00001L14.9999 4.00001C14.068 4.00001 13.2849 4.6374 13.0629 5.50001C13.0232 5.65423 13.0015 5.81564 13 5.9819C12.9985 5.81564 12.9768 5.65423 12.9371 5.50001C12.7151 4.6374 11.932 4.00001 11.0001 4.00001L10.0001 4.00001C10.0001 4.17266 10.022 4.3402 10.0631 4.50001ZM11.0001 4.50001C11.6532 4.50001 12.2088 4.91742 12.4147 5.50001L12.0001 5.50001C11.347 5.50001 10.7914 5.08261 10.5854 4.50001L11.0001 4.50001ZM14.9999 4.50001L15.4146 4.50001C15.2086 5.08261 14.653 5.50001 13.9999 5.50001L13.5853 5.50001C13.7912 4.91742 14.3468 4.50001 14.9999 4.50001ZM13.9999 8.00001C14.9318 8.00001 15.7149 7.36263 15.9369 6.50001C15.978 6.3402 15.9999 6.17266 15.9999 6.00001L14.9999 6.00001C14.068 6.00001 13.2849 6.6374 13.0629 7.50001C13.0232 7.65423 13.0015 7.81564 13 7.9819C12.9985 7.81564 12.9768 7.65423 12.9371 7.50001C12.7151 6.6374 11.932 6.00001 11.0001 6.00001L10.0001 6.00001C10.0001 6.17266 10.022 6.3402 10.0631 6.50001C10.2851 7.36263 11.0682 8.00001 12.0001 8.00001L13.9999 8.00001ZM13.5853 7.50001C13.7912 6.91742 14.3468 6.50001 14.9999 6.50001L15.4146 6.50001C15.2086 7.08261 14.653 7.50001 13.9999 7.50001L13.5853 7.50001ZM11.0001 6.50001C11.6532 6.50001 12.2088 6.91742 12.4147 7.50001L12.0001 7.50001C11.347 7.50001 10.7914 7.08261 10.5854 6.50001L11.0001 6.50001ZM13.0907 14.4555C14.6678 14.333 16 14 16 14L16 16L0 16L0 14C0 14 1 13.5 3.5 13.5C4.81966 13.5 6.55728 13.7786 8.19807 14.0418C9.66563 14.2771 11.0557 14.5 12 14.5C12.0278 14.5 12.0556 14.4999 12.0834 14.4997L12.5 12L12 12C11.0681 12 10.285 11.3626 10.063 10.5C10.0219 10.3402 10 10.1726 10 10L11 10C11.9319 10 12.715 10.6374 12.937 11.5C12.9781 11.6598 13 11.8274 13 12C13 11.8274 13.0219 11.6598 13.063 11.5C13.285 10.6374 14.0681 10 15 10L16 10C16 10.1726 15.9781 10.3402 15.937 10.5C15.715 11.3626 14.9319 12 14 12L13.5 12L13.0907 14.4555ZM12.4146 11.5C12.2087 10.9174 11.6531 10.5 11 10.5L10.5854 10.5C10.7913 11.0826 11.3469 11.5 12 11.5L12.4146 11.5ZM15 10.5C14.3469 10.5 13.7913 10.9174 13.5854 11.5L14 11.5C14.6531 11.5 15.2087 11.0826 15.4146 10.5L15 10.5ZM12 10C11.0681 10 10.285 9.36261 10.063 8.5C10.0219 8.34019 10 8.17265 10 8L11 8C11.9319 8 12.715 8.63739 12.937 9.5C12.9781 9.65981 13 9.82735 13 10L12 10ZM12.4146 9.5C12.2087 8.9174 11.6531 8.5 11 8.5L10.5854 8.5C10.7913 9.0826 11.3469 9.5 12 9.5L12.4146 9.5ZM13 10C13 9.82735 13.0219 9.65981 13.063 9.5C13.285 8.63739 14.0681 8 15 8L16 8C16 8.17265 15.9781 8.34019 15.937 8.5C15.715 9.36261 14.9319 10 14 10L13 10ZM15 8.5C14.3469 8.5 13.7913 8.9174 13.5854 9.5L14 9.5C14.6531 9.5 15.2087 9.0826 15.4146 8.5L15 8.5Z" fill-rule="evenodd" style="mix-blend-mode:normal" fill="url(#linear_fill_RhSGBEN7vDMMghFyWXld3)" >
</path>
<path d="M6.23182 6.02365C6.38791 5.41718 6.93811 4.96875 7.59375 4.96875C8.3704 4.96875 9 5.59835 9 6.375C9 7.16097 8.30209 7.78125 7.59375 7.78125L0.28125 7.78125C0.12592 7.78125 0 7.65533 0 7.5C0 7.34467 0.12592 7.21875 0.28125 7.21875L7.59375 7.21875C8.01041 7.21875 8.4375 6.83167 8.4375 6.375C8.4375 5.90901 8.05974 5.53125 7.59375 5.53125C7.20098 5.53125 6.87025 5.79988 6.77657 6.16385C6.73785 6.31428 6.58452 6.40484 6.43409 6.36612C6.28366 6.32741 6.1931 6.17407 6.23182 6.02365ZM2.25 8.34375C2.25 8.18842 2.37592 8.0625 2.53125 8.0625L7.03125 8.0625C7.65257 8.0625 8.15625 8.56618 8.15625 9.1875C8.15625 9.80882 7.65257 10.3125 7.03125 10.3125C6.54098 10.3125 6.12464 9.99904 5.97034 9.56248C5.91857 9.41602 5.99533 9.25534 6.14179 9.20358C6.28824 9.15181 6.44892 9.22857 6.50068 9.37502C6.57804 9.59388 6.78677 9.75 7.03125 9.75C7.34191 9.75 7.59375 9.49816 7.59375 9.1875C7.59375 8.87684 7.34191 8.625 7.03125 8.625L2.53125 8.625C2.37592 8.625 2.25 8.49908 2.25 8.34375ZM1.125 9.46875L4.5 9.46875C4.81066 9.46875 5.0625 9.72059 5.0625 10.0312C5.0625 10.3419 4.81066 10.5938 4.5 10.5938C4.25552 10.5938 4.04679 10.4376 3.96943 10.2188C3.91767 10.0723 3.75699 9.99556 3.61054 10.0473C3.46408 10.0991 3.38732 10.2598 3.43909 10.4062C3.59339 10.8428 4.00973 11.1562 4.5 11.1562C5.12132 11.1562 5.625 10.6526 5.625 10.0312C5.625 9.40993 5.12132 8.90625 4.5 8.90625L1.125 8.90625C0.96967 8.90625 0.84375 9.03217 0.84375 9.1875C0.84375 9.34283 0.96967 9.46875 1.125 9.46875Z" fill-rule="evenodd" style="mix-blend-mode:normal" fill="url(#linear_fill_9mIx8VpIWqE8gXoviz9Gk)" >
</path>
<path d="M4.79727 6.37392C4.76429 6.40494 4.74576 6.447 4.74576 6.49087C4.74576 6.53473 4.76429 6.5768 4.79727 6.60781C4.83025 6.63883 4.87497 6.65625 4.92161 6.65625L5.44915 6.65625C5.49579 6.65625 5.54052 6.63883 5.5735 6.60781C5.60647 6.5768 5.625 6.53473 5.625 6.49087C5.625 6.447 5.60647 6.40494 5.5735 6.37392C5.54052 6.34291 5.49579 6.32548 5.44915 6.32548L4.92161 6.32548C4.87497 6.32548 4.83025 6.34291 4.79727 6.37392ZM4.14305 5.02486C4.13418 5.0449 4.12961 5.06638 4.1296 5.08809C4.12953 5.12084 4.14016 5.15321 4.15948 5.18046C4.1788 5.20771 4.20629 5.22895 4.23846 5.24149C4.27063 5.25404 4.30603 5.25731 4.34019 5.25091C4.37434 5.2445 4.4057 5.2287 4.43029 5.20551L4.80274 4.85391C4.83477 4.82272 4.85249 4.78094 4.85209 4.73758C4.85169 4.69421 4.8332 4.65273 4.8006 4.62207C4.76799 4.59141 4.72389 4.57402 4.67778 4.57364C4.63168 4.57326 4.58726 4.58993 4.55409 4.62006L4.18129 4.97133C4.16492 4.98663 4.15193 5.00482 4.14305 5.02486ZM2.63911 4.00913L2.63911 4.50528C2.63911 4.54914 2.65764 4.59121 2.69062 4.62222C2.7236 4.65324 2.76832 4.67066 2.81496 4.67066C2.8616 4.67066 2.90633 4.65324 2.9393 4.62222C2.97228 4.59121 2.99081 4.54914 2.99081 4.50528L2.99081 4.00913C2.99081 3.96527 2.97228 3.9232 2.9393 3.89219C2.90633 3.86117 2.8616 3.84375 2.81496 3.84375C2.76832 3.84375 2.7236 3.86117 2.69062 3.89219C2.65764 3.9232 2.63911 3.96527 2.63911 4.00913ZM0.803615 4.6418C0.784297 4.66905 0.774017 4.70109 0.774079 4.73384C0.774092 4.75555 0.778666 4.77704 0.787538 4.79707C0.796411 4.81711 0.809406 4.8353 0.825778 4.8506L1.19857 5.20187C1.23174 5.232 1.27616 5.24867 1.32227 5.24829C1.36837 5.24792 1.41248 5.23052 1.44508 5.19986C1.47768 5.1692 1.49618 5.12772 1.49658 5.08435C1.49698 5.04099 1.47925 4.99921 1.44722 4.96802L1.07443 4.61675C1.04983 4.59356 1.01847 4.57776 0.984319 4.57136C0.950166 4.56495 0.914761 4.56823 0.88259 4.58077C0.850419 4.59331 0.822933 4.61455 0.803615 4.6418ZM0.0515043 6.36962C0.0185266 6.40064 -1.47128e-16 6.44271 -1.46706e-16 6.48657C-1.46284e-16 6.53043 0.0185266 6.5725 0.0515043 6.60351C0.084482 6.63453 0.12921 6.65195 0.175847 6.65195L0.703389 6.65195C0.750026 6.65195 0.794754 6.63453 0.827731 6.60351C0.860709 6.5725 0.879236 6.53043 0.879236 6.48657C0.879236 6.44271 0.860709 6.40064 0.827731 6.36962C0.794754 6.33861 0.750026 6.32119 0.703389 6.32119L0.175847 6.32119C0.12921 6.32119 0.084482 6.33861 0.0515043 6.36962ZM1.23948 6.65319C1.22175 6.50259 1.2285 6.3495 1.26029 6.19927C1.32135 5.91065 1.47208 5.64553 1.69342 5.43745C1.91475 5.22936 2.19675 5.08766 2.50375 5.03025C2.81074 4.97284 3.12896 5.0023 3.41814 5.11492C3.70733 5.22753 3.9545 5.41824 4.12841 5.66292C4.30231 5.9076 4.39513 6.19527 4.39513 6.48954C4.39513 6.54448 4.39189 6.59911 4.38553 6.65319L1.23948 6.65319Z" fill-rule="evenodd" style="mix-blend-mode:normal" fill="url(#linear_fill_Hy17i8AmUzamx7Cfwp6-w)" >
</path>
<defs>
<linearGradient id="linear_fill_RhSGBEN7vDMMghFyWXld3" x1="0" y1="8.5" x2="16" y2="8.5" gradientUnits="userSpaceOnUse">
<stop offset="0" stop-color="#36F7BD"  />
<stop offset="1" stop-color="#FA1E6F" stop-opacity="0.88" />
</linearGradient>
<linearGradient id="linear_fill_9mIx8VpIWqE8gXoviz9Gk" x1="0" y1="8.0625" x2="9" y2="8.0625" gradientUnits="userSpaceOnUse">
<stop offset="0" stop-color="#57F28B" stop-opacity="0.74" />
<stop offset="1" stop-color="#FA2A2A" stop-opacity="0.74" />
</linearGradient>
<linearGradient id="linear_fill_Hy17i8AmUzamx7Cfwp6-w" x1="0" y1="5.25" x2="5.625" y2="5.25" gradientUnits="userSpaceOnUse">
<stop offset="0" stop-color="#57F28B" stop-opacity="0.74" />
<stop offset="1" stop-color="#FA2A2A" stop-opacity="0.74" />
</linearGradient>
</defs>
</svg>
