<svg xmlns="http://www.w3.org/2000/svg" xmlns:xlink="http://www.w3.org/1999/xlink" width="16" height="16" viewBox="0 0 16 16" fill="none">
<path d="M10.2817 1.3261C10.1362 1.156 9.8972 1.1052 9.69506 1.20141L2.30285 4.71944C1.86546 4.9276 1.93485 5.58159 2.40493 5.68151L3.87121 5.99317L2.40879 12.8733C3.26605 12.993 4.07178 13.0233 5.16707 13.0001C5.31689 12.9969 5.46165 12.9898 5.60221 12.9791L6.21642 10.0895C6.27383 9.81934 6.53934 9.64692 6.80945 9.70433L9.74389 10.3281C10.014 10.3855 10.1864 10.651 10.129 10.9211L9.88347 12.0763C10.1752 12.0391 10.4837 12.0144 10.8141 12.0074C11.5736 11.9913 12.2048 12.0005 12.8082 12.0455L13.6527 8.07229L15.1193 8.38404C15.5894 8.48396 15.9188 7.91473 15.6039 7.54666L10.2817 1.3261Z"  style="mix-blend-mode:normal" fill="url(#linear_fill_oAVTUnE-IUCpz69BqOvZv)" >
</path>
<path d="M10.8329 12.9999C12.6419 12.9616 13.661 13.0691 15.4269 13.4845C15.6806 13.5441 15.9321 13.3756 15.9886 13.108C16.0452 12.8405 15.8854 12.5752 15.6317 12.5155C13.7924 12.0829 12.6982 11.9675 10.8141 12.0074C9.64039 12.0322 8.74221 12.2811 7.89227 12.5166L7.88043 12.5199C7.028 12.7561 6.22321 12.9778 5.16707 13.0001C3.35813 13.0384 2.33903 12.9309 0.5731 12.5155C0.319434 12.4559 0.0679444 12.6244 0.0113812 12.892C-0.045182 13.1595 0.114601 13.4248 0.368267 13.4845C2.2076 13.9171 3.30181 14.0325 5.18594 13.9926C6.3596 13.9678 7.25779 13.7189 8.10773 13.4834L8.11957 13.4801C8.972 13.2439 9.77679 13.0222 10.8329 12.9999ZM10.8329 14.9999C12.6419 14.9616 13.661 15.0691 15.4269 15.4845C15.6806 15.5441 15.9321 15.3756 15.9886 15.108C16.0452 14.8405 15.8854 14.5752 15.6317 14.5155C13.7924 14.0829 12.6982 13.9675 10.8141 14.0074C9.64039 14.0322 8.74221 14.2811 7.89227 14.5166L7.88043 14.5199C7.028 14.7561 6.22321 14.9778 5.16707 15.0001C3.35813 15.0384 2.33903 14.9309 0.5731 14.5155C0.319434 14.4559 0.0679444 14.6244 0.0113812 14.892C-0.045182 15.1595 0.114601 15.4248 0.368267 15.4845C2.2076 15.9171 3.30181 16.0325 5.18594 15.9926C6.3596 15.9678 7.25779 15.7189 8.10773 15.4834L8.11957 15.4801C8.972 15.2439 9.77679 15.0222 10.8329 14.9999Z" fill-rule="evenodd" style="mix-blend-mode:normal" fill="url(#linear_fill_WSaY9WKcKcLs7f8pdAsX3)" >
</path>
<defs>
<linearGradient id="linear_fill_oAVTUnE-IUCpz69BqOvZv" x1="2.01055908203125" y1="7.0782470703125" x2="15.73052978515625" y2="7.0782470703125" gradientUnits="userSpaceOnUse">
<stop offset="0" stop-color="#36F7BD"  />
<stop offset="1" stop-color="#FA1E6F" stop-opacity="0.88" />
</linearGradient>
<linearGradient id="linear_fill_WSaY9WKcKcLs7f8pdAsX3" x1="0" y1="14" x2="16" y2="14" gradientUnits="userSpaceOnUse">
<stop offset="0" stop-color="#36F7BD"  />
<stop offset="1" stop-color="#FA1E6F" stop-opacity="0.88" />
</linearGradient>
</defs>
</svg>
