<svg xmlns="http://www.w3.org/2000/svg" xmlns:xlink="http://www.w3.org/1999/xlink" width="16" height="16" viewBox="0 0 16 16" fill="none">
<path     fill="#000000" fill-opacity="0" d="M0 16L16 16L16 0L0 0L0 16Z">
</path>
<path d="M6 0L11 0L11 12.0039C10.9389 12.0049 10.8769 12.006 10.8141 12.0074C9.64039 12.0322 8.74221 12.2811 7.89227 12.5166L7.88043 12.5199C7.26618 12.6901 6.67666 12.8528 6 12.9387L6 0ZM7 5L7 12L8 12L8 5L7 5ZM10 1L7 1L7 2L10 2L10 1ZM7 3L7 4L10 4L10 3L7 3ZM10 5L9 5L9 12L10 12L10 5ZM5 13.0033L5 5C5 4.72386 4.77614 4.5 4.5 4.5L2.5 4.5C2.22386 4.5 2 4.72386 2 5L2 12.8102C2.97482 12.9745 3.82123 13.0227 5 13.0033ZM3.5 8.5C3.22386 8.5 3 8.27614 3 8C3 7.72386 3.22386 7.5 3.5 7.5C3.77614 7.5 4 7.72386 4 8C4 8.27614 3.77614 8.5 3.5 8.5ZM4 10C4 10.2761 3.77614 10.5 3.5 10.5C3.22386 10.5 3 10.2761 3 10C3 9.72386 3.22386 9.5 3.5 9.5C3.77614 9.5 4 9.72386 4 10ZM3.5 6.5C3.22386 6.5 3 6.27614 3 6C3 5.72386 3.22386 5.5 3.5 5.5C3.77614 5.5 4 5.72386 4 6C4 6.27614 3.77614 6.5 3.5 6.5ZM15 12.3734L15 0.5L14 0.5L14 2.5L12 3.73241L12 12.0063C13.0449 12.0321 13.9033 12.1395 15 12.3734ZM14 5L14 6L13 6L13 5L14 5ZM13 7L14 7L14 8L13 8L13 7ZM14 9L14 11L13 11L13 9L14 9Z" fill-rule="evenodd" style="mix-blend-mode:normal" fill="url(#linear_fill_S42m-m3t8PCzB7rlZur3g)" >
</path>
<path d="M10.8329 12.9999C12.6419 12.9616 13.661 13.0691 15.4269 13.4845C15.6806 13.5441 15.9321 13.3756 15.9886 13.108C16.0452 12.8405 15.8854 12.5752 15.6317 12.5155C13.7924 12.0829 12.6982 11.9675 10.8141 12.0074C9.64039 12.0322 8.74221 12.2811 7.89227 12.5166L7.88043 12.5199C7.028 12.7561 6.22321 12.9778 5.16707 13.0001C3.35813 13.0384 2.33903 12.9309 0.5731 12.5155C0.319434 12.4559 0.0679444 12.6244 0.0113812 12.892C-0.045182 13.1595 0.114601 13.4248 0.368267 13.4845C2.2076 13.9171 3.30181 14.0325 5.18594 13.9926C6.3596 13.9678 7.25779 13.7189 8.10773 13.4834L8.11957 13.4801C8.972 13.2439 9.77679 13.0222 10.8329 12.9999ZM10.8329 14.9999C12.6419 14.9616 13.661 15.0691 15.4269 15.4845C15.6806 15.5441 15.9321 15.3756 15.9886 15.108C16.0452 14.8405 15.8854 14.5752 15.6317 14.5155C13.7924 14.0829 12.6982 13.9675 10.8141 14.0074C9.64039 14.0322 8.74221 14.2811 7.89227 14.5166L7.88043 14.5199C7.028 14.7561 6.22321 14.9778 5.16707 15.0001C3.35813 15.0384 2.33903 14.9309 0.5731 14.5155C0.319434 14.4559 0.0679444 14.6244 0.0113812 14.892C-0.045182 15.1595 0.114601 15.4248 0.368267 15.4845C2.2076 15.9171 3.30181 16.0325 5.18594 15.9926C6.3596 15.9678 7.25779 15.7189 8.10773 15.4834L8.11957 15.4801C8.972 15.2439 9.77679 15.0222 10.8329 14.9999Z" fill-rule="evenodd" style="mix-blend-mode:normal" fill="url(#linear_fill_wpXiZahyHW0zVlcJJGsRR)" >
</path>
<defs>
<linearGradient id="linear_fill_S42m-m3t8PCzB7rlZur3g" x1="2" y1="6.5050048828125" x2="15" y2="6.5050048828125" gradientUnits="userSpaceOnUse">
<stop offset="0" stop-color="#36F7BD"  />
<stop offset="1" stop-color="#FA1E6F" stop-opacity="0.88" />
</linearGradient>
<linearGradient id="linear_fill_wpXiZahyHW0zVlcJJGsRR" x1="0" y1="14" x2="16" y2="14" gradientUnits="userSpaceOnUse">
<stop offset="0" stop-color="#36F7BD"  />
<stop offset="1" stop-color="#FA1E6F" stop-opacity="0.88" />
</linearGradient>
</defs>
</svg>
