<svg xmlns="http://www.w3.org/2000/svg" xmlns:xlink="http://www.w3.org/1999/xlink" width="16" height="16" viewBox="0 0 16 16" fill="none">
<path     fill="#000000" fill-opacity="0" d="M0 16L16 16L16 0L0 0L0 16Z">
</path>
<path d="M10.8329 12.9999C12.6419 12.9616 13.661 13.0691 15.4269 13.4845C15.6806 13.5441 15.9321 13.3756 15.9886 13.108C16.0452 12.8405 15.8854 12.5752 15.6317 12.5155C13.7924 12.0829 12.6982 11.9675 10.8141 12.0074C9.64039 12.0322 8.74221 12.2811 7.89227 12.5166L7.88043 12.5199C7.028 12.7561 6.22321 12.9778 5.16707 13.0001C3.35813 13.0384 2.33903 12.9309 0.5731 12.5155C0.319434 12.4559 0.0679444 12.6244 0.0113812 12.892C-0.045182 13.1595 0.114601 13.4248 0.368267 13.4845C2.2076 13.9171 3.30181 14.0325 5.18594 13.9926C6.3596 13.9678 7.25779 13.7189 8.10773 13.4834L8.11957 13.4801C8.972 13.2439 9.77679 13.0222 10.8329 12.9999ZM10.8329 14.9999C12.6419 14.9616 13.661 15.0691 15.4269 15.4845C15.6806 15.5441 15.9321 15.3756 15.9886 15.108C16.0452 14.8405 15.8854 14.5752 15.6317 14.5155C13.7924 14.0829 12.6982 13.9675 10.8141 14.0074C9.64039 14.0322 8.74221 14.2811 7.89227 14.5166L7.88043 14.5199C7.028 14.7561 6.22321 14.9778 5.16707 15.0001C3.35813 15.0384 2.33903 14.9309 0.5731 14.5155C0.319434 14.4559 0.0679444 14.6244 0.0113812 14.892C-0.045182 15.1595 0.114601 15.4248 0.368267 15.4845C2.2076 15.9171 3.30181 16.0325 5.18594 15.9926C6.3596 15.9678 7.25779 15.7189 8.10773 15.4834L8.11957 15.4801C8.972 15.2439 9.77679 15.0222 10.8329 14.9999Z" fill-rule="evenodd" style="mix-blend-mode:normal" fill="url(#linear_fill_tKST41jnjwI_jtI5G_q_8)" >
</path>
<path d="M4.19473 1.22948C4.64195 1.52979 4.94541 2.08458 5.19719 2.64807C5.32069 2.92447 5.22059 3.26058 4.97361 3.39879C4.72662 3.537 4.42628 3.42498 4.30278 3.14858C4.05455 2.59303 3.858 2.30846 3.68021 2.18908C3.56171 2.1095 3.37773 2.05354 2.97362 2.27969C2.51624 2.53565 2.19768 2.8125 1.99989 3.0633C1.79716 3.32037 1.75 3.51086 1.75 3.60679L1.75 11.4404C1.75 11.7495 1.52615 12 1.25001 12C0.973865 12 0.750004 11.7495 0.75 11.4405L0.75 3.60676C0.750012 3.1432 0.952862 2.69972 1.25013 2.32279C1.55233 1.93959 1.98375 1.58242 2.52636 1.27877C3.12222 0.945308 3.68824 0.889367 4.19473 1.22948ZM9.19479 1.20506C9.64201 1.47341 9.94547 1.96916 10.1973 2.47268C10.3208 2.71967 10.2207 3.02 9.97367 3.14351C9.72668 3.26701 9.42634 3.16691 9.30284 2.91992C9.05461 2.42349 8.85806 2.16921 8.68027 2.06254C8.56177 1.99143 8.37779 1.94142 7.97367 2.1435C7.5163 2.37222 7.19773 2.61961 6.99995 2.84372C6.79722 3.07343 6.75006 3.24365 6.75006 3.32937L6.75 9.50012C6.75 9.77627 6.52615 10.0001 6.25001 10.0001C5.97387 10.0001 5.75 9.77628 5.75 9.50014L5.75006 3.32934C5.75007 2.91512 5.95292 2.51883 6.25019 2.18201C6.55239 1.83959 6.98381 1.52044 7.52641 1.2491C8.12228 0.951129 8.6883 0.901141 9.19479 1.20506ZM15.1973 2.47268C14.9455 1.96916 14.642 1.47341 14.1948 1.20506C13.6883 0.901141 13.1223 0.951129 12.5264 1.2491C11.9838 1.52044 11.5524 1.83959 11.2502 2.18201C10.9529 2.51883 10.7501 2.91512 10.7501 3.32934L10.75 7.30397C10.75 7.58011 10.9739 7.80397 11.25 7.80397C11.5261 7.80396 11.75 7.5801 11.75 7.30396L11.7501 3.32937C11.7501 3.24365 11.7972 3.07343 12 2.84372C12.1978 2.61961 12.5163 2.37222 12.9737 2.1435C13.3778 1.94142 13.5618 1.99143 13.6803 2.06254C13.8581 2.16921 14.0546 2.42349 14.3029 2.91992C14.4264 3.16691 14.7267 3.26701 14.9737 3.14351C15.2207 3.02 15.3208 2.71967 15.1973 2.47268Z" fill-rule="evenodd" style="mix-blend-mode:normal" fill="url(#linear_fill_t5kb67N1obQmBn_ey6bmY)" >
</path>
<defs>
<linearGradient id="linear_fill_tKST41jnjwI_jtI5G_q_8" x1="0" y1="14" x2="16" y2="14" gradientUnits="userSpaceOnUse">
<stop offset="0" stop-color="#36F7BD"  />
<stop offset="1" stop-color="#FA1E6F" stop-opacity="0.88" />
</linearGradient>
<linearGradient id="linear_fill_t5kb67N1obQmBn_ey6bmY" x1="0.75" y1="6.5" x2="15.25" y2="6.5" gradientUnits="userSpaceOnUse">
<stop offset="0" stop-color="#36F7BD"  />
<stop offset="1" stop-color="#FA1E6F" stop-opacity="0.88" />
</linearGradient>
</defs>
</svg>
