<svg xmlns="http://www.w3.org/2000/svg" xmlns:xlink="http://www.w3.org/1999/xlink" width="16.000274658203125" height="16" viewBox="0 0 16.000274658203125 16" fill="none">
<path     fill="#000000" fill-opacity="0" d="M0 16L16 16L16 0L0 0L0 16Z">
</path>
<path d="M5.82715 14.9628C6.02115 14.8511 6.19682 14.7154 6.34258 14.5885C6.39845 14.5398 6.45118 14.4913 6.50015 14.4444C6.54912 14.4913 6.60184 14.5398 6.65772 14.5885C6.81788 14.728 7.01417 14.878 7.2312 14.9952C7.44452 15.1103 7.71019 15.2115 8.00015 15.2115C8.29011 15.2115 8.55578 15.1103 8.76909 14.9952C8.98613 14.878 9.18242 14.728 9.34258 14.5885C9.39846 14.5398 9.45118 14.4913 9.50015 14.4444C9.54912 14.4913 9.60184 14.5398 9.65772 14.5885C9.81788 14.728 10.0142 14.878 10.2312 14.9952C10.4445 15.1103 10.7102 15.2115 11.0001 15.2115C11.2901 15.2115 11.5558 15.1103 11.7691 14.9952C11.9861 14.878 12.1824 14.728 12.3426 14.5885C12.3985 14.5398 12.4512 14.4913 12.5002 14.4444C12.5491 14.4913 12.6018 14.5398 12.6577 14.5885C12.8179 14.728 13.0142 14.878 13.2312 14.9952C13.4445 15.1103 13.7102 15.2115 14.0001 15.2115C14.437 15.2115 14.8439 15.1019 15.19 14.8712C15.5361 14.6405 15.7937 14.307 15.9617 13.9038C16.0679 13.6489 15.9474 13.3561 15.6925 13.2499C15.4376 13.1437 15.1448 13.2642 15.0386 13.5191C14.9359 13.7657 14.7955 13.9323 14.6353 14.0391C14.4751 14.1459 14.2673 14.2115 14.0001 14.2115C13.9381 14.2115 13.8403 14.1876 13.7063 14.1152C13.5761 14.0449 13.4414 13.9449 13.3146 13.8344C13.1892 13.7253 13.0815 13.6145 13.0047 13.5305C12.9667 13.4888 12.937 13.4546 12.9174 13.4314C12.9076 13.4199 12.9004 13.4112 12.896 13.4058L12.8915 13.4002L12.8909 13.3995L12.5001 12.9086L12.1094 13.3995L12.1088 13.4002L12.1043 13.4058L12.0925 13.42L12.0829 13.4314C12.0633 13.4546 12.0336 13.4888 11.9956 13.5305C11.9188 13.6145 11.8111 13.7253 11.6857 13.8344C11.5589 13.9449 11.4242 14.0449 11.294 14.1152C11.16 14.1876 11.0622 14.2115 11.0001 14.2115C10.9381 14.2115 10.8403 14.1876 10.7063 14.1152C10.5761 14.0449 10.4414 13.9449 10.3146 13.8344C10.1892 13.7253 10.0815 13.6145 10.0047 13.5305C9.96665 13.4888 9.93698 13.4546 9.9174 13.4314C9.90763 13.4199 9.90042 13.4112 9.896 13.4058L9.89149 13.4002L9.89087 13.3995L9.50015 12.9086L9.10943 13.3995L9.1088 13.4002L9.1043 13.4058C9.09987 13.4112 9.09267 13.4199 9.0829 13.4314C9.06332 13.4546 9.03365 13.4888 8.99558 13.5305C8.91884 13.6145 8.81108 13.7253 8.68574 13.8344C8.55891 13.9449 8.4242 14.0449 8.29398 14.1152C8.16004 14.1876 8.0622 14.2115 8.00015 14.2115C7.9381 14.2115 7.84026 14.1876 7.70632 14.1152C7.5761 14.0449 7.44139 13.9449 7.31456 13.8344C7.18922 13.7253 7.08146 13.6145 7.00471 13.5305C6.96665 13.4888 6.93698 13.4546 6.9174 13.4314C6.90763 13.4199 6.90042 13.4112 6.896 13.4058L6.89149 13.4002L6.89087 13.3995L6.50015 12.9086L6.10917 13.3998L6.1043 13.4058C6.09987 13.4112 6.09267 13.4199 6.0829 13.4314C6.06332 13.4546 6.03365 13.4888 5.99558 13.5305C5.91884 13.6145 5.81108 13.7253 5.68574 13.8344C5.67222 13.8462 5.65861 13.8579 5.64492 13.8694L5.82715 14.9628ZM5.31188 11.8712C5.48032 11.8315 5.63504 11.7647 5.76909 11.6923C5.98613 11.5751 6.18242 11.4251 6.34258 11.2856C6.39845 11.2369 6.45118 11.1884 6.50015 11.1415C6.54912 11.1884 6.60184 11.2369 6.65772 11.2856C6.81788 11.4251 7.01417 11.5751 7.2312 11.6923C7.44452 11.8075 7.71019 11.9086 8.00015 11.9086C8.29011 11.9086 8.55578 11.8075 8.76909 11.6923C8.98613 11.5751 9.18242 11.4251 9.34258 11.2856C9.39846 11.2369 9.45118 11.1884 9.50015 11.1415C9.54912 11.1884 9.60184 11.2369 9.65772 11.2856C9.81788 11.4251 10.0142 11.5751 10.2312 11.6923C10.4445 11.8075 10.7102 11.9086 11.0001 11.9086C11.2901 11.9086 11.5558 11.8075 11.7691 11.6923C11.9861 11.5751 12.1824 11.4251 12.3426 11.2856C12.3985 11.2369 12.4512 11.1884 12.5002 11.1415C12.5491 11.1884 12.6018 11.2369 12.6577 11.2856C12.8179 11.4251 13.0142 11.5751 13.2312 11.6923C13.4445 11.8075 13.7102 11.9086 14.0001 11.9086C14.437 11.9086 14.8439 11.799 15.19 11.5683C15.5361 11.3376 15.7937 11.0042 15.9617 10.6009C16.0679 10.346 15.9474 10.0533 15.6925 9.94705C15.4376 9.84084 15.1448 9.96138 15.0386 10.2163C14.9359 10.4629 14.7955 10.6295 14.6353 10.7363C14.4751 10.8431 14.2673 10.9086 14.0001 10.9086C13.9381 10.9086 13.8403 10.8847 13.7063 10.8124C13.5761 10.7421 13.4414 10.6421 13.3146 10.5316C13.1892 10.4224 13.0815 10.3117 13.0047 10.2276C12.9667 10.186 12.937 10.1517 12.9174 10.1286C12.9076 10.117 12.9004 10.1083 12.896 10.1029L12.8915 10.0974L12.8909 10.0966L12.5001 9.60573L12.1094 10.0966L12.1088 10.0974L12.1043 10.1029C12.0999 10.1083 12.0927 10.117 12.0829 10.1286C12.0633 10.1517 12.0336 10.186 11.9956 10.2276C11.9188 10.3117 11.8111 10.4224 11.6857 10.5316C11.5589 10.6421 11.4242 10.7421 11.294 10.8124C11.16 10.8847 11.0622 10.9086 11.0001 10.9086C10.9381 10.9086 10.8403 10.8847 10.7063 10.8124C10.5761 10.7421 10.4414 10.6421 10.3146 10.5316C10.1892 10.4224 10.0815 10.3117 10.0047 10.2276C9.96665 10.186 9.93698 10.1517 9.9174 10.1286C9.90763 10.117 9.90042 10.1083 9.896 10.1029L9.89149 10.0974L9.89087 10.0966L9.50015 9.60573L9.10943 10.0966L9.1088 10.0974L9.1043 10.1029C9.09987 10.1083 9.09267 10.117 9.0829 10.1286C9.06332 10.1517 9.03365 10.186 8.99558 10.2276C8.91884 10.3117 8.81108 10.4224 8.68574 10.5316C8.55891 10.6421 8.4242 10.7421 8.29398 10.8124C8.16004 10.8847 8.0622 10.9086 8.00015 10.9086C7.9381 10.9086 7.84026 10.8847 7.70632 10.8124C7.5761 10.7421 7.44139 10.6421 7.31456 10.5316C7.18922 10.4224 7.08146 10.3117 7.00471 10.2276C6.96665 10.186 6.93698 10.1517 6.9174 10.1286C6.90763 10.117 6.90042 10.1083 6.896 10.1029L6.89149 10.0974L6.89087 10.0966L6.50015 9.60573L6.10917 10.0969L6.1043 10.1029C6.09987 10.1083 6.09267 10.117 6.0829 10.1286C6.06332 10.1517 6.03365 10.186 5.99558 10.2276C5.91884 10.3117 5.81108 10.4224 5.68574 10.5316C5.55891 10.6421 5.4242 10.7421 5.29398 10.8124C5.23867 10.8422 5.18952 10.8638 5.14651 10.8789L5.31188 11.8712ZM4.76583 8.59487C4.84283 8.60213 4.921 8.60573 5.00015 8.60573C5.29011 8.60573 5.55578 8.50462 5.76909 8.38944C5.98613 8.27225 6.18242 8.12226 6.34258 7.98274C6.39845 7.93407 6.45118 7.88558 6.50015 7.83868C6.54912 7.88558 6.60184 7.93407 6.65772 7.98274C6.81788 8.12226 7.01417 8.27225 7.2312 8.38944C7.44452 8.50462 7.71019 8.60573 8.00015 8.60573C8.29011 8.60573 8.55578 8.50462 8.76909 8.38944C8.98613 8.27225 9.18242 8.12226 9.34258 7.98274C9.39846 7.93407 9.45118 7.88558 9.50015 7.83868C9.54912 7.88558 9.60184 7.93407 9.65772 7.98274C9.81788 8.12226 10.0142 8.27225 10.2312 8.38944C10.4445 8.50462 10.7102 8.60573 11.0001 8.60573C11.2901 8.60573 11.5558 8.50462 11.7691 8.38944C11.9861 8.27225 12.1824 8.12226 12.3426 7.98274C12.3985 7.93407 12.4512 7.88558 12.5002 7.83868C12.5491 7.88558 12.6018 7.93407 12.6577 7.98274C12.8179 8.12226 13.0142 8.27225 13.2312 8.38944C13.4445 8.50462 13.7102 8.60573 14.0001 8.60573C14.437 8.60573 14.8439 8.49617 15.19 8.26545C15.5361 8.03473 15.7937 7.70132 15.9617 7.29803C16.0679 7.04313 15.9474 6.7504 15.6925 6.64419C15.4376 6.53798 15.1448 6.65852 15.0386 6.91342C14.9359 7.16 14.7955 7.32659 14.6353 7.4334C14.4751 7.54021 14.2673 7.60573 14.0001 7.60573C13.9381 7.60573 13.8403 7.58183 13.7063 7.50951C13.5761 7.4392 13.4414 7.33919 13.3146 7.22871C13.1892 7.11953 13.0815 7.00882 13.0047 6.92479C12.9667 6.88311 12.937 6.84883 12.9174 6.8257C12.9076 6.81415 12.9004 6.80544 12.896 6.80005L12.8915 6.79451L12.8909 6.79373L12.5001 6.30286L12.1094 6.79373L12.1088 6.79451L12.1043 6.80005C12.0999 6.80544 12.0927 6.81415 12.0829 6.8257C12.0633 6.84883 12.0336 6.88311 11.9956 6.92479C11.9188 7.00882 11.8111 7.11953 11.6857 7.22871C11.5589 7.33919 11.4242 7.4392 11.294 7.50951C11.16 7.58183 11.0622 7.60573 11.0001 7.60573C10.9381 7.60573 10.8403 7.58183 10.7063 7.50951C10.5761 7.4392 10.4414 7.33919 10.3146 7.22871C10.1892 7.11953 10.0815 7.00882 10.0047 6.92479C9.96665 6.88311 9.93698 6.84883 9.9174 6.8257C9.90763 6.81415 9.90042 6.80544 9.896 6.80005L9.89149 6.79451L9.89087 6.79373L9.50015 6.30286L9.10943 6.79373L9.1088 6.79451L9.1043 6.80005C9.09987 6.80544 9.09267 6.81415 9.0829 6.8257C9.06332 6.84883 9.03365 6.88311 8.99558 6.92479C8.91884 7.00882 8.81108 7.11953 8.68574 7.22871C8.55891 7.33919 8.4242 7.4392 8.29398 7.50951C8.16004 7.58183 8.0622 7.60573 8.00015 7.60573C7.9381 7.60573 7.84026 7.58183 7.70632 7.50951C7.5761 7.4392 7.44139 7.33919 7.31456 7.22871C7.18922 7.11953 7.08146 7.00882 7.00471 6.92479C6.96665 6.88311 6.93698 6.84883 6.9174 6.8257C6.90763 6.81415 6.90042 6.80544 6.896 6.80005L6.89149 6.79451L6.89087 6.79373L6.50015 6.30286L6.10917 6.79405L6.1043 6.80005C6.09987 6.80544 6.09267 6.81415 6.0829 6.8257C6.06332 6.84883 6.03365 6.88311 5.99558 6.92479C5.91884 7.00882 5.81108 7.11953 5.68574 7.22871C5.55891 7.33919 5.4242 7.4392 5.29398 7.50951C5.16004 7.58183 5.0622 7.60573 5.00015 7.60573C4.84418 7.60573 4.70845 7.58339 4.59061 7.54355L4.76583 8.59487ZM4.1934 5.16031C4.44392 5.25641 4.71567 5.30286 5.00015 5.30286C5.29011 5.30286 5.55578 5.20175 5.76909 5.08657C5.98613 4.96939 6.18242 4.81939 6.34258 4.67988C6.39845 4.63121 6.45118 4.58271 6.50015 4.53582C6.54912 4.58271 6.60184 4.63121 6.65772 4.67988C6.81788 4.81939 7.01417 4.96939 7.2312 5.08657C7.44452 5.20175 7.71019 5.30286 8.00015 5.30286C8.29011 5.30286 8.55578 5.20175 8.76909 5.08657C8.98613 4.96939 9.18242 4.81939 9.34258 4.67988C9.39846 4.63121 9.45118 4.58271 9.50015 4.53582C9.54912 4.58271 9.60184 4.63121 9.65772 4.67988C9.81788 4.81939 10.0142 4.96939 10.2312 5.08657C10.4445 5.20175 10.7102 5.30286 11.0001 5.30286C11.2901 5.30286 11.5558 5.20175 11.7691 5.08657C11.9861 4.96939 12.1824 4.81939 12.3426 4.67988C12.3985 4.63121 12.4512 4.58271 12.5002 4.53582C12.5491 4.58271 12.6018 4.63121 12.6577 4.67988C12.8179 4.81939 13.0142 4.96939 13.2312 5.08657C13.4445 5.20175 13.7102 5.30286 14.0001 5.30286C14.437 5.30286 14.8439 5.19331 15.19 4.96259C15.5361 4.73187 15.7937 4.39846 15.9617 3.99517C16.0679 3.74027 15.9474 3.44753 15.6925 3.34132C15.4376 3.23512 15.1448 3.35565 15.0386 3.61055C14.9359 3.85714 14.7955 4.02373 14.6353 4.13054C14.4751 4.23735 14.2673 4.30286 14.0001 4.30286C13.9381 4.30286 13.8403 4.27897 13.7063 4.20665C13.5761 4.13634 13.4414 4.03633 13.3146 3.92584C13.1892 3.81666 13.0815 3.70595 13.0047 3.62192C12.9667 3.58025 12.937 3.54597 12.9174 3.52284C12.9076 3.51129 12.9004 3.50258 12.896 3.49718L12.8915 3.49165L12.8909 3.49087L12.5001 3L12.1094 3.49087L12.1088 3.49165L12.1043 3.49718C12.0999 3.50258 12.0927 3.51129 12.0829 3.52284C12.0633 3.54597 12.0336 3.58025 11.9956 3.62192C11.9188 3.70595 11.8111 3.81666 11.6857 3.92584C11.5589 4.03633 11.4242 4.13634 11.294 4.20665C11.16 4.27897 11.0622 4.30286 11.0001 4.30286C10.9381 4.30286 10.8403 4.27897 10.7063 4.20665C10.5761 4.13634 10.4414 4.03633 10.3146 3.92584C10.1892 3.81666 10.0815 3.70595 10.0047 3.62192C9.96665 3.58025 9.93698 3.54597 9.9174 3.52284C9.90763 3.51129 9.90042 3.50258 9.896 3.49718L9.89149 3.49165L9.89087 3.49087L9.50015 3L9.10943 3.49087L9.1088 3.49165L9.1043 3.49718C9.09987 3.50258 9.09267 3.51129 9.0829 3.52284C9.06332 3.54597 9.03365 3.58025 8.99558 3.62192C8.91884 3.70595 8.81108 3.81666 8.68574 3.92584C8.55891 4.03633 8.4242 4.13634 8.29398 4.20665C8.16004 4.27897 8.0622 4.30286 8.00015 4.30286C7.9381 4.30286 7.84026 4.27897 7.70632 4.20665C7.5761 4.13634 7.44139 4.03633 7.31456 3.92584C7.18922 3.81666 7.08146 3.70595 7.00471 3.62192C6.96665 3.58025 6.93698 3.54597 6.9174 3.52284C6.90763 3.51129 6.90042 3.50258 6.896 3.49718L6.89149 3.49165L6.89087 3.49087L6.50015 3L6.10917 3.49119L6.1043 3.49718C6.09987 3.50258 6.09267 3.51129 6.0829 3.52284C6.06332 3.54597 6.03365 3.58025 5.99558 3.62192C5.91884 3.70595 5.81108 3.81666 5.68574 3.92584C5.55891 4.03633 5.4242 4.13634 5.29398 4.20665C5.16004 4.27897 5.0622 4.30286 5.00015 4.30286C4.73301 4.30286 4.52525 4.23735 4.36503 4.13054C4.20482 4.02373 4.06443 3.85714 3.96169 3.61055C3.95059 3.58392 3.93746 3.55876 3.92255 3.53517L4.1934 5.16031Z" fill-rule="evenodd" style="mix-blend-mode:normal" fill="url(#linear_fill_Dd_qvLtVySC_om14R9qjH)" >
</path>
<path d="M2.65287 2L4.81954 15L1 15L1 2L2.65287 2ZM3.63927 1.8356C3.5589 1.35341 3.14171 1 2.65287 1L0 1L0 16L6 16L3.63927 1.8356Z"  style="mix-blend-mode:normal" fill="url(#linear_fill_LbYSJQZV9KVWf6ZO8N-WZ)" >
</path>
<defs>
<linearGradient id="linear_fill_Dd_qvLtVySC_om14R9qjH" x1="3.92254638671875" y1="9.10498046875" x2="16.002532958984375" y2="9.10498046875" gradientUnits="userSpaceOnUse">
<stop offset="0" stop-color="#36F7BD"  />
<stop offset="1" stop-color="#FA1E6F" stop-opacity="0.88" />
</linearGradient>
<linearGradient id="linear_fill_LbYSJQZV9KVWf6ZO8N-WZ" x1="0" y1="8.5" x2="6" y2="8.5" gradientUnits="userSpaceOnUse">
<stop offset="0" stop-color="#36F7BD"  />
<stop offset="1" stop-color="#FA1E6F" stop-opacity="0.88" />
</linearGradient>
</defs>
</svg>
