<svg xmlns="http://www.w3.org/2000/svg" xmlns:xlink="http://www.w3.org/1999/xlink" width="16" height="16" viewBox="0 0 16 16" fill="none">
<path     fill="#000000" fill-opacity="0" d="M0 16L16 16L16 0L0 0L0 16Z">
</path>
<path d="M10.8329 10.9999C12.6419 10.9616 13.661 11.0691 15.4269 11.4845C15.6806 11.5441 15.9321 11.3756 15.9886 11.108C16.0452 10.8405 15.8854 10.5752 15.6317 10.5155C13.7924 10.0829 12.6982 9.9675 10.8141 10.0074C9.6404 10.0322 8.74221 10.2811 7.89227 10.5166L7.88043 10.5199C7.028 10.7561 6.22321 10.9778 5.16707 11.0001C3.35813 11.0384 2.33903 10.9309 0.5731 10.5155C0.319435 10.4559 0.0679444 10.6244 0.0113812 10.892C-0.045182 11.1595 0.114601 11.4248 0.368267 11.4845C2.2076 11.9171 3.30181 12.0325 5.18594 11.9926C6.3596 11.9678 7.25779 11.7189 8.10773 11.4834L8.11957 11.4801C8.972 11.2439 9.77679 11.0222 10.8329 10.9999ZM15.4269 13.4845C13.661 13.0691 12.6419 12.9616 10.8329 12.9999C9.77679 13.0222 8.972 13.2439 8.11957 13.4801L8.10773 13.4834C7.25779 13.7189 6.3596 13.9678 5.18594 13.9926C3.30181 14.0325 2.2076 13.9171 0.368267 13.4845C0.114601 13.4248 -0.045182 13.1595 0.0113812 12.892C0.0679444 12.6244 0.319435 12.4559 0.5731 12.5155C2.33903 12.9309 3.35813 13.0384 5.16707 13.0001C6.22321 12.9778 7.028 12.7561 7.88043 12.5199L7.89227 12.5166C8.74221 12.2811 9.6404 12.0322 10.8141 12.0074C12.6982 11.9675 13.7924 12.0829 15.6317 12.5155C15.8854 12.5752 16.0452 12.8405 15.9886 13.108C15.9321 13.3756 15.6806 13.5441 15.4269 13.4845ZM15.4269 15.4845C13.661 15.0691 12.6419 14.9616 10.8329 14.9999C9.77679 15.0222 8.972 15.2439 8.11957 15.4801L8.10773 15.4834C7.25779 15.7189 6.3596 15.9678 5.18594 15.9926C3.30181 16.0325 2.2076 15.9171 0.368267 15.4845C0.114601 15.4248 -0.045182 15.1595 0.0113812 14.892C0.0679444 14.6244 0.319435 14.4559 0.5731 14.5155C2.33903 14.9309 3.35813 15.0384 5.16707 15.0001C6.22321 14.9778 7.028 14.7561 7.88043 14.5199L7.89227 14.5166C8.74221 14.2811 9.6404 14.0322 10.8141 14.0074C12.6982 13.9675 13.7924 14.0829 15.6317 14.5155C15.8854 14.5752 16.0452 14.8405 15.9886 15.108C15.9321 15.3756 15.6806 15.5441 15.4269 15.4845Z" fill-rule="evenodd" style="mix-blend-mode:normal" fill="url(#linear_fill_rg98P6NPAwizi3igUJPD1)" >
</path>
<path d="M7.85914 2.70553C7.90917 2.51882 8.10109 2.40802 8.2878 2.45805C8.47452 2.50808 8.58532 2.7 8.53529 2.88671L8.39455 3.41196L8.9198 3.27122C9.10651 3.2212 9.29843 3.33199 9.34846 3.51871C9.39849 3.70542 9.28769 3.89734 9.10097 3.94737L8.57572 4.08811L8.96023 4.47262C9.09692 4.6093 9.09692 4.83091 8.96023 4.9676C8.82355 5.10428 8.60194 5.10428 8.46526 4.96759L8.08075 4.58308L7.94001 5.10834C7.88998 5.29505 7.69806 5.40586 7.51134 5.35583C7.32463 5.3058 7.21383 5.11388 7.26386 4.92717L7.4046 4.40192L6.87934 4.54266C6.69263 4.59269 6.50071 4.48188 6.45068 4.29517C6.40065 4.10845 6.51146 3.91653 6.69817 3.8665L7.22342 3.72576L6.83891 3.34125C6.70223 3.20457 6.70223 2.98296 6.83891 2.84628C6.9756 2.70959 7.1972 2.70959 7.33389 2.84627L7.7184 3.23078L7.85914 2.70553ZM8.79262 1.07735L10.7202 3.0101C10.7528 3.04288 10.7763 3.08366 10.7882 3.12834C10.8001 3.17303 10.8001 3.22007 10.7882 3.26476L10.0801 5.90753C10.0681 5.95226 10.0445 5.99303 10.0118 6.02576C9.97902 6.05849 9.93822 6.08201 9.89348 6.09396L7.25814 6.80408C7.21361 6.81654 7.16654 6.81679 7.12187 6.80483C7.0772 6.79286 7.03657 6.7691 7.00422 6.73604L5.07701 4.80339C5.01064 4.73669 4.98462 4.63965 5.00898 4.54873L5.71711 1.90596C5.72913 1.86129 5.75265 1.82056 5.78533 1.78783C5.81801 1.7551 5.85871 1.73151 5.90336 1.71943L8.5387 1.00931C8.58325 0.997053 8.63026 0.996896 8.67489 1.00885C8.71953 1.02081 8.76016 1.04446 8.79262 1.07735ZM7.26928 6.25539L9.6113 5.6243L10.2406 3.27565L8.52792 1.55809L6.18581 2.18955L5.55658 4.53784L7.26928 6.25539ZM12.2291 6.87341C12.163 6.69177 12.2567 6.49092 12.4383 6.42481C12.62 6.3587 12.8208 6.45235 12.8869 6.63399L13.0729 7.14498L13.4224 6.72843C13.5467 6.58035 13.7674 6.56103 13.9155 6.68528C14.0636 6.80953 14.0829 7.0303 13.9587 7.17838L13.6091 7.59493L14.1446 7.68936C14.335 7.72292 14.4621 7.90446 14.4286 8.09482C14.395 8.28518 14.2135 8.41229 14.0231 8.37872L13.4876 8.2843L13.6736 8.79529C13.7397 8.97693 13.646 9.17777 13.4644 9.24389C13.2827 9.31 13.0819 9.21634 13.0158 9.0347L12.8298 8.52372L12.4803 8.94028C12.356 9.08835 12.1352 9.10767 11.9872 8.98342C11.8391 8.85916 11.8198 8.6384 11.944 8.49032L12.2936 8.07376L11.758 7.97934C11.5677 7.94577 11.4406 7.76424 11.4741 7.57388C11.5077 7.38351 11.6892 7.2564 11.8796 7.28997L12.4151 7.38439L12.2291 6.87341ZM12.0599 5.00426L14.7474 5.48186C14.793 5.49 14.8356 5.50995 14.871 5.53971C14.9064 5.56947 14.9334 5.608 14.9492 5.65144L15.885 8.22244C15.9008 8.26596 15.9049 8.31288 15.8969 8.35847C15.8888 8.40407 15.8689 8.44674 15.8391 8.48219L14.3625 10.247C13.2299 10.0415 12.2865 9.98129 10.9468 10.0048L10.0159 7.44705C10.0001 7.40357 9.99599 7.35671 10.004 7.31115C10.012 7.2656 10.0318 7.22294 10.0614 7.18743L11.8129 5.09416C11.8423 5.05857 11.8808 5.03148 11.9242 5.01567C11.9676 4.99987 12.0144 4.99593 12.0599 5.00426ZM13.7821 10.1196L15.3385 8.25932L14.5069 5.97446L12.1188 5.54988L10.5625 7.41053L11.3939 9.69503L13.7821 10.1196ZM3.12599 7C2.93269 7 2.77599 7.1567 2.77599 7.35L2.77599 7.89378L2.30506 7.62189C2.13766 7.52524 1.9236 7.5826 1.82695 7.75C1.7303 7.9174 1.78766 8.13146 1.95506 8.22811L2.42599 8.5L1.95506 8.77189C1.78766 8.86854 1.7303 9.0826 1.82695 9.25C1.9236 9.4174 2.13766 9.47476 2.30506 9.37811L2.77599 9.10622L2.77599 9.65C2.77599 9.8433 2.93269 10 3.12599 10C3.31929 10 3.47599 9.8433 3.47599 9.65L3.47599 9.10622L3.94692 9.37811C4.11432 9.47475 4.32838 9.4174 4.42503 9.25C4.52168 9.0826 4.46432 8.86854 4.29692 8.77189L3.82599 8.5L4.29692 8.22811C4.46432 8.13146 4.52168 7.9174 4.42502 7.75C4.32838 7.5826 4.11432 7.52525 3.94692 7.62189L3.47599 7.89378L3.47599 7.35C3.47599 7.1567 3.31929 7 3.12599 7ZM4.05447 11.0021L5.618 10.0964C5.65812 10.0733 5.69144 10.04 5.71462 9.99995C5.73779 9.95986 5.74999 9.91437 5.75 9.86806L5.75 7.13206C5.74996 7.08581 5.73778 7.04038 5.71468 7.0003C5.69158 6.96023 5.65838 6.92691 5.61837 6.90369L3.25625 5.53569C3.21639 5.51232 3.17102 5.5 3.12481 5.5C3.07861 5.5 3.03324 5.51232 2.99338 5.53569L0.631625 6.90369C0.591625 6.92691 0.558418 6.96023 0.535321 7.0003C0.512224 7.04038 0.500045 7.08581 0.5 7.13206L0.5 9.86806C0.5 9.96219 0.55025 10.0492 0.631625 10.0964L1.80506 10.7761C2.57866 10.9161 3.25601 10.9838 4.05447 11.0021ZM3.125 10.9316L1.02613 9.71581L1.02613 7.28469L3.125 6.06856L5.22388 7.28431L5.22388 9.71581L3.125 10.9316Z" fill-rule="evenodd" style="mix-blend-mode:normal" fill="url(#linear_fill_lxyIxdc8s_e11syxR8SaL)" >
</path>
<defs>
<linearGradient id="linear_fill_rg98P6NPAwizi3igUJPD1" x1="0" y1="13" x2="16" y2="13" gradientUnits="userSpaceOnUse">
<stop offset="0" stop-color="#36F7BD"  />
<stop offset="1" stop-color="#FA1E6F" stop-opacity="0.88" />
</linearGradient>
<linearGradient id="linear_fill_lxyIxdc8s_e11syxR8SaL" x1="0.5" y1="6" x2="15.899993896484375" y2="6" gradientUnits="userSpaceOnUse">
<stop offset="0" stop-color="#36F7BD"  />
<stop offset="1" stop-color="#FA1E6F" stop-opacity="0.88" />
</linearGradient>
</defs>
</svg>
