<svg xmlns="http://www.w3.org/2000/svg" xmlns:xlink="http://www.w3.org/1999/xlink" width="16" height="16" viewBox="0 0 16 16" fill="none">
<path     fill="#000000" fill-opacity="0" d="M0 16L16 16L16 0L0 0L0 16Z">
</path>
<path d="M11.9788 10.6028C11.9928 10.74 12 10.8726 12 11C12 12.3261 11.4732 13.5979 10.5355 14.5355C9.59785 15.4732 8.32608 16 7 16C5.67392 16 4.40215 15.4732 3.46447 14.5355C2.52679 13.5979 2 12.3261 2 11C2 8.79941 4.15175 5.06851 6.18321 2.14335C6.45961 1.74536 6.73378 1.36228 7 1C7.26622 1.36228 7.54039 1.74536 7.81679 2.14335C8.68887 3.39908 9.58311 4.8033 10.3198 6.1712C10.6917 5.9961 10.9729 5.81995 11.1464 5.6464C11.3095 5.48333 11.4337 5.23481 11.5149 4.90994C11.5954 4.58809 11.625 4.22582 11.625 3.87495C11.625 3.77688 11.6227 3.6809 11.6187 3.58834L11.3536 3.85351C11.1583 4.04877 10.8417 4.04877 10.6464 3.85351C10.4512 3.65824 10.4512 3.34166 10.6464 3.1464L12 1.79285L13.3536 3.1464C13.5488 3.34166 13.5488 3.65824 13.3536 3.85351C13.1583 4.04877 12.8417 4.04877 12.6464 3.85351L12.6249 3.83193L12.625 3.87495C12.625 4.27409 12.5921 4.72432 12.4851 5.15247C12.3788 5.5776 12.1905 6.01657 11.8536 6.35351C11.5691 6.63796 11.181 6.86867 10.7782 7.0606C11.2207 7.96231 11.5746 8.82944 11.7853 9.60611C11.9421 9.54487 12.0941 9.48163 12.2385 9.41599C12.6509 9.22852 12.9605 9.03954 13.1465 8.85355C13.3096 8.69049 13.4338 8.44197 13.515 8.11709C13.5955 7.79524 13.6251 7.43297 13.6251 7.08211C13.6251 6.98403 13.6228 6.88805 13.6188 6.79549L13.3536 7.06066C13.1584 7.25592 12.8418 7.25592 12.6465 7.06066C12.4512 6.8654 12.4512 6.54882 12.6465 6.35355L14.0001 5L15.3536 6.35355C15.5489 6.54882 15.5489 6.8654 15.3536 7.06066C15.1584 7.25592 14.8418 7.25592 14.6465 7.06066L14.6249 7.03909L14.6251 7.08211C14.6251 7.48124 14.5922 7.93147 14.4851 8.35962C14.3789 8.78475 14.1906 9.22373 13.8536 9.56066C13.5396 9.87467 13.0992 10.1232 12.6523 10.3264C12.4362 10.4246 12.2087 10.5165 11.9788 10.6028ZM3.33333 11C3.33333 11.9725 3.71964 12.9051 4.40728 13.5927C5.09491 14.2804 6.02754 14.6667 7 14.6667C7.97246 14.6667 8.90509 14.2804 9.59272 13.5927C10.2684 12.9171 10.6531 12.0049 10.6663 11.0507C10.4022 11.1368 10.1597 11.2163 9.94357 11.2945C9.76636 11.3586 9.62242 11.4164 9.51287 11.4691C9.45855 11.4953 9.41799 11.5177 9.38897 11.536C9.36279 11.5525 9.35291 11.5614 9.35291 11.5614L9.35362 11.5607C9.16221 11.7521 9.11503 11.8697 9.08816 11.9906C9.07082 12.0686 9.06053 12.1584 9.04791 12.294L9.04341 12.343C9.03233 12.464 9.01887 12.611 8.99504 12.7778C8.95599 13.0512 8.70272 13.2411 8.42935 13.2021C8.15599 13.163 7.96604 12.9098 8.00509 12.6364C8.02511 12.4962 8.03627 12.3747 8.04745 12.253L8.05221 12.2014C8.06459 12.0683 8.07931 11.9206 8.11197 11.7736C8.1851 11.4446 8.33792 11.1621 8.64651 10.8536C8.77044 10.7296 8.93452 10.6377 9.07905 10.5681C9.23318 10.4939 9.41346 10.4228 9.60343 10.3541C9.85185 10.2643 10.144 10.1691 10.4448 10.0711C10.4706 10.0627 10.4965 10.0543 10.5224 10.0459C10.4616 9.80909 10.3804 9.54716 10.2771 9.26047C10.0865 8.73193 9.83456 8.15775 9.5353 7.55505C9.42942 7.5917 9.32423 7.62726 9.22062 7.6618C9.05113 7.71829 8.88777 7.77147 8.7318 7.82224C8.44218 7.91653 8.17745 8.00271 7.94351 8.08733C7.7663 8.15143 7.62236 8.20923 7.51281 8.26198C7.45849 8.28813 7.41793 8.31052 7.38891 8.32885C7.36273 8.34538 7.35285 8.35422 7.35285 8.35422L7.35356 8.35351C7.16215 8.54491 7.11497 8.6625 7.0881 8.78342C7.07076 8.86145 7.06047 8.95124 7.04785 9.08689L7.04334 9.13593C7.03226 9.25689 7.0188 9.40389 6.99498 9.57066C6.95592 9.84403 6.70266 10.034 6.42929 9.99493C6.15592 9.95588 5.96598 9.70261 6.00503 9.42924C6.02505 9.28906 6.03621 9.16757 6.04739 9.04589L6.05215 8.99427C6.06453 8.86116 6.07925 8.71346 6.11191 8.56649C6.18504 8.2374 6.33786 7.95499 6.64645 7.6464C6.77037 7.52247 6.93446 7.43057 7.07899 7.36098C7.23312 7.28677 7.4134 7.21567 7.60337 7.14695C7.85183 7.05708 8.14401 6.96193 8.44483 6.86395C8.59728 6.8143 8.75198 6.76392 8.90439 6.71311C8.95871 6.695 9.01302 6.67676 9.06721 6.65836C8.45277 5.53278 7.72746 4.37821 7 3.30885C6.23596 4.43197 5.4743 5.6491 4.84096 6.82791C4.37421 7.69663 3.98887 8.52297 3.72294 9.26047C3.45135 10.0137 3.33333 10.5959 3.33333 11Z"  style="mix-blend-mode:normal" fill="url(#linear_fill_7WYm9KPFQ5wpAHUPkF6XR)" >
</path>
<defs>
<linearGradient id="linear_fill_7WYm9KPFQ5wpAHUPkF6XR" x1="2" y1="8.5" x2="15.5" y2="8.5" gradientUnits="userSpaceOnUse">
<stop offset="0" stop-color="#36F7BD"  />
<stop offset="1" stop-color="#FA1E6F" stop-opacity="0.88" />
</linearGradient>
</defs>
</svg>
