<svg xmlns="http://www.w3.org/2000/svg" xmlns:xlink="http://www.w3.org/1999/xlink" width="16" height="16" viewBox="0 0 16 16" fill="none">
<path     fill="#000000" fill-opacity="0" d="M0 16L16 16L16 0L0 0L0 16Z">
</path>
<path     fill="#000000" fill-opacity="0" d="M0 16L16 16L16 0L0 0L0 16Z">
</path>
<path d="M10.8329 12.9999C12.6419 12.9616 13.661 13.0691 15.4269 13.4845C15.6806 13.5441 15.9321 13.3756 15.9886 13.108C16.0452 12.8405 15.8854 12.5752 15.6317 12.5155C13.7924 12.0829 12.6982 11.9675 10.8141 12.0074C9.64039 12.0322 8.74221 12.2811 7.89227 12.5166L7.88043 12.5199C7.028 12.7561 6.22321 12.9778 5.16707 13.0001C3.35813 13.0384 2.33903 12.9309 0.5731 12.5155C0.319434 12.4559 0.0679444 12.6244 0.0113812 12.892C-0.045182 13.1595 0.114601 13.4248 0.368267 13.4845C2.2076 13.9171 3.30181 14.0325 5.18594 13.9926C6.3596 13.9678 7.25779 13.7189 8.10773 13.4834L8.11957 13.4801C8.972 13.2439 9.77679 13.0222 10.8329 12.9999ZM10.8329 14.9999C12.6419 14.9616 13.661 15.0691 15.4269 15.4845C15.6806 15.5441 15.9321 15.3756 15.9886 15.108C16.0452 14.8405 15.8854 14.5752 15.6317 14.5155C13.7924 14.0829 12.6982 13.9675 10.8141 14.0074C9.64039 14.0322 8.74221 14.2811 7.89227 14.5166L7.88043 14.5199C7.028 14.7561 6.22321 14.9778 5.16707 15.0001C3.35813 15.0384 2.33903 14.9309 0.5731 14.5155C0.319434 14.4559 0.0679444 14.6244 0.0113812 14.892C-0.045182 15.1595 0.114601 15.4248 0.368267 15.4845C2.2076 15.9171 3.30181 16.0325 5.18594 15.9926C6.3596 15.9678 7.25779 15.7189 8.10773 15.4834L8.11957 15.4801C8.972 15.2439 9.77679 15.0222 10.8329 14.9999Z" fill-rule="evenodd" style="mix-blend-mode:normal" fill="url(#linear_fill_CD-RP4RX4Ezykb-t_uuua)" >
</path>
<path d="M7.40563 2.05622L1.19541 4.65843C0.827955 4.81241 0.85948 5.35241 1.24179 5.45281L2.43427 5.766L0.656494 12.535C2.37151 12.9342 3.38678 13.0377 5.16705 13.0001C6.22319 12.9777 7.02798 12.7561 7.8804 12.5199L7.89225 12.5166C8.32377 12.397 8.76773 12.274 9.25387 12.1786L10.3893 7.85527L11.5821 8.16854C11.9644 8.26895 12.2572 7.81413 12.0129 7.49947L7.88274 2.18152C7.7698 2.0361 7.57546 1.98506 7.40563 2.05622ZM4.7036 8.92943L7.09012 9.55622C7.30979 9.61391 7.4411 9.83876 7.38341 10.0584L6.75663 12.4449C6.69893 12.6646 6.47408 12.7959 6.25441 12.7382L3.86789 12.1115C3.64822 12.0538 3.51691 11.8289 3.57461 11.6092L4.20139 9.22272C4.25908 9.00305 4.48393 8.87174 4.7036 8.92943Z"  style="mix-blend-mode:normal" fill="url(#linear_fill_JsMeffio9pgNkt812DBAL)" >
</path>
<path d="M14.7462 6.12537C14.7126 5.99994 14.5545 5.95757 14.4627 6.04943L11.0488 9.46539C10.9577 9.55654 11.0003 9.71173 11.1257 9.74531L12.9255 10.2274L12.4444 12.0228C12.7909 12.0403 13.1225 12.0683 13.4566 12.1089L13.8915 10.4861L15.7876 10.994C15.9129 11.0276 16.0275 10.9145 15.9942 10.79L14.7462 6.12537ZM13.858 7.31971C13.8851 7.13866 14.1052 7.0356 14.3339 7.09685C14.5626 7.15811 14.7016 7.35734 14.6345 7.52769L14.0453 9.024L13.6199 8.91005L13.858 7.31971ZM13.9797 9.67459C13.9336 9.84674 13.7566 9.9489 13.5844 9.90277C13.4122 9.85664 13.31 9.6797 13.3561 9.50756C13.4023 9.33541 13.5793 9.23325 13.7515 9.27938C13.9237 9.3255 14.0259 9.50245 13.9797 9.67459Z"  style="mix-blend-mode:normal" fill="url(#linear_fill_OgdUzj7jg62kmj-x3ga2J)" >
</path>
<defs>
<linearGradient id="linear_fill_CD-RP4RX4Ezykb-t_uuua" x1="0" y1="14" x2="16" y2="14" gradientUnits="userSpaceOnUse">
<stop offset="0" stop-color="#36F7BD"  />
<stop offset="1" stop-color="#FA1E6F" stop-opacity="0.88" />
</linearGradient>
<linearGradient id="linear_fill_JsMeffio9pgNkt812DBAL" x1="0.656494140625" y1="7.514404296875" x2="12.10650634765625" y2="7.514404296875" gradientUnits="userSpaceOnUse">
<stop offset="0" stop-color="#36F7BD"  />
<stop offset="1" stop-color="#FA1E6F" stop-opacity="0.88" />
</linearGradient>
<linearGradient id="linear_fill_OgdUzj7jg62kmj-x3ga2J" x1="11" y1="9.0550537109375" x2="16" y2="9.0550537109375" gradientUnits="userSpaceOnUse">
<stop offset="0" stop-color="#36F7BD"  />
<stop offset="1" stop-color="#FA1E6F" stop-opacity="0.88" />
</linearGradient>
</defs>
</svg>
