<svg xmlns="http://www.w3.org/2000/svg" xmlns:xlink="http://www.w3.org/1999/xlink" width="16" height="16" viewBox="0 0 16 16" fill="none">
<path     fill="#000000" fill-opacity="0" d="M0 16L16 16L16 0L0 0L0 16Z">
</path>
<path     fill="#000000" fill-opacity="0" d="M0 16L16 16L16 0L0 0L0 16Z">
</path>
<path d="M10.8329 12.9999C12.6419 12.9616 13.661 13.0691 15.4269 13.4845C15.6806 13.5441 15.9321 13.3756 15.9886 13.108C16.0452 12.8405 15.8854 12.5752 15.6317 12.5155C13.7924 12.0829 12.6982 11.9675 10.8141 12.0074C9.64039 12.0322 8.74221 12.2811 7.89227 12.5166L7.88043 12.5199C7.028 12.7561 6.22321 12.9778 5.16707 13.0001C3.35813 13.0384 2.33903 12.9309 0.5731 12.5155C0.319434 12.4559 0.0679444 12.6244 0.0113812 12.892C-0.045182 13.1595 0.114601 13.4248 0.368267 13.4845C2.2076 13.9171 3.30181 14.0325 5.18594 13.9926C6.3596 13.9678 7.25779 13.7189 8.10773 13.4834L8.11957 13.4801C8.972 13.2439 9.77679 13.0222 10.8329 12.9999ZM10.8329 14.9999C12.6419 14.9616 13.661 15.0691 15.4269 15.4845C15.6806 15.5441 15.9321 15.3756 15.9886 15.108C16.0452 14.8405 15.8854 14.5752 15.6317 14.5155C13.7924 14.0829 12.6982 13.9675 10.8141 14.0074C9.64039 14.0322 8.74221 14.2811 7.89227 14.5166L7.88043 14.5199C7.028 14.7561 6.22321 14.9778 5.16707 15.0001C3.35813 15.0384 2.33903 14.9309 0.5731 14.5155C0.319434 14.4559 0.0679444 14.6244 0.0113812 14.892C-0.045182 15.1595 0.114601 15.4248 0.368267 15.4845C2.2076 15.9171 3.30181 16.0325 5.18594 15.9926C6.3596 15.9678 7.25779 15.7189 8.10773 15.4834L8.11957 15.4801C8.972 15.2439 9.77679 15.0222 10.8329 14.9999Z" fill-rule="evenodd" style="mix-blend-mode:normal" fill="url(#linear_fill_anZfISkQDX6N1b4AZU8o3)" >
</path>
<path d="M5.53648 5.29305C5.66897 5.25481 5.82576 5.29682 5.92138 5.39618L9.41828 9.0298C9.62519 9.2448 9.40969 9.52577 9.10126 9.44312L7.92525 9.12801L6.95104 12.7638C6.40668 12.8914 5.83752 12.9859 5.16707 13C3.36596 13.0381 2.34787 12.9317 0.595988 12.5208L1.93516 7.52297L0.759153 7.20786C0.450725 7.12522 0.404577 6.77414 0.691266 6.6914L5.53648 5.29305ZM4.16018 9.20257C3.8845 9.1287 3.60038 9.29509 3.52558 9.57423L3.25473 10.5851C3.17994 10.8642 3.3428 11.1504 3.61848 11.2242L4.61683 11.4917C4.89252 11.5656 5.17664 11.3992 5.25143 11.1201L5.52228 10.1092C5.59707 9.83011 5.43422 9.54394 5.15853 9.47007L4.16018 9.20257Z"  style="mix-blend-mode:normal" fill="url(#linear_fill_ggaWxJuD7wRinFOliUHys)" >
</path>
<path d="M14.2913 4.04986C14.3985 3.95565 14.567 4.00081 14.6128 4.136L15.5523 6.91324C15.6035 7.06456 15.4654 7.21186 15.3111 7.17052L14.9476 7.07312L15.5318 8.98343C15.5778 9.13365 15.4405 9.27576 15.2888 9.23511L14.9612 9.14734L15.5056 11.0502C15.5483 11.1996 15.4117 11.3386 15.2615 11.2983L13.6016 10.8536L13.271 12.0876C12.632 12.0188 11.991 11.9943 11.2236 12.0011L11.6698 10.3359L10.1484 9.92828C9.99819 9.88804 9.94934 9.69938 10.0611 9.59132L11.4839 8.21559L11.1563 8.1278C11.0045 8.08714 10.9568 7.89545 11.0717 7.78833L12.5328 6.42608L12.1693 6.32868C12.015 6.28734 11.969 6.09072 12.089 5.98527L14.2913 4.04986Z"  style="mix-blend-mode:normal" fill="url(#linear_fill_mqECAAvMYdYYdzzzVfAcj)" >
</path>
<path d="M0.292893 2.70711C0.105357 2.51957 0 2.26522 0 2C0 1.5 0.555422 0.604988 1 0C1.44458 0.604988 2 1.5 2 2C2 2.26522 1.89464 2.51957 1.70711 2.70711C1.51957 2.89464 1.26522 3 1 3C0.734784 3 0.48043 2.89464 0.292893 2.70711ZM6.29289 2.70711C6.10536 2.51957 6 2.26522 6 2C6 1.5 6.55542 0.604988 7 0C7.44458 0.604988 8 1.5 8 2C8 2.26522 7.89464 2.51957 7.70711 2.70711C7.51957 2.89464 7.26522 3 7 3C6.73478 3 6.48043 2.89464 6.29289 2.70711ZM3 2C3 2.26522 3.10536 2.51957 3.29289 2.70711C3.48043 2.89464 3.73478 3 4 3C4.26522 3 4.51957 2.89464 4.70711 2.70711C4.89464 2.51957 5 2.26522 5 2C5 1.5 4.44458 0.604988 4 0C3.55542 0.604988 3 1.5 3 2Z" fill-rule="evenodd" style="mix-blend-mode:normal" fill="url(#linear_fill_SidEVR2n3c0l-LHrHpj4y)" >
</path>
<defs>
<linearGradient id="linear_fill_anZfISkQDX6N1b4AZU8o3" x1="0" y1="14" x2="16" y2="14" gradientUnits="userSpaceOnUse">
<stop offset="0" stop-color="#36F7BD"  />
<stop offset="1" stop-color="#FA1E6F" stop-opacity="0.88" />
</linearGradient>
<linearGradient id="linear_fill_ggaWxJuD7wRinFOliUHys" x1="0.5" y1="9.14404296875" x2="9.5" y2="9.14404296875" gradientUnits="userSpaceOnUse">
<stop offset="0" stop-color="#36F7BD"  />
<stop offset="1" stop-color="#FA1E6F" stop-opacity="0.88" />
</linearGradient>
<linearGradient id="linear_fill_mqECAAvMYdYYdzzzVfAcj" x1="10" y1="8.0450439453125" x2="15.55999755859375" y2="8.0450439453125" gradientUnits="userSpaceOnUse">
<stop offset="0" stop-color="#36F7BD"  />
<stop offset="1" stop-color="#FA1E6F" stop-opacity="0.88" />
</linearGradient>
<linearGradient id="linear_fill_SidEVR2n3c0l-LHrHpj4y" x1="0" y1="1.5" x2="8" y2="1.5" gradientUnits="userSpaceOnUse">
<stop offset="0" stop-color="#36F7BD"  />
<stop offset="1" stop-color="#FA1E6F" stop-opacity="0.88" />
</linearGradient>
</defs>
</svg>
