<svg xmlns="http://www.w3.org/2000/svg" xmlns:xlink="http://www.w3.org/1999/xlink" width="16" height="16" viewBox="0 0 16 16" fill="none">
<path     fill="#000000" fill-opacity="0" d="M0 16L16 16L16 0L0 0L0 16Z">
</path>
<path d="M2.95969 1.30213C2.74712 1.00751 2.2876 0.911978 1.93332 1.08875C1.57904 1.26552 1.46416 1.64766 1.67673 1.94227L4.32401 5.6114C4.37617 5.68369 4.3705 5.77506 4.30967 5.84251L2.05607 8.3413C1.69056 8.74657 1.60557 9.28099 1.83181 9.75135L3.3814 12.9729C2.48709 12.9142 1.67566 12.7749 0.5731 12.5155C0.319434 12.4559 0.0679444 12.6244 0.0113811 12.892C-0.045182 13.1595 0.114601 13.4248 0.368267 13.4845C2.2076 13.9171 3.30181 14.0325 5.18594 13.9926C6.3596 13.9678 7.25779 13.7189 8.10773 13.4834L8.11957 13.4801C8.972 13.2439 9.77679 13.0222 10.8329 12.9999C12.6419 12.9616 13.661 13.0691 15.4269 13.4845C15.6806 13.5441 15.9321 13.3756 15.9886 13.108C16.0452 12.8405 15.8854 12.5752 15.6317 12.5155C14.6672 12.2887 13.9076 12.149 13.1315 12.0733L11.7924 9.28926C11.7601 9.22207 11.7722 9.14572 11.8244 9.08782L14.078 6.58904C14.5039 6.11689 14.5435 5.47734 14.1784 4.97125L11.5311 1.30213C11.3185 1.00751 10.859 0.911978 10.5047 1.08875C10.1505 1.26552 10.0356 1.64766 10.2482 1.94227L12.8954 5.6114C12.9476 5.68369 12.9419 5.77506 12.8811 5.84251L10.6275 8.3413C10.262 8.74657 10.177 9.28099 10.4032 9.75135L11.4848 12C11.2715 11.9998 11.0489 12.0024 10.8141 12.0074C10.1012 12.0224 9.49004 12.1202 8.92955 12.2474L7.50669 9.28926C7.47437 9.22207 7.48651 9.14572 7.53872 9.08782L9.79232 6.58904C10.2181 6.11689 10.2578 5.47734 9.89268 4.97125L7.2454 1.30213C7.03283 1.00751 6.57331 0.911978 6.21903 1.08875C5.86475 1.26552 5.74987 1.64766 5.96244 1.94227L8.60972 5.6114C8.66189 5.68369 8.65622 5.77506 8.59539 5.84251L6.34179 8.3413C5.97628 8.74657 5.89128 9.28099 6.11753 9.75135L7.49951 12.6245C6.78122 12.8181 6.06498 12.9811 5.16707 13.0001C5.11314 13.0012 5.05991 13.0023 5.00735 13.0031L3.22097 9.28926C3.18865 9.22207 3.20079 9.14572 3.25301 9.08782L5.50661 6.58904C5.93243 6.11689 5.97211 5.47734 5.60697 4.97125L2.95969 1.30213ZM15.4269 15.4845C13.661 15.0691 12.6419 14.9616 10.8329 14.9999C9.77679 15.0222 8.972 15.2439 8.11957 15.4801L8.10773 15.4834C7.25779 15.7189 6.3596 15.9678 5.18594 15.9926C3.30181 16.0325 2.2076 15.9171 0.368267 15.4845C0.114601 15.4248 -0.045182 15.1595 0.0113811 14.892C0.0679444 14.6244 0.319434 14.4559 0.5731 14.5155C2.33903 14.9309 3.35813 15.0384 5.16707 15.0001C6.22321 14.9778 7.028 14.7561 7.88043 14.5199L7.89227 14.5166C8.74221 14.2811 9.64039 14.0322 10.8141 14.0074C12.6982 13.9675 13.7924 14.0829 15.6317 14.5155C15.8854 14.5752 16.0452 14.8405 15.9886 15.108C15.9321 15.3756 15.6806 15.5441 15.4269 15.4845Z" fill-rule="evenodd" style="mix-blend-mode:normal" fill="url(#linear_fill_TJgUJihXjzRw5P2FC6kJp)" >
</path>
<defs>
<linearGradient id="linear_fill_TJgUJihXjzRw5P2FC6kJp" x1="0" y1="8.5" x2="16" y2="8.5" gradientUnits="userSpaceOnUse">
<stop offset="0" stop-color="#36F7BD"  />
<stop offset="1" stop-color="#FA1E6F" stop-opacity="0.88" />
</linearGradient>
</defs>
</svg>
