<svg xmlns="http://www.w3.org/2000/svg" xmlns:xlink="http://www.w3.org/1999/xlink" width="16" height="16" viewBox="0 0 16 16" fill="none">
<path     fill="#000000" fill-opacity="0" d="M0 16L16 16L16 0L0 0L0 16Z">
</path>
<path d="M12.0311 1.42118C11.591 1.86968 11 2.63334 11 3.5C11 4.88071 12.5 6 12.5 6C12.5 6 14 4.88071 14 3.5C14 2.89063 13.7078 2.33219 13.3814 1.89841C12.8629 0.594055 11.7244 0 10.5859 0L10.5051 0C9.29298 0 8.08086 0.727273 7.5152 2.10101C7.4344 1.93939 7.27278 1.77778 7.11116 1.61616C6.62632 1.13131 5.89904 0.808081 5.17177 0.808081C3.99814 0.808081 2.75793 1.5405 2.53905 2.94489C2.34746 3.25116 2.19995 3.61273 2.19995 4C2.19995 5.10457 3.39995 6 3.39995 6C3.39995 6 4.59995 5.10457 4.59995 4C4.59995 3.25452 4.05335 2.6043 3.69796 2.26033C4.06212 1.82485 4.63187 1.61616 5.17177 1.61616C5.73743 1.61616 6.22228 1.77778 6.54551 2.18182C6.94955 2.58586 7.19197 3.15152 7.19197 3.87879L7.19197 8L3.31313 8L4.76768 10.1818L7.27273 10.4242L8.80808 13.7374L8.08081 14.0606L6.70707 11.1515L4.68687 10.9899L3.39394 12.8485L4.36364 15.0303L3.63636 15.3535L2.66667 13.2525L0 14.1414L0 16L10.4242 16L12.8485 13.0101L11.1515 11.8788L9.53535 12.2828L9.37374 11.4747L10.9899 11.0707L11.8788 8L8.00005 8L8.00005 3.87879C8.00005 1.77778 9.29298 0.808081 10.5051 0.808081C11.0566 0.808081 11.6082 1.00855 12.0311 1.42118ZM4.0404 10.5051L2.74747 12.4444L0 13.3333L0 8L2.34343 8L4.0404 10.5051ZM12.6868 8L11.7172 11.2323L13.6565 12.6061L14.6262 13.4141L14.1414 14.0606L13.4949 13.5758L11.5 16L16 16L16 8.08081C14.9495 8 13.8182 8 12.6868 8Z" fill-rule="evenodd" style="mix-blend-mode:normal" fill="url(#linear_fill_EPW3oG5qMjHGXOQPdzFpZ)" >
</path>
<defs>
<linearGradient id="linear_fill_EPW3oG5qMjHGXOQPdzFpZ" x1="0" y1="8" x2="16" y2="8" gradientUnits="userSpaceOnUse">
<stop offset="0" stop-color="#36F7BD"  />
<stop offset="1" stop-color="#FA1E6F" stop-opacity="0.88" />
</linearGradient>
</defs>
</svg>
