<svg xmlns="http://www.w3.org/2000/svg" xmlns:xlink="http://www.w3.org/1999/xlink" width="16.00006103515625" height="16" viewBox="0 0 16.00006103515625 16" fill="none">
<path     fill="#000000" fill-opacity="0" d="M0 16L16 16L16 0L0 0L0 16Z">
</path>
<path d="M1.84241 0.842105C1.84241 0.377023 2.21943 0 2.68451 0L11.1056 0C11.5706 0 11.9477 0.377023 11.9477 0.842105C11.9477 1.30719 11.5706 1.68421 11.1056 1.68421L7.73706 1.68421L7.73706 2.52637L10.9474 2.52637C13.7379 2.52637 16.0001 4.78851 16.0001 7.579L16.0001 9.26321L12.6316 9.26321L12.6316 7.579C12.6316 6.64884 11.8776 5.89479 10.9474 5.89479L0 5.89479L0 2.52637L6.05285 2.52637L6.05285 1.68421L2.68451 1.68421C2.21943 1.68421 1.84241 1.30719 1.84241 0.842105ZM14.2666 16C15.1926 16 15.9333 15.2593 15.9333 14.3333C15.9333 13.2685 14.2666 11 14.2666 11C14.2666 11 12.6 13.2222 12.6 14.3333C12.6 15.2593 13.3407 16 14.2666 16Z" fill-rule="evenodd" style="mix-blend-mode:normal" fill="url(#linear_fill_pLC1e5eVTjT-m2TgCwNYB)" >
</path>
<path d="M7.22731 7.63071C7.12681 7.45643 6.87319 7.45643 6.77269 7.63071L3.03488 14.1119C2.93515 14.2848 3.06117 14.5 3.2622 14.5L10.7378 14.5C10.9388 14.5 11.0649 14.2848 10.9651 14.1119L7.22731 7.63071ZM6.37744 9.7743C6.34539 9.49246 6.6333 9.25 7 9.25C7.3667 9.25 7.65461 9.49246 7.62256 9.7743L7.34109 12.25L6.65891 12.25L6.37744 9.7743ZM7.50389 13.25C7.50389 13.5261 7.28004 13.75 7.00389 13.75C6.72775 13.75 6.50389 13.5261 6.50389 13.25C6.50389 12.9739 6.72775 12.75 7.00389 12.75C7.28004 12.75 7.50389 12.9739 7.50389 13.25Z"  style="mix-blend-mode:normal" fill="url(#linear_fill_sXXuYF6EInv6d1PMUti3c)" >
</path>
<defs>
<linearGradient id="linear_fill_pLC1e5eVTjT-m2TgCwNYB" x1="0" y1="8" x2="16" y2="8" gradientUnits="userSpaceOnUse">
<stop offset="0" stop-color="#36F7BD"  />
<stop offset="1" stop-color="#FA1E6F" stop-opacity="0.88" />
</linearGradient>
<linearGradient id="linear_fill_sXXuYF6EInv6d1PMUti3c" x1="3" y1="11" x2="11" y2="11" gradientUnits="userSpaceOnUse">
<stop offset="0" stop-color="#57F28B" stop-opacity="0.74" />
<stop offset="1" stop-color="#FA2A2A" stop-opacity="0.74" />
</linearGradient>
</defs>
</svg>
