<svg xmlns="http://www.w3.org/2000/svg" xmlns:xlink="http://www.w3.org/1999/xlink" width="16.0174560546875" height="16" viewBox="0 0 16.0174560546875 16" fill="none">
<path     fill="#000000" fill-opacity="0" d="M0 16L16 16L16 0L0 0L0 16Z">
</path>
<path d="M8.01746 0C12.0971 0 15.4635 3.05369 15.9556 7C15.9964 7.32759 16.0175 7.66134 16.0175 8C16.0175 12.4183 12.4357 16 8.01746 16C3.59918 16 0.0174561 12.4183 0.0174561 8L0 8C0 7.90499 0.00753781 7.8108 0.0223484 7.71757C0.0307478 7.47549 0.0499026 7.23615 0.0793498 7C0.571448 3.05369 3.93784 0 8.01746 0ZM5.38398 1.51227C3.4521 2.29723 1.95 3.92003 1.32867 5.92967C1.98986 5.46246 2.86845 5.06872 3.89679 4.78015C4.22145 3.46892 4.73832 2.34202 5.38398 1.51227ZM3.67502 5.89392C3.34856 6.00313 3.04503 6.12375 2.76758 6.25381C2.23868 6.50173 1.85446 6.75652 1.58214 7L3.55227 7C3.57875 6.62251 3.62002 6.25318 3.67502 5.89392ZM4.55489 7L7.51746 7L7.51746 5.25712C6.51519 5.28678 5.57748 5.40794 4.74071 5.59778C4.65475 6.04428 4.59166 6.51321 4.55489 7ZM7.51746 4.25671L7.51746 1.08189C6.92047 1.27508 6.27659 1.82089 5.70705 2.83341C5.43287 3.32084 5.19414 3.88941 5.00396 4.52184C5.78779 4.37334 6.63329 4.28137 7.51746 4.25671ZM8.51746 5.25819L8.51746 7L11.48 7C11.4435 6.51624 11.3809 6.05012 11.2958 5.60612C10.4595 5.41372 9.52117 5.29006 8.51746 5.25819ZM11.0331 4.5289C10.8425 3.89365 10.6031 3.32265 10.3279 2.83341C9.75832 1.82089 9.11444 1.27508 8.51746 1.08189L8.51746 4.25772C9.40289 4.28422 10.2492 4.37823 11.0331 4.5289ZM12.1407 4.79075C13.1762 5.08494 14.0579 5.48613 14.716 5.96161C14.1008 3.93723 12.593 2.30138 10.6509 1.51227C11.2983 2.34426 11.8162 3.47499 12.1407 4.79075ZM12.3618 5.90631C12.4158 6.26167 12.4565 6.62685 12.4826 7L14.4179 7C14.1455 6.75652 13.7613 6.50173 13.2324 6.25381C12.9654 6.12865 12.6743 6.01223 12.3618 5.90631ZM3.59998 7L5.49998 9.1L4.39998 10.7L1.59998 11.6L1.79998 12.2L4.49998 11.4L5.29998 13.2L5.89998 12.9L4.99998 11L6.09998 9.5L7.79998 9.6L8.89998 12L9.49998 11.8L8.19998 9L6.09998 8.8L4.39998 7L3.59998 7ZM11 9.4L9.69995 9.7L9.79995 10.4L11.2 10L12.6 11L9.99995 14.3L10.5 14.7L13.1 11.4L13.7 11.8L14.1 11.3L11.7 9.5L12.4 7L11.7 7L11 9.4Z"  style="mix-blend-mode:normal" fill="url(#linear_fill_0eQgvlUX3CDuvXaT17aYE)" >
</path>
<defs>
<linearGradient id="linear_fill_0eQgvlUX3CDuvXaT17aYE" x1="0" y1="8" x2="16.02001953125" y2="8" gradientUnits="userSpaceOnUse">
<stop offset="0" stop-color="#36F7BD"  />
<stop offset="1" stop-color="#FA1E6F" stop-opacity="0.88" />
</linearGradient>
</defs>
</svg>
