<svg xmlns="http://www.w3.org/2000/svg" xmlns:xlink="http://www.w3.org/1999/xlink" width="16" height="16" viewBox="0 0 16 16" fill="none">
<path     fill="#000000" fill-opacity="0" d="M0 16L16 16L16 0L0 0L0 16Z">
</path>
<path d="M7.0039 5.99617C6.95263 5.46068 7.41327 5 8 5C8.58673 5 9.04737 5.46068 8.9961 5.99617L8.54574 10.7L7.45426 10.7L7.0039 5.99617ZM8.74995 12.25C8.74995 12.6642 8.41417 13 7.99995 13C7.58574 13 7.24995 12.6642 7.24995 12.25C7.24995 11.8358 7.58574 11.5 7.99995 11.5C8.41417 11.5 8.74995 11.8358 8.74995 12.25ZM7.54537 1.26141C7.74639 0.912862 8.25361 0.912863 8.45463 1.26141L15.9302 14.2238C16.1297 14.5697 15.8777 15 15.4756 15L0.524392 15C0.122346 15 -0.129707 14.5696 0.0697641 14.2238L7.54537 1.26141ZM14.3006 13.8L8 2.87509L1.69942 13.8L14.3006 13.8Z" fill-rule="evenodd" style="mix-blend-mode:normal" fill="url(#linear_fill_S3ZYDtSBGdUgKnoXfmIga)" >
</path>
<path d="M11.4935 0.809886C11.5433 0.594662 11.7581 0.460575 11.9734 0.510392C13.2788 0.812558 14.3396 1.53937 14.9487 2.59431C15.5577 3.64925 15.6568 4.93136 15.2657 6.21297C15.2013 6.42427 14.9777 6.5433 14.7664 6.47883C14.5551 6.41436 14.4361 6.19081 14.5006 5.97951C14.837 4.87679 14.7378 3.82913 14.2559 2.99431C13.7739 2.15948 12.9162 1.54978 11.7929 1.28979C11.5777 1.23997 11.4436 1.02511 11.4935 0.809886ZM10.9723 2.02315C11.0313 1.81027 11.2518 1.68554 11.4646 1.74457C12.4117 2.00716 13.1823 2.56387 13.6371 3.35156C14.0919 4.13925 14.1887 5.08496 13.9426 6.03643C13.8872 6.25031 13.669 6.37884 13.4551 6.32352C13.2413 6.26819 13.1127 6.04996 13.168 5.83609C13.369 5.05929 13.2803 4.33366 12.9443 3.75156C12.6082 3.16946 12.0241 2.72987 11.2509 2.51549C11.038 2.45646 10.9133 2.23603 10.9723 2.02315ZM10.4053 3.34453C10.4765 3.13541 10.7038 3.02363 10.9129 3.09486C11.4873 3.29052 11.958 3.65439 12.2467 4.15431C12.5353 4.65423 12.615 5.24385 12.4973 5.83914C12.4544 6.05586 12.244 6.19678 12.0273 6.15391C11.8105 6.11104 11.6696 5.9006 11.7125 5.68389C11.7971 5.25606 11.7346 4.86742 11.5539 4.55431C11.3731 4.2412 11.0678 3.99275 10.6549 3.85214C10.4458 3.78091 10.334 3.55364 10.4053 3.34453Z"  style="mix-blend-mode:normal" fill="url(#linear_fill_zYl6_tsBmpL7WE9uF7S3M)" >
</path>
<defs>
<linearGradient id="linear_fill_S3ZYDtSBGdUgKnoXfmIga" x1="0" y1="8" x2="16" y2="8" gradientUnits="userSpaceOnUse">
<stop offset="0" stop-color="#57F28B" stop-opacity="0.74" />
<stop offset="1" stop-color="#FA2A2A" stop-opacity="0.74" />
</linearGradient>
<linearGradient id="linear_fill_zYl6_tsBmpL7WE9uF7S3M" x1="10.3837890625" y1="3.5" x2="15.4937744140625" y2="3.5" gradientUnits="userSpaceOnUse">
<stop offset="0" stop-color="#36F7BD"  />
<stop offset="1" stop-color="#FA1E6F" stop-opacity="0.88" />
</linearGradient>
</defs>
</svg>
