<svg xmlns="http://www.w3.org/2000/svg" xmlns:xlink="http://www.w3.org/1999/xlink" width="16" height="16" viewBox="0 0 16 16" fill="none">
<path     fill="#000000" fill-opacity="0" d="M0 16L16 16L16 0L0 0L0 16Z">
</path>
<path     fill="#000000" fill-opacity="0" d="M0 16L16 16L16 0L0 0L0 16Z">
</path>
<path d="M10.8329 12.9999C12.6419 12.9616 13.661 13.0691 15.4269 13.4845C15.6806 13.5441 15.9321 13.3756 15.9886 13.108C16.0452 12.8405 15.8854 12.5752 15.6317 12.5155C13.7924 12.0829 12.6982 11.9675 10.8141 12.0074C9.64039 12.0322 8.74221 12.2811 7.89227 12.5166L7.88043 12.5199C7.028 12.7561 6.22321 12.9778 5.16707 13.0001C3.35813 13.0384 2.33903 12.9309 0.5731 12.5155C0.319434 12.4559 0.0679444 12.6244 0.0113812 12.892C-0.045182 13.1595 0.114601 13.4248 0.368267 13.4845C2.2076 13.9171 3.30181 14.0325 5.18594 13.9926C6.3596 13.9678 7.25779 13.7189 8.10773 13.4834L8.11957 13.4801C8.972 13.2439 9.77679 13.0222 10.8329 12.9999ZM10.8329 14.9999C12.6419 14.9616 13.661 15.0691 15.4269 15.4845C15.6806 15.5441 15.9321 15.3756 15.9886 15.108C16.0452 14.8405 15.8854 14.5752 15.6317 14.5155C13.7924 14.0829 12.6982 13.9675 10.8141 14.0074C9.64039 14.0322 8.74221 14.2811 7.89227 14.5166L7.88043 14.5199C7.028 14.7561 6.22321 14.9778 5.16707 15.0001C3.35813 15.0384 2.33903 14.9309 0.5731 14.5155C0.319434 14.4559 0.0679444 14.6244 0.0113812 14.892C-0.045182 15.1595 0.114601 15.4248 0.368267 15.4845C2.2076 15.9171 3.30181 16.0325 5.18594 15.9926C6.3596 15.9678 7.25779 15.7189 8.10773 15.4834L8.11957 15.4801C8.972 15.2439 9.77679 15.0222 10.8329 14.9999Z" fill-rule="evenodd" style="mix-blend-mode:normal" fill="url(#linear_fill_vvHmKYTT7jPIW9zPH4q-P)" >
</path>
<path d="M10 1L11.0108 7.21138L13.255 4.33886L15.5 9.12823L15.5 11.231C13.7392 10.8237 12.6528 10.7147 10.8141 10.7536C9.6404 10.7784 8.74221 11.0273 7.89227 11.2629L7.88043 11.2661C7.028 11.5024 6.22321 11.724 5.16707 11.7463C3.35813 11.7846 2.33903 11.6771 0.5731 11.2617C0.548656 11.256 0.524232 11.2524 0.5 11.2507L0.5 10.0796L3.76189 5.44046L6.05703 8.37824L10 1Z"  style="mix-blend-mode:normal" fill="url(#linear_fill_f8VDGnKerYnsXGSQHDBuZ)" >
</path>
<path d="M2.1109 1.42144C2.09087 1.24529 2.27081 1.09375 2.5 1.09375C2.72919 1.09375 2.90913 1.24529 2.8891 1.42144L2.71318 2.96875L2.28682 2.96875L2.1109 1.42144ZM2.81493 3.59375C2.81493 3.76634 2.67502 3.90625 2.50243 3.90625C2.32984 3.90625 2.18993 3.76634 2.18993 3.59375C2.18993 3.42116 2.32984 3.28125 2.50243 3.28125C2.67502 3.28125 2.81493 3.42116 2.81493 3.59375ZM0 2.5C0 3.88071 1.11929 5 2.5 5C3.88071 5 5 3.88071 5 2.5C5 1.11929 3.88071 0 2.5 0C1.11929 0 0 1.11929 0 2.5ZM4.59375 2.5C4.59375 3.65635 3.65635 4.59375 2.5 4.59375C1.34365 4.59375 0.406251 3.65635 0.406251 2.5C0.406251 1.34365 1.34365 0.40625 2.5 0.40625C3.65635 0.40625 4.59375 1.34365 4.59375 2.5Z" fill-rule="evenodd" style="mix-blend-mode:normal" fill="url(#linear_fill_LDgpNCUaEsHQhIzbtzdgs)" >
</path>
<defs>
<linearGradient id="linear_fill_vvHmKYTT7jPIW9zPH4q-P" x1="0" y1="14" x2="16" y2="14" gradientUnits="userSpaceOnUse">
<stop offset="0" stop-color="#36F7BD"  />
<stop offset="1" stop-color="#FA1E6F" stop-opacity="0.88" />
</linearGradient>
<linearGradient id="linear_fill_f8VDGnKerYnsXGSQHDBuZ" x1="0.5" y1="6.375" x2="15.5" y2="6.375" gradientUnits="userSpaceOnUse">
<stop offset="0" stop-color="#36F7BD"  />
<stop offset="1" stop-color="#FA1E6F" stop-opacity="0.88" />
</linearGradient>
<linearGradient id="linear_fill_LDgpNCUaEsHQhIzbtzdgs" x1="0" y1="2.5" x2="5" y2="2.5" gradientUnits="userSpaceOnUse">
<stop offset="0" stop-color="#57F28B" stop-opacity="0.74" />
<stop offset="1" stop-color="#FA2A2A" stop-opacity="0.74" />
</linearGradient>
</defs>
</svg>
