<svg xmlns="http://www.w3.org/2000/svg" xmlns:xlink="http://www.w3.org/1999/xlink" width="16.04168701171875" height="16.041748046875" viewBox="0 0 16.04168701171875 16.041748046875" fill="none">
<path     fill="#000000" fill-opacity="0" d="M0 16L16 16L16 0L0 0L0 16Z">
</path>
<path d="M12.5333 4C12.5333 3.83835 12.5805 3.60546 12.6892 3.30419C12.7955 3.00919 12.9497 2.67865 13.1364 2.33116C13.3897 1.85964 13.6944 1.37279 14 0.923541C14.3056 1.37279 14.6103 1.85964 14.8636 2.33116C15.0503 2.67865 15.2045 3.00919 15.3108 3.30419C15.4195 3.60546 15.4667 3.83835 15.4667 4C15.4667 4.38899 15.3121 4.76204 15.0371 5.03709C14.762 5.31214 14.389 5.46667 14 5.46667C13.611 5.46667 13.238 5.31214 12.9629 5.03709C12.6879 4.76204 12.5333 4.38899 12.5333 4ZM13.6733 0.45734C12.8607 1.6274 12 3.11976 12 4C12 4.53043 12.2107 5.03914 12.5858 5.41422C12.9609 5.78929 13.4696 6 14 6C14.5304 6 15.0391 5.78929 15.4142 5.41422C15.7893 5.03914 16 4.53043 16 4C16 3.11976 15.1393 1.6274 14.3267 0.45734C14.2162 0.298143 14.1065 0.144911 14 0C13.8935 0.144911 13.7838 0.298143 13.6733 0.45734ZM5.33333 3.66667C4.41667 1.83333 3.04167 0 3.04167 0C3.04167 0 0 4.04167 0 6C0 7.54167 1.125 8.79167 2.58333 9C3.16667 7.29167 4.29167 5.29167 5.33333 3.66667ZM9.25004 13C9.25004 11.25 10.4167 9.79168 12.0417 9.37501C11.1667 6.25001 7.75004 1.70834 7.75004 1.70834C7.75004 1.70834 3.20837 7.66668 3.20837 10.6667C3.20837 13.1667 5.20837 15.1667 7.70837 15.1667C8.41671 15.1667 9.04171 15 9.66671 14.7083C9.41671 14.2083 9.25004 13.625 9.25004 13ZM13 16.0417C14.6799 16.0417 16.0417 14.6799 16.0417 13C16.0417 11.3202 14.6799 9.95837 13 9.95837C11.3202 9.95837 9.95837 11.3202 9.95837 13C9.95837 14.6799 11.3202 16.0417 13 16.0417ZM14.3334 14.7084C14.25 14.7084 14.125 14.6667 14.0834 14.5834L13 13.5001L11.9167 14.5834C11.7917 14.7084 11.7084 14.7084 11.625 14.7084C11.5417 14.7084 11.4167 14.6667 11.375 14.5834C11.2084 14.4167 11.2084 14.2084 11.375 14.0417L12.4584 12.9584L11.3334 11.8334C11.1667 11.6667 11.1667 11.4584 11.3334 11.2917C11.5 11.1251 11.7084 11.1251 11.875 11.2917L13 12.4167L14.125 11.2917C14.2917 11.1251 14.5 11.1251 14.6667 11.2917C14.8334 11.4584 14.8334 11.6667 14.6667 11.8334L13.5417 12.9584L14.625 14.0417C14.7917 14.2084 14.7917 14.4167 14.625 14.5834C14.5417 14.7084 14.4584 14.7084 14.3334 14.7084Z" fill-rule="evenodd" style="mix-blend-mode:normal" fill="url(#linear_fill_uJNON4oIAgUbU_cFYQG6K)" >
</path>
<defs>
<linearGradient id="linear_fill_uJNON4oIAgUbU_cFYQG6K" x1="0" y1="8.02001953125" x2="16.03997802734375" y2="8.02001953125" gradientUnits="userSpaceOnUse">
<stop offset="0" stop-color="#36F7BD"  />
<stop offset="1" stop-color="#FA1E6F" stop-opacity="0.88" />
</linearGradient>
</defs>
</svg>
