<svg xmlns="http://www.w3.org/2000/svg" xmlns:xlink="http://www.w3.org/1999/xlink" width="16" height="16" viewBox="0 0 16 16" fill="none">
<path     fill="#000000" fill-opacity="0" d="M0 16L16 16L16 0L0 0L0 16Z">
</path>
<path   fill-rule="evenodd" style="mix-blend-mode:normal" fill="url(#linear_fill_Xe9XxbfAoK4MN4ZiGI0bx_0)"  d="M0.421053 16L8.42105 0L8.42105 3.2L9.68421 5.33333L8.42105 6.4L7.57895 9.6L8.42105 10.6667L7.57895 13.3333L9.68421 14.9333L10.5263 16L0.421053 16ZM13.1636 4.18924C13.2702 4.0825 13.454 4.13173 13.4929 4.27749L14.9427 9.69831C14.9814 9.84295 14.8483 9.97437 14.7027 9.93535L9.28701 8.48423C9.14138 8.44521 9.09185 8.26486 9.19767 8.15894L13.1636 4.18924ZM13.0139 5.40646C12.7483 5.33527 12.4926 5.45504 12.4612 5.66544L12.1845 7.51358L12.6787 7.646L13.3632 5.90713C13.4411 5.70918 13.2796 5.47764 13.0139 5.40646ZM12.1432 8.66722C12.3433 8.72082 12.5489 8.6021 12.6025 8.40205C12.6561 8.202 12.5374 7.99638 12.3374 7.94277C12.1373 7.88917 11.9317 8.00789 11.8781 8.20794C11.8245 8.40799 11.9432 8.61361 12.1432 8.66722ZM10.5263 4.26663L10.1052 2.1333L11.7894 4.26663L10.5263 4.26663ZM13.0527 10.1333L12.2106 11.7333L13.8948 12.8L13.0527 10.1333ZM9.6842 13.8667L10.5263 12.2667L13.4737 14.4001L11.3684 15.4667L9.6842 13.8667ZM14.7368 14.4L15.5789 13.3334L16 15.4667L14.7368 14.4Z">
</path>
<defs>
<linearGradient id="linear_fill_Xe9XxbfAoK4MN4ZiGI0bx_0" x1="0" y1="8" x2="16" y2="8" gradientUnits="userSpaceOnUse">
<stop offset="0" stop-color="#36F7BD"  />
<stop offset="1" stop-color="#FA1E6F" stop-opacity="0.88" />
</linearGradient>
</defs>
</svg>
