<svg xmlns="http://www.w3.org/2000/svg" xmlns:xlink="http://www.w3.org/1999/xlink" width="16" height="16" viewBox="0 0 16 16" fill="none">
<path     fill="#000000" fill-opacity="0" d="M0 16L16 16L16 0L0 0L0 16Z">
</path>
<path d="M0 0L0 16L16 16C16 16 12.9222 12.1926 10.1463 11.8974C9.54016 11.833 9.51481 11.8265 9 11.5C8.56151 11.2219 8.60567 10.8946 8.65538 10.5261C8.69771 10.2123 8.74406 9.86859 8.5 9.5C8.18773 9.02839 7.72465 9.00433 7.25472 8.97992C6.79921 8.95625 6.33727 8.93225 6 8.5C5.55841 7.93405 5.54699 7.32631 5.53591 6.73622C5.52423 6.11479 5.51293 5.51293 5 5C4.50607 4.50607 4.25054 4.3816 4.00066 4.25989C3.74464 4.13518 3.49453 4.01336 3 3.5C2.54708 3.02984 2.61712 2.58917 2.68621 2.15446C2.75656 1.7119 2.82592 1.27553 2.34146 0.820513C1.63522 0.157178 0 0 0 0ZM6.24396 3.69225C5.36416 3.20307 4.44446 2.61894 4.68298 1.64097C4.89645 0.7657 5.74841 0.574643 6.6342 0.410197C7.72937 0.206878 8.75095 0.30197 9.36591 1.23071C9.89662 2.03222 9.96109 2.93738 9.36591 3.69225C8.61104 4.64965 7.30952 4.28472 6.24396 3.69225ZM8.97566 7.38456C8.8507 6.68599 9.05073 5.82088 9.75615 5.74353C10.4156 5.67122 10.685 6.35662 10.9269 6.9743C11.1606 7.57102 11.373 8.15523 10.9269 8.61532C10.2997 9.26212 9.13431 8.2714 8.97566 7.38456ZM12.8781 10.6666C12.4446 10.7541 12.1128 11.0451 12.0976 11.4871C12.0784 12.0451 12.7211 12.4181 13.2683 12.3076C13.7019 12.2202 14.0336 11.9291 14.0488 11.4871C14.068 10.9291 13.4254 10.5562 12.8781 10.6666Z" fill-rule="evenodd" style="mix-blend-mode:normal" fill="url(#linear_fill_Hk4a9VHX0P7GjjiYye3vJ)" >
</path>
<defs>
<linearGradient id="linear_fill_Hk4a9VHX0P7GjjiYye3vJ" x1="0" y1="8" x2="16" y2="8" gradientUnits="userSpaceOnUse">
<stop offset="0" stop-color="#36F7BD"  />
<stop offset="1" stop-color="#FA1E6F" stop-opacity="0.88" />
</linearGradient>
</defs>
</svg>
