<svg xmlns="http://www.w3.org/2000/svg" xmlns:xlink="http://www.w3.org/1999/xlink" width="16" height="16" viewBox="0 0 16 16" fill="none">
<path     fill="#000000" fill-opacity="0" d="M0 16L16 16L16 0L0 0L0 16Z">
</path>
<path d="M5.83715 0.442667C5.78919 0.300902 5.61244 0.253543 5.50003 0.352337L3.19065 2.38189C3.06482 2.49247 3.11301 2.69865 3.27481 2.74201L3.65597 2.84414L2.12378 4.27265C2.0033 4.38499 2.0534 4.586 2.21252 4.62864L2.55609 4.72069L1.06407 6.16334C0.946874 6.27666 0.998107 6.47451 1.15557 6.5167L2.75101 6.9442L2.33413 8.5L0 8.5L0 16L16 16L16 8.5L12.7324 8.5L11.4613 10.4067L11.9613 12.4067L11.2324 13.5L7.39039 13.5L6.96407 11.7947L6.05167 10.4261L6.69371 8.5L4.50541 8.5L4.77683 7.48701L6.51744 7.95341C6.67491 7.9956 6.8182 7.84988 6.77337 7.69314L6.20257 5.69777L6.54606 5.7898C6.70517 5.83244 6.84908 5.68341 6.8009 5.52589L6.18825 3.52266L6.5694 3.62479C6.7312 3.66814 6.87603 3.51368 6.82235 3.355L5.83715 0.442667ZM8.5 13C8.77614 13 9 12.7761 9 12.5C9 12.2239 8.77614 12 8.5 12C8.22386 12 8 12.2239 8 12.5C8 12.7761 8.22386 13 8.5 13ZM11 10C11 10.5523 10.5523 11 10 11C9.44771 11 9 10.5523 9 10C9 9.44771 9.44771 9 10 9C10.5523 9 11 9.44771 11 10Z" fill-rule="evenodd" style="mix-blend-mode:normal" fill="url(#linear_fill_HpbHLLeso29JZRP_easfK)" >
</path>
<defs>
<linearGradient id="linear_fill_HpbHLLeso29JZRP_easfK" x1="0" y1="8.1500244140625" x2="16" y2="8.1500244140625" gradientUnits="userSpaceOnUse">
<stop offset="0" stop-color="#36F7BD"  />
<stop offset="1" stop-color="#FA1E6F" stop-opacity="0.88" />
</linearGradient>
</defs>
</svg>
