<svg xmlns="http://www.w3.org/2000/svg" xmlns:xlink="http://www.w3.org/1999/xlink" width="16" height="16" viewBox="0 0 16 16" fill="none">
<path     fill="#000000" fill-opacity="0" d="M0 16L16 16L16 0L0 0L0 16Z">
</path>
<path d="M5.27173 0.155432C5.21947 0.000929266 5.02684 -0.0506842 4.90433 0.0569858L2.38746 2.26888C2.25033 2.38939 2.30285 2.6141 2.47919 2.66135L2.89459 2.77266L1.22475 4.32952C1.09344 4.45195 1.14805 4.67102 1.32146 4.71748L1.69589 4.81781L0.0698263 6.39007C-0.0578988 6.51357 -0.00206293 6.72919 0.16955 6.77518L1.90833 7.24108L1.43703 9L8.41624e-10 9L8.41624e-10 16L16 16L16 9L10.5 9L9 10.5L10.5 12L8.5 13L9 15L7 13L8.5 12L5.5 10L7.5 9L3.80337 9L4.11616 7.83267L6.01315 8.34097C6.18476 8.38695 6.34093 8.22813 6.29207 8.05732L5.66998 5.88267L6.04434 5.98298C6.21775 6.02944 6.37458 5.86702 6.32207 5.69535L5.65438 3.51214L6.06978 3.62345C6.24612 3.6707 6.40396 3.50235 6.34546 3.32942L5.27173 0.155432Z"  style="mix-blend-mode:normal" fill="url(#linear_fill_VhzXlyAqSsEsTiCOH0aMI)" >
</path>
<defs>
<linearGradient id="linear_fill_VhzXlyAqSsEsTiCOH0aMI" x1="0" y1="8" x2="16" y2="8" gradientUnits="userSpaceOnUse">
<stop offset="0" stop-color="#36F7BD"  />
<stop offset="1" stop-color="#FA1E6F" stop-opacity="0.88" />
</linearGradient>
</defs>
</svg>
