<svg xmlns="http://www.w3.org/2000/svg" xmlns:xlink="http://www.w3.org/1999/xlink" width="16" height="16" viewBox="0 0 16 16" fill="none">
<path     fill="#000000" fill-opacity="0" d="M0 16L16 16L16 0L0 0L0 16Z">
</path>
<path d="M6.44986 0.052288C6.56227 -0.0465059 6.73902 0.000852659 6.78697 0.142618L7.77218 3.05495C7.82586 3.21363 7.68103 3.3681 7.51923 3.32474L7.13807 3.22261L7.75073 5.22584C7.79891 5.38336 7.655 5.53239 7.49589 5.48976L7.1524 5.39772L7.7232 7.3931C7.76803 7.54983 7.62474 7.69555 7.46727 7.65336L5.72666 7.18696L5.43966 8.25806L7.45518 8.25806L7.45518 8.71684L8.37274 9.6344C8.60213 9.86379 8.71683 9.97849 8.71683 10.0932C8.71683 10.2079 8.60214 10.3226 8.37274 10.552C8.0892 10.8355 8.15614 10.9438 8.24864 11.0935C8.30581 11.186 8.37274 11.2943 8.37274 11.4695C8.37274 11.6989 8.60213 11.8136 8.83153 11.9283C9.06092 12.043 9.29031 12.1577 9.29031 12.3871C9.29031 12.7541 8.98445 13.1517 8.83153 13.3047L8.83153 14.2222C8.83153 14.5892 9.13738 14.681 9.29031 14.681L0 14.681L0 8.25806L3.26839 8.25806L3.70084 6.64415L2.1054 6.21665C1.94794 6.17446 1.8967 5.97661 2.0139 5.86329L3.50591 4.42065L3.16235 4.32859C3.00323 4.28595 2.95312 4.08494 3.07361 3.97261L4.6058 2.54409L4.22464 2.44196C4.06284 2.3986 4.01465 2.19242 4.14048 2.08184L6.44986 0.052288ZM16 9.5L16 15.9229L10.9215 15.923C10.7856 15.923 10.5137 15.8312 10.5137 15.4642L10.5137 14.5466C10.6496 14.3937 10.9215 13.9961 10.9215 13.629C10.9215 13.3997 10.7176 13.285 10.5137 13.1703C10.3098 13.0556 10.1059 12.9409 10.1059 12.7115C10.1059 12.5362 10.0464 12.4279 9.99558 12.3354C9.91335 12.1858 9.85386 12.0775 10.1059 11.7939C10.3098 11.5645 10.4117 11.4498 10.4117 11.3351C10.4117 11.2204 10.3098 11.1058 10.1059 10.8764L9.29028 9.9588L9.29028 9.50002L16 9.5Z" fill-rule="evenodd" style="mix-blend-mode:normal" fill="url(#linear_fill_TtZyikaLInlR2-FkjoG-j)" >
</path>
<defs>
<linearGradient id="linear_fill_TtZyikaLInlR2-FkjoG-j" x1="0" y1="7.9599609375" x2="16" y2="7.9599609375" gradientUnits="userSpaceOnUse">
<stop offset="0" stop-color="#36F7BD"  />
<stop offset="1" stop-color="#FA1E6F" stop-opacity="0.88" />
</linearGradient>
</defs>
</svg>
