<svg xmlns="http://www.w3.org/2000/svg" xmlns:xlink="http://www.w3.org/1999/xlink" width="16" height="16" viewBox="0 0 16 16" fill="none">
<path     fill="#000000" fill-opacity="0" d="M0 16L16 16L16 0L0 0L0 16Z">
</path>
<path d="M6.36958 8.63672C5.88713 8.15427 3.33704 5.12173 3.33704 5.12173L6.30066 6.84476L4.92223 2.22703L7.05879 6.56908L8.09262 0L8.43722 6.50015L10.0224 1.12428L9.81565 6.50015L11.7455 3.7433L10.2292 7.87858L12.159 6.84476C12.159 6.84476 10.5049 8.91241 10.0913 9.18809C9.67781 9.46378 8.78183 9.80838 8.09262 9.67054C7.47232 9.60162 6.78311 9.11917 6.36958 8.63672ZM7.95478 10.5665C6.85203 10.4287 6.30066 9.32593 6.30066 9.32593C6.30066 9.32593 4.96234 12.0715 0 16L16 16C11.0377 12.5539 9.88458 10.0151 9.88458 10.0151C9.88458 10.0151 9.05752 10.7044 7.95478 10.5665ZM5.75 1.5C6.16421 1.5 6.5 1.16421 6.5 0.75C6.5 0.335786 6.16421 0 5.75 0C5.33579 0 5 0.335786 5 0.75C5 1.16421 5.33579 1.5 5.75 1.5ZM3.28577 3.92859C3.28577 4.20473 3.06191 4.42859 2.78577 4.42859C2.50962 4.42859 2.28577 4.20473 2.28577 3.92859C2.28577 3.65245 2.50962 3.42859 2.78577 3.42859C3.06191 3.42859 3.28577 3.65245 3.28577 3.92859ZM13.5714 6.21436C13.5714 6.4905 13.3476 6.71436 13.0714 6.71436C12.7953 6.71436 12.5714 6.4905 12.5714 6.21436C12.5714 5.93821 12.7953 5.71436 13.0714 5.71436C13.3476 5.71436 13.5714 5.93821 13.5714 6.21436ZM14 3C14 3.55228 13.5523 4 13 4C12.4477 4 12 3.55228 12 3C12 2.44772 12.4477 2 13 2C13.5523 2 14 2.44772 14 3Z" fill-rule="evenodd" style="mix-blend-mode:normal" fill="url(#linear_fill_0lwwUlFR3VibD4A_U6CbB)" >
</path>
<defs>
<linearGradient id="linear_fill_0lwwUlFR3VibD4A_U6CbB" x1="0" y1="8" x2="16" y2="8" gradientUnits="userSpaceOnUse">
<stop offset="0" stop-color="#36F7BD"  />
<stop offset="1" stop-color="#FA1E6F" stop-opacity="0.88" />
</linearGradient>
</defs>
</svg>
