<svg xmlns="http://www.w3.org/2000/svg" xmlns:xlink="http://www.w3.org/1999/xlink" width="16" height="16" viewBox="0 0 16 16" fill="none">
<path     fill="#000000" fill-opacity="0" d="M0 16L16 16L16 0L0 0L0 16Z">
</path>
<path d="M8.53102 6.82898L16 13.9223L5.5 16L0 13.8324L6.31816 7.37051L5.31905 9.97657C5.30625 10.0151 5.29969 10.0587 5.30001 10.1028C5.30034 10.147 5.30753 10.1902 5.32089 10.2282C5.33425 10.2663 5.35331 10.2978 5.37617 10.3197C5.39904 10.3415 5.42491 10.353 5.45123 10.3529L6.46894 10.3529C6.47659 10.353 6.48412 10.356 6.49095 10.3618C6.49778 10.3676 6.50372 10.3759 6.50831 10.3862C6.5129 10.3965 6.516 10.4084 6.51738 10.421C6.51877 10.4337 6.51839 10.4466 6.51628 10.459L5.81535 14.5L8.75854 9.25429C8.84941 9.09224 8.7811 8.82678 8.64861 8.82678L7.65282 8.82678C7.64393 8.82682 7.63519 8.82282 7.62755 8.8152C7.6199 8.80758 7.61363 8.79663 7.60939 8.78351C7.60516 8.77039 7.60312 8.7556 7.60349 8.74069C7.60387 8.72578 7.60664 8.71133 7.61151 8.69885L8.53102 6.82898Z"  style="mix-blend-mode:normal" fill="url(#linear_fill_BEOtFsBEASgHS2Qnznnr8)" >
</path>
<path d="M7.62646 2.24857C7.60724 2.04775 7.77998 1.875 8 1.875C8.22002 1.875 8.39276 2.04775 8.37354 2.24857L8.20465 4.0125L7.79535 4.0125L7.62646 2.24857ZM8.28123 4.59375C8.28123 4.74908 8.15531 4.875 7.99998 4.875C7.84465 4.875 7.71873 4.74908 7.71873 4.59375C7.71873 4.43842 7.84465 4.3125 7.99998 4.3125C8.15531 4.3125 8.28123 4.43842 8.28123 4.59375ZM7.82951 0.473029C7.90489 0.342323 8.09511 0.342324 8.17049 0.47303L10.9738 5.33392C11.0486 5.46362 10.9541 5.625 10.8034 5.625L5.19665 5.625C5.04588 5.625 4.95136 5.46362 5.02616 5.33392L7.82951 0.473029ZM10.3627 5.175L8 1.07816L5.63728 5.175L10.3627 5.175Z" fill-rule="evenodd" style="mix-blend-mode:normal" fill="url(#linear_fill_YoxrlA7iIO06qQJ0oLKi3)" >
</path>
<defs>
<linearGradient id="linear_fill_BEOtFsBEASgHS2Qnznnr8" x1="0" y1="11.4139404296875" x2="16" y2="11.4139404296875" gradientUnits="userSpaceOnUse">
<stop offset="0" stop-color="#36F7BD"  />
<stop offset="1" stop-color="#FA1E6F" stop-opacity="0.88" />
</linearGradient>
<linearGradient id="linear_fill_YoxrlA7iIO06qQJ0oLKi3" x1="5" y1="3" x2="11" y2="3" gradientUnits="userSpaceOnUse">
<stop offset="0" stop-color="#57F28B" stop-opacity="0.74" />
<stop offset="1" stop-color="#FA2A2A" stop-opacity="0.74" />
</linearGradient>
</defs>
</svg>
