<svg xmlns="http://www.w3.org/2000/svg" xmlns:xlink="http://www.w3.org/1999/xlink" width="16" height="16" viewBox="0 0 16 16" fill="none">
<path     fill="#000000" fill-opacity="0" d="M0 16L16 16L16 0L0 0L0 16Z">
</path>
<path d="M8.53102 6.82896L16 13.9223L5.5 16L0 13.8324L6.31816 7.37049L5.31905 9.97655C5.30625 10.0151 5.29969 10.0586 5.30001 10.1028C5.30034 10.1469 5.30753 10.1902 5.32089 10.2282C5.33425 10.2663 5.35331 10.2978 5.37617 10.3196C5.39904 10.3415 5.42491 10.353 5.45123 10.3529L6.46894 10.3529C6.47659 10.353 6.48412 10.356 6.49095 10.3618C6.49778 10.3676 6.50372 10.3759 6.50831 10.3862C6.5129 10.3965 6.516 10.4084 6.51738 10.421C6.51877 10.4336 6.51839 10.4466 6.51628 10.459L5.81535 14.5L8.75854 9.25426C8.84941 9.09222 8.7811 8.82676 8.64861 8.82676L7.65282 8.82676C7.64393 8.8268 7.63519 8.82279 7.62755 8.81517C7.6199 8.80756 7.61363 8.79661 7.60939 8.78349C7.60516 8.77037 7.60312 8.75557 7.60349 8.74067C7.60387 8.72576 7.60664 8.7113 7.61151 8.69883L8.53102 6.82896Z"  style="mix-blend-mode:normal" fill="url(#linear_fill_ZZbG-Tp56bEWHZz6bgFzh)" >
</path>
<path d="M7.73999 6C8.66158 6 9.48611 5.58444 10.0364 4.93049C10.2682 5.03923 10.527 5.1 10.8 5.1C11.7941 5.1 12.6 4.29411 12.6 3.3C12.6 2.30589 11.7941 1.5 10.8 1.5C10.6511 1.5 10.5065 1.51807 10.3681 1.55215C9.85723 0.626766 8.87181 0 7.73999 0C6.61755 0 5.63909 0.616421 5.12466 1.5292C5.01935 1.51002 4.91085 1.5 4.8 1.5C3.80589 1.5 3 2.30589 3 3.3C3 4.29411 3.80589 5.1 4.8 5.1C5.03917 5.1 5.26744 5.05335 5.47622 4.96866C6.02622 5.60057 6.83646 6 7.73999 6ZM7.26523 2.16105C7.23109 1.94389 7.36742 1.68103 7.56317 1.56329C7.71673 1.47094 7.89372 1.48334 8.04672 1.57652L8.08894 1.60223C8.26977 1.71235 8.36566 1.91255 8.33401 2.11388L8.11921 3.48L7.47261 3.48L7.26523 2.16105ZM8.15996 4.14C8.15996 4.33882 7.99879 4.5 7.79996 4.5C7.60114 4.5 7.43996 4.33882 7.43996 4.14C7.43996 3.94118 7.60114 3.78 7.79996 3.78C7.99879 3.78 8.15996 3.94118 8.15996 4.14Z"  style="mix-blend-mode:normal" fill="url(#linear_fill_Qv1Ct9h7CfbMx3t6P22AF)" >
</path>
<defs>
<linearGradient id="linear_fill_ZZbG-Tp56bEWHZz6bgFzh" x1="0" y1="11.4139404296875" x2="16" y2="11.4139404296875" gradientUnits="userSpaceOnUse">
<stop offset="0" stop-color="#36F7BD"  />
<stop offset="1" stop-color="#FA1E6F" stop-opacity="0.88" />
</linearGradient>
<linearGradient id="linear_fill_Qv1Ct9h7CfbMx3t6P22AF" x1="3" y1="3" x2="12.5999755859375" y2="3" gradientUnits="userSpaceOnUse">
<stop offset="0" stop-color="#36F7BD"  />
<stop offset="1" stop-color="#FA1E6F" stop-opacity="0.88" />
</linearGradient>
</defs>
</svg>
