<svg xmlns="http://www.w3.org/2000/svg" xmlns:xlink="http://www.w3.org/1999/xlink" width="16" height="16" viewBox="0 0 16 16" fill="none">
<path     fill="#000000" fill-opacity="0" d="M0 16L16 16L16 0L0 0L0 16Z">
</path>
<path d="M5.97262 10.3281L9 4.86609L7.07273 0.141547C7.05502 0.098431 7.02746 0.0622389 6.99326 0.0371854C6.95907 0.012132 6.91965 -0.000751866 6.87958 3.39126e-05C6.83952 0.000819691 6.80047 0.0152428 6.76698 0.0416239C6.73349 0.068005 6.70693 0.105258 6.6904 0.149047L0.022043 15.635C0.00602963 15.6736 -0.00147643 15.7165 0.000240226 15.7596C0.00195689 15.8027 0.0128391 15.8445 0.0318495 15.8811C0.05086 15.9177 0.0773652 15.9478 0.108839 15.9686C0.140312 15.9894 0.175706 16.0002 0.211645 16L4.90794 15.9837L6.66852 12.0566L5.97262 10.3281ZM15.9824 14.6763L13.5 10L10 14.9689L15.8193 15C15.9522 15 16.0391 14.8265 15.9824 14.6763ZM12.0652 3L11.6047 7.56082L13.3532 7.70582L7.7 15.0677L9.51011 9.83804L7.90434 10.0498L12.0652 3Z" fill-rule="evenodd" style="mix-blend-mode:normal" fill="url(#linear_fill_VBbQtlRbkzxzTUTW-Lkfk)" >
</path>
<defs>
<linearGradient id="linear_fill_VBbQtlRbkzxzTUTW-Lkfk" x1="0" y1="8" x2="16" y2="8" gradientUnits="userSpaceOnUse">
<stop offset="0" stop-color="#36F7BD"  />
<stop offset="1" stop-color="#FA1E6F" stop-opacity="0.88" />
</linearGradient>
</defs>
</svg>
