<svg xmlns="http://www.w3.org/2000/svg" xmlns:xlink="http://www.w3.org/1999/xlink" width="16" height="16" viewBox="0 0 16 16" fill="none">
<path     fill="#000000" fill-opacity="0" d="M0 16L16 16L16 0L0 0L0 16Z">
</path>
<path d="M5.97262 10.3281L9 4.86609L7.07273 0.141547C7.05502 0.098431 7.02746 0.0622389 6.99326 0.0371854C6.95907 0.012132 6.91965 -0.000751866 6.87958 3.39126e-05C6.83952 0.000819691 6.80047 0.0152428 6.76698 0.0416239C6.73349 0.068005 6.70693 0.105258 6.6904 0.149047L0.022043 15.635C0.00602963 15.6736 -0.00147643 15.7165 0.000240226 15.7596C0.00195689 15.8027 0.0128391 15.8445 0.0318495 15.8811C0.05086 15.9177 0.0773652 15.9478 0.108839 15.9686C0.140312 15.9894 0.175706 16.0002 0.211645 16L4.90794 15.9837L6.66852 12.0566L5.97262 10.3281ZM11.6048 7.56082L12.0653 3L7.90435 10.0498L9.51013 9.83804L7.70001 15.0677L13.3533 7.70582L11.6048 7.56082ZM12.8295 10.473C12.9049 10.3423 13.0951 10.3423 13.1705 10.473L15.9738 15.3339C16.0486 15.4636 15.9541 15.625 15.8034 15.625L10.1966 15.625C10.0459 15.625 9.95136 15.4636 10.0262 15.3339L12.8295 10.473ZM13 11.6875C12.725 11.6875 12.509 11.8693 12.5331 12.0807L12.7442 13.9375L13.2558 13.9375L13.4669 12.0807C13.491 11.8693 13.275 11.6875 13 11.6875ZM13.0029 15.0625C13.21 15.0625 13.3779 14.8946 13.3779 14.6875C13.3779 14.4804 13.21 14.3125 13.0029 14.3125C12.7958 14.3125 12.6279 14.4804 12.6279 14.6875C12.6279 14.8946 12.7958 15.0625 13.0029 15.0625Z" fill-rule="evenodd" style="mix-blend-mode:normal" fill="url(#linear_fill_rM8Vh4fb_HEONKXET3VAS)" >
</path>
<defs>
<linearGradient id="linear_fill_rM8Vh4fb_HEONKXET3VAS" x1="0" y1="8" x2="16" y2="8" gradientUnits="userSpaceOnUse">
<stop offset="0" stop-color="#36F7BD"  />
<stop offset="1" stop-color="#FA1E6F" stop-opacity="0.88" />
</linearGradient>
</defs>
</svg>
