<svg xmlns="http://www.w3.org/2000/svg" xmlns:xlink="http://www.w3.org/1999/xlink" width="16" height="16" viewBox="0 0 16 16" fill="none">
<path     fill="#000000" fill-opacity="0" d="M0 16L16 16L16 0L0 0L0 16Z">
</path>
<path d="M9.08535 1.5L9.08535 1.50356C9.59768 1.54686 10 1.97643 10 2.49997C10 2.52831 9.99882 2.55638 9.99651 2.58413L10.0037 2.58667C10.0013 2.55811 10 2.52917 10 2.49997C10 1.94768 10.4477 1.5 11 1.5C11.1417 1.5 11.2764 1.52945 11.3985 1.58257C11.6729 1.22817 12.1025 1 12.5854 1C13.4138 1 14.0854 1.67157 14.0854 2.5L14.0853 2.50356C14.5977 2.54686 15 2.97643 15 3.49997C15 4.05225 14.5523 4.49997 14 4.49997C14 5.05225 13.5523 5.5 13 5.5C12.5638 5.5 12.1928 5.22071 12.0562 4.8312C11.8971 4.93781 11.7058 5 11.5 5C11.2338 5 10.9919 4.89599 10.8127 4.72638C10.5569 5.18773 10.0649 5.5 9.5 5.5C9.33882 5.5 9.18357 5.47458 9.03805 5.42752C8.92046 5.67581 8.70361 5.86793 8.43874 5.95265C8.47816 6.04382 8.5 6.14436 8.5 6.25C8.5 6.40445 8.45331 6.548 8.37328 6.6673C8.4521 6.75568 8.5 6.87223 8.5 6.99997C8.5 7.27612 8.27615 7.49997 8 7.49997C7.72386 7.49997 7.5 7.27612 7.5 6.99997C7.5 6.98582 7.50059 6.9718 7.50175 6.95794C7.20954 6.85547 7 6.57721 7 6.25C7 5.9841 7.13837 5.75052 7.34704 5.61734C7.21346 5.44734 7.13379 5.23297 7.13379 5C7.13379 4.73172 7.23944 4.48811 7.4114 4.30851C7.24916 4.1902 7.12389 4.02424 7.05615 3.83121C6.89713 3.93781 6.70583 4 6.5 4C6.2338 4 5.99189 3.89599 5.81271 3.72638C5.55688 4.18773 5.06491 4.5 4.5 4.5C4.33882 4.5 4.18357 4.47458 4.03805 4.42752C3.92046 4.67581 3.70361 4.86793 3.43874 4.95265C3.47816 5.04382 3.5 5.14436 3.5 5.25C3.5 5.40445 3.45331 5.548 3.37328 5.6673C3.4521 5.75568 3.5 5.87223 3.5 5.99997C3.5 6.27612 3.27615 6.49997 3 6.49997C2.72386 6.49997 2.5 6.27612 2.5 5.99997C2.5 5.98582 2.50059 5.9718 2.50175 5.95794C2.20954 5.85547 2 5.57721 2 5.25C2 4.9841 2.13837 4.75052 2.34704 4.61734C2.21346 4.44734 2.13379 4.23297 2.13379 4C2.13379 3.49307 2.51099 3.07424 3.00003 3.00887L3 3C3 2.17157 3.67157 1.5 4.5 1.5C4.6767 1.5 4.84627 1.53055 5.0037 1.58667C5.00125 1.5581 5 1.5292 5 1.5C5 0.947715 5.44772 0.5 6 0.5C6.14165 0.5 6.27643 0.529453 6.39853 0.58257C6.67289 0.228167 7.10248 0 7.58535 0C8.41378 0 9.08535 0.671572 9.08535 1.5Z"  style="mix-blend-mode:normal" fill="url(#linear_fill_cOEUCmVSeioTHivq3_kQX)" >
</path>
<path d="M2 7L4 7L4 11.9098L7 11.4098L7 8L9 8L9 11.0764L16 9.90977L16 16L0 16L0 12.5764L2 12.2431L2 7ZM15 11.0902L1 13.4236L1 15L15 15L15 11.0902ZM10 14L9 14L9 13L10 13L10 14ZM12 14L11 14L11 13L12 13L12 14ZM14 14L13 14L13 13L14 13L14 14Z"  style="mix-blend-mode:normal" fill="url(#linear_fill_EpkO-TV7bkWvG9DJoRmYe)" >
</path>
<defs>
<linearGradient id="linear_fill_cOEUCmVSeioTHivq3_kQX" x1="2" y1="3.75" x2="15" y2="3.75" gradientUnits="userSpaceOnUse">
<stop offset="0" stop-color="#36F7BD"  />
<stop offset="1" stop-color="#FA1E6F" stop-opacity="0.88" />
</linearGradient>
<linearGradient id="linear_fill_EpkO-TV7bkWvG9DJoRmYe" x1="0" y1="11.5" x2="16" y2="11.5" gradientUnits="userSpaceOnUse">
<stop offset="0" stop-color="#36F7BD"  />
<stop offset="1" stop-color="#FA1E6F" stop-opacity="0.88" />
</linearGradient>
</defs>
</svg>
