<svg xmlns="http://www.w3.org/2000/svg" xmlns:xlink="http://www.w3.org/1999/xlink" width="16" height="16" viewBox="0 0 16 16" fill="none">
<path     fill="#000000" fill-opacity="0" d="M0 16L16 16L16 0L0 0L0 16Z">
</path>
<path  transform="translate(9, 4)"   fill="#000000" fill-opacity="0" d="M0 6L6 6L6 0L0 0L0 6Z">
</path>
<path d="M10.875 5.3125C10.875 5.20895 10.9589 5.125 11.0625 5.125L13.3125 5.125C13.4161 5.125 13.5 5.20895 13.5 5.3125C13.5 5.41605 13.4161 5.5 13.3125 5.5L11.0625 5.5C10.9589 5.5 10.875 5.41605 10.875 5.3125ZM9.375 6.0625C9.375 5.95895 9.45895 5.875 9.5625 5.875L12.375 5.875C12.4786 5.875 12.5625 5.95895 12.5625 6.0625C12.5625 6.16605 12.4786 6.25 12.375 6.25L9.5625 6.25C9.45895 6.25 9.375 6.16605 9.375 6.0625ZM11.25 6.8125C11.25 6.70895 11.3339 6.625 11.4375 6.625L14.4375 6.625C14.5411 6.625 14.625 6.70895 14.625 6.8125C14.625 6.91605 14.5411 7 14.4375 7L11.4375 7C11.3339 7 11.25 6.91605 11.25 6.8125ZM9.75 7.375C9.75 7.27145 9.83395 7.1875 9.9375 7.1875L12.1875 7.1875C12.2911 7.1875 12.375 7.27145 12.375 7.375C12.375 7.47855 12.2911 7.5625 12.1875 7.5625L9.9375 7.5625C9.83395 7.5625 9.75 7.47855 9.75 7.375ZM10.875 7.9375C10.875 7.83395 10.9589 7.75 11.0625 7.75L13.875 7.75C13.9786 7.75 14.0625 7.83395 14.0625 7.9375C14.0625 8.04105 13.9786 8.125 13.875 8.125L11.0625 8.125C10.9589 8.125 10.875 8.04105 10.875 7.9375ZM10.3125 8.6875C10.3125 8.58395 10.3964 8.5 10.5 8.5L12.75 8.5C12.8536 8.5 12.9375 8.58395 12.9375 8.6875C12.9375 8.79105 12.8536 8.875 12.75 8.875L10.5 8.875C10.3964 8.875 10.3125 8.79105 10.3125 8.6875Z"  style="mix-blend-mode:normal" fill="url(#linear_fill_gz-1Pgp8MbcUTGDsHnAM0)" >
</path>
<path d="M9.08535 1.50356L9.08535 1.5C9.08535 0.671572 8.41378 0 7.58535 0C7.10248 0 6.67289 0.228167 6.39853 0.58257C6.27643 0.529453 6.14165 0.5 6 0.5C5.44772 0.5 5 0.947715 5 1.5C5 1.5292 5.00125 1.5581 5.0037 1.58667C4.84627 1.53055 4.6767 1.5 4.5 1.5C3.67157 1.5 3 2.17157 3 3L3.00003 3.00887C2.51099 3.07424 2.13379 3.49307 2.13379 4C2.13379 4.23297 2.21346 4.44734 2.34704 4.61734C2.13837 4.75052 2 4.9841 2 5.25C2 5.57721 2.20954 5.85547 2.50174 5.95794C2.50059 5.97181 2.5 5.98583 2.5 6C2.5 6.27614 2.72386 6.5 3 6.5C3.27614 6.5 3.5 6.27614 3.5 6C3.5 5.87226 3.45209 5.7557 3.37327 5.66732C3.45331 5.54801 3.5 5.40446 3.5 5.25C3.5 5.14436 3.47816 5.04382 3.43874 4.95265C3.70361 4.86793 3.92046 4.67581 4.03805 4.42752C4.18357 4.47458 4.33882 4.5 4.5 4.5C5.06491 4.5 5.55688 4.18773 5.81271 3.72638C5.99189 3.89599 6.2338 4 6.5 4C6.70583 4 6.89713 3.93781 7.05615 3.83121C7.19283 4.22071 7.5638 4.5 8 4.5C8.55229 4.5 9 4.05228 9 3.5C9.55228 3.5 10 3.05225 10 2.49997C10 1.97643 9.59768 1.54686 9.08535 1.50356Z"  style="mix-blend-mode:normal" fill="url(#linear_fill_NFQqQOo1dbhoseVFYBS18)" >
</path>
<path d="M2 7L4 7L4 11.9098L16 9.90977L16 16L0 16L0 12.5764L2 12.2431L2 7ZM15 11.0902L1 13.4236L1 15L15 15L15 11.0902ZM10 14L9 14L9 13L10 13L10 14ZM12 14L11 14L11 13L12 13L12 14ZM14 14L13 14L13 13L14 13L14 14Z"  style="mix-blend-mode:normal" fill="url(#linear_fill_XpIcMIT59xr0iLLrmWO16)" >
</path>
<defs>
<linearGradient id="linear_fill_gz-1Pgp8MbcUTGDsHnAM0" x1="9.375" y1="7" x2="14.625" y2="7" gradientUnits="userSpaceOnUse">
<stop offset="0" stop-color="#36F7BD"  />
<stop offset="1" stop-color="#FA1E6F" stop-opacity="0.88" />
</linearGradient>
<linearGradient id="linear_fill_NFQqQOo1dbhoseVFYBS18" x1="2" y1="3.25" x2="10" y2="3.25" gradientUnits="userSpaceOnUse">
<stop offset="0" stop-color="#36F7BD"  />
<stop offset="1" stop-color="#FA1E6F" stop-opacity="0.88" />
</linearGradient>
<linearGradient id="linear_fill_XpIcMIT59xr0iLLrmWO16" x1="0" y1="11.5" x2="16" y2="11.5" gradientUnits="userSpaceOnUse">
<stop offset="0" stop-color="#36F7BD"  />
<stop offset="1" stop-color="#FA1E6F" stop-opacity="0.88" />
</linearGradient>
</defs>
</svg>
