<svg xmlns="http://www.w3.org/2000/svg" xmlns:xlink="http://www.w3.org/1999/xlink" width="16" height="16.00000762939453" viewBox="0 0 16 16.00000762939453" fill="none">
<path d="M7.26834 15.1619C7.18888 15.1307 7.09774 15.1463 7.03502 15.2043C6.50027 15.6982 5.78538 16 5 16C4.21462 16 3.49973 15.6982 2.96498 15.2043C2.90226 15.1463 2.81112 15.1307 2.73166 15.1619C2.50505 15.2511 2.25824 15.3 2 15.3C0.895431 15.3 0 14.4046 0 13.3C0 12.1954 0.895431 11.3 2 11.3C2.11886 11.3 2.23529 11.3104 2.34845 11.3303C2.43236 11.345 2.51838 11.3117 2.56834 11.2426C3.11338 10.4898 3.9995 10 5 10C6.0005 10 6.88662 10.4898 7.43166 11.2426C7.48162 11.3117 7.56764 11.345 7.65155 11.3303C7.76471 11.3104 7.88115 11.3 8 11.3C9.10457 11.3 10 12.1954 10 13.3C10 14.4046 9.10457 15.3 8 15.3C7.74176 15.3 7.49495 15.2511 7.26834 15.1619ZM5 15.25C5.75219 15.25 6.41817 14.8809 6.8267 14.3139C6.91299 14.1942 7.09983 14.1797 7.21461 14.2725C7.42924 14.4461 7.70248 14.55 8 14.55C8.69036 14.55 9.25 13.9904 9.25 13.3C9.25 12.6097 8.69036 12.05 8 12.05C7.79204 12.05 7.59595 12.1008 7.42344 12.1906C7.29234 12.2589 7.1117 12.2076 7.05073 12.0729C6.69748 11.2928 5.91212 10.75 5 10.75C4.08788 10.75 3.30252 11.2928 2.94927 12.0729C2.8883 12.2076 2.70766 12.2589 2.57656 12.1906C2.40405 12.1008 2.20796 12.05 2 12.05C1.30964 12.05 0.75 12.6097 0.75 13.3C0.75 13.9904 1.30964 14.55 2 14.55C2.29752 14.55 2.57076 14.4461 2.78539 14.2725C2.90017 14.1797 3.08701 14.1942 3.1733 14.3139C3.58183 14.8809 4.24781 15.25 5 15.25Z"  style="mix-blend-mode:normal" fill="url(#linear_fill_BNrIZ6mhn4CeItngF-INH)" >
</path>
<path d="M8.15811 0.59294C8.24322 0.222655 7.8946 -0.125202 7.54968 0.0439987C7.00328 0.312037 6.48688 0.662225 6.01905 1.09514C3.72076 3.22193 3.3711 6.62698 5.03924 9.13985C5.33853 9.04748 5.65103 9 5.9665 9C6.48303 9 6.99161 9.12727 7.44727 9.37055C7.90293 9.61382 8.29162 9.96562 8.579 10.3948C8.66671 10.3807 8.75521 10.372 8.844 10.3688C9.3983 10.3688 9.9299 10.589 10.3219 10.981C10.5995 11.2586 10.791 11.6063 10.879 11.9826C12.2882 11.8794 13.6722 11.3179 14.7825 10.2904C15.2504 9.85752 15.6374 9.37164 15.9432 8.85111C16.1362 8.52252 15.8058 8.15785 15.4254 8.21832C13.3967 8.54082 10.7626 7.96217 9.25 6.375C7.73737 4.78784 7.70417 2.56784 8.15811 0.59294Z"  style="mix-blend-mode:normal" fill="url(#linear_fill_g6SqhjSNKLjIzZFp_Kr36)" >
</path>
<defs>
<linearGradient id="linear_fill_BNrIZ6mhn4CeItngF-INH" x1="0" y1="13.000007629394531" x2="10" y2="13.000007629394531" gradientUnits="userSpaceOnUse">
<stop offset="0" stop-color="#FAA448"  />
<stop offset="1" stop-color="#32B4FA" stop-opacity="0.56" />
</linearGradient>
<linearGradient id="linear_fill_g6SqhjSNKLjIzZFp_Kr36" x1="4" y1="5.9900054931640625" x2="16" y2="5.9900054931640625" gradientUnits="userSpaceOnUse">
<stop offset="0" stop-color="#FAA448"  />
<stop offset="1" stop-color="#32B4FA" stop-opacity="0.56" />
</linearGradient>
</defs>
</svg>
