<svg xmlns="http://www.w3.org/2000/svg" xmlns:xlink="http://www.w3.org/1999/xlink" width="16.000091552734375" height="16" viewBox="0 0 16.000091552734375 16" fill="none">
<path     fill="#000000" fill-opacity="0" d="M0 16L16 16L16 0L0 0L0 16Z">
</path>
<path d="M0.084028 9.2827C0.237204 9.05294 0.547639 8.99085 0.777403 9.14403L1.79455 9.82212C1.94384 9.92165 2.13502 9.93355 2.2955 9.85331L3.32923 9.33644C3.75152 9.1253 4.24858 9.1253 4.67087 9.33644L5.77645 9.88923C5.91721 9.95961 6.0829 9.95961 6.22366 9.88923L7.32923 9.33644C7.75152 9.1253 8.24858 9.1253 8.67087 9.33644L9.77645 9.88923C9.91721 9.95961 10.0829 9.95961 10.2237 9.88923L11.3292 9.33644C11.7515 9.1253 12.2486 9.1253 12.6709 9.33644L13.7046 9.85331C13.8651 9.93355 14.0563 9.92165 14.2056 9.82212L15.2227 9.14403C15.4525 8.99085 15.7629 9.05294 15.9161 9.2827C16.0693 9.51247 16.0072 9.8229 15.7774 9.97608L14.7603 10.6542C14.3124 10.9528 13.7388 10.9885 13.2574 10.7477L12.2237 10.2309C12.0829 10.1605 11.9172 10.1605 11.7764 10.2309L10.6709 10.7837C10.2486 10.9948 9.75152 10.9948 9.32923 10.7837L8.22366 10.2309C8.0829 10.1605 7.91721 10.1605 7.77645 10.2309L6.67087 10.7837C6.24858 10.9948 5.75152 10.9948 5.32923 10.7837L4.22366 10.2309C4.0829 10.1605 3.91721 10.1605 3.77645 10.2309L2.74272 10.7477C2.26126 10.9885 1.68773 10.9528 1.23985 10.6542L0.222703 9.97608C-0.00706133 9.8229 -0.0691482 9.51247 0.084028 9.2827ZM0.084028 11.7827C0.237204 11.5529 0.547639 11.4909 0.777403 11.644L1.79455 12.3221C1.94384 12.4216 2.13502 12.4336 2.2955 12.3533L3.32923 11.8364C3.75152 11.6253 4.24858 11.6253 4.67087 11.8364L5.77645 12.3892C5.91721 12.4596 6.0829 12.4596 6.22366 12.3892L7.32923 11.8364C7.75152 11.6253 8.24858 11.6253 8.67087 11.8364L9.77645 12.3892C9.91721 12.4596 10.0829 12.4596 10.2237 12.3892L11.3292 11.8364C11.7515 11.6253 12.2486 11.6253 12.6709 11.8364L13.7046 12.3533C13.8651 12.4336 14.0563 12.4216 14.2056 12.3221L15.2227 11.644C15.4525 11.4909 15.7629 11.5529 15.9161 11.7827C16.0693 12.0125 16.0072 12.3229 15.7774 12.4761L14.7603 13.1542C14.3124 13.4528 13.7388 13.4885 13.2574 13.2477L12.2237 12.7309C12.0829 12.6605 11.9172 12.6605 11.7764 12.7309L10.6709 13.2837C10.2486 13.4948 9.75152 13.4948 9.32923 13.2837L8.22366 12.7309C8.0829 12.6605 7.91721 12.6605 7.77645 12.7309L6.67087 13.2837C6.24858 13.4948 5.75152 13.4948 5.32923 13.2837L4.22366 12.7309C4.0829 12.6605 3.91721 12.6605 3.77645 12.7309L2.74272 13.2477C2.26126 13.4885 1.68773 13.4528 1.23985 13.1542L0.222703 12.4761C-0.00706133 12.3229 -0.0691482 12.0125 0.084028 11.7827ZM0.777403 14.144C0.547639 13.9909 0.237204 14.0529 0.084028 14.2827C-0.0691482 14.5125 -0.00706133 14.8229 0.222703 14.9761L1.23985 15.6542C1.68773 15.9528 2.26126 15.9885 2.74272 15.7477L3.77645 15.2309C3.91721 15.1605 4.0829 15.1605 4.22366 15.2309L5.32923 15.7837C5.75152 15.9948 6.24858 15.9948 6.67087 15.7837L7.77645 15.2309C7.91721 15.1605 8.0829 15.1605 8.22366 15.2309L9.32923 15.7837C9.75152 15.9948 10.2486 15.9948 10.6709 15.7837L11.7764 15.2309C11.9172 15.1605 12.0829 15.1605 12.2237 15.2309L13.2574 15.7477C13.7388 15.9885 14.3124 15.9528 14.7603 15.6542L15.7774 14.9761C16.0072 14.8229 16.0693 14.5125 15.9161 14.2827C15.7629 14.0529 15.4525 13.9909 15.2227 14.144L14.2056 14.8221C14.0563 14.9216 13.8651 14.9336 13.7046 14.8533L12.6709 14.3364C12.2486 14.1253 11.7515 14.1253 11.3292 14.3364L10.2237 14.8892C10.0829 14.9596 9.91721 14.9596 9.77645 14.8892L8.67087 14.3364C8.24858 14.1253 7.75152 14.1253 7.32923 14.3364L6.22366 14.8892C6.0829 14.9596 5.91721 14.9596 5.77645 14.8892L4.67087 14.3364C4.24858 14.1253 3.75152 14.1253 3.32923 14.3364L2.2955 14.8533C2.13502 14.9336 1.94384 14.9216 1.79455 14.8221L0.777403 14.144Z" fill-rule="evenodd" style="mix-blend-mode:normal" fill="url(#linear_fill_MP4AL3qR4imET4x3uoRcG)" >
</path>
<path d="M8.22731 0.630706C8.12681 0.456432 7.87319 0.456431 7.77269 0.630706L4.03488 7.11189C3.93515 7.28482 4.06117 7.5 4.2622 7.5L11.7378 7.5C11.9388 7.5 12.0649 7.28483 11.9651 7.11189L8.22731 0.630706ZM7.37744 2.7743C7.34539 2.49246 7.6333 2.25 8 2.25C8.3667 2.25 8.65461 2.49246 8.62256 2.7743L8.34109 5.25L7.65891 5.25L7.37744 2.7743ZM8.50389 6.25001C8.50389 6.52615 8.28004 6.75001 8.00389 6.75001C7.72775 6.75001 7.50389 6.52615 7.50389 6.25001C7.50389 5.97386 7.72775 5.75001 8.00389 5.75001C8.28004 5.75001 8.50389 5.97386 8.50389 6.25001Z"  style="mix-blend-mode:normal" fill="url(#linear_fill_fAbt7JsPxAEaN2l-IeYvD)" >
</path>
<defs>
<linearGradient id="linear_fill_MP4AL3qR4imET4x3uoRcG" x1="0" y1="12.5" x2="16" y2="12.5" gradientUnits="userSpaceOnUse">
<stop offset="0" stop-color="#36F7BD"  />
<stop offset="1" stop-color="#FA1E6F" stop-opacity="0.88" />
</linearGradient>
<linearGradient id="linear_fill_fAbt7JsPxAEaN2l-IeYvD" x1="4" y1="4" x2="12" y2="4" gradientUnits="userSpaceOnUse">
<stop offset="0" stop-color="#57F28B" stop-opacity="0.74" />
<stop offset="1" stop-color="#FA2A2A" stop-opacity="0.74" />
</linearGradient>
</defs>
</svg>
