<svg xmlns="http://www.w3.org/2000/svg" xmlns:xlink="http://www.w3.org/1999/xlink" width="16" height="16" viewBox="0 0 16 16" fill="none">
<path     fill="#000000" fill-opacity="0" d="M0 16L16 16L16 0L0 0L0 16Z">
</path>
<path d="M10.4057 7.08571C10.1771 5.94286 10.8628 4.11429 12.92 3.42857C12.92 5.12492 13.3054 6.11472 13.6675 7.04491C13.9886 7.86943 14.2914 8.64713 14.2914 9.82857C14.2914 13.2571 11.5485 16 8.11997 16C4.6914 16 1.71997 13.4857 1.71997 9.82857C1.71997 8.22857 2.40568 6.4 3.77711 5.71429C3.77711 5.71429 4.00568 8 5.14854 9.14286C5.1907 8.80562 5.1862 8.34398 5.18095 7.80383C5.1577 5.41523 5.11951 1.49133 9.03426 0C8.80568 3.2 8.80569 5.25714 10.4057 7.08571ZM9.04997 11.1C8.34997 10.3 8.34997 9.4 8.44997 8C6.73727 8.65246 6.75398 10.3692 6.76415 11.4142C6.76645 11.6505 6.76841 11.8525 6.74997 12C6.24997 11.5 6.14997 10.5 6.14997 10.5C5.54997 10.8 5.24997 11.6 5.24997 12.3C5.24997 13.9 6.54997 15 8.04997 15C9.54997 15 10.75 13.8 10.75 12.3C10.75 11.7831 10.6175 11.4429 10.477 11.0821C10.3186 10.6752 10.15 10.2422 10.15 9.5C9.24997 9.8 8.94997 10.6 9.04997 11.1Z"  style="mix-blend-mode:normal" fill="url(#linear_fill_IjCVDtWLg_yyTUdb9w4Y3)" >
</path>
<defs>
<linearGradient id="linear_fill_IjCVDtWLg_yyTUdb9w4Y3" x1="1.719970703125" y1="8" x2="14.28997802734375" y2="8" gradientUnits="userSpaceOnUse">
<stop offset="0" stop-color="#36F7BD"  />
<stop offset="1" stop-color="#FA1E6F" stop-opacity="0.88" />
</linearGradient>
</defs>
</svg>
