<svg xmlns="http://www.w3.org/2000/svg" xmlns:xlink="http://www.w3.org/1999/xlink" width="16" height="16" viewBox="0 0 16 16" fill="none">
<path d="M8.3753 0.375C8.3753 0.167893 8.2074 0 8.00029 0C7.79317 0 7.62527 0.167893 7.62527 0.375L7.62527 1.34467L7.14042 0.859835C6.99396 0.713388 6.75652 0.713388 6.61006 0.859835C6.46361 1.00628 6.46361 1.24372 6.61006 1.39017L7.62527 2.40533L7.62527 3.75C7.62527 3.7604 7.6257 3.7707 7.62653 3.78089C7.08156 3.87198 6.60294 4.15893 6.26548 4.56692C6.25701 4.56105 6.24823 4.55548 6.23914 4.55024L5.07458 3.8779L4.70299 2.49116C4.64938 2.29111 4.44375 2.17239 4.24369 2.226C4.04363 2.2796 3.92491 2.48523 3.97851 2.68528L4.15598 3.34757L3.31619 2.86274C3.13682 2.75918 2.90746 2.82064 2.80391 3C2.70035 3.17936 2.7618 3.4087 2.94117 3.51226L3.78097 3.99709L3.11864 4.17455C2.91858 4.22816 2.79986 4.43378 2.85346 4.63383C2.90707 4.83388 3.1127 4.9526 3.31276 4.899L4.69956 4.52742L5.86413 5.19976C5.87305 5.20491 5.88209 5.20965 5.89124 5.21399C5.8 5.45867 5.75013 5.72351 5.75013 6C5.75013 6.27649 5.8 6.54133 5.89124 6.78602C5.8821 6.79035 5.87306 6.79509 5.86415 6.80024L4.69958 7.47257L3.31279 7.101C3.11273 7.04739 2.90709 7.16611 2.85349 7.36616C2.79988 7.56621 2.91861 7.77184 3.11866 7.82544L3.78099 8.0029L2.94119 8.48774C2.76183 8.59129 2.70037 8.82064 2.80393 9C2.90749 9.17936 3.13684 9.24081 3.31621 9.13726L4.156 8.65242L3.97853 9.31472C3.92493 9.51477 4.04365 9.7204 4.24371 9.774C4.44377 9.8276 4.6494 9.70888 4.70301 9.50883L5.0746 8.12209L6.23917 7.44976C6.24825 7.44451 6.25702 7.43895 6.26549 7.43309C6.60294 7.84107 7.08157 8.12802 7.62653 8.21911C7.6257 8.2293 7.62527 8.2396 7.62527 8.25L7.62527 9.59467L6.61006 10.6098C6.46361 10.7563 6.46361 10.9937 6.61006 11.1402C6.75652 11.2866 6.99396 11.2866 7.14042 11.1402L7.62527 10.6553L7.62527 11.625C7.62527 11.8321 7.79317 12 8.00029 12C8.2074 12 8.3753 11.8321 8.3753 11.625L8.3753 10.6553L8.86016 11.1402C9.00661 11.2866 9.24406 11.2866 9.39051 11.1402C9.53696 10.9937 9.53696 10.7563 9.39051 10.6098L8.3753 9.59467L8.3753 8.25C8.3753 8.23959 8.37488 8.22928 8.37405 8.21909C8.91898 8.12797 9.39757 7.84101 9.735 7.43303C9.74349 7.43891 9.7523 7.4445 9.7614 7.44976L10.926 8.12209L11.2976 9.50883C11.3512 9.70888 11.5568 9.8276 11.7569 9.774C11.9569 9.7204 12.0756 9.51477 12.022 9.31472L11.8446 8.65242L12.6844 9.13726C12.8637 9.24081 13.0931 9.17936 13.1966 9C13.3002 8.82064 13.2387 8.59129 13.0594 8.48774L12.2196 8.0029L12.8819 7.82544C13.082 7.77184 13.2007 7.56621 13.1471 7.36616C13.0935 7.16611 12.8878 7.04739 12.6878 7.101L11.301 7.47257L10.1364 6.80024C10.1275 6.79507 10.1184 6.79031 10.1092 6.78596C10.2004 6.54129 10.2503 6.27647 10.2503 6C10.2503 5.72353 10.2004 5.45871 10.1092 5.21404C10.1184 5.20969 10.1275 5.20493 10.1364 5.19976L11.301 4.52742L12.6878 4.899C12.8879 4.9526 13.0935 4.83388 13.1471 4.63383C13.2007 4.43378 13.082 4.22816 12.8819 4.17455L12.2196 3.99709L13.0594 3.51226C13.2388 3.4087 13.3002 3.17936 13.1967 3C13.0931 2.82064 12.8638 2.75918 12.6844 2.86274L11.8446 3.34757L12.0221 2.68528C12.0757 2.48523 11.9569 2.2796 11.7569 2.226C11.5568 2.17239 11.3512 2.29111 11.2976 2.49116L10.926 3.8779L9.76143 4.55024C9.75231 4.5555 9.7435 4.56109 9.735 4.56698C9.39758 4.15899 8.91898 3.87203 8.37405 3.78091C8.37488 3.77072 8.3753 3.76041 8.3753 3.75L8.3753 2.40533L9.39051 1.39017C9.53696 1.24372 9.53696 1.00628 9.39051 0.859835C9.24406 0.713388 9.00661 0.713388 8.86016 0.859835L8.3753 1.34467L8.3753 0.375Z"  style="mix-blend-mode:normal" fill="url(#linear_fill_cqDCs_6Iq_4trLMqZZQlh)" >
</path>
<path d="M2.5 13C2.22386 13 2 13.2239 2 13.5C2 13.7761 2.22386 14 2.5 14L13.5 14C13.7761 14 14 13.7761 14 13.5C14 13.2239 13.7761 13 13.5 13L2.5 13ZM0.5 15C0.223858 15 0 15.2239 0 15.5C0 15.7761 0.223858 16 0.5 16L15.5 16C15.7761 16 16 15.7761 16 15.5C16 15.2239 15.7761 15 15.5 15L0.5 15Z" fill-rule="evenodd" style="mix-blend-mode:normal" fill="url(#linear_fill_xGUwJ51Tw9ADOj6xE7PkR)" >
</path>
<defs>
<linearGradient id="linear_fill_cqDCs_6Iq_4trLMqZZQlh" x1="2.75360107421875" y1="6" x2="13.24652099609375" y2="6" gradientUnits="userSpaceOnUse">
<stop offset="0" stop-color="#F54242"  />
<stop offset="1" stop-color="#30F725" stop-opacity="0.72" />
</linearGradient>
<linearGradient id="linear_fill_xGUwJ51Tw9ADOj6xE7PkR" x1="0" y1="14.5" x2="16" y2="14.5" gradientUnits="userSpaceOnUse">
<stop offset="0" stop-color="#F54242"  />
<stop offset="1" stop-color="#30F725" stop-opacity="0.72" />
</linearGradient>
</defs>
</svg>
