<svg xmlns="http://www.w3.org/2000/svg" xmlns:xlink="http://www.w3.org/1999/xlink" width="18" height="18" viewBox="0 0 18 18" fill="none">
<path  transform="translate(1, 1)"   fill="#000000" fill-opacity="0" d="M0 16L16 16L16 0L0 0L0 16Z">
</path>
<path d="M2.29289 3.70711C2.10536 3.51957 2 3.26522 2 3C2 2.5 2.55542 1.60499 3 1C3.44458 1.60499 4 2.5 4 3C4 3.26522 3.89464 3.51957 3.70711 3.70711C3.51957 3.89464 3.26522 4 3 4C2.73478 4 2.48043 3.89464 2.29289 3.70711ZM8.26814 5L12.3207 5C12.5184 5 12.6375 5.23348 12.5297 5.41098L10.2985 8.29824C10.2871 8.31695 10.2805 8.33864 10.2796 8.361C10.2788 8.38336 10.2836 8.40556 10.2935 8.42523C10.3035 8.44491 10.3183 8.46133 10.3363 8.47276C10.3544 8.48419 10.3749 8.49019 10.3959 8.49014L12.7431 8.49014C13.0554 8.49014 13.2165 8.88833 13.0023 9.1314L6.06474 17L7.71692 10.9384C7.72189 10.9199 7.72278 10.9004 7.71952 10.8815C7.71626 10.8626 7.70894 10.8447 7.69813 10.8293C7.68733 10.8139 7.67332 10.8013 7.65722 10.7927C7.64112 10.784 7.62336 10.7794 7.60532 10.7793L5.20644 10.7793C5.14441 10.7795 5.08342 10.7623 5.02953 10.7295C4.97564 10.6967 4.93072 10.6494 4.89923 10.5923C4.86773 10.5353 4.85077 10.4704 4.85 10.4042C4.84924 10.338 4.86471 10.2727 4.89488 10.2148L7.89592 5.23348C7.97081 5.08955 8.11311 5 8.26814 5ZM10 3C10 3.26522 10.1054 3.51957 10.2929 3.70711C10.4804 3.89464 10.7348 4 11 4C11.2652 4 11.5196 3.89464 11.7071 3.70711C11.8946 3.51957 12 3.26522 12 3C12 2.5 11.4446 1.60499 11 1C10.5554 1.60499 10 2.5 10 3ZM14.2929 3.70711C14.1054 3.51957 14 3.26522 14 3C14 2.5 14.5554 1.60499 15 1C15.4446 1.60499 16 2.5 16 3C16 3.26522 15.8946 3.51957 15.7071 3.70711C15.5196 3.89464 15.2652 4 15 4C14.7348 4 14.4804 3.89464 14.2929 3.70711ZM6 3C6 3.26522 6.10536 3.51957 6.29289 3.70711C6.48043 3.89464 6.73478 4 7 4C7.26522 4 7.51957 3.89464 7.70711 3.70711C7.89464 3.51957 8 3.26522 8 3C8 2.5 7.44458 1.60499 7 1C6.55542 1.60499 6 2.5 6 3Z" fill-rule="evenodd" style="mix-blend-mode:normal" fill="url(#linear_fill_FWCv69xEMMoXXgxejxbwA)" >
</path>
<path fill-rule="evenodd" transform="translate(1, 1)" fill="url(#linear_border_y5ySg8QDUzoqX1YEAJB8L_0)"  d="M-1 17L-1 -1L17 -1L17 17L-1 17ZM16 16L0 16L0 0L16 0L16 16Z">
</path>
<defs>
<radialGradient id="linear_border_y5ySg8QDUzoqX1YEAJB8L_0" cx="0" cy="0" r="1" gradientTransform="translate(0 0) rotate(90) scale(0, 0)" gradientUnits="userSpaceOnUse">
</radialGradient>
<linearGradient id="linear_fill_FWCv69xEMMoXXgxejxbwA" x1="2" y1="9" x2="16" y2="9" gradientUnits="userSpaceOnUse">
<stop offset="0.0208" stop-color="#0CF718" stop-opacity="0.5" />
<stop offset="1" stop-color="#FA14A9" stop-opacity="0.71" />
</linearGradient>
</defs>
</svg>
