<svg xmlns="http://www.w3.org/2000/svg" xmlns:xlink="http://www.w3.org/1999/xlink" width="16" height="16" viewBox="0 0 16 16" fill="none">
<path     fill="#000000" fill-opacity="0" d="M0 16L16 16L16 0L0 0L0 16Z">
</path>
<path d="M5.11785 2.52267C6.10808 3.27243 6.64644 4.0291 6.86687 4.767C6.02451 5.34434 5.38733 5.95316 4.922 6.58174C4.2714 5.66305 3.63974 4.55445 2.96263 3.18811C2.91596 3.09416 3.01184 3.37096 3.08814 3.59124C3.11986 3.68282 3.14821 3.76464 3.16151 3.80598C3.58211 5.11491 4.16431 6.1421 4.69118 6.91685C4.38777 7.39199 4.17723 7.87703 4.0456 8.36708C3.33981 8.29059 2.55065 7.86328 2.03267 6.54083C1.25811 4.56253 1.50836 1.75505 1.65547 0.412202C1.68127 0.175647 1.80717 0.355182 1.93877 0.563535C2.21274 0.99683 2.86332 1.31028 3.57035 1.65094C4.09928 1.90577 4.65979 2.17583 5.11785 2.52267ZM12.018 6.35465C8.786 11.0369 6.20645 13.7516 3.05323 15.4655C2.04261 16.0125 -0.00602555 15.0641 1.58539 14.9715C2.52489 14.9168 3.38197 14.386 3.96285 14.0262C3.98628 14.0117 4.00926 13.9975 4.03178 13.9836C4.1193 13.9309 4.81943 13.142 4.85311 13.0449C4.88678 12.9478 4.88558 12.8419 4.84971 12.7457C3.82825 9.98446 4.19089 6.9804 8.4602 4.62836C9.34281 4.14209 10.3829 3.81677 11.3643 3.50978C12.6762 3.09943 13.8833 2.72184 14.4697 2.03637C14.7515 1.70671 15.0159 1.42593 14.9992 1.84601C14.9061 4.23088 14.612 9.2019 12.7591 12.4561C10.6664 16.1304 7.89602 15.14 6.72575 14.515C6.47941 14.3837 6.42957 14.0555 6.63184 13.8659C7.92491 12.6333 9.94326 10.5869 11.5137 7.38226C11.5475 7.31351 11.6177 7.17796 11.6963 7.02623C11.8854 6.66128 12.1231 6.20268 12.018 6.35465Z" fill-rule="evenodd" style="mix-blend-mode:normal" fill="url(#linear_fill_qkVCa1J3W7qNxW68WhV5y)" >
</path>
<defs>
<linearGradient id="linear_fill_qkVCa1J3W7qNxW68WhV5y" x1="1" y1="7.9649658203125" x2="15" y2="7.9649658203125" gradientUnits="userSpaceOnUse">
<stop offset="0" stop-color="#36F7BD"  />
<stop offset="1" stop-color="#FA1E6F" stop-opacity="0.88" />
</linearGradient>
</defs>
</svg>
