<svg xmlns="http://www.w3.org/2000/svg" xmlns:xlink="http://www.w3.org/1999/xlink" width="18" height="18" viewBox="0 0 18 18" fill="none">
<path  transform="translate(1, 1)"   fill="#000000" fill-opacity="0" d="M0 16L16 16L16 0L0 0L0 16Z">
</path>
<path d="M12.34 4.33333C12.34 4.77536 12.5156 5.19929 12.8282 5.51185C13.1407 5.82441 13.5646 6 14.0067 6C14.4487 6 14.8726 5.82441 15.1852 5.51185C15.4977 5.19929 15.6733 4.77536 15.6733 4.33333C15.6733 3.5 14.7476 2.00831 14.0067 1C13.2657 2.00831 12.34 3.5 12.34 4.33333ZM3.21868 10.1213C2.65607 9.55871 2.34 8.79565 2.34 8C2.34 6.5 4.00627 3.81496 5.34 2C6.04061 2.95339 6.83297 4.14687 7.42737 5.28255C6.20144 7.16973 5.05677 9.24273 4.5771 10.9014C4.06755 10.7674 3.59764 10.5003 3.21868 10.1213ZM9.09874 9.60175C9.04184 9.23983 9.26905 8.80172 9.59531 8.60549C9.85124 8.45156 10.1462 8.47224 10.4012 8.62753L10.4716 8.67038C10.773 8.85392 10.9328 9.18759 10.88 9.52313L10.522 11.8L9.44438 11.8L9.09874 9.60175ZM10.59 12.9C10.59 13.2314 10.3213 13.5 9.98996 13.5C9.65859 13.5 9.38997 13.2314 9.38997 12.9C9.38997 12.5686 9.65859 12.3 9.98996 12.3C10.3213 12.3 10.59 12.5686 10.59 12.9ZM9.24433 4.06713C7.3483 6.79728 5.34 10.2794 5.34 12.3333C5.34 13.571 5.83167 14.758 6.70684 15.6332C7.58201 16.5083 8.76899 17 10.0067 17C11.2443 17 12.4313 16.5083 13.3065 15.6332C14.1817 14.758 14.6733 13.571 14.6733 12.3333C14.6733 10.2794 12.665 6.79728 10.769 4.06713C10.511 3.69567 10.2551 3.33813 10.0067 3C9.75819 3.33813 9.5023 3.69567 9.24433 4.06713ZM6.58444 12.3333C6.58444 11.9562 6.6946 11.4127 6.94808 10.7098C7.19627 10.0214 7.55593 9.25019 7.99156 8.43938C8.58268 7.33916 9.29356 6.20317 10.0067 5.15493C10.7198 6.20317 11.4307 7.33916 12.0218 8.43938C12.4574 9.25019 12.8171 10.0214 13.0653 10.7098C13.3187 11.4127 13.4289 11.9562 13.4289 12.3333C13.4289 13.241 13.0683 14.1114 12.4265 14.7532C11.7848 15.395 10.9143 15.7556 10.0067 15.7556C9.09904 15.7556 8.22858 15.395 7.58679 14.7532C6.945 14.1114 6.58444 13.241 6.58444 12.3333Z" fill-rule="evenodd" style="mix-blend-mode:normal" fill="url(#linear_fill_iAdvr4olCdvZygKJd_07T)" >
</path>
<path fill-rule="evenodd" transform="translate(1, 1)" fill="url(#linear_border_F_VW6AUbuLMy08H-fCYiS_0)"  d="M-1 17L-1 -1L17 -1L17 17L-1 17ZM16 16L0 16L0 0L16 0L16 16Z">
</path>
<defs>
<radialGradient id="linear_border_F_VW6AUbuLMy08H-fCYiS_0" cx="0" cy="0" r="1" gradientTransform="translate(0 0) rotate(90) scale(0, 0)" gradientUnits="userSpaceOnUse">
</radialGradient>
<linearGradient id="linear_fill_iAdvr4olCdvZygKJd_07T" x1="2.34002685546875" y1="9" x2="15.6700439453125" y2="9" gradientUnits="userSpaceOnUse">
<stop offset="0.0208" stop-color="#0CF718" stop-opacity="0.5" />
<stop offset="1" stop-color="#FA14A9" stop-opacity="0.71" />
</linearGradient>
</defs>
</svg>
