<svg xmlns="http://www.w3.org/2000/svg" xmlns:xlink="http://www.w3.org/1999/xlink" width="16" height="16" viewBox="0 0 16 16" fill="none">
<path     fill="#000000" fill-opacity="0" d="M0 16L16 16L16 0L0 0L0 16Z">
</path>
<path d="M0 3.5C0 3.22386 0.223858 3 0.5 3L15.5 3C15.7761 3 16 3.22386 16 3.5C16 3.77614 15.7761 4 15.5 4L0.5 4C0.223858 4 0 3.77614 0 3.5ZM0 6.5C0 6.22386 0.248731 6 0.555556 6L9.44444 6C9.75127 6 10 6.22386 10 6.5C10 6.77614 9.75127 7 9.44444 7L0.555556 7C0.248731 7 0 6.77614 0 6.5ZM6.55556 9C6.24873 9 6 9.22386 6 9.5C6 9.77614 6.24873 10 6.55556 10L15.4444 10C15.7513 10 16 9.77614 16 9.5C16 9.22386 15.7513 9 15.4444 9L6.55556 9ZM11 6.5C11 6.22386 11.1865 6 11.4167 6L15.5833 6C15.8135 6 16 6.22386 16 6.5C16 6.77614 15.8135 7 15.5833 7L11.4167 7C11.1865 7 11 6.77614 11 6.5ZM0.416667 9C0.186548 9 0 9.22386 0 9.5C0 9.77614 0.186548 10 0.416667 10L4.58333 10C4.81345 10 5 9.77614 5 9.5C5 9.22386 4.81345 9 4.58333 9L0.416667 9ZM0 12.5C0 12.2239 0.248731 12 0.555556 12L9.44444 12C9.75127 12 10 12.2239 10 12.5C10 12.7761 9.75127 13 9.44444 13L0.555556 13C0.248731 13 0 12.7761 0 12.5ZM13.5 13C13.7761 13 14 12.7761 14 12.5C14 12.2239 13.7761 12 13.5 12C13.2239 12 13 12.2239 13 12.5C13 12.7761 13.2239 13 13.5 13ZM12 12.5C12 12.7761 11.7761 13 11.5 13C11.2239 13 11 12.7761 11 12.5C11 12.2239 11.2239 12 11.5 12C11.7761 12 12 12.2239 12 12.5ZM15.5 13C15.7761 13 16 12.7761 16 12.5C16 12.2239 15.7761 12 15.5 12C15.2239 12 15 12.2239 15 12.5C15 12.7761 15.2239 13 15.5 13Z" fill-rule="evenodd" style="mix-blend-mode:normal" fill="url(#linear_fill_U23EV9gkF3UWzi8kD-2Ys)" >
</path>
<defs>
<linearGradient id="linear_fill_U23EV9gkF3UWzi8kD-2Ys" x1="0" y1="8" x2="16" y2="8" gradientUnits="userSpaceOnUse">
<stop offset="0" stop-color="#36F7BD"  />
<stop offset="1" stop-color="#FA1E6F" stop-opacity="0.88" />
</linearGradient>
</defs>
</svg>
