<svg xmlns="http://www.w3.org/2000/svg" xmlns:xlink="http://www.w3.org/1999/xlink" width="18" height="18" viewBox="0 0 18 18" fill="none">
<path d="M7.49707 4.07718C7.41223 4.11569 7.32017 4.13574 7.227 4.13601C7.06733 4.13534 6.91336 4.07664 6.79377 3.97085C6.67418 3.86506 6.59713 3.7194 6.577 3.56101L6.44 2.48401C6.41845 2.31143 6.46611 2.13735 6.57254 1.99981C6.67898 1.86226 6.83554 1.77245 7.008 1.75001C7.1802 1.73138 7.35292 1.78027 7.48981 1.88639C7.62671 1.99251 7.71711 2.14759 7.742 2.31901L7.878 3.39601C7.88961 3.48845 7.88145 3.58232 7.85407 3.67138C7.82669 3.76044 7.7807 3.84267 7.71916 3.91263C7.65762 3.98258 7.58192 4.03867 7.49707 4.07718ZM4.12201 5.78384C4.03884 5.76106 3.961 5.72203 3.893 5.66901L3.036 5.00401C2.89885 4.89681 2.80961 4.73977 2.78769 4.56709C2.76578 4.39441 2.81297 4.22006 2.919 4.08201C3.02583 3.94499 3.18252 3.85579 3.35488 3.83388C3.52723 3.81196 3.70126 3.85909 3.839 3.96501L4.696 4.62901C4.83359 4.73589 4.92318 4.89297 4.94511 5.06582C4.96704 5.23866 4.91953 5.41315 4.81299 5.55101C4.76057 5.61948 4.6951 5.67689 4.62037 5.71992C4.54564 5.76296 4.46312 5.79076 4.37759 5.80173C4.29205 5.8127 4.20519 5.80662 4.12201 5.78384ZM3.71975 7.8766C3.8565 7.9829 3.9463 8.13843 3.97 8.31001C3.99154 8.48258 3.94388 8.65666 3.83745 8.79421C3.73101 8.93175 3.57445 9.02156 3.402 9.04401L2.327 9.18201C2.15407 9.20402 1.97949 9.15644 1.84165 9.04973C1.70381 8.94302 1.61401 8.78593 1.592 8.61301C1.56998 8.44008 1.61756 8.2655 1.72427 8.12766C1.77711 8.05941 1.84287 8.00224 1.9178 7.9594C1.99274 7.91656 2.07537 7.88891 2.161 7.87801L3.238 7.74101C3.41012 7.72164 3.58299 7.7703 3.71975 7.8766ZM3.676 12.009L4.34 11.15C4.39085 11.0767 4.4561 11.0146 4.53176 10.9673C4.60742 10.9201 4.69191 10.8887 4.78007 10.8752C4.86824 10.8617 4.95824 10.8662 5.04458 10.8886C5.13093 10.911 5.21181 10.9507 5.28231 11.0054C5.3528 11.06 5.41143 11.1285 5.45461 11.2065C5.4978 11.2846 5.52464 11.3706 5.5335 11.4593C5.54236 11.5481 5.53305 11.6377 5.50614 11.7228C5.47924 11.8078 5.43529 11.8865 5.377 11.954L4.713 12.813C4.66082 12.8818 4.59546 12.9395 4.52073 12.9828C4.446 13.0261 4.3634 13.054 4.27775 13.065C4.1921 13.076 4.10512 13.0698 4.02189 13.0468C3.93866 13.0238 3.86085 12.9844 3.793 12.931C3.65585 12.8238 3.56661 12.6668 3.54469 12.4941C3.52278 12.3214 3.56997 12.1471 3.676 12.009ZM7.74809 5.06846C8.38585 5.02421 8.99085 5.18267 9.50002 5.48895L9.50002 6.7901C9.10303 6.30865 8.48728 6.01957 7.81731 6.06606C6.71539 6.14252 5.88409 7.09778 5.96055 8.1997C6.03434 9.26324 6.92679 10.0747 7.97961 10.0612L7.65125 11.0463C6.22413 10.9024 5.06559 9.74823 4.96294 8.26892C4.84826 6.61604 6.09521 5.18315 7.74809 5.06846Z" fill-rule="evenodd" style="mix-blend-mode:normal" fill="url(#linear_fill_0J5eh2VdZpkgZdlytpI_W)" >
</path>
<path fill-rule="evenodd" transform="translate(1, 1)" fill="url(#linear_border_IhY88VjZlWSQhAL2VcVHA_0)"  d="M-1 17L-1 -1L17 -1L17 17L-1 17ZM16 16L0 16L0 0L16 0L16 16Z">
</path>
<defs>
<linearGradient id="linear_border_IhY88VjZlWSQhAL2VcVHA_0" x1="0" y1="0" x2="0" y2="0" gradientUnits="userSpaceOnUse">
</linearGradient>
<linearGradient id="linear_fill_0J5eh2VdZpkgZdlytpI_W" x1="1.58673095703125" y1="7.4061279296875" x2="9.4967041015625" y2="7.4061279296875" gradientUnits="userSpaceOnUse">
<stop offset="0" stop-color="#CBFA20"  />
<stop offset="1" stop-color="#EF32FC" stop-opacity="0" />
</linearGradient>
</defs>
</svg>
