<svg xmlns="http://www.w3.org/2000/svg" xmlns:xlink="http://www.w3.org/1999/xlink" width="16" height="16" viewBox="0 0 16 16" fill="none">
<path     fill="#000000" fill-opacity="0" d="M0 16L16 16L16 0L0 0L0 16Z">
</path>
<path     fill="#000000" fill-opacity="0" d="M0 16L16 16L16 0L0 0L0 16Z">
</path>
<path d="M15.4 3C14.5 3.3 14.2 4.1 14.3 4.6C13.6 3.8 13.6 2.9 13.7 1.5C11.6 2.3 12.1 4.7 12 5.5C11.5 5 11.4 4 11.4 4C10.8 4.3 10.5 5.1 10.5 5.8C10.5 7.4 11.8 8.5 13.3 8.5C14.8 8.5 16 7.3 16 5.8C16 4.7 15.4 4.4 15.4 3Z"  style="mix-blend-mode:normal" fill="url(#linear_fill_YztUFC_O4ZJVyW_pUt9kO)" >
</path>
<path    style="mix-blend-mode:normal" fill="url(#linear_fill_bO2dAJJ7cQahjZ3zU71Rt_0)"  d="M12.3 9.3C10.7 8.9 9.5 7.5 9.5 5.7C9.5 5.1 9.7 4.4 10.1 3.8L7.26 0.203C7.179 0.1 7.023 0.102 6.944 0.206L3.244 5.079C3.144 5.211 3.238 5.4 3.403 5.4L4.8 5.4L2.056 8.876C1.952 9.007 2.046 9.2 2.213 9.2L4.2 9.2L0.298 13.567C0.183 13.696 0.274 13.9 0.447 13.9L6 13.9L6 15.8C6 15.91 6.09 16 6.2 16L8 16C8.11 16 8.2 15.91 8.2 15.8L8.2 13.9L13.747 13.9C13.92 13.9 14.011 13.694 13.894 13.565L10 9.3L12.3 9.3Z">
</path>
<defs>
<linearGradient id="linear_fill_YztUFC_O4ZJVyW_pUt9kO" x1="10.5" y1="5" x2="16" y2="5" gradientUnits="userSpaceOnUse">
<stop offset="0" stop-color="#36F7BD"  />
<stop offset="1" stop-color="#FA1E6F" stop-opacity="0.88" />
</linearGradient>
<linearGradient id="linear_fill_bO2dAJJ7cQahjZ3zU71Rt_0" x1="0" y1="8" x2="14.20001220703125" y2="8" gradientUnits="userSpaceOnUse">
<stop offset="0" stop-color="#36F7BD"  />
<stop offset="1" stop-color="#FA1E6F" stop-opacity="0.88" />
</linearGradient>
</defs>
</svg>
