<svg xmlns="http://www.w3.org/2000/svg" xmlns:xlink="http://www.w3.org/1999/xlink" width="18" height="18" viewBox="0 0 18 18" fill="none">
<path  transform="translate(1, 1)"   fill="#000000" fill-opacity="0" d="M0 16L16 16L16 0L0 0L0 16Z">
</path>
<path d="M3 7L9 7C9.55228 7 10 6.55229 10 6C10 5.44771 9.55228 5 9 5C8.56537 5 8.19429 5.27755 8.05677 5.66662C7.96475 5.92698 7.67909 6.06344 7.41873 5.97142C7.15837 5.8794 7.02191 5.59373 7.11393 5.33338C7.38825 4.55726 8.12841 4 9 4C10.1046 4 11 4.89543 11 6C11 7.10457 10.1046 8 9 8L3 8C2.72386 8 2.5 7.77614 2.5 7.5C2.5 7.22386 2.72386 7 3 7ZM12.0788 6.37537C12.3563 5.29721 13.3344 4.5 14.5 4.5C15.8807 4.5 17 5.61929 17 7C17 8.39728 15.7593 9.5 14.5 9.5L1.5 9.5C1.22386 9.5 1 9.27614 1 9C1 8.72386 1.22386 8.5 1.5 8.5L14.5 8.5C15.2407 8.5 16 7.81186 16 7C16 6.17157 15.3284 5.5 14.5 5.5C13.8017 5.5 13.2138 5.97756 13.0472 6.62463C12.9784 6.89206 12.7058 7.05305 12.4384 6.98422C12.171 6.91539 12.01 6.6428 12.0788 6.37537ZM3.5 10.5C3.5 10.2239 3.72386 10 4 10L12 10C13.1046 10 14 10.8954 14 12C14 13.1046 13.1046 14 12 14C11.1284 14 10.3883 13.4427 10.1139 12.6666C10.0219 12.4063 10.1584 12.1206 10.4187 12.0286C10.6791 11.9366 10.9647 12.073 11.0568 12.3334C11.1943 12.7224 11.5654 13 12 13C12.5523 13 13 12.5523 13 12C13 11.4477 12.5523 11 12 11L4 11C3.72386 11 3.5 10.7761 3.5 10.5Z" fill-rule="evenodd" style="mix-blend-mode:normal" fill="url(#linear_fill_lPlCNnb4-QiJsgH8iFdiu)" >
</path>
<path fill-rule="evenodd" transform="translate(1, 1)" fill="url(#linear_border_SLQ0V3oikalRUnd1-v7fr_0)"  d="M-1 17L-1 -1L17 -1L17 17L-1 17ZM16 16L0 16L0 0L16 0L16 16Z">
</path>
<defs>
<radialGradient id="linear_border_SLQ0V3oikalRUnd1-v7fr_0" cx="0" cy="0" r="1" gradientTransform="translate(0 0) rotate(90) scale(0, 0)" gradientUnits="userSpaceOnUse">
</radialGradient>
<linearGradient id="linear_fill_lPlCNnb4-QiJsgH8iFdiu" x1="1" y1="9" x2="17" y2="9" gradientUnits="userSpaceOnUse">
<stop offset="0.0208" stop-color="#0CF718" stop-opacity="0.5" />
<stop offset="1" stop-color="#FA14A9" stop-opacity="0.71" />
</linearGradient>
</defs>
</svg>
