<svg xmlns="http://www.w3.org/2000/svg" xmlns:xlink="http://www.w3.org/1999/xlink" width="18" height="18" viewBox="0 0 18 18" fill="none">
<path  transform="translate(1, 1)"   fill="#000000" fill-opacity="0" d="M0 16L16 16L16 0L0 0L0 16Z">
</path>
<path d="M15.619 2.95765C16.1936 3.37833 16.6393 3.8952 16.8141 4.50705C16.89 4.77257 16.7362 5.04931 16.4707 5.12517C16.2052 5.20104 15.9285 5.04729 15.8526 4.78177C15.7608 4.4603 15.5009 4.1105 15.0283 3.76453C14.5595 3.42135 13.9169 3.1088 13.1337 2.85306C11.5682 2.34188 9.50985 2.08007 7.34109 2.21019L7.33643 2.21047L7.33643 2.21045C5.62816 2.29695 4.19558 2.66402 3.26385 3.16297C2.79687 3.41305 2.48765 3.67914 2.31922 3.92847C2.16059 4.1633 2.1277 4.37707 2.19068 4.59172C2.23753 4.74933 2.374 4.94472 2.65855 5.15225C2.93986 5.35742 3.33248 5.5492 3.82101 5.70771C4.79726 6.02447 6.08882 6.18649 7.45773 6.10094L7.45956 6.10083C8.54742 6.03684 9.43778 5.80308 10.0048 5.50261C10.2896 5.35167 10.461 5.20076 10.5473 5.07682C10.6232 4.96773 10.6269 4.89376 10.6088 4.82832C10.595 4.78339 10.543 4.69183 10.3818 4.5751C10.2225 4.45975 9.99052 4.3454 9.68993 4.24771C9.09078 4.05299 8.28766 3.94666 7.42886 3.98805C6.79132 4.03097 6.25779 4.15715 5.95397 4.32594C5.71257 4.46004 5.40817 4.37307 5.27407 4.13168C5.13996 3.89029 5.22693 3.58589 5.46832 3.45179C5.96379 3.17653 6.67293 3.03623 7.36677 2.98997L7.37567 2.98938L7.37567 2.98946C8.3374 2.94255 9.26588 3.05841 9.99902 3.29668C10.3651 3.41566 10.6998 3.57075 10.9683 3.76512C11.2328 3.95669 11.4705 4.21432 11.5686 4.54778L11.5697 4.55149L11.5697 4.5515C11.6842 4.9522 11.5871 5.33337 11.368 5.64812C11.1585 5.94917 10.8382 6.19271 10.473 6.38621C9.74025 6.77452 8.69763 7.02962 7.5192 7.09904C6.044 7.19113 4.6248 7.01983 3.51238 6.65889C2.95647 6.47851 2.4602 6.24529 2.06929 5.96018C1.6819 5.67764 1.3628 5.31765 1.23174 4.87535L1.23146 4.87438C1.07242 4.33365 1.1896 3.81424 1.49057 3.36871C1.78186 2.93748 2.24208 2.57579 2.79177 2.28143C3.8929 1.69175 5.48164 1.30335 7.28352 1.21185C9.55838 1.07564 11.7435 1.34716 13.4441 1.90246C14.2942 2.18005 15.0405 2.53417 15.619 2.95765ZM14.2957 6.93158C14.4562 7.15628 14.4042 7.46856 14.1795 7.62906C11.8576 9.2875 8.81401 9.59905 6.09237 8.99936C5.82269 8.93995 5.65225 8.67316 5.71167 8.40349C5.77109 8.13382 6.03787 7.96337 6.30755 8.02279C8.83035 8.57866 11.5645 8.26799 13.5982 6.81533C13.8229 6.65483 14.1352 6.70687 14.2957 6.93158ZM3.97914 8.34247C4.03329 8.07169 3.85768 7.80828 3.58691 7.75412C3.31613 7.69996 3.05271 7.87557 2.99856 8.14635C2.87048 8.78675 3.12229 9.35654 3.47733 9.79705C3.83127 10.2362 4.32356 10.5963 4.80344 10.8603L4.80337 10.8604L4.814 10.8659C7.28711 12.15 10.4644 11.9903 13.0422 11.0237C13.3007 10.9267 13.4317 10.6385 13.3348 10.3799C13.2378 10.1214 12.9496 9.99039 12.6911 10.0873C10.293 10.9866 7.42866 11.0941 5.28015 9.9812C4.87318 9.7567 4.50094 9.47353 4.25592 9.16953C4.01096 8.8656 3.92944 8.59095 3.97914 8.34247ZM14.1063 12.7617C14.2378 13.0045 14.1477 13.308 13.9049 13.4395C11.7366 14.6145 9.05203 14.7177 6.78579 13.6431C6.53627 13.5248 6.42991 13.2266 6.54822 12.9771C6.66653 12.7276 6.96471 12.6212 7.21423 12.7396C9.18639 13.6747 11.5349 13.5864 13.4285 12.5603C13.6712 12.4288 13.9747 12.5189 14.1063 12.7617ZM14.5851 15.7182C14.8161 15.5668 14.8807 15.2569 14.7293 15.0259C14.578 14.7949 14.2681 14.7304 14.0371 14.8817C13.4264 15.2818 12.9133 15.5109 12.396 15.6086C11.8805 15.706 11.3231 15.68 10.6145 15.5132C10.3457 15.45 10.0765 15.6166 10.0133 15.8854C9.95004 16.1542 10.1167 16.4234 10.3855 16.4866C11.188 16.6755 11.8917 16.7216 12.5817 16.5912C13.27 16.4612 13.9068 16.1625 14.5851 15.7182ZM14.5 9.99996C14.5 10.2761 14.2761 10.5 14 10.5C13.7239 10.5 13.5 10.2761 13.5 9.99996C13.5 9.72382 13.7239 9.49996 14 9.49996C14.2761 9.49996 14.5 9.72382 14.5 9.99996ZM4.5 4.99998C4.77614 4.99998 5 4.77613 5 4.49998C5 4.22384 4.77614 3.99999 4.5 3.99999C4.22386 3.99999 4 4.22384 4 4.49998C4 4.77613 4.22386 4.99998 4.5 4.99998Z"  style="mix-blend-mode:normal" fill="url(#linear_fill_t9vLfWqWb__KLtQTBTFxc)" >
</path>
<path fill-rule="evenodd" transform="translate(1, 1)" fill="url(#linear_border_Bzj8drhfVsYzZprFIyxxv_0)"  d="M-1 17L-1 -1L17 -1L17 17L-1 17ZM16 16L0 16L0 0L16 0L16 16Z">
</path>
<defs>
<radialGradient id="linear_border_Bzj8drhfVsYzZprFIyxxv_0" cx="0" cy="0" r="1" gradientTransform="translate(0 0) rotate(90) scale(0, 0)" gradientUnits="userSpaceOnUse">
</radialGradient>
<linearGradient id="linear_fill_t9vLfWqWb__KLtQTBTFxc" x1="1.160400390625" y1="8.922119140625" x2="16.83038330078125" y2="8.922119140625" gradientUnits="userSpaceOnUse">
<stop offset="0.0208" stop-color="#0CF718" stop-opacity="0.5" />
<stop offset="1" stop-color="#FA14A9" stop-opacity="0.71" />
</linearGradient>
</defs>
</svg>
