<svg xmlns="http://www.w3.org/2000/svg" xmlns:xlink="http://www.w3.org/1999/xlink" width="18" height="18" viewBox="0 0 18 18" fill="none">
<path  transform="translate(1, 1)"   fill="#000000" fill-opacity="0" d="M0 16L16 16L16 0L0 0L0 16Z">
</path>
<path d="M3.15102 11.35C3.15102 11.1567 3.30772 11 3.50102 11C3.69432 11 3.85102 11.1567 3.85102 11.35L3.85102 11.8938L4.32195 11.6219C4.48935 11.5252 4.70341 11.5826 4.80005 11.75C4.89671 11.9174 4.83935 12.1315 4.67195 12.2281L4.20102 12.5L4.67195 12.7719C4.83935 12.8685 4.89671 13.0826 4.80006 13.25C4.70341 13.4174 4.48935 13.4748 4.32195 13.3781L3.85102 13.1062L3.85102 13.65C3.85102 13.8433 3.69432 14 3.50102 14C3.30772 14 3.15102 13.8433 3.15102 13.65L3.15102 13.1062L2.68009 13.3781C2.51269 13.4748 2.29863 13.4174 2.20198 13.25C2.10533 13.0826 2.16269 12.8685 2.33009 12.7719L2.80102 12.5L2.33009 12.2281C2.16269 12.1315 2.10533 11.9174 2.20198 11.75C2.29863 11.5826 2.51269 11.5252 2.68009 11.6219L3.15102 11.8938L3.15102 11.35ZM7.15102 11.35C7.15102 11.1567 7.30772 11 7.50102 11C7.69432 11 7.85102 11.1567 7.85102 11.35L7.85102 11.8938L8.32195 11.6219C8.48935 11.5252 8.70341 11.5826 8.80005 11.75C8.89671 11.9174 8.83935 12.1315 8.67195 12.2281L8.20102 12.5L8.67195 12.7719C8.83935 12.8685 8.89671 13.0826 8.80006 13.25C8.70341 13.4174 8.48935 13.4748 8.32195 13.3781L7.85102 13.1062L7.85102 13.65C7.85102 13.8433 7.69432 14 7.50102 14C7.30772 14 7.15102 13.8433 7.15102 13.65L7.15102 13.1062L6.68009 13.3781C6.51269 13.4748 6.29863 13.4174 6.20198 13.25C6.10533 13.0826 6.16268 12.8685 6.33009 12.7719L6.80102 12.5L6.33009 12.2281C6.16268 12.1315 6.10533 11.9174 6.20198 11.75C6.29863 11.5826 6.51269 11.5252 6.68009 11.6219L7.15102 11.8938L7.15102 11.35ZM2.50102 14C2.30772 14 2.15102 14.1567 2.15102 14.35L2.15102 14.8938L1.68009 14.6219C1.51269 14.5252 1.29863 14.5826 1.20198 14.75C1.10533 14.9174 1.16269 15.1315 1.33009 15.2281L1.80102 15.5L1.33009 15.7719C1.16269 15.8685 1.10533 16.0826 1.20198 16.25C1.29863 16.4174 1.51269 16.4748 1.68009 16.3781L2.15102 16.1062L2.15102 16.65C2.15102 16.8433 2.30772 17 2.50102 17C2.69432 17 2.85102 16.8433 2.85102 16.65L2.85102 16.1062L3.32195 16.3781C3.48935 16.4748 3.70341 16.4174 3.80006 16.25C3.89671 16.0826 3.83935 15.8685 3.67195 15.7719L3.20102 15.5L3.67195 15.2281C3.83935 15.1315 3.89671 14.9174 3.80005 14.75C3.70341 14.5826 3.48935 14.5252 3.32195 14.6219L2.85102 14.8938L2.85102 14.35C2.85102 14.1567 2.69432 14 2.50102 14ZM6.15102 14.35C6.15102 14.1567 6.30772 14 6.50102 14C6.69432 14 6.85102 14.1567 6.85102 14.35L6.85102 14.8938L7.32195 14.6219C7.48935 14.5252 7.7034 14.5826 7.80005 14.75C7.89671 14.9174 7.83935 15.1315 7.67195 15.2281L7.20102 15.5L7.67195 15.7719C7.83935 15.8685 7.89671 16.0826 7.80006 16.25C7.7034 16.4174 7.48935 16.4748 7.32195 16.3781L6.85102 16.1062L6.85102 16.65C6.85102 16.8433 6.69432 17 6.50102 17C6.30772 17 6.15102 16.8433 6.15102 16.65L6.15102 16.1062L5.68009 16.3781C5.51269 16.4748 5.29863 16.4174 5.20198 16.25C5.10533 16.0826 5.16268 15.8685 5.33009 15.7719L5.80102 15.5L5.33009 15.2281C5.16268 15.1315 5.10533 14.9174 5.20198 14.75C5.29863 14.5826 5.51269 14.5252 5.68009 14.6219L6.15102 14.8938L6.15102 14.35ZM13 11C13.1036 11 13.1875 11.0839 13.1875 11.1875L13.1875 11.6723L13.43 11.4299C13.5032 11.3567 13.6219 11.3567 13.6951 11.4299C13.7683 11.5031 13.7683 11.6219 13.6951 11.6951L13.1875 12.2027L13.1875 12.875C13.1875 12.8802 13.1873 12.8854 13.1869 12.8905C13.4594 12.936 13.6986 13.0795 13.8674 13.2835C13.8716 13.2805 13.876 13.2778 13.8806 13.2751L14.4628 12.939L14.6486 12.2456C14.6754 12.1456 14.7782 12.0862 14.8783 12.113C14.9783 12.1398 15.0376 12.2426 15.0108 12.3426L14.9221 12.6738L15.342 12.4314C15.4317 12.3796 15.5463 12.4103 15.5981 12.5C15.6499 12.5897 15.6192 12.7044 15.5295 12.7561L15.1096 12.9985L15.4408 13.0873C15.5408 13.1141 15.6001 13.2169 15.5733 13.3169C15.5465 13.4169 15.4437 13.4763 15.3437 13.4495L14.6503 13.2637L14.0681 13.5999C14.0636 13.6025 14.059 13.6048 14.0545 13.607C14.1001 13.7294 14.125 13.8618 14.125 14C14.125 14.1382 14.1001 14.2706 14.0545 14.393C14.059 14.3952 14.0636 14.3975 14.0681 14.4001L14.6503 14.7363L15.3437 14.5505C15.4437 14.5237 15.5465 14.5831 15.5733 14.6831C15.6001 14.7831 15.5408 14.8859 15.4407 14.9127L15.1096 15.0015L15.5295 15.2439C15.6192 15.2956 15.6499 15.4103 15.5981 15.5C15.5463 15.5897 15.4317 15.6204 15.342 15.5686L14.9221 15.3262L15.0108 15.6574C15.0376 15.7574 14.9783 15.8602 14.8782 15.887C14.7782 15.9138 14.6754 15.8544 14.6486 15.7544L14.4628 15.061L13.8806 14.7249C13.876 14.7222 13.8716 14.7195 13.8674 14.7165C13.6986 14.9205 13.4594 15.064 13.1869 15.1095C13.1873 15.1146 13.1875 15.1198 13.1875 15.125L13.1875 15.7973L13.6951 16.3049C13.7683 16.3781 13.7683 16.4969 13.6951 16.5701C13.6219 16.6433 13.5032 16.6433 13.43 16.5701L13.1875 16.3277L13.1875 16.8125C13.1875 16.9161 13.1036 17 13 17C12.8965 17 12.8125 16.9161 12.8125 16.8125L12.8125 16.3277L12.5701 16.5701C12.4969 16.6433 12.3782 16.6433 12.305 16.5701C12.2317 16.4969 12.2317 16.3781 12.305 16.3049L12.8125 15.7973L12.8125 15.125C12.8125 15.1198 12.8127 15.1146 12.8132 15.1096C12.5407 15.064 12.3014 14.9205 12.1327 14.7165C12.1284 14.7195 12.124 14.7223 12.1195 14.7249L11.5373 15.061L11.3515 15.7544C11.3247 15.8544 11.2218 15.9138 11.1218 15.887C11.0218 15.8602 10.9624 15.7574 10.9892 15.6574L11.078 15.3262L10.6581 15.5686C10.5684 15.6204 10.4537 15.5897 10.402 15.5C10.3502 15.4103 10.3809 15.2956 10.4706 15.2439L10.8905 15.0015L10.5593 14.9127C10.4593 14.8859 10.3999 14.7831 10.4267 14.6831C10.4535 14.5831 10.5564 14.5237 10.6564 14.5505L11.3498 14.7363L11.932 14.4001C11.9365 14.3975 11.941 14.3952 11.9456 14.393C11.8999 14.2707 11.875 14.1382 11.875 14C11.875 13.8618 11.8999 13.7293 11.9456 13.607C11.941 13.6048 11.9365 13.6025 11.932 13.5999L11.3497 13.2637L10.6564 13.4495C10.5563 13.4763 10.4535 13.4169 10.4267 13.3169C10.3999 13.2169 10.4593 13.1141 10.5593 13.0873L10.8905 12.9985L10.4706 12.7561C10.3809 12.7044 10.3502 12.5897 10.402 12.5C10.4537 12.4103 10.5684 12.3796 10.6581 12.4314L11.078 12.6738L10.9892 12.3426C10.9624 12.2426 11.0218 12.1398 11.1218 12.113C11.2218 12.0862 11.3246 12.1456 11.3515 12.2456L11.5372 12.939L12.1195 13.2751C12.124 13.2777 12.1284 13.2805 12.1327 13.2835C12.3014 13.0795 12.5407 12.936 12.8132 12.8904C12.8127 12.8854 12.8125 12.8802 12.8125 12.875L12.8125 12.2027L12.305 11.6951C12.2317 11.6219 12.2317 11.5031 12.305 11.4299C12.3782 11.3567 12.4969 11.3567 12.5701 11.4299L12.8125 11.6723L12.8125 11.1875C12.8125 11.0839 12.8965 11 13 11Z" fill-rule="evenodd" style="mix-blend-mode:normal" fill="url(#linear_fill_0gcILBSOuTt2Eq-PZk5vI)" >
</path>
<path d="M8.89998 11C10.436 11 11.8102 10.3074 12.7274 9.21748C13.1137 9.39872 13.545 9.5 14 9.5C15.6569 9.5 17 8.15685 17 6.5C17 4.84315 15.6569 3.5 14 3.5C13.7519 3.5 13.5108 3.53012 13.2802 3.58691C12.4287 2.04461 10.7863 1 8.89998 1C7.02926 1 5.39849 2.02737 4.5411 3.54867C4.36559 3.5167 4.18474 3.5 4 3.5C2.34315 3.5 1 4.84315 1 6.5C1 8.15685 2.34315 9.5 4 9.5C4.39862 9.5 4.77907 9.42226 5.12704 9.2811C6.04371 10.3343 7.3941 11 8.89998 11ZM8.10872 4.60175C8.05181 4.23983 8.27903 3.80172 8.60529 3.60549C8.86121 3.45156 9.1562 3.47224 9.4112 3.62753L9.48157 3.67038C9.78295 3.85392 9.94277 4.18759 9.89002 4.52313L9.53202 6.8L8.45435 6.8L8.10872 4.60175ZM9.59994 7.9C9.59994 8.23137 9.33131 8.5 8.99994 8.5C8.66857 8.5 8.39994 8.23137 8.39994 7.9C8.39994 7.56863 8.66857 7.3 8.99994 7.3C9.33131 7.3 9.59994 7.56863 9.59994 7.9Z"  style="mix-blend-mode:normal" fill="url(#linear_fill_hynIHJ5phkV5NEnAg19yz)" >
</path>
<path fill-rule="evenodd" transform="translate(1, 1)" fill="url(#linear_border_oZJMBHSrj0X7lT7Gbk5ee_0)"  d="M-1 17L-1 -1L17 -1L17 17L-1 17ZM16 16L0 16L0 0L16 0L16 16Z">
</path>
<defs>
<radialGradient id="linear_border_oZJMBHSrj0X7lT7Gbk5ee_0" cx="0" cy="0" r="1" gradientTransform="translate(0 0) rotate(90) scale(0, 0)" gradientUnits="userSpaceOnUse">
</radialGradient>
<linearGradient id="linear_fill_0gcILBSOuTt2Eq-PZk5vI" x1="1.155029296875" y1="14" x2="15.625" y2="14" gradientUnits="userSpaceOnUse">
<stop offset="0.0208" stop-color="#0CF718" stop-opacity="0.5" />
<stop offset="1" stop-color="#FA14A9" stop-opacity="0.71" />
</linearGradient>
<linearGradient id="linear_fill_hynIHJ5phkV5NEnAg19yz" x1="1" y1="6" x2="17" y2="6" gradientUnits="userSpaceOnUse">
<stop offset="0.0208" stop-color="#0CF718" stop-opacity="0.5" />
<stop offset="1" stop-color="#FA14A9" stop-opacity="0.71" />
</linearGradient>
</defs>
</svg>
