<svg xmlns="http://www.w3.org/2000/svg" xmlns:xlink="http://www.w3.org/1999/xlink" width="16" height="16" viewBox="0 0 16 16" fill="none">
<path     fill="#000000" fill-opacity="0" d="M0 16L16 16L16 0L0 0L0 16Z">
</path>
<path d="M7.70397 5.95411C7.45927 6.10129 7.28886 6.42987 7.33154 6.70131L7.59076 8.35L8.39902 8.35L8.66751 6.64235C8.70708 6.39069 8.58721 6.14044 8.36118 6.00279L8.3084 5.97065C8.11715 5.85418 7.89591 5.83867 7.70397 5.95411ZM7.99996 9.625C8.24848 9.625 8.44995 9.42353 8.44995 9.175C8.44995 8.92647 8.24848 8.725 7.99996 8.725C7.75143 8.725 7.54995 8.92647 7.54995 9.175C7.54995 9.42353 7.75143 9.625 7.99996 9.625ZM7.92499 11.5C9.01484 11.5 9.99611 11.0351 10.6813 10.2927C10.7504 10.2179 10.8593 10.1944 10.9547 10.2304C11.2019 10.3239 11.47 10.375 11.75 10.375C12.9926 10.375 14 9.36764 14 8.125C14 6.88236 12.9926 5.875 11.75 5.875C11.6236 5.875 11.4997 5.88542 11.379 5.90544C11.2786 5.9221 11.1766 5.87788 11.1233 5.79117C10.4639 4.71668 9.27812 4 7.92499 4C6.57924 4 5.39906 4.70888 4.73748 5.7736C4.68686 5.85507 4.59263 5.89886 4.49728 5.88843C4.41608 5.87956 4.33357 5.875 4.25 5.875C3.00736 5.875 2 6.88236 2 8.125C2 9.36764 3.00736 10.375 4.25 10.375C4.49232 10.375 4.72569 10.3367 4.94439 10.2658C5.03581 10.2362 5.13717 10.26 5.20328 10.3297C5.88668 11.0505 6.85334 11.5 7.92499 11.5ZM10.8538 9.32793C10.7247 9.2316 10.5255 9.25534 10.4374 9.39013C9.9017 10.209 8.97653 10.75 7.92499 10.75C6.89917 10.75 5.99361 10.2351 5.45262 9.44973C5.36836 9.32739 5.1918 9.30194 5.06731 9.38298C4.83219 9.53606 4.55148 9.625 4.25 9.625C3.42157 9.625 2.75 8.95343 2.75 8.125C2.75 7.29657 3.42157 6.625 4.25 6.625C4.44253 6.625 4.62659 6.66127 4.79572 6.72736C4.93423 6.78148 5.10227 6.72071 5.16013 6.58372C5.61521 5.5062 6.68179 4.75 7.92499 4.75C9.18514 4.75 10.2638 5.52696 10.7081 6.62798C10.7685 6.77756 10.9596 6.83969 11.1052 6.77027C11.3005 6.67713 11.5192 6.625 11.75 6.625C12.5784 6.625 13.25 7.29657 13.25 8.125C13.25 8.95343 12.5784 9.625 11.75 9.625C11.414 9.625 11.1038 9.51453 10.8538 9.32793ZM0 8C0 12.4183 3.58172 16 8 16C12.4183 16 16 12.4183 16 8C16 3.58172 12.4183 0 8 0C3.58172 0 0 3.58172 0 8ZM14.7 8C14.7 11.7003 11.7003 14.7 8 14.7C4.2997 14.7 1.3 11.7003 1.3 8C1.3 4.29969 4.2997 1.3 8 1.3C11.7003 1.3 14.7 4.29969 14.7 8Z" fill-rule="evenodd" style="mix-blend-mode:normal" fill="url(#linear_fill_6EBy-88B54fnFfY8vWVAL)" >
</path>
<defs>
<linearGradient id="linear_fill_6EBy-88B54fnFfY8vWVAL" x1="0" y1="8" x2="16" y2="8" gradientUnits="userSpaceOnUse">
<stop offset="0" stop-color="#36F7BD"  />
<stop offset="1" stop-color="#FA1E6F" stop-opacity="0.88" />
</linearGradient>
</defs>
</svg>
