<svg xmlns="http://www.w3.org/2000/svg" xmlns:xlink="http://www.w3.org/1999/xlink" width="18" height="18" viewBox="0 0 18 18" fill="none">
<path  transform="translate(1, 1)"   fill="#000000" fill-opacity="0" d="M0 16L16 16L16 0L0 0L0 16Z">
</path>
<path d="M4.18762 1.1875C4.18762 1.08395 4.10367 1 4.00011 1C3.89656 1 3.81261 1.08395 3.81261 1.1875L3.81261 1.67233L3.57018 1.42992C3.49695 1.35669 3.37823 1.35669 3.305 1.42992C3.23178 1.50314 3.23178 1.62186 3.305 1.69508L3.81261 2.20267L3.81261 2.875C3.81261 2.8802 3.81282 2.88535 3.81323 2.89044C3.54075 2.93599 3.30144 3.07947 3.13271 3.28346C3.12848 3.28053 3.12408 3.27774 3.11954 3.27512L2.53726 2.93895L2.35146 2.24558C2.32466 2.14556 2.22184 2.0862 2.12181 2.113C2.02178 2.1398 1.96242 2.24261 1.98923 2.34264L2.07796 2.67379L1.65806 2.43137C1.56838 2.37959 1.4537 2.41032 1.40192 2.5C1.35014 2.58968 1.38087 2.70435 1.47056 2.75613L1.89045 2.99855L1.55929 3.08728C1.45926 3.11408 1.3999 3.21689 1.4267 3.31692C1.4535 3.41694 1.55632 3.4763 1.65635 3.4495L2.34975 3.26371L2.93203 3.59988C2.93649 3.60245 2.94102 3.60482 2.94559 3.60699C2.89997 3.72934 2.87503 3.86176 2.87503 4C2.87503 4.13824 2.89997 4.27066 2.94559 4.39301C2.94102 4.39518 2.9365 4.39755 2.93204 4.40012L2.34976 4.73629L1.65636 4.5505C1.55633 4.5237 1.45352 4.58306 1.42671 4.68308C1.39991 4.78311 1.45927 4.88592 1.5593 4.91272L1.89046 5.00145L1.47057 5.24387C1.38088 5.29565 1.35016 5.41032 1.40193 5.5C1.45371 5.58968 1.56839 5.62041 1.65807 5.56863L2.07797 5.32621L1.98924 5.65736C1.96243 5.75738 2.0218 5.8602 2.12182 5.887C2.22185 5.9138 2.32467 5.85444 2.35147 5.75442L2.53727 5.06105L3.11955 4.72488C3.12409 4.72226 3.12848 4.71948 3.13271 4.71654C3.30144 4.92054 3.54075 5.06401 3.81323 5.10956C3.81282 5.11465 3.81261 5.1198 3.81261 5.125L3.81261 5.79733L3.305 6.30492C3.23178 6.37814 3.23178 6.49686 3.305 6.57008C3.37823 6.64331 3.49695 6.64331 3.57018 6.57008L3.81261 6.32767L3.81261 6.8125C3.81261 6.91605 3.89656 7 4.00011 7C4.10367 7 4.18762 6.91605 4.18762 6.8125L4.18762 6.32767L4.43005 6.57008C4.50327 6.64331 4.622 6.64331 4.69522 6.57008C4.76845 6.49686 4.76845 6.37814 4.69522 6.30492L4.18762 5.79733L4.18762 5.125C4.18762 5.1198 4.18741 5.11464 4.18699 5.10954C4.45946 5.06399 4.69875 4.92051 4.86747 4.71651C4.87172 4.71946 4.87612 4.72225 4.88067 4.72488L5.46295 5.06105L5.64875 5.75442C5.67555 5.85444 5.77837 5.9138 5.8784 5.887C5.97843 5.8602 6.03779 5.75738 6.01099 5.65736L5.92225 5.32621L6.34215 5.56863C6.43183 5.62041 6.54651 5.58968 6.59829 5.5C6.65007 5.41032 6.61934 5.29565 6.52966 5.24387L6.10976 5.00145L6.44092 4.91272C6.54095 4.88592 6.60031 4.78311 6.57351 4.68308C6.54671 4.58306 6.44389 4.5237 6.34386 4.5505L5.65046 4.73629L5.06818 4.40012C5.0637 4.39754 5.05917 4.39516 5.05458 4.39298C5.10019 4.27065 5.12513 4.13823 5.12513 4C5.12513 3.86177 5.10019 3.72936 5.05458 3.60702C5.05917 3.60484 5.06371 3.60246 5.06819 3.59988L5.65047 3.26371L6.34387 3.4495C6.4439 3.4763 6.54672 3.41694 6.57352 3.31692C6.60033 3.21689 6.54096 3.11408 6.44093 3.08728L6.10977 2.99855L6.52967 2.75613C6.61935 2.70435 6.65008 2.58968 6.5983 2.5C6.54652 2.41032 6.43184 2.37959 6.34216 2.43137L5.92226 2.67379L6.011 2.34264C6.0378 2.24261 5.97844 2.1398 5.87841 2.113C5.77838 2.0862 5.67556 2.14556 5.64876 2.24558L5.46297 2.93895L4.88068 3.27512C4.87613 3.27775 4.87172 3.28054 4.86747 3.28349C4.69876 3.0795 4.45946 2.93601 4.18699 2.89046C4.18741 2.88536 4.18762 2.8802 4.18762 2.875L4.18762 2.20267L4.69522 1.69508C4.76845 1.62186 4.76845 1.50314 4.69522 1.42992C4.622 1.35669 4.50327 1.35669 4.43005 1.42992L4.18762 1.67233L4.18762 1.1875Z"  style="mix-blend-mode:normal" fill="url(#linear_fill_kcqRXl4i8eCt6xgtt8h_X)" >
</path>
<path d="M7.12512 13.125C7.12512 13.056 7.06915 13 7.00012 13C6.93108 13 6.87511 13.056 6.87511 13.125L6.87511 13.4482L6.71349 13.2866C6.66468 13.2378 6.58553 13.2378 6.53671 13.2866C6.48789 13.3354 6.48789 13.4146 6.53671 13.4634L6.87511 13.8018L6.87511 14.25C6.87511 14.2535 6.87525 14.2569 6.87553 14.2603C6.69387 14.2907 6.53433 14.3863 6.42185 14.5223C6.41902 14.5204 6.4161 14.5185 6.41307 14.5167L6.02488 14.2926L5.90102 13.8304C5.88315 13.7637 5.8146 13.7241 5.74792 13.742C5.68123 13.7599 5.64166 13.8284 5.65952 13.8951L5.71868 14.1159L5.43875 13.9542C5.37896 13.9197 5.30251 13.9402 5.26799 14C5.23347 14.0598 5.25396 14.1362 5.31374 14.1708L5.59368 14.3324L5.3729 14.3915C5.30621 14.4094 5.26664 14.4779 5.28451 14.5446C5.30238 14.6113 5.37092 14.6509 5.43761 14.633L5.89987 14.5091L6.28806 14.7333C6.29104 14.735 6.29405 14.7365 6.2971 14.738C6.26669 14.8196 6.25006 14.9078 6.25006 15C6.25006 15.0922 6.26669 15.1804 6.2971 15.262C6.29405 15.2635 6.29104 15.265 6.28807 15.2667L5.89988 15.4909L5.43762 15.367C5.37093 15.3491 5.30238 15.3887 5.28452 15.4554C5.26665 15.5221 5.30622 15.5906 5.37291 15.6085L5.59368 15.6676L5.31375 15.8292C5.25396 15.8638 5.23348 15.9402 5.268 16C5.30252 16.0598 5.37897 16.0803 5.43876 16.0458L5.71869 15.8841L5.65953 16.1049C5.64166 16.1716 5.68124 16.2401 5.74792 16.258C5.81461 16.2759 5.88315 16.2363 5.90102 16.1696L6.02489 15.7074L6.41308 15.4833C6.4161 15.4815 6.41903 15.4797 6.42185 15.4777C6.53433 15.6137 6.69388 15.7093 6.87553 15.7397C6.87525 15.7431 6.87511 15.7465 6.87511 15.75L6.87511 16.1982L6.53671 16.5366C6.48789 16.5854 6.48789 16.6646 6.53671 16.7134C6.58553 16.7622 6.66468 16.7622 6.71349 16.7134L6.87511 16.5518L6.87511 16.875C6.87511 16.944 6.93108 17 7.00012 17C7.06915 17 7.12512 16.944 7.12512 16.875L7.12512 16.5518L7.28674 16.7134C7.33556 16.7622 7.41471 16.7622 7.46352 16.7134C7.51234 16.6646 7.51234 16.5854 7.46352 16.5366L7.12512 16.1982L7.12512 15.75C7.12512 15.7465 7.12498 15.7431 7.1247 15.7397C7.30635 15.7093 7.46588 15.6137 7.57835 15.4777C7.58118 15.4796 7.58412 15.4815 7.58716 15.4833L7.97534 15.7074L8.09921 16.1696C8.11708 16.2363 8.18562 16.2759 8.25231 16.258C8.31899 16.2401 8.35857 16.1716 8.3407 16.1049L8.28154 15.8841L8.56147 16.0458C8.62126 16.0803 8.69772 16.0598 8.73223 16C8.76675 15.9402 8.74627 15.8638 8.68648 15.8292L8.40655 15.6676L8.62732 15.6085C8.69401 15.5906 8.73358 15.5221 8.71572 15.4554C8.69785 15.3887 8.6293 15.3491 8.56262 15.367L8.10035 15.4909L7.71216 15.2667C7.70918 15.265 7.70615 15.2634 7.70309 15.262C7.7335 15.1804 7.75012 15.0922 7.75012 15C7.75012 14.9078 7.7335 14.8196 7.70309 14.738C7.70616 14.7366 7.70918 14.735 7.71217 14.7333L8.10036 14.5091L8.56262 14.633C8.62931 14.6509 8.69785 14.6113 8.71572 14.5446C8.73359 14.4779 8.69402 14.4094 8.62733 14.3915L8.40656 14.3324L8.68649 14.1708C8.74628 14.1362 8.76676 14.0598 8.73224 14C8.69772 13.9402 8.62127 13.9197 8.56148 13.9542L8.28155 14.1159L8.34071 13.8951C8.35858 13.8284 8.319 13.7599 8.25232 13.742C8.18563 13.7241 8.11708 13.7637 8.09922 13.8304L7.97535 14.2926L7.58716 14.5167C7.58412 14.5185 7.58119 14.5204 7.57835 14.5223C7.46588 14.3863 7.30635 14.2907 7.1247 14.2603C7.12498 14.2569 7.12512 14.2535 7.12512 14.25L7.12512 13.8018L7.46352 13.4634C7.51234 13.4146 7.51234 13.3354 7.46352 13.2866C7.41471 13.2378 7.33556 13.2378 7.28674 13.2866L7.12512 13.4482L7.12512 13.125Z"  style="mix-blend-mode:normal" fill="url(#linear_fill_MvcdCtrRvACNFVOpEamNQ)" >
</path>
<path d="M12.1251 2.125C12.1251 2.05596 12.0692 2 12.0001 2C11.9311 2 11.8751 2.05596 11.8751 2.125L11.8751 2.44822L11.7135 2.28661C11.6647 2.2378 11.5855 2.2378 11.5367 2.28661C11.4879 2.33543 11.4879 2.41457 11.5367 2.46339L11.8751 2.80178L11.8751 3.25C11.8751 3.25347 11.8753 3.2569 11.8755 3.2603C11.6939 3.29066 11.5343 3.38631 11.4218 3.52231C11.419 3.52035 11.4161 3.51849 11.4131 3.51675L11.0249 3.29263L10.901 2.83039C10.8831 2.7637 10.8146 2.72413 10.7479 2.742C10.6812 2.75987 10.6417 2.82841 10.6595 2.89509L10.7187 3.11586L10.4387 2.95425C10.379 2.91973 10.3025 2.94021 10.268 3C10.2335 3.05979 10.254 3.13623 10.3137 3.17075L10.5937 3.33236L10.3729 3.39152C10.3062 3.40939 10.2666 3.47793 10.2845 3.54461C10.3024 3.61129 10.3709 3.65087 10.4376 3.633L10.8999 3.50914L11.2881 3.73325C11.291 3.73497 11.2941 3.73655 11.2971 3.738C11.2667 3.81956 11.2501 3.90784 11.2501 4C11.2501 4.09216 11.2667 4.18044 11.2971 4.26201C11.2941 4.26345 11.291 4.26503 11.2881 4.26675L10.8999 4.49086L10.4376 4.367C10.3709 4.34913 10.3024 4.3887 10.2845 4.45539C10.2666 4.52207 10.3062 4.59061 10.3729 4.60848L10.5937 4.66763L10.3138 4.82925C10.254 4.86376 10.2335 4.94021 10.268 5C10.3025 5.05979 10.379 5.08027 10.4388 5.04575L10.7187 4.88414L10.6595 5.10491C10.6417 5.17159 10.6812 5.24013 10.7479 5.258C10.8146 5.27587 10.8832 5.23629 10.901 5.16961L11.0249 4.70736L11.4131 4.48325C11.4161 4.4815 11.419 4.47965 11.4219 4.4777C11.5343 4.61369 11.6939 4.70934 11.8755 4.7397C11.8753 4.7431 11.8751 4.74653 11.8751 4.75L11.8751 5.19822L11.5367 5.53661C11.4879 5.58543 11.4879 5.66457 11.5367 5.71339C11.5855 5.7622 11.6647 5.7622 11.7135 5.71339L11.8751 5.55178L11.8751 5.875C11.8751 5.94404 11.9311 6 12.0001 6C12.0692 6 12.1251 5.94404 12.1251 5.875L12.1251 5.55178L12.2867 5.71339C12.3356 5.7622 12.4147 5.7622 12.4635 5.71339C12.5123 5.66457 12.5123 5.58543 12.4635 5.53661L12.1251 5.19822L12.1251 4.75C12.1251 4.74653 12.125 4.74309 12.1247 4.7397C12.3063 4.70932 12.4659 4.61367 12.5784 4.47768C12.5812 4.47964 12.5841 4.4815 12.5872 4.48325L12.9753 4.70736L13.0992 5.16961C13.1171 5.23629 13.1856 5.27587 13.2523 5.258C13.319 5.24013 13.3586 5.17159 13.3407 5.10491L13.2815 4.88414L13.5615 5.04575C13.6213 5.08027 13.6977 5.05979 13.7322 5C13.7668 4.94021 13.7463 4.86376 13.6865 4.82925L13.4065 4.66763L13.6273 4.60848C13.694 4.59061 13.7336 4.52207 13.7157 4.45539C13.6978 4.3887 13.6293 4.34913 13.5626 4.367L13.1003 4.49086L12.7122 4.26675C12.7092 4.26502 12.7062 4.26344 12.7031 4.26199C12.7335 4.18043 12.7501 4.09216 12.7501 4C12.7501 3.90784 12.7335 3.81957 12.7031 3.73801C12.7062 3.73656 12.7092 3.73498 12.7122 3.73325L13.1004 3.50914L13.5626 3.633C13.6293 3.65087 13.6979 3.61129 13.7157 3.54461C13.7336 3.47793 13.694 3.40939 13.6273 3.39152L13.4066 3.33236L13.6865 3.17075C13.7463 3.13623 13.7668 3.05979 13.7322 3C13.6977 2.94021 13.6213 2.91973 13.5615 2.95425L13.2816 3.11586L13.3407 2.89509C13.3586 2.82841 13.319 2.75987 13.2523 2.742C13.1856 2.72413 13.1171 2.7637 13.0992 2.83039L12.9754 3.29263L12.5872 3.51675C12.5841 3.5185 12.5812 3.52036 12.5784 3.52233C12.4659 3.38633 12.3063 3.29068 12.1247 3.2603C12.125 3.25691 12.1251 3.25347 12.1251 3.25L12.1251 2.80178L12.4635 2.46339C12.5123 2.41457 12.5123 2.33543 12.4635 2.28661C12.4147 2.2378 12.3356 2.2378 12.2867 2.28661L12.1251 2.44822L12.1251 2.125Z"  style="mix-blend-mode:normal" fill="url(#linear_fill_wlNWK2BOfufBSlaACIXIg)" >
</path>
<path d="M3 8L9 8C9.55228 8 10 7.55229 10 7C10 6.44771 9.55228 6 9 6C8.56537 6 8.19429 6.27755 8.05677 6.66662C7.96475 6.92698 7.67909 7.06344 7.41873 6.97142C7.15837 6.8794 7.02191 6.59373 7.11393 6.33338C7.38825 5.55726 8.12841 5 9 5C10.1046 5 11 5.89543 11 7C11 8.10457 10.1046 9 9 9L3 9C2.72386 9 2.5 8.77614 2.5 8.5C2.5 8.22386 2.72386 8 3 8ZM12.0788 7.37537C12.3563 6.29721 13.3344 5.5 14.5 5.5C15.8807 5.5 17 6.61929 17 8C17 9.39728 15.7593 10.5 14.5 10.5L1.5 10.5C1.22386 10.5 1 10.2761 1 10C1 9.72386 1.22386 9.5 1.5 9.5L14.5 9.5C15.2407 9.5 16 8.81186 16 8C16 7.17157 15.3284 6.5 14.5 6.5C13.8017 6.5 13.2138 6.97756 13.0472 7.62463C12.9784 7.89206 12.7058 8.05305 12.4384 7.98422C12.171 7.91539 12.01 7.6428 12.0788 7.37537ZM3.5 11.5C3.5 11.2239 3.72386 11 4 11L12 11C13.1046 11 14 11.8954 14 13C14 14.1046 13.1046 15 12 15C11.1284 15 10.3883 14.4427 10.1139 13.6666C10.0219 13.4063 10.1584 13.1206 10.4187 13.0286C10.6791 12.9366 10.9647 13.073 11.0568 13.3334C11.1943 13.7224 11.5654 14 12 14C12.5523 14 13 13.5523 13 13C13 12.4477 12.5523 12 12 12L4 12C3.72386 12 3.5 11.7761 3.5 11.5Z" fill-rule="evenodd" style="mix-blend-mode:normal" fill="url(#linear_fill_s6VZHGvdGb3vsQkpUFV4Q)" >
</path>
<path fill-rule="evenodd" transform="translate(1, 1)" fill="url(#linear_border_Bu03uKit53lfkU_KXH37L_0)"  d="M-1 17L-1 -1L17 -1L17 17L-1 17ZM16 16L0 16L0 0L16 0L16 16Z">
</path>
<defs>
<radialGradient id="linear_border_Bu03uKit53lfkU_KXH37L_0" cx="0" cy="0" r="1" gradientTransform="translate(0 0) rotate(90) scale(0, 0)" gradientUnits="userSpaceOnUse">
</radialGradient>
<linearGradient id="linear_fill_kcqRXl4i8eCt6xgtt8h_X" x1="1.37677001953125" y1="4" x2="6.62322998046875" y2="4" gradientUnits="userSpaceOnUse">
<stop offset="0.0208" stop-color="#0CF718" stop-opacity="0.5" />
<stop offset="1" stop-color="#FA14A9" stop-opacity="0.71" />
</linearGradient>
<linearGradient id="linear_fill_MvcdCtrRvACNFVOpEamNQ" x1="5.251220703125" y1="15" x2="8.74884033203125" y2="15" gradientUnits="userSpaceOnUse">
<stop offset="0.0208" stop-color="#0CF718" stop-opacity="0.5" />
<stop offset="1" stop-color="#FA14A9" stop-opacity="0.71" />
</linearGradient>
<linearGradient id="linear_fill_wlNWK2BOfufBSlaACIXIg" x1="10.251220703125" y1="4" x2="13.74884033203125" y2="4" gradientUnits="userSpaceOnUse">
<stop offset="0.0208" stop-color="#0CF718" stop-opacity="0.5" />
<stop offset="1" stop-color="#FA14A9" stop-opacity="0.71" />
</linearGradient>
<linearGradient id="linear_fill_s6VZHGvdGb3vsQkpUFV4Q" x1="1" y1="10" x2="17" y2="10" gradientUnits="userSpaceOnUse">
<stop offset="0.0208" stop-color="#0CF718" stop-opacity="0.5" />
<stop offset="1" stop-color="#FA14A9" stop-opacity="0.71" />
</linearGradient>
</defs>
</svg>
