<svg xmlns="http://www.w3.org/2000/svg" xmlns:xlink="http://www.w3.org/1999/xlink" width="18" height="18" viewBox="0 0 18 18" fill="none">
<path  transform="translate(1, 1)"   fill="#000000" fill-opacity="0" d="M0 16L16 16L16 0L0 0L0 16Z">
</path>
<path d="M3.72366 13.3619C3.78541 13.2384 3.73535 13.0882 3.61186 13.0264C3.48836 12.9647 3.3382 13.0148 3.27645 13.1383L2.27645 15.1383C2.2147 15.2617 2.26476 15.4119 2.38825 15.4737C2.51175 15.5354 2.66191 15.4854 2.72366 15.3619L3.72366 13.3619ZM7.72378 14.3619C7.78553 14.2384 7.73547 14.0882 7.61198 14.0264C7.48849 13.9647 7.33832 14.0148 7.27657 14.1383L6.27657 16.1383C6.21482 16.2617 6.26488 16.4119 6.38837 16.4737C6.51187 16.5354 6.66204 16.4854 6.72378 16.3619L7.72378 14.3619ZM11.6121 14.0264C11.7356 14.0882 11.7857 14.2384 11.7239 14.3619L10.7239 16.3619C10.6622 16.4854 10.512 16.5354 10.3885 16.4737C10.265 16.4119 10.2149 16.2617 10.2767 16.1383L11.2767 14.1383C11.3384 14.0148 11.4886 13.9647 11.6121 14.0264ZM15.724 13.3619C15.7857 13.2384 15.7357 13.0882 15.6122 13.0264C15.4887 12.9647 15.3385 13.0148 15.2768 13.1383L14.2768 15.1383C14.215 15.2617 14.2651 15.4119 14.3886 15.4737C14.5121 15.5354 14.6622 15.4854 14.724 15.3619L15.724 13.3619Z" fill-rule="evenodd" style="mix-blend-mode:normal" fill="url(#linear_fill_taggHDbZdFB4Y-bwOJcnB)" >
</path>
<path  transform="translate(3, 1)"   fill="#000000" fill-opacity="0" d="M0 12L12 12L12 0L0 0L0 12Z">
</path>
<path d="M8.30344 4.7C8.30344 4.3134 8.61707 4 9.00395 4C9.39084 4 9.70447 4.3134 9.70447 4.7L9.70447 5.78757L10.647 5.24379C10.9821 5.05049 11.4105 5.16519 11.6039 5.5C11.7974 5.83481 11.6826 6.26292 11.3475 6.45622L10.405 7L11.3475 7.54378C11.6826 7.73708 11.7974 8.16519 11.6039 8.5C11.4105 8.83481 10.9821 8.94951 10.647 8.75621L9.70447 8.21243L9.70447 9.3C9.70447 9.6866 9.39084 10 9.00395 10C8.61707 10 8.30344 9.6866 8.30344 9.3L8.30344 8.21245L7.36089 8.75623C7.02584 8.94952 6.59741 8.83481 6.40396 8.5C6.21052 8.16519 6.32532 7.73708 6.66037 7.54378L7.60292 7L6.66037 6.45622C6.32532 6.26292 6.21052 5.83481 6.40396 5.5C6.59741 5.16519 7.02584 5.05048 7.36089 5.24377L8.30344 5.78755L8.30344 4.7Z"  style="mix-blend-mode:normal" fill="url(#linear_fill_qNaxrDKXPF4eYmzGzzIHO)" >
</path>
<path d="M13.9867 3.80758L9.2625 1.07138C9.18278 1.02464 9.09204 1 8.99962 1C8.90721 1 8.81647 1.02464 8.73675 1.07138L4.01325 3.80758C3.93325 3.85403 3.86684 3.92067 3.82064 4.00082C3.77445 4.08098 3.75009 4.17185 3.75 4.26436L3.75 9.73675C3.75 9.92502 3.8505 10.099 4.01325 10.1935L8.73675 12.9297C8.81634 12.9769 8.90713 13.0017 8.99962 13.0017C9.09212 13.0017 9.18291 12.9769 9.2625 12.9297L13.986 10.1935C14.0662 10.1473 14.1329 10.0807 14.1792 10.0005C14.2256 9.92035 14.25 9.82937 14.25 9.73675L14.25 4.26436C14.2499 4.17185 14.2256 4.08098 14.1794 4.00082C14.1332 3.92067 14.0668 3.85403 13.9867 3.80758L13.9867 3.80758ZM13.1978 9.43223L9 11.8639L4.80225 9.43223L4.80225 4.56963L9 2.13721L13.1978 4.56888L13.1978 9.43223L13.1978 9.43223Z"  style="mix-blend-mode:normal" fill="url(#linear_fill_BAvNf2iePTlXoj7qTj1zy)" >
</path>
<path fill-rule="evenodd" transform="translate(1, 1)" fill="url(#linear_border_hHiJQ5uKkDIk-vM6bJoCB_0)"  d="M-1 17L-1 -1L17 -1L17 17L-1 17ZM16 16L0 16L0 0L16 0L16 16Z">
</path>
<defs>
<radialGradient id="linear_border_hHiJQ5uKkDIk-vM6bJoCB_0" cx="0" cy="0" r="1" gradientTransform="translate(0 0) rotate(90) scale(0, 0)" gradientUnits="userSpaceOnUse">
</radialGradient>
<linearGradient id="linear_fill_taggHDbZdFB4Y-bwOJcnB" x1="2.25" y1="14.75" x2="15.75" y2="14.75" gradientUnits="userSpaceOnUse">
<stop offset="0.0208" stop-color="#0CF718" stop-opacity="0.5" />
<stop offset="1" stop-color="#FA14A9" stop-opacity="0.71" />
</linearGradient>
<linearGradient id="linear_fill_qNaxrDKXPF4eYmzGzzIHO" x1="6.30999755859375" y1="7" x2="11.6939697265625" y2="7" gradientUnits="userSpaceOnUse">
<stop offset="0.0208" stop-color="#0CF718" stop-opacity="0.5" />
<stop offset="1" stop-color="#FA14A9" stop-opacity="0.71" />
</linearGradient>
<linearGradient id="linear_fill_BAvNf2iePTlXoj7qTj1zy" x1="3.75" y1="7.00042724609375" x2="14.25" y2="7.00042724609375" gradientUnits="userSpaceOnUse">
<stop offset="0.0208" stop-color="#0CF718" stop-opacity="0.5" />
<stop offset="1" stop-color="#FA14A9" stop-opacity="0.71" />
</linearGradient>
</defs>
</svg>
