<svg xmlns="http://www.w3.org/2000/svg" xmlns:xlink="http://www.w3.org/1999/xlink" width="18" height="18" viewBox="0 0 18 18" fill="none">
<path  transform="translate(1, 1)"   fill="#000000" fill-opacity="0" d="M0 16L16 16L16 0L0 0L0 16Z">
</path>
<path d="M9.00009 1C9.17267 1 9.31259 1.13991 9.31259 1.3125L9.31259 2.12056L9.71661 1.71653C9.83865 1.59449 10.0365 1.59449 10.1586 1.71653C10.2806 1.83857 10.2806 2.03643 10.1586 2.15847L9.31259 3.00444L9.31259 4.125C9.31259 4.13367 9.31223 4.14226 9.31154 4.15076C9.76563 4.22669 10.1644 4.46583 10.4456 4.80581C10.4527 4.80091 10.46 4.79625 10.4676 4.79186L11.4381 4.23159L11.7477 3.07597C11.7924 2.90926 11.9637 2.81033 12.1305 2.855C12.2972 2.89967 12.3961 3.07102 12.3514 3.23773L12.2035 3.78964L12.9033 3.38561C13.0528 3.29932 13.2439 3.35053 13.3302 3.5C13.4165 3.64946 13.3653 3.84059 13.2158 3.92688L12.516 4.33091L13.068 4.47879C13.2347 4.52346 13.3336 4.69482 13.2889 4.86153C13.2443 5.02824 13.0729 5.12717 12.9062 5.0825L11.7506 4.77285L10.7801 5.33313C10.7727 5.33744 10.7651 5.34141 10.7575 5.34503C10.8335 5.54893 10.875 5.76961 10.875 6C10.875 6.23039 10.8335 6.45107 10.7575 6.65497C10.7651 6.6586 10.7727 6.66256 10.7801 6.66687L11.7506 7.22714L12.9062 6.9175C13.0729 6.87283 13.2442 6.97176 13.2889 7.13847C13.3336 7.30518 13.2346 7.47653 13.0679 7.5212L12.516 7.66909L13.2158 8.07312C13.3653 8.15941 13.4165 8.35053 13.3302 8.5C13.2439 8.64946 13.0528 8.70068 12.9033 8.61438L12.2035 8.21035L12.3514 8.76227C12.3961 8.92897 12.2971 9.10033 12.1304 9.145C11.9637 9.18967 11.7924 9.09074 11.7477 8.92403L11.4381 7.76841L10.4676 7.20813C10.46 7.20375 10.4527 7.19909 10.4456 7.19419C10.1644 7.53418 9.76563 7.77331 9.31154 7.84924C9.31223 7.85774 9.31259 7.86633 9.31259 7.875L9.31259 8.99556L10.1586 9.84153C10.2806 9.96357 10.2806 10.1614 10.1586 10.2835C10.0365 10.4055 9.83865 10.4055 9.71661 10.2835L9.31259 9.87944L9.31259 10.6875C9.31259 10.8601 9.17267 11 9.00009 11C8.8275 11 8.68759 10.8601 8.68759 10.6875L8.68759 9.87944L8.28356 10.2835C8.16152 10.4055 7.96365 10.4055 7.84162 10.2835C7.71958 10.1614 7.71958 9.96357 7.84162 9.84153L8.68759 8.99556L8.68759 7.875C8.68759 7.86633 8.68794 7.85775 8.68863 7.84926C8.23452 7.77335 7.83568 7.53423 7.55448 7.19424C7.54742 7.19913 7.54011 7.20376 7.53255 7.20813L6.56211 7.76841L6.25247 8.92403C6.2078 9.09074 6.03644 9.18967 5.86973 9.145C5.70303 9.10033 5.60409 8.92897 5.64876 8.76227L5.79665 8.21035L5.09685 8.61438C4.94738 8.70068 4.75626 8.64946 4.66997 8.5C4.58367 8.35053 4.63488 8.15941 4.78435 8.07312L5.48415 7.66909L4.93223 7.5212C4.76553 7.47653 4.66659 7.30518 4.71126 7.13847C4.75593 6.97176 4.92729 6.87283 5.094 6.9175L6.24961 7.22714L7.22005 6.66687C7.22747 6.66258 7.235 6.65863 7.24262 6.65501C7.16659 6.45111 7.12503 6.23041 7.12503 6C7.12503 5.76959 7.16659 5.54889 7.24262 5.34499C7.235 5.34137 7.22746 5.33742 7.22003 5.33313L6.24959 4.77285L5.09398 5.0825C4.92727 5.12717 4.75591 5.02824 4.71124 4.86153C4.66657 4.69482 4.76551 4.52346 4.93221 4.47879L5.48413 4.33091L4.78433 3.92688C4.63486 3.84059 4.58365 3.64946 4.66995 3.5C4.75624 3.35053 4.94736 3.29932 5.09683 3.38561L5.79663 3.78964L5.64874 3.23773C5.60407 3.07102 5.70301 2.89967 5.86972 2.855C6.03642 2.81033 6.20778 2.90926 6.25245 3.07597L6.56209 4.23159L7.53253 4.79186C7.5401 4.79624 7.54742 4.80088 7.55448 4.80577C7.83568 4.46578 8.23451 4.22665 8.68863 4.15074C8.68794 4.14225 8.68759 4.13367 8.68759 4.125L8.68759 3.00444L7.84162 2.15847C7.71958 2.03643 7.71958 1.83857 7.84162 1.71653C7.96365 1.59449 8.16152 1.59449 8.28356 1.71653L8.68759 2.12056L8.68759 1.3125C8.68759 1.13991 8.8275 1 9.00009 1ZM3.50168 10C3.17951 10 2.91834 10.2612 2.91834 10.5833L2.91834 11.4896L2.13346 11.0365C1.85446 10.8754 1.4977 10.971 1.33661 11.25C1.17553 11.529 1.27112 11.8858 1.55013 12.0469L2.33501 12.5L1.55013 12.9531C1.27112 13.1142 1.17553 13.471 1.33661 13.75C1.4977 14.029 1.85446 14.1246 2.13346 13.9635L2.91834 13.5104L2.91834 14.4167C2.91834 14.7388 3.17951 15 3.50168 15C3.82384 15 4.08501 14.7388 4.08501 14.4167L4.08501 13.5104L4.86989 13.9635C5.1489 14.1246 5.50566 14.029 5.66674 13.75C5.82782 13.471 5.73223 13.1142 5.45323 12.9531L4.66835 12.5L5.45322 12.0469C5.73223 11.8858 5.82782 11.529 5.66674 11.25C5.50566 10.971 5.1489 10.8754 4.86989 11.0365L4.08501 11.4896L4.08501 10.5833C4.08501 10.2612 3.82384 10 3.50168 10ZM9.53468 13.4667C9.53468 13.2089 9.74361 13 10.0013 13C10.2591 13 10.468 13.2089 10.468 13.4667L10.468 14.1917L11.0959 13.8292C11.3191 13.7003 11.6045 13.7768 11.7334 14C11.8623 14.2232 11.7858 14.5086 11.5626 14.6375L10.9347 15L11.5626 15.3625C11.7858 15.4914 11.8623 15.7768 11.7334 16C11.6045 16.2232 11.3191 16.2997 11.0959 16.1708L10.468 15.8083L10.468 16.5333C10.468 16.7911 10.2591 17 10.0013 17C9.74361 17 9.53468 16.7911 9.53468 16.5333L9.53468 15.8083L8.90677 16.1708C8.68357 16.2997 8.39816 16.2232 8.26929 16C8.14043 15.7768 8.2169 15.4914 8.44011 15.3625L9.06801 15L8.44011 14.6375C8.2169 14.5086 8.14043 14.2232 8.26929 14C8.39816 13.7768 8.68357 13.7003 8.90677 13.8292L9.53468 14.1917L9.53468 13.4667ZM15.501 11C15.3077 11 15.151 11.1567 15.151 11.35L15.151 11.8938L14.6801 11.6219C14.5127 11.5252 14.2986 11.5826 14.202 11.75C14.1053 11.9174 14.1627 12.1315 14.3301 12.2281L14.801 12.5L14.3301 12.7719C14.1627 12.8685 14.1053 13.0826 14.202 13.25C14.2986 13.4174 14.5127 13.4748 14.6801 13.3781L15.151 13.1062L15.151 13.65C15.151 13.8433 15.3077 14 15.501 14C15.6943 14 15.851 13.8433 15.851 13.65L15.851 13.1062L16.3219 13.3781C16.4893 13.4748 16.7034 13.4174 16.8001 13.25C16.8967 13.0826 16.8393 12.8685 16.6719 12.7719L16.201 12.5L16.6719 12.2281C16.8393 12.1315 16.8967 11.9174 16.8001 11.75C16.7034 11.5826 16.4893 11.5252 16.3219 11.6219L15.851 11.8938L15.851 11.35C15.851 11.1567 15.6943 11 15.501 11Z" fill-rule="evenodd" style="mix-blend-mode:normal" fill="url(#linear_fill_QGl0eTd85ty5_pIB16tTJ)" >
</path>
<path fill-rule="evenodd" transform="translate(1, 1)" fill="url(#linear_border_8_cL2qPAqanC6AAUznwdt_0)"  d="M-1 17L-1 -1L17 -1L17 17L-1 17ZM16 16L0 16L0 0L16 0L16 16Z">
</path>
<defs>
<radialGradient id="linear_border_8_cL2qPAqanC6AAUznwdt_0" cx="0" cy="0" r="1" gradientTransform="translate(0 0) rotate(90) scale(0, 0)" gradientUnits="userSpaceOnUse">
</radialGradient>
<linearGradient id="linear_fill_QGl0eTd85ty5_pIB16tTJ" x1="1.25836181640625" y1="9" x2="16.848388671875" y2="9" gradientUnits="userSpaceOnUse">
<stop offset="0.0208" stop-color="#0CF718" stop-opacity="0.5" />
<stop offset="1" stop-color="#FA14A9" stop-opacity="0.71" />
</linearGradient>
</defs>
</svg>
