<svg xmlns="http://www.w3.org/2000/svg" xmlns:xlink="http://www.w3.org/1999/xlink" width="18" height="18" viewBox="0 0 18 18" fill="none">
<path  transform="translate(1, 1)"   fill="#000000" fill-opacity="0" d="M0 16L16 16L16 0L0 0L0 16Z">
</path>
<path d="M13.5 6C13.2239 6 13 6.22386 13 6.5C13 6.77614 13.2239 7 13.5 7L16.5 7C16.7761 7 17 6.77614 17 6.5C17 6.22386 16.7761 6 16.5 6L13.5 6ZM13.5 8.5C13.2239 8.5 13 8.72386 13 9C13 9.27614 13.2239 9.5 13.5 9.5L16.5 9.5C16.7761 9.5 17 9.27614 17 9C17 8.72386 16.7761 8.5 16.5 8.5L13.5 8.5ZM13 11.5C13 11.2239 13.2239 11 13.5 11L16.5 11C16.7761 11 17 11.2239 17 11.5C17 11.7761 16.7761 12 16.5 12L13.5 12C13.2239 12 13 11.7761 13 11.5ZM1.5 16C1.22386 16 1 16.2239 1 16.5C1 16.7761 1.22386 17 1.5 17L16.5 17C16.7761 17 17 16.7761 17 16.5C17 16.2239 16.7761 16 16.5 16L1.5 16Z" fill-rule="evenodd" style="mix-blend-mode:normal" fill="url(#linear_fill_TwMaAvHJQ87s4p76aaRBf)" >
</path>
<path d="M7.3753 3.375C7.3753 3.16789 7.2074 3 7.00029 3C6.79317 3 6.62527 3.16789 6.62527 3.375L6.62527 4.34467L6.14042 3.85983C5.99396 3.71339 5.75652 3.71339 5.61006 3.85983C5.46361 4.00628 5.46361 4.24372 5.61006 4.39017L6.62527 5.40533L6.62527 6.75C6.62527 6.7604 6.6257 6.7707 6.62653 6.78089C6.08156 6.87198 5.60294 7.15893 5.26548 7.56692C5.25701 7.56105 5.24823 7.55548 5.23914 7.55024L4.07458 6.8779L3.70299 5.49116C3.64938 5.29111 3.44375 5.17239 3.24369 5.226C3.04363 5.2796 2.92491 5.48523 2.97851 5.68528L3.15598 6.34757L2.31619 5.86274C2.13682 5.75918 1.90746 5.82064 1.80391 6C1.70035 6.17936 1.7618 6.4087 1.94117 6.51226L2.78097 6.99709L2.11864 7.17455C1.91858 7.22816 1.79986 7.43378 1.85346 7.63383C1.90707 7.83388 2.1127 7.9526 2.31276 7.899L3.69956 7.52742L4.86413 8.19976C4.87305 8.20491 4.88209 8.20965 4.89124 8.21399C4.8 8.45867 4.75013 8.72351 4.75013 9C4.75013 9.27649 4.8 9.54133 4.89124 9.78602C4.8821 9.79035 4.87306 9.79509 4.86415 9.80024L3.69958 10.4726L2.31279 10.101C2.11273 10.0474 1.90709 10.1661 1.85349 10.3662C1.79988 10.5662 1.91861 10.7718 2.11866 10.8254L2.78099 11.0029L1.94119 11.4877C1.76183 11.5913 1.70037 11.8206 1.80393 12C1.90749 12.1794 2.13684 12.2408 2.31621 12.1373L3.156 11.6524L2.97853 12.3147C2.92493 12.5148 3.04365 12.7204 3.24371 12.774C3.44377 12.8276 3.6494 12.7089 3.70301 12.5088L4.0746 11.1221L5.23917 10.4498C5.24825 10.4445 5.25702 10.439 5.26549 10.4331C5.60294 10.8411 6.08157 11.128 6.62653 11.2191C6.6257 11.2293 6.62527 11.2396 6.62527 11.25L6.62527 12.5947L5.61006 13.6098C5.46361 13.7563 5.46361 13.9937 5.61006 14.1402C5.75652 14.2866 5.99396 14.2866 6.14042 14.1402L6.62527 13.6553L6.62527 14.625C6.62527 14.8321 6.79317 15 7.00029 15C7.2074 15 7.3753 14.8321 7.3753 14.625L7.3753 13.6553L7.86016 14.1402C8.00661 14.2866 8.24406 14.2866 8.39051 14.1402C8.53696 13.9937 8.53696 13.7563 8.39051 13.6098L7.3753 12.5947L7.3753 11.25C7.3753 11.2396 7.37488 11.2293 7.37405 11.2191C7.91898 11.128 8.39757 10.841 8.735 10.433C8.74349 10.4389 8.7523 10.4445 8.7614 10.4498L9.92597 11.1221L10.2976 12.5088C10.3512 12.7089 10.5568 12.8276 10.7569 12.774C10.9569 12.7204 11.0756 12.5148 11.022 12.3147L10.8446 11.6524L11.6844 12.1373C11.8637 12.2408 12.0931 12.1794 12.1966 12C12.3002 11.8206 12.2387 11.5913 12.0594 11.4877L11.2196 11.0029L11.8819 10.8254C12.082 10.7718 12.2007 10.5662 12.1471 10.3662C12.0935 10.1661 11.8878 10.0474 11.6878 10.101L10.301 10.4726L9.13642 9.80024C9.12747 9.79507 9.1184 9.79031 9.10922 9.78596C9.20045 9.54129 9.25031 9.27647 9.25031 9C9.25031 8.72353 9.20045 8.45871 9.10922 8.21404C9.1184 8.20969 9.12749 8.20493 9.13644 8.19976L10.301 7.52742L11.6878 7.899C11.8879 7.9526 12.0935 7.83388 12.1471 7.63383C12.2007 7.43378 12.082 7.22816 11.8819 7.17455L11.2196 6.99709L12.0594 6.51226C12.2388 6.4087 12.3002 6.17936 12.1967 6C12.0931 5.82064 11.8638 5.75918 11.6844 5.86274L10.8446 6.34757L11.0221 5.68528C11.0757 5.48523 10.9569 5.2796 10.7569 5.226C10.5568 5.17239 10.3512 5.29111 10.2976 5.49116L9.92599 6.8779L8.76143 7.55024C8.75231 7.5555 8.7435 7.56109 8.735 7.56698C8.39758 7.15899 7.91898 6.87203 7.37405 6.78091C7.37488 6.77072 7.3753 6.76041 7.3753 6.75L7.3753 5.40533L8.39051 4.39017C8.53696 4.24372 8.53696 4.00628 8.39051 3.85983C8.24406 3.71339 8.00661 3.71339 7.86016 3.85983L7.3753 4.34467L7.3753 3.375Z"  style="mix-blend-mode:normal" fill="url(#linear_fill_D8wGnlrFv0nsIP0k0AjFC)" >
</path>
<path fill-rule="evenodd" transform="translate(1, 1)" fill="url(#linear_border_ti5iZfximG9mms8pSL0Ty_0)"  d="M-1 17L-1 -1L17 -1L17 17L-1 17ZM16 16L0 16L0 0L16 0L16 16Z">
</path>
<defs>
<radialGradient id="linear_border_ti5iZfximG9mms8pSL0Ty_0" cx="0" cy="0" r="1" gradientTransform="translate(0 0) rotate(90) scale(0, 0)" gradientUnits="userSpaceOnUse">
</radialGradient>
<linearGradient id="linear_fill_TwMaAvHJQ87s4p76aaRBf" x1="1" y1="11.5" x2="17" y2="11.5" gradientUnits="userSpaceOnUse">
<stop offset="0.0208" stop-color="#0CF718" stop-opacity="0.5" />
<stop offset="1" stop-color="#FA14A9" stop-opacity="0.71" />
</linearGradient>
<linearGradient id="linear_fill_D8wGnlrFv0nsIP0k0AjFC" x1="1.75360107421875" y1="9" x2="12.24652099609375" y2="9" gradientUnits="userSpaceOnUse">
<stop offset="0.0208" stop-color="#0CF718" stop-opacity="0.5" />
<stop offset="1" stop-color="#FA14A9" stop-opacity="0.71" />
</linearGradient>
</defs>
</svg>
