<svg xmlns="http://www.w3.org/2000/svg" xmlns:xlink="http://www.w3.org/1999/xlink" width="18" height="18" viewBox="0 0 18 18" fill="none">
<path d="M12.5 8C12.2239 8 12 8.22386 12 8.5L12 10.563C11.1374 10.785 10.5 11.5681 10.5 12.5C10.5 13.6046 11.3954 14.5 12.5 14.5C13.6046 14.5 14.5 13.6046 14.5 12.5C14.5 11.5681 13.8626 10.785 13 10.563L13 8.5C13 8.22386 12.7761 8 12.5 8Z"  style="mix-blend-mode:normal" fill="url(#linear_fill_wGk37tcHpj7AOb7QfUUmO)" >
</path>
<path d="M11.2 9.39855L10.6675 9.75498C9.7801 10.349 9.2 11.357 9.2 12.5C9.2 14.3225 10.6775 15.8 12.5 15.8C14.3225 15.8 15.8 14.3225 15.8 12.5C15.8 11.357 15.2199 10.349 14.3325 9.75498L13.8 9.39855L13.8 3.5C13.8 2.78203 13.218 2.2 12.5 2.2C11.782 2.2 11.2 2.78203 11.2 3.5L11.2 9.39855ZM10 3.5C10 2.11929 11.1193 1 12.5 1C13.8807 1 15 2.11929 15 3.5L15 8.75777C16.206 9.56504 17 10.9398 17 12.5C17 14.9853 14.9853 17 12.5 17C10.0147 17 8 14.9853 8 12.5C8 10.9398 8.79401 9.56504 10 8.75777L10 3.5Z"  style="mix-blend-mode:normal" fill="url(#linear_fill_YLg5aWXMVPBxjTs_K8hRc)" >
</path>
<path d="M4.7189 4.21875C4.7189 4.09794 4.62096 4 4.50014 4C4.37932 4 4.28138 4.09794 4.28138 4.21875L4.28138 4.78439L3.99855 4.50157C3.91312 4.41614 3.77461 4.41614 3.68918 4.50157C3.60375 4.587 3.60375 4.7255 3.68918 4.81093L4.28138 5.40311L4.28138 6.1875C4.28138 6.19357 4.28163 6.19958 4.28211 6.20552C3.96422 6.25865 3.68502 6.42604 3.48817 6.66404C3.48323 6.66061 3.47811 6.65736 3.47281 6.65431L2.79348 6.26211L2.57672 5.45318C2.54545 5.33648 2.42549 5.26723 2.30879 5.2985C2.19209 5.32977 2.12284 5.44972 2.15411 5.56641L2.25763 5.95275L1.76775 5.66993C1.66312 5.60952 1.52933 5.64537 1.46892 5.75C1.40851 5.85462 1.44436 5.98841 1.54899 6.04882L2.03887 6.33164L1.65251 6.43516C1.53581 6.46642 1.46656 6.58637 1.49783 6.70307C1.5291 6.81977 1.64905 6.88902 1.76575 6.85775L2.57472 6.641L3.25405 7.03319C3.25925 7.0362 3.26453 7.03896 3.26986 7.04149C3.21664 7.18423 3.18755 7.33872 3.18755 7.5C3.18755 7.66128 3.21664 7.81578 3.26986 7.95851C3.26453 7.96104 3.25926 7.9638 3.25406 7.96681L2.57473 8.359L1.76577 8.14225C1.64907 8.11098 1.52911 8.18023 1.49784 8.29693C1.46657 8.41362 1.53583 8.53357 1.65253 8.56484L2.03888 8.66836L1.549 8.95118C1.44437 9.01159 1.40852 9.14537 1.46893 9.25C1.52934 9.35462 1.66313 9.39047 1.76776 9.33007L2.25764 9.04725L2.15412 9.43359C2.12285 9.55028 2.19211 9.67023 2.30881 9.7015C2.42551 9.73277 2.54546 9.66352 2.57673 9.54682L2.79349 8.73789L3.47282 8.34569C3.47812 8.34263 3.48324 8.33939 3.48818 8.33597C3.68502 8.57396 3.96422 8.74135 4.28211 8.79448C4.28163 8.80042 4.28138 8.80643 4.28138 8.8125L4.28138 9.59689L3.68918 10.1891C3.60375 10.2745 3.60375 10.413 3.68918 10.4984C3.77461 10.5839 3.91312 10.5839 3.99855 10.4984L4.28138 10.2156L4.28138 10.7812C4.28138 10.9021 4.37932 11 4.50014 11C4.62096 11 4.7189 10.9021 4.7189 10.7812L4.7189 10.2156L5.00173 10.4984C5.08716 10.5839 5.22567 10.5839 5.31111 10.4984C5.39654 10.413 5.39654 10.2745 5.31111 10.1891L4.7189 9.59689L4.7189 8.8125C4.7189 8.80643 4.71865 8.80042 4.71817 8.79447C5.03604 8.74132 5.31522 8.57392 5.51206 8.33593C5.51701 8.33937 5.52215 8.34262 5.52746 8.34569L6.20679 8.73789L6.42355 9.54682C6.45482 9.66352 6.57478 9.73277 6.69148 9.7015C6.80818 9.67023 6.87743 9.55028 6.84616 9.43359L6.74264 9.04725L7.23252 9.33007C7.33715 9.39047 7.47094 9.35462 7.53135 9.25C7.59176 9.14537 7.55591 9.01159 7.45128 8.95118L6.9614 8.66836L7.34775 8.56484C7.46445 8.53357 7.53371 8.41362 7.50244 8.29693C7.47117 8.18023 7.35122 8.11098 7.23452 8.14225L6.42555 8.359L5.74622 7.96681C5.741 7.96379 5.73571 7.96102 5.73035 7.95848C5.78357 7.81575 5.81266 7.66127 5.81266 7.5C5.81266 7.33873 5.78357 7.18425 5.73035 7.04152C5.73571 7.03898 5.74101 7.03621 5.74623 7.03319L6.42556 6.641L7.23453 6.85775C7.35123 6.88902 7.47118 6.81977 7.50245 6.70307C7.53372 6.58637 7.46447 6.46642 7.34777 6.43516L6.96141 6.33164L7.45129 6.04882C7.55592 5.98841 7.59177 5.85462 7.53136 5.75C7.47095 5.64537 7.33716 5.60952 7.23253 5.66993L6.74265 5.95275L6.84618 5.56641C6.87745 5.44972 6.80819 5.32977 6.69149 5.2985C6.57479 5.26723 6.45484 5.33648 6.42357 5.45318L6.2068 6.26211L5.52747 6.65431C5.52216 6.65738 5.51702 6.66063 5.51206 6.66407C5.31523 6.42608 5.03605 6.25868 4.71817 6.20553C4.71865 6.19958 4.7189 6.19357 4.7189 6.1875L4.7189 5.40311L5.31111 4.81093C5.39654 4.7255 5.39654 4.587 5.31111 4.50157C5.22567 4.41614 5.08716 4.41614 5.00173 4.50157L4.7189 4.78439L4.7189 4.21875Z"  style="mix-blend-mode:normal" fill="url(#linear_fill_CsyqAmSncuTUhqJgJ0mRI)" >
</path>
<path d="M7.44 2.57797L5.55897 1.5L3.39864 2.42852L2.03917 1.64945L1.44 2.42203L3.32104 3.5L5.48137 2.57148L6.84083 3.35055L7.44 2.57797ZM7.44 12.578L5.55897 11.5L3.39864 12.4285L2.03917 11.6494L1.44 12.422L3.32104 13.5L5.48137 12.5715L6.84083 13.3506L7.44 12.578Z" fill-rule="evenodd" style="mix-blend-mode:normal" fill="url(#linear_fill_vHz2Ot4QyIVUCA0QXev4O)" >
</path>
<path fill-rule="evenodd" transform="translate(1, 1)" fill="url(#linear_border_Uk_RD1MNnAdI_uBY4Gkzd_0)"  d="M-1 17L-1 -1L17 -1L17 17L-1 17ZM16 16L0 16L0 0L16 0L16 16Z">
</path>
<defs>
<linearGradient id="linear_border_Uk_RD1MNnAdI_uBY4Gkzd_0" x1="0" y1="0" x2="0" y2="0" gradientUnits="userSpaceOnUse">
</linearGradient>
<linearGradient id="linear_fill_wGk37tcHpj7AOb7QfUUmO" x1="10.5" y1="11.25" x2="14.5" y2="11.25" gradientUnits="userSpaceOnUse">
<stop offset="0" stop-color="#CBFA20"  />
<stop offset="1" stop-color="#EF32FC" stop-opacity="0" />
</linearGradient>
<linearGradient id="linear_fill_YLg5aWXMVPBxjTs_K8hRc" x1="8" y1="9" x2="17" y2="9" gradientUnits="userSpaceOnUse">
<stop offset="0" stop-color="#CBFA20"  />
<stop offset="1" stop-color="#EF32FC" stop-opacity="0" />
</linearGradient>
<linearGradient id="linear_fill_CsyqAmSncuTUhqJgJ0mRI" x1="1.4395751953125" y1="7.5" x2="7.5604248046875" y2="7.5" gradientUnits="userSpaceOnUse">
<stop offset="0" stop-color="#CBFA20"  />
<stop offset="1" stop-color="#EF32FC" stop-opacity="0" />
</linearGradient>
<linearGradient id="linear_fill_vHz2Ot4QyIVUCA0QXev4O" x1="1.44000244140625" y1="7.5" x2="7.44000244140625" y2="7.5" gradientUnits="userSpaceOnUse">
<stop offset="0" stop-color="#CBFA20"  />
<stop offset="1" stop-color="#EF32FC" stop-opacity="0" />
</linearGradient>
</defs>
</svg>
