<svg xmlns="http://www.w3.org/2000/svg" xmlns:xlink="http://www.w3.org/1999/xlink" width="18" height="18" viewBox="0 0 18 18" fill="none">
<path  transform="translate(1, 1)"   fill="#000000" fill-opacity="0" d="M0 16L16 16L16 0L0 0L0 16Z">
</path>
<path d="M10.9869 10.7476C11.0602 10.8208 11.1791 10.8208 11.2524 10.7476C11.3257 10.6745 11.3257 10.5559 11.2524 10.4828L9.1875 8.42236L9.1875 8.9521L10.9869 10.7476Z"  style="mix-blend-mode:normal" fill="url(#linear_fill_TRLWy7WhIK3rLYRliuuxv)" >
</path>
<path d="M6.75005 10.4828C6.67674 10.5559 6.67674 10.6745 6.75005 10.7476C6.82335 10.8208 6.94219 10.8208 7.0155 10.7476L8.8149 8.9521L8.8149 8.42236L6.75005 10.4828Z"  style="mix-blend-mode:normal" fill="url(#linear_fill_rIpe14T2OoMT-u3tPKo6j)" >
</path>
<path d="M11.2524 3.5148C11.3257 3.44166 11.3257 3.32307 11.2524 3.24993C11.1791 3.17678 11.0602 3.17678 10.9869 3.24993L9.1875 5.04546L9.1875 5.5752L11.2524 3.5148Z"  style="mix-blend-mode:normal" fill="url(#linear_fill_6NTzwejnGCXn6Mdp5ZT8o)" >
</path>
<path d="M7.0155 3.24993C6.94219 3.17678 6.82335 3.17678 6.75005 3.24993C6.67674 3.32307 6.67674 3.44166 6.75005 3.5148L8.8149 5.5752L8.8149 5.04546L7.0155 3.24993Z"  style="mix-blend-mode:normal" fill="url(#linear_fill_Cf9lnPqMUUkSt5RF5k3rc)" >
</path>
<path d="M5.5148 4.75005C5.44166 4.67674 5.32307 4.67674 5.24993 4.75005C5.17678 4.82335 5.17678 4.94219 5.24993 5.0155L7.04546 6.8149L7.5752 6.8149L5.5148 4.75005Z"  style="mix-blend-mode:normal" fill="url(#linear_fill_C-XLsFa6uSHD-2DQMhJZ-)" >
</path>
<path d="M5.24993 8.9869C5.17678 9.0602 5.17678 9.17905 5.24993 9.25235C5.32307 9.32566 5.44166 9.32566 5.5148 9.25235L7.5752 7.1875L7.04546 7.1875L5.24993 8.9869Z"  style="mix-blend-mode:normal" fill="url(#linear_fill_CCu94FqOGjdpWsFDQw7d_)" >
</path>
<path d="M12.7476 5.0155C12.8208 4.94219 12.8208 4.82335 12.7476 4.75005C12.6745 4.67674 12.5559 4.67674 12.4828 4.75005L10.4224 6.8149L10.9521 6.8149L12.7476 5.0155Z"  style="mix-blend-mode:normal" fill="url(#linear_fill_4gfVBmIDqWCLMjU78plWe)" >
</path>
<path d="M12.4828 9.25235C12.5559 9.32566 12.6745 9.32566 12.7476 9.25235C12.8208 9.17905 12.8208 9.06021 12.7476 8.9869L10.9521 7.1875L10.4224 7.1875L12.4828 9.25235Z"  style="mix-blend-mode:normal" fill="url(#linear_fill_74m08VVwoQB-CyOsEeWiN)" >
</path>
<path d="M14.8125 6.8125L12.4526 6.8125L13.5 5.76515C13.5732 5.69193 13.5732 5.57322 13.5 5.5C13.4268 5.42678 13.3081 5.42678 13.2349 5.5L12 6.73488C11.9775 6.75733 11.962 6.78412 11.9534 6.81252L10.9526 6.81252L10.4224 6.81252L9.45265 6.81252L12.75 3.51515C12.8232 3.44193 12.8232 3.32322 12.75 3.25C12.6768 3.17678 12.5581 3.17678 12.4849 3.25L9.1875 6.54738L9.1875 5.57765L9.1875 5.04738L9.1875 4.04664C9.21591 4.03797 9.24267 4.02245 9.26515 4L10.5 2.76515C10.5732 2.69193 10.5732 2.57322 10.5 2.5C10.4268 2.42678 10.3081 2.42678 10.2349 2.5L9.1875 3.54738L9.1875 1.18748C9.1875 1.08393 9.10357 1 9.00002 1L8.99998 1C8.89643 1 8.8125 1.08393 8.8125 1.18748L8.8125 3.54735L7.76515 2.5C7.69193 2.42678 7.57322 2.42678 7.5 2.5C7.42678 2.57322 7.42678 2.69193 7.5 2.76515L8.73487 4C8.75735 4.02245 8.78412 4.03797 8.81252 4.04664L8.81252 5.04735L8.81252 5.57762L8.81252 6.54735L5.51515 3.25C5.44193 3.17678 5.32322 3.17678 5.25 3.25C5.17678 3.32322 5.17678 3.44193 5.25 3.51515L8.54737 6.8125L7.57765 6.8125L7.04738 6.8125L6.07765 6.8125L4.76515 5.5C4.69193 5.42678 4.57322 5.42678 4.5 5.5C4.42678 5.57322 4.42678 5.69193 4.5 5.76515L5.54738 6.8125L3.18748 6.8125C3.08393 6.8125 3 6.89643 3 6.99998L3 7.00002C3 7.10357 3.08393 7.1875 3.18748 7.1875L5.54735 7.1875L4.5 8.23487C4.42678 8.30809 4.42678 8.42681 4.5 8.50002C4.57322 8.57324 4.69193 8.57324 4.76515 8.50002L6.07765 7.18752L7.04738 7.18752L7.57765 7.18752L8.54737 7.18752L5.25 10.4849C5.17678 10.5581 5.17678 10.6768 5.25 10.75C5.32322 10.8232 5.44193 10.8232 5.51515 10.75L8.8125 7.45265L8.8125 8.42237L8.8125 8.95265L8.8125 9.95336C8.78409 9.96203 8.75733 9.97755 8.73485 10L7.5 11.2349C7.42678 11.3081 7.42678 11.4268 7.5 11.5C7.57322 11.5732 7.69193 11.5732 7.76515 11.5L8.8125 10.4526L8.8125 12.8125C8.8125 12.9161 8.89643 13 8.99998 13L9.00002 13C9.10357 13 9.1875 12.9161 9.1875 12.8125L9.1875 10.4526L10.2349 11.5C10.3081 11.5732 10.4268 11.5732 10.5 11.5C10.5732 11.4268 10.5732 11.3081 10.5 11.2349L9.26515 10C9.24267 9.97755 9.21591 9.96203 9.1875 9.95336L9.1875 8.95265L9.1875 8.42237L9.1875 7.45265L12.4849 10.75C12.5581 10.8232 12.6768 10.8232 12.75 10.75C12.8232 10.6768 12.8232 10.5581 12.75 10.4849L9.45265 7.1875L10.4224 7.1875L10.9526 7.1875L11.9534 7.1875C11.962 7.21591 11.9775 7.24267 12 7.26515L13.2349 8.5C13.3081 8.57322 13.4268 8.57322 13.5 8.5C13.5732 8.42678 13.5732 8.30807 13.5 8.23485L12.4526 7.1875L14.8125 7.1875C14.9161 7.1875 15 7.10357 15 7.00002L15 6.99998C15 6.89643 14.9161 6.8125 14.8125 6.8125Z"  style="mix-blend-mode:normal" fill="url(#linear_fill_0FvEeBQ95zgYEuspXVg-L)" >
</path>
<path d="M3.5 14C3.22386 14 3 14.2239 3 14.5C3 14.7761 3.22386 15 3.5 15L14.5 15C14.7761 15 15 14.7761 15 14.5C15 14.2239 14.7761 14 14.5 14L3.5 14ZM1.5 16C1.22386 16 1 16.2239 1 16.5C1 16.7761 1.22386 17 1.5 17L16.5 17C16.7761 17 17 16.7761 17 16.5C17 16.2239 16.7761 16 16.5 16L1.5 16Z" fill-rule="evenodd" style="mix-blend-mode:normal" fill="url(#linear_fill_FOhhDo3Q1js56qFUa6HJb)" >
</path>
<path fill-rule="evenodd" transform="translate(1, 1)" fill="url(#linear_border_KYqjAWpHznvo2IaU1EBYD_0)"  d="M-1 17L-1 -1L17 -1L17 17L-1 17ZM16 16L0 16L0 0L16 0L16 16Z">
</path>
<defs>
<radialGradient id="linear_border_KYqjAWpHznvo2IaU1EBYD_0" cx="0" cy="0" r="1" gradientTransform="translate(0 0) rotate(90) scale(0, 0)" gradientUnits="userSpaceOnUse">
</radialGradient>
<linearGradient id="linear_fill_TRLWy7WhIK3rLYRliuuxv" x1="9.1875" y1="9.6136474609375" x2="11.304931640625" y2="9.6136474609375" gradientUnits="userSpaceOnUse">
<stop offset="0.0208" stop-color="#0CF718" stop-opacity="0.5" />
<stop offset="1" stop-color="#FA14A9" stop-opacity="0.71" />
</linearGradient>
<linearGradient id="linear_fill_rIpe14T2OoMT-u3tPKo6j" x1="6.695068359375" y1="9.6136474609375" x2="8.8125" y2="9.6136474609375" gradientUnits="userSpaceOnUse">
<stop offset="0.0208" stop-color="#0CF718" stop-opacity="0.5" />
<stop offset="1" stop-color="#FA14A9" stop-opacity="0.71" />
</linearGradient>
<linearGradient id="linear_fill_6NTzwejnGCXn6Mdp5ZT8o" x1="9.1875" y1="4.3863525390625" x2="11.304931640625" y2="4.3863525390625" gradientUnits="userSpaceOnUse">
<stop offset="0.0208" stop-color="#0CF718" stop-opacity="0.5" />
<stop offset="1" stop-color="#FA14A9" stop-opacity="0.71" />
</linearGradient>
<linearGradient id="linear_fill_Cf9lnPqMUUkSt5RF5k3rc" x1="6.695068359375" y1="4.3863525390625" x2="8.8125" y2="4.3863525390625" gradientUnits="userSpaceOnUse">
<stop offset="0.0208" stop-color="#0CF718" stop-opacity="0.5" />
<stop offset="1" stop-color="#FA14A9" stop-opacity="0.71" />
</linearGradient>
<linearGradient id="linear_fill_C-XLsFa6uSHD-2DQMhJZ-" x1="5.195068359375" y1="5.7537841796875" x2="7.57763671875" y2="5.7537841796875" gradientUnits="userSpaceOnUse">
<stop offset="0.0208" stop-color="#0CF718" stop-opacity="0.5" />
<stop offset="1" stop-color="#FA14A9" stop-opacity="0.71" />
</linearGradient>
<linearGradient id="linear_fill_CCu94FqOGjdpWsFDQw7d_" x1="5.195068359375" y1="8.2462158203125" x2="7.57763671875" y2="8.2462158203125" gradientUnits="userSpaceOnUse">
<stop offset="0.0208" stop-color="#0CF718" stop-opacity="0.5" />
<stop offset="1" stop-color="#FA14A9" stop-opacity="0.71" />
</linearGradient>
<linearGradient id="linear_fill_4gfVBmIDqWCLMjU78plWe" x1="10.42236328125" y1="5.7537841796875" x2="12.804931640625" y2="5.7537841796875" gradientUnits="userSpaceOnUse">
<stop offset="0.0208" stop-color="#0CF718" stop-opacity="0.5" />
<stop offset="1" stop-color="#FA14A9" stop-opacity="0.71" />
</linearGradient>
<linearGradient id="linear_fill_74m08VVwoQB-CyOsEeWiN" x1="10.42236328125" y1="8.2462158203125" x2="12.804931640625" y2="8.2462158203125" gradientUnits="userSpaceOnUse">
<stop offset="0.0208" stop-color="#0CF718" stop-opacity="0.5" />
<stop offset="1" stop-color="#FA14A9" stop-opacity="0.71" />
</linearGradient>
<linearGradient id="linear_fill_0FvEeBQ95zgYEuspXVg-L" x1="3" y1="7" x2="15" y2="7" gradientUnits="userSpaceOnUse">
<stop offset="0.0208" stop-color="#0CF718" stop-opacity="0.5" />
<stop offset="1" stop-color="#FA14A9" stop-opacity="0.71" />
</linearGradient>
<linearGradient id="linear_fill_FOhhDo3Q1js56qFUa6HJb" x1="1" y1="15.5" x2="17" y2="15.5" gradientUnits="userSpaceOnUse">
<stop offset="0.0208" stop-color="#0CF718" stop-opacity="0.5" />
<stop offset="1" stop-color="#FA14A9" stop-opacity="0.71" />
</linearGradient>
</defs>
</svg>
