<svg xmlns="http://www.w3.org/2000/svg" xmlns:xlink="http://www.w3.org/1999/xlink" width="18" height="18" viewBox="0 0 18 18" fill="none">
<path  transform="translate(1, 1)"   fill="#000000" fill-opacity="0" d="M0 16L16 16L16 0L0 0L0 16Z">
</path>
<path d="M10.0378 5.13697C9.53992 5.00356 9.02814 5.29904 8.89473 5.79693L8.51942 7.1976L7.49405 6.17224C7.12956 5.80775 6.53861 5.80775 6.17411 6.17225C5.80962 6.53674 5.80962 7.1277 6.17411 7.49219L7.19948 8.51754L5.7988 8.89285C5.3009 9.02626 5.00543 9.53804 5.13884 10.036C5.27225 10.5339 5.78403 10.8293 6.28193 10.6959L7.68261 10.3206L7.3073 11.7213C7.17389 12.2192 7.46936 12.731 7.96727 12.8644C8.46517 12.9978 8.97695 12.7023 9.11036 12.2044L9.48567 10.8037L10.511 11.8291C10.8755 12.1936 11.4665 12.1936 11.831 11.8291C12.1955 11.4646 12.1955 10.8737 11.831 10.5092L10.8056 9.48381L12.2063 9.1085C12.7042 8.97509 12.9997 8.4633 12.8662 7.9654C12.7328 7.46749 12.221 7.17203 11.7231 7.30544L10.3225 7.68075L10.6978 6.28006C10.8312 5.78217 10.5357 5.27038 10.0378 5.13697ZM13.7459 2.52086C13.8658 2.55298 13.968 2.6314 14.03 2.73888L16.9373 7.77442C16.9994 7.8819 17.0162 8.00962 16.9841 8.12949L15.4791 13.7459C15.447 13.8658 15.3686 13.968 15.2611 14.03L10.2256 16.9373C10.1181 16.9994 9.99038 17.0162 9.87051 16.9841L4.25409 15.4791C4.13422 15.447 4.03201 15.3686 3.96996 15.2611L1.06269 10.2256C1.00064 10.1181 0.983826 9.99038 1.01595 9.87051L2.52086 4.25409C2.55298 4.13422 2.6314 4.03201 2.73888 3.96996L7.77442 1.06269C7.8819 1.00064 8.00962 0.983826 8.12949 1.01595L13.7459 2.52086ZM15.4309 7.97275L13.1051 3.94431C13.043 3.83684 12.9408 3.75841 12.821 3.72629L8.32781 2.52236C8.20794 2.49024 8.08022 2.50706 7.97275 2.56911L3.94431 4.89493C3.83684 4.95698 3.75841 5.05918 3.72629 5.17905L2.52236 9.67219C2.49024 9.79206 2.50706 9.91978 2.56911 10.0273L4.89493 14.0557C4.95698 14.1632 5.05918 14.2416 5.17905 14.2737L9.67219 15.4776C9.79206 15.5098 9.91978 15.4929 10.0273 15.4309L14.0557 13.1051C14.1632 13.043 14.2416 12.9408 14.2737 12.821L15.4776 8.32781C15.5098 8.20794 15.4929 8.08022 15.4309 7.97275Z" fill-rule="evenodd" style="mix-blend-mode:normal" fill="url(#linear_fill_wzypkF_UaAHM7OT2ZnpPY)" >
</path>
<path fill-rule="evenodd" transform="translate(1, 1)" fill="url(#linear_border_q2aldoD5hr_eoEdkmA21R_0)"  d="M-1 17L-1 -1L17 -1L17 17L-1 17ZM16 16L0 16L0 0L16 0L16 16Z">
</path>
<defs>
<radialGradient id="linear_border_q2aldoD5hr_eoEdkmA21R_0" cx="0" cy="0" r="1" gradientTransform="translate(0 0) rotate(90) scale(0, 0)" gradientUnits="userSpaceOnUse">
</radialGradient>
<linearGradient id="linear_fill_wzypkF_UaAHM7OT2ZnpPY" x1="1" y1="9" x2="17" y2="9" gradientUnits="userSpaceOnUse">
<stop offset="0.0208" stop-color="#0CF718" stop-opacity="0.5" />
<stop offset="1" stop-color="#FA14A9" stop-opacity="0.71" />
</linearGradient>
</defs>
</svg>
