<svg xmlns="http://www.w3.org/2000/svg" xmlns:xlink="http://www.w3.org/1999/xlink" width="16.000001907348633" height="16" viewBox="0 0 16.000001907348633 16" fill="none">
<path d="M4.5 14C4.5 14.2652 4.60536 14.5196 4.7929 14.7071C4.98043 14.8946 5.23479 15 5.5 15C5.76522 15 6.01957 14.8946 6.20711 14.7071C6.39464 14.5196 6.5 14.2652 6.5 14C6.5 13.5 5.94458 12.605 5.5 12C5.05542 12.605 4.5 13.5 4.5 14ZM10.5 14C10.5 14.2652 10.6054 14.5196 10.7929 14.7071C10.9804 14.8946 11.2348 15 11.5 15C11.7652 15 12.0196 14.8946 12.2071 14.7071C12.3946 14.5196 12.5 14.2652 12.5 14C12.5 13.5 11.9446 12.605 11.5 12C11.0554 12.605 10.5 13.5 10.5 14Z" fill-rule="evenodd" style="mix-blend-mode:normal" fill="url(#linear_fill_Au4Q-Z1wa20QoefeGwxnL)" >
</path>
<path d="M8.40623 12.5C9.76855 12.5 10.9951 11.9421 11.8516 11.0513C11.938 10.9614 12.0742 10.9332 12.1933 10.9765C12.5024 11.0886 12.8375 11.15 13.1875 11.15C14.7408 11.15 16 9.94117 16 8.45C16 6.95883 14.7408 5.75 13.1875 5.75C13.0295 5.75 12.8746 5.7625 12.7238 5.78653C12.5983 5.80651 12.4707 5.75345 12.4042 5.6494C11.5798 4.36002 10.0977 3.5 8.40623 3.5C6.72405 3.5 5.24883 4.35065 4.42185 5.62832C4.35858 5.72608 4.24079 5.77863 4.1216 5.76612C4.0201 5.75547 3.91696 5.75 3.8125 5.75C2.2592 5.75 1 6.95883 1 8.45C1 9.94117 2.2592 11.15 3.8125 11.15C4.1154 11.15 4.40712 11.104 4.6805 11.019C4.79476 10.9834 4.92146 11.012 5.00411 11.0956C5.85835 11.9606 7.06667 12.5 8.40623 12.5ZM12.0672 9.89352C11.9059 9.77792 11.6569 9.80641 11.5467 9.96816C10.8771 10.9508 9.72066 11.6 8.40623 11.6C7.12397 11.6 5.99201 10.9822 5.31577 10.0397C5.21045 9.89287 4.98975 9.86233 4.83414 9.95958C4.54023 10.1433 4.18935 10.25 3.8125 10.25C2.77697 10.25 1.9375 9.44411 1.9375 8.45C1.9375 7.45589 2.77697 6.65 3.8125 6.65C4.05317 6.65 4.28324 6.69353 4.49465 6.77283C4.66779 6.83778 4.87784 6.76486 4.95016 6.60046C5.51901 5.30744 6.85223 4.4 8.40623 4.4C9.98143 4.4 11.3298 5.33236 11.8852 6.65357C11.9606 6.83307 12.1995 6.90762 12.3815 6.82432C12.6257 6.71256 12.899 6.65 13.1875 6.65C14.223 6.65 15.0625 7.45589 15.0625 8.45C15.0625 9.44411 14.223 10.25 13.1875 10.25C12.7675 10.25 12.3798 10.1174 12.0672 9.89352Z"  style="mix-blend-mode:normal" fill="url(#linear_fill_18CCJDis8GEXljajc6H6I)" >
</path>
<path d="M4.97901 1.904L4.98601 1.904C5.11845 1.90216 5.24474 1.84784 5.33717 1.75297C5.4296 1.6581 5.48061 1.53044 5.47901 1.398L5.46701 0.493C5.46517 0.361609 5.41168 0.236223 5.31811 0.143963C5.22454 0.0517036 5.09842 -1.28758e-05 4.96701 2.40459e-09L4.96001 2.40459e-09C4.82757 0.00184461 4.70128 0.0561616 4.60885 0.151028C4.51642 0.245895 4.46541 0.37356 4.46701 0.506L4.47901 1.41C4.48059 1.54157 4.53396 1.66721 4.62756 1.75968C4.72116 1.85216 4.84744 1.90401 4.97901 1.904ZM2.08701 2.85C2.13383 2.89674 2.18947 2.93372 2.25069 2.9588C2.31191 2.98389 2.3775 2.99657 2.44365 2.99612C2.50981 2.99567 2.57522 2.98209 2.63609 2.95618C2.69697 2.93026 2.75209 2.89253 2.79827 2.84515C2.84445 2.79778 2.88078 2.74171 2.90513 2.6802C2.92949 2.61869 2.94139 2.55295 2.94016 2.48681C2.93893 2.42066 2.92458 2.35542 2.89795 2.29485C2.87131 2.23429 2.83293 2.17962 2.78501 2.134L2.13701 1.504C2.09101 1.45399 2.03529 1.41387 1.97327 1.38611C1.91124 1.35835 1.84421 1.34353 1.77626 1.34254C1.70831 1.34156 1.64088 1.35444 1.57807 1.38039C1.51527 1.40634 1.45842 1.44481 1.41098 1.49347C1.36355 1.54213 1.32653 1.59995 1.30219 1.6634C1.27785 1.72684 1.2667 1.79458 1.26941 1.86248C1.27213 1.93038 1.28866 1.99702 1.31799 2.05831C1.34732 2.11961 1.38884 2.17429 1.44001 2.219L2.08701 2.85ZM1.90801 5.053C1.90643 4.92143 1.85306 4.79579 1.75946 4.70332C1.66586 4.61084 1.53959 4.55899 1.40801 4.559L1.40101 4.559L0.497011 4.571C0.364403 4.5718 0.237542 4.62524 0.144336 4.71957C0.0511306 4.8139 -0.00078473 4.94139 1.09198e-05 5.074C0.000806569 5.20661 0.0542481 5.33347 0.148579 5.42667C0.24291 5.51988 0.370403 5.5718 0.503011 5.571L0.510011 5.571L1.41501 5.559C1.54745 5.55716 1.67374 5.50284 1.76617 5.40797C1.8586 5.3131 1.90961 5.18544 1.90801 5.053ZM7.54601 2.932C7.61284 2.93226 7.67904 2.91912 7.7407 2.89335C7.80236 2.86759 7.85823 2.82972 7.90501 2.782L8.53501 2.134C8.62574 2.0387 8.67525 1.91147 8.67279 1.77991C8.67034 1.64835 8.61613 1.52306 8.52191 1.43121C8.42769 1.33936 8.30105 1.28835 8.16947 1.28925C8.03789 1.29014 7.91197 1.34287 7.81901 1.436L7.18801 2.083C7.11903 2.15337 7.07238 2.24256 7.05393 2.33936C7.03547 2.43616 7.04603 2.53626 7.08428 2.62708C7.12253 2.7179 7.18677 2.79539 7.26892 2.84981C7.35107 2.90424 7.44747 2.93318 7.54601 2.933L7.54601 2.932ZM2.25401 5.315C2.57695 5.16841 2.92014 5.07132 3.27201 5.027C3.32744 4.58533 3.54186 4.17897 3.87518 3.88394C4.2085 3.5889 4.63788 3.4254 5.08301 3.424C5.27111 3.42639 5.45769 3.4581 5.63601 3.518C6.04288 3.3254 6.47423 3.18947 6.91801 3.114C6.50865 2.75816 6.00535 2.52793 5.46845 2.4509C4.93154 2.37387 4.38381 2.45331 3.89092 2.6797C3.39802 2.9061 2.98087 3.26984 2.68948 3.72732C2.39808 4.1848 2.2448 4.71661 2.24801 5.259C2.24801 5.279 2.25401 5.296 2.25401 5.315Z"  style="mix-blend-mode:normal" fill="url(#linear_fill_sLP7SPN9wcmH40Egj8LMc)" >
</path>
<defs>
<linearGradient id="linear_fill_Au4Q-Z1wa20QoefeGwxnL" x1="4.500001907348633" y1="13.5" x2="12.500001907348633" y2="13.5" gradientUnits="userSpaceOnUse">
<stop offset="0" stop-color="#FFBA44"  />
<stop offset="1" stop-color="#5CC1EB"  />
</linearGradient>
<linearGradient id="linear_fill_18CCJDis8GEXljajc6H6I" x1="1.0000019073486328" y1="8" x2="16.000001907348633" y2="8" gradientUnits="userSpaceOnUse">
<stop offset="0" stop-color="#FFBA44"  />
<stop offset="1" stop-color="#5CC1EB"  />
</linearGradient>
<linearGradient id="linear_fill_sLP7SPN9wcmH40Egj8LMc" x1="0.0000019073486328125" y1="2.785003662109375" x2="8.670000076293945" y2="2.785003662109375" gradientUnits="userSpaceOnUse">
<stop offset="0" stop-color="#FFBA44"  />
<stop offset="1" stop-color="#5CC1EB"  />
</linearGradient>
</defs>
</svg>
