<svg xmlns="http://www.w3.org/2000/svg" xmlns:xlink="http://www.w3.org/1999/xlink" width="57.59999084472656" height="50.39996337890625" viewBox="0 0 57.59999084472656 50.39996337890625" fill="none">
<path d="M0 22.5C0 29.96 5.78 36 12.91 36C13.24 36 13.9 36 13.9 36L46.67 35.99L47.17 36C52.93 36 57.6 31.3 57.6 25.5C57.6 19.7 52.93 15 47.17 15C46.63 15 46.1 15.04 45.58 15.12C44.71 6.62 37.98 0 29.79 0C25.04 0 20.78 2.23 17.87 5.77C19.79 6.38 21.59 7.34 23.2 8.62C24.05 9.31 24.2 10.56 23.52 11.43C22.84 12.29 21.59 12.44 20.73 11.76C19.2 10.54 17.44 9.69 15.56 9.28C15.56 9.28 15.32 9.23 15.17 9.21C14.84 9.15 14.34 9.08 14.34 9.08L13.94 9.04C13.94 9.04 13.72 9.03 13.56 9.02L13.33 9.01L12.91 9C5.78 9 0 15.04 0 22.5ZM13.94 9.04L14.17 9.06C14.02 9.05 13.94 9.04 13.94 9.04ZM15.18 9.21L15.15 9.2C15.16 9.2 15.17 9.2 15.17 9.21C15.18 9.21 15.18 9.21 15.18 9.21ZM15.29 9.23C15.25 9.22 15.22 9.21 15.18 9.21L15.29 9.23ZM13.5 9.01C13.52 9.02 13.54 9.02 13.56 9.02L13.73 9.03L13.5 9.01Z" fill-rule="evenodd"  fill="#FFFFFF" >
</path>
<path d="M27.8401 44.04L26.9501 49.78C26.9301 49.91 26.9701 50.05 27.0501 50.17C27.2401 50.41 27.6001 50.47 27.8701 50.3L33.9501 45.8101C34.0201 45.7701 34.0801 45.71 34.1201 45.64C34.2801 45.3801 34.1901 45.04 33.9101 44.89L31.5601 44.16L32.4401 38.42C32.4701 38.2901 32.4301 38.15 32.3401 38.03C32.1601 37.7901 31.8001 37.73 31.5301 37.9L25.4501 42.39C25.3801 42.43 25.3201 42.49 25.2801 42.5601C25.1201 42.82 25.2101 43.16 25.4901 43.3101L27.8401 44.04Z"   fill="#00B2D7" >
</path>
<path d="M10.7999 45.9C10.7999 48.38 12.8199 50.4 15.2999 50.4C17.7799 50.4 19.7999 48.38 19.7999 45.9C19.7999 43.42 17.7799 41.4 15.2999 41.4C12.8199 41.4 10.7999 43.42 10.7999 45.9Z"   fill="#FFFFFF" >
</path>
<path d="M43.1999 45.9C43.1999 48.38 45.2199 50.4 47.6999 50.4C50.1799 50.4 52.1999 48.38 52.1999 45.9C52.1999 43.42 50.1799 41.4 47.6999 41.4C45.2199 41.4 43.1999 43.42 43.1999 45.9Z"   fill="#FFFFFF" >
</path>
</svg>
