<svg xmlns="http://www.w3.org/2000/svg" xmlns:xlink="http://www.w3.org/1999/xlink" width="57.5999755859375" height="50.39996337890625" viewBox="0 0 57.5999755859375 50.39996337890625" fill="none">
<path d="M19.7999 48.4L19.7999 41.6C19.7999 40.5 20.6899 39.6 21.7999 39.6C22.9099 39.6 23.7999 40.5 23.7999 41.6L23.7999 48.4C23.7999 49.5 22.9099 50.4 21.7999 50.4C20.6899 50.4 19.7999 49.5 19.7999 48.4ZM33.7999 48.4L33.7999 41.6C33.7999 40.5 34.6899 39.6 35.7999 39.6C36.9099 39.6 37.7999 40.5 37.7999 41.6L37.7999 48.4C37.7999 49.5 36.9099 50.4 35.7999 50.4C34.6899 50.4 33.7999 49.5 33.7999 48.4Z" fill-rule="evenodd"  fill="#00B2D7" >
</path>
<path d="M47.17 36C52.93 36 57.6 31.3 57.6 25.5C57.6 19.7 52.93 15 47.17 15C46.63 15 46.1 15.04 45.58 15.12C44.71 6.62 37.98 0 29.79 0C25.04 0 20.78 2.23 17.87 5.77C19.79 6.38 21.59 7.34 23.2 8.62C24.05 9.31 24.2 10.56 23.52 11.43C22.84 12.29 21.59 12.44 20.73 11.76C19.2 10.54 17.44 9.69 15.56 9.28C15.56 9.28 15.32 9.23 15.17 9.21C14.84 9.15 14.34 9.08 14.34 9.08L13.94 9.04C13.94 9.04 13.72 9.03 13.56 9.02L13.33 9.01L12.91 9C5.78 9 0 15.04 0 22.5C0 29.96 5.78 36 12.91 36C13.24 36 13.9 36 13.9 36L46.67 35.99L47.17 36ZM13.94 9.04L14.17 9.06C14.02 9.05 13.94 9.04 13.94 9.04ZM15.18 9.21L15.15 9.2C15.16 9.2 15.17 9.2 15.17 9.21C15.18 9.21 15.18 9.21 15.18 9.21ZM15.29 9.23C15.25 9.22 15.22 9.21 15.18 9.21L15.29 9.23ZM13.73 9.03L13.5 9.01C13.52 9.02 13.54 9.02 13.56 9.02L13.73 9.03Z" fill-rule="evenodd"  fill="#FFFFFF" >
</path>
</svg>
