<svg xmlns="http://www.w3.org/2000/svg" xmlns:xlink="http://www.w3.org/1999/xlink" width="57.5999755859375" height="50.39996337890625" viewBox="0 0 57.5999755859375 50.39996337890625" fill="none">
<path d="M10.7999 41.62L10.7999 48.37C10.7999 49.49 11.7099 50.4 12.8199 50.4C13.9399 50.4 14.8499 49.49 14.8499 48.37L14.8499 41.62C14.8499 40.51 13.9399 39.6 12.8199 39.6C11.7099 39.6 10.7999 40.51 10.7999 41.62ZM24.9749 48.37L24.9749 41.62C24.9749 40.51 25.8849 39.6 26.9949 39.6C28.1149 39.6 29.0249 40.51 29.0249 41.62L29.0249 48.37C29.0249 49.49 28.1149 50.4 26.9949 50.4C25.8849 50.4 24.9749 49.49 24.9749 48.37ZM39.1499 41.62L39.1499 48.37C39.1499 49.49 40.0599 50.4 41.1799 50.4C42.2899 50.4 43.1999 49.49 43.1999 48.37L43.1999 41.62C43.1999 40.51 42.2899 39.6 41.1799 39.6C40.0599 39.6 39.1499 40.51 39.1499 41.62Z" fill-rule="evenodd"  fill="#00B2D7" >
</path>
<path d="M13.94 9.04L14.17 9.06C14.02 9.05 13.94 9.04 13.94 9.04ZM13.56 9.02L13.33 9.01L12.91 9C5.78 9 0 15.04 0 22.5C0 29.96 5.78 36 12.91 36C13.24 36 13.9 36 13.9 36L46.67 35.99L47.17 36C52.93 36 57.6 31.3 57.6 25.5C57.6 19.7 52.93 15 47.17 15C46.63 15 46.1 15.04 45.58 15.12C44.71 6.62 37.98 0 29.79 0C25.04 0 20.78 2.23 17.87 5.77C19.79 6.38 21.59 7.34 23.2 8.62C24.05 9.31 24.2 10.56 23.52 11.43C22.84 12.29 21.59 12.44 20.73 11.76C19.2 10.54 17.44 9.69 15.56 9.28C15.56 9.28 15.32 9.23 15.17 9.21C14.84 9.15 14.34 9.08 14.34 9.08L13.94 9.04C13.94 9.04 13.72 9.03 13.56 9.02ZM13.5 9.01C13.52 9.02 13.54 9.02 13.56 9.02L13.73 9.03L13.5 9.01ZM15.17 9.21C15.18 9.21 15.18 9.21 15.18 9.21L15.15 9.2C15.16 9.2 15.17 9.2 15.17 9.21ZM15.18 9.21L15.29 9.23C15.25 9.22 15.22 9.21 15.18 9.21Z" fill-rule="evenodd"  fill="#FFFFFF" >
</path>
</svg>
