<svg xmlns="http://www.w3.org/2000/svg" xmlns:xlink="http://www.w3.org/1999/xlink" width="57.5999755859375" height="48.5999870300293" viewBox="0 0 57.5999755859375 48.5999870300293" fill="none">
<path d="M22.5599 39.9L22.5599 46.5C22.5599 47.66 23.4999 48.6 24.6599 48.6C25.8199 48.6 26.7599 47.66 26.7599 46.5L26.7599 39.9C26.7599 38.74 25.8199 37.8 24.6599 37.8C23.4999 37.8 22.5599 38.74 22.5599 39.9ZM32.6399 39.9L32.6399 44.7C32.6399 45.86 33.5799 46.8 34.7399 46.8C35.8999 46.8 36.8399 45.86 36.8399 44.7L36.8399 39.9C36.8399 38.74 35.8999 37.8 34.7399 37.8C33.5799 37.8 32.6399 38.74 32.6399 39.9ZM44.3999 39.9L44.3999 46.5C44.3999 47.66 45.3399 48.6 46.4999 48.6C47.6599 48.6 48.5999 47.66 48.5999 46.5L48.5999 39.9C48.5999 38.74 47.6599 37.8 46.4999 37.8C45.3399 37.8 44.3999 38.74 44.3999 39.9ZM10.7999 40.8L10.7999 45.31C10.7999 46.52 11.6999 47.54 12.8999 47.69C12.9799 47.69 13.0499 47.7 13.1299 47.7C14.1599 47.7 14.9999 46.86 14.9999 45.83L14.9999 40.8C14.9999 39.64 14.0599 38.7 12.8999 38.7C11.7399 38.7 10.7999 39.64 10.7999 40.8Z" fill-rule="evenodd"  fill="#00B2D7" >
</path>
<path d="M14.17 9.06C14.02 9.05 13.94 9.04 13.94 9.04L14.17 9.06ZM13.56 9.02L13.33 9.01L12.91 9C5.78 9 0 15.04 0 22.5C0 29.96 5.78 36 12.91 36C13.24 36 13.9 36 13.9 36L46.67 35.99L47.17 36C52.93 36 57.6 31.3 57.6 25.5C57.6 19.7 52.93 15 47.17 15C46.63 15 46.1 15.04 45.58 15.12C44.71 6.62 37.98 0 29.79 0C25.04 0 20.78 2.23 17.87 5.77C19.79 6.38 21.59 7.34 23.2 8.62C24.05 9.31 24.2 10.56 23.52 11.43C22.84 12.29 21.59 12.44 20.73 11.76C19.2 10.54 17.44 9.69 15.56 9.28C15.56 9.28 15.32 9.23 15.17 9.21C14.84 9.15 14.34 9.08 14.34 9.08L13.94 9.04C13.94 9.04 13.72 9.03 13.56 9.02ZM13.5 9.01C13.52 9.02 13.54 9.02 13.56 9.02L13.73 9.03L13.5 9.01ZM15.17 9.21C15.18 9.21 15.18 9.21 15.18 9.21L15.15 9.2C15.16 9.2 15.17 9.2 15.17 9.21ZM15.29 9.23C15.25 9.22 15.22 9.21 15.18 9.21L15.29 9.23Z" fill-rule="evenodd"  fill="#FFFFFF" >
</path>
</svg>
