<svg xmlns="http://www.w3.org/2000/svg" xmlns:xlink="http://www.w3.org/1999/xlink" width="57.600006103515625" height="52.1999626159668" viewBox="0 0 57.600006103515625 52.1999626159668" fill="none">
<path d="M10.7999 49.81L10.7999 43.5C10.7999 42.34 11.7399 41.4 12.8999 41.4C14.0599 41.4 14.9999 42.34 14.9999 43.5L14.9999 50.33C14.9999 51.36 14.1599 52.2 13.1299 52.2C13.0499 52.2 12.9799 52.19 12.8999 52.18C11.6999 52.03 10.7999 51.02 10.7999 49.81ZM19.1999 50.1L19.1999 43.5C19.1999 42.34 20.1399 41.4 21.2999 41.4C22.4599 41.4 23.3999 42.34 23.3999 43.5L23.3999 50.1C23.3999 51.26 22.4599 52.2 21.2999 52.2C20.1399 52.2 19.1999 51.26 19.1999 50.1ZM27.5999 50.1L27.5999 43.5C27.5999 42.34 28.5399 41.4 29.6999 41.4C30.8599 41.4 31.7999 42.34 31.7999 43.5L31.7999 50.1C31.7999 51.26 30.8599 52.2 29.6999 52.2C28.5399 52.2 27.5999 51.26 27.5999 50.1ZM35.9999 50.1L35.9999 43.5C35.9999 42.34 36.9399 41.4 38.0999 41.4C39.2599 41.4 40.1999 42.34 40.1999 43.5L40.1999 50.1C40.1999 51.26 39.2599 52.2 38.0999 52.2C36.9399 52.2 35.9999 51.26 35.9999 50.1ZM44.3999 50.1L44.3999 43.5C44.3999 42.34 45.3399 41.4 46.4999 41.4C47.6599 41.4 48.5999 42.34 48.5999 43.5L48.5999 50.1C48.5999 51.26 47.6599 52.2 46.4999 52.2C45.3399 52.2 44.3999 51.26 44.3999 50.1Z" fill-rule="evenodd"  fill="#00B2D7" >
</path>
<path d="M23.52 11.43C22.84 12.29 21.59 12.44 20.73 11.76C19.2 10.54 17.44 9.69 15.56 9.28C15.56 9.28 15.32 9.23 15.17 9.21C14.84 9.15 14.34 9.08 14.34 9.08L13.94 9.04C13.94 9.04 13.72 9.03 13.56 9.02L13.33 9.01L12.91 9C5.78 9 0 15.04 0 22.5C0 29.96 5.78 36 12.91 36C13.24 36 13.9 36 13.9 36L46.67 35.99L47.17 36C52.93 36 57.6 31.3 57.6 25.5C57.6 19.7 52.93 15 47.17 15C46.63 15 46.1 15.04 45.58 15.12C44.71 6.62 37.98 0 29.79 0C25.04 0 20.78 2.23 17.87 5.77C19.79 6.38 21.59 7.34 23.2 8.62C24.05 9.31 24.2 10.56 23.52 11.43ZM13.73 9.03L13.5 9.01C13.52 9.02 13.54 9.02 13.56 9.02L13.73 9.03ZM14.17 9.06C14.02 9.05 13.94 9.04 13.94 9.04L14.17 9.06ZM15.18 9.21L15.15 9.2C15.16 9.2 15.17 9.2 15.17 9.21C15.18 9.21 15.18 9.21 15.18 9.21ZM15.29 9.23C15.25 9.22 15.22 9.21 15.18 9.21L15.29 9.23Z" fill-rule="evenodd"  fill="#FFFFFF" >
</path>
</svg>
