<svg xmlns="http://www.w3.org/2000/svg" xmlns:xlink="http://www.w3.org/1999/xlink" width="57.5999755859375" height="52.20037841796875" viewBox="0 0 57.5999755859375 52.20037841796875" fill="none">
<path d="M15.17 9.21C14.84 9.15 14.34 9.08 14.34 9.08L13.94 9.04C13.94 9.04 13.72 9.03 13.56 9.02L13.33 9.01L12.91 9C5.78 9 0 15.04 0 22.5C0 29.96 5.78 36 12.91 36C13.24 36 13.9 36 13.9 36L46.67 35.99L47.17 36C52.93 36 57.6 31.3 57.6 25.5C57.6 19.7 52.93 15 47.17 15C46.63 15 46.1 15.04 45.58 15.12C44.71 6.62 37.98 0 29.79 0C25.04 0 20.78 2.23 17.87 5.77C19.79 6.38 21.59 7.34 23.2 8.62C24.05 9.31 24.2 10.56 23.52 11.43C22.84 12.29 21.59 12.44 20.73 11.76C19.2 10.54 17.44 9.69 15.56 9.28C15.56 9.28 15.32 9.23 15.17 9.21ZM13.5 9.01C13.52 9.02 13.54 9.02 13.56 9.02L13.73 9.03L13.5 9.01ZM14.17 9.06C14.02 9.05 13.94 9.04 13.94 9.04L14.17 9.06ZM15.17 9.21C15.18 9.21 15.18 9.21 15.18 9.21L15.15 9.2C15.16 9.2 15.17 9.2 15.17 9.21ZM15.18 9.21L15.29 9.23C15.25 9.22 15.22 9.21 15.18 9.21Z" fill-rule="evenodd"  fill="#FFFFFF" >
</path>
<path d="M15.8496 51.0754C15.8496 51.6964 16.4094 52.2004 17.1006 52.2004C17.79 52.2004 18.3498 51.6964 18.3498 51.0754L18.3498 49.648L19.7241 50.3617C20.3226 50.6722 21.0876 50.4886 21.4323 49.9504C21.777 49.4113 21.5718 48.7246 20.9742 48.4132L19.6008 47.7004L20.9742 46.9867C21.5718 46.6762 21.777 45.9886 21.4323 45.4504C21.0876 44.9113 20.3226 44.7277 19.7241 45.0382L18.3498 45.751L18.3498 44.3254C18.3498 43.7035 17.79 43.2004 17.1006 43.2004C16.4094 43.2004 15.8496 43.7035 15.8496 44.3254L15.8496 45.751L14.4762 45.0382C13.8786 44.7277 13.1136 44.9113 12.7671 45.4504C12.4224 45.9886 12.6276 46.6762 13.2252 46.9867L14.5995 47.7004L13.2252 48.4132C12.6276 48.7246 12.4224 49.4113 12.7671 49.9504C13.1136 50.4886 13.8786 50.6722 14.4762 50.3617L15.8496 49.648L15.8496 51.0754Z"   fill="#FFFFFF" >
</path>
<path d="M40.7743 48.4132L39.4009 47.7004L40.7743 46.9867C41.3719 46.6762 41.5771 45.9886 41.2324 45.4504C40.8877 44.9113 40.1227 44.7277 39.5242 45.0382L38.1499 45.751L38.1499 44.3254C38.1499 43.7035 37.5901 43.2004 36.9007 43.2004C36.2095 43.2004 35.6497 43.7035 35.6497 44.3254L35.6497 45.751L34.2763 45.0382C33.6787 44.7277 32.9137 44.9113 32.5672 45.4504C32.2225 45.9886 32.4277 46.6762 33.0253 46.9867L34.3987 47.7004L33.0253 48.4132C32.4277 48.7246 32.2225 49.4113 32.5672 49.9504C32.9137 50.4886 33.6787 50.6722 34.2763 50.3617L35.6497 49.648L35.6497 51.0754C35.6497 51.6964 36.2095 52.2004 36.9007 52.2004C37.5901 52.2004 38.1499 51.6964 38.1499 51.0754L38.1499 49.648L39.5242 50.3617C40.1227 50.6722 40.8877 50.4886 41.2324 49.9504C41.5771 49.4113 41.3719 48.7246 40.7743 48.4132Z"   fill="#FFFFFF" >
</path>
</svg>
