<svg xmlns="http://www.w3.org/2000/svg" xmlns:xlink="http://www.w3.org/1999/xlink" width="57.5999755859375" height="55.79999923706055" viewBox="0 0 57.5999755859375 55.79999923706055" fill="none">
<path d="M20.7302 11.9157C21.5885 12.6089 22.8384 12.4593 23.5181 11.5837C24.1978 10.7044 24.0538 9.43111 23.1955 8.73427C21.5885 7.43909 19.7914 6.46132 17.8675 5.84474C20.7763 2.26201 25.0445 0 29.7907 0C37.9757 0 44.7149 6.70576 45.5846 15.3233C46.103 15.243 46.633 15.2029 47.1744 15.2029C52.9286 15.2029 57.6 19.9677 57.6 25.8416C57.6 31.7192 52.9286 36.484 47.1744 36.484L46.6733 36.4731L13.9046 36.484L12.9082 36.484C5.77728 36.484 0 30.3583 0 22.8025C0 15.2467 5.77728 9.121 12.9082 9.121L13.3344 9.1283L13.7088 9.14654L14.0429 9.17337L14.1159 9.18L14.0766 9.17607L14.1178 9.17937L14.9818 9.29612L15.2467 9.34355L15.3043 9.3545L15.2582 9.3472L15.3619 9.36909C17.4586 9.83244 19.2038 10.6862 20.7302 11.9157ZM14.0429 9.17337L13.9619 9.166L14.0759 9.17601L14.0429 9.17337ZM13.543 9.137L13.699 9.146L13.497 9.135L13.543 9.137ZM15.0618 48.64L14.9329 48.646C14.2775 48.646 13.7467 48.1652 13.7467 47.5729L13.7467 46.2122L12.4445 46.8929C12.2943 46.9719 12.1322 47.0174 11.9675 47.0312L11.8463 47.0363C11.4392 47.0337 11.0441 46.8423 10.8248 46.4998C10.498 45.9872 10.6917 45.3296 11.26 45.0343L12.5623 44.3544L11.26 43.6727C10.6917 43.3774 10.498 42.7206 10.8248 42.2073C11.0441 41.8647 11.4392 41.6733 11.8463 41.6707L11.9675 41.6758C12.1322 41.6896 12.2943 41.7359 12.4445 41.8149L13.7467 42.4949L13.7467 41.1341C13.7467 40.5418 14.2775 40.061 14.9329 40.061C15.5883 40.061 16.1191 40.5418 16.1191 41.1341L16.1191 42.4949L17.4205 41.8149C17.988 41.5179 18.7133 41.6939 19.041 42.2073C19.3679 42.7206 19.1741 43.3774 18.6067 43.6727L17.3053 44.3544L18.6067 45.0343C19.1741 45.3296 19.3679 45.9872 19.041 46.4998C18.8439 46.808 18.5051 46.9942 18.1416 47.0303L18.0195 47.0363C17.8173 47.038 17.6099 46.9908 17.4205 46.8929L16.1191 46.2122L16.1191 47.5729C16.1191 48.1257 15.6557 48.5808 15.0618 48.64ZM40.1789 47.6081L41.481 46.9283L41.481 48.288C41.481 48.8812 42.0118 49.361 42.6663 49.361C43.3208 49.361 43.8524 48.8812 43.8524 48.288L43.8524 46.9283L45.1537 47.6081C45.7211 47.9043 46.4473 47.7283 46.7741 47.215C47.1009 46.7017 46.9072 46.0459 46.3398 45.7489L45.0376 45.069L46.3398 44.3891C46.9072 44.0921 47.1009 43.4363 46.7741 42.923C46.4473 42.4097 45.7211 42.2337 45.1537 42.5299L43.8524 43.2097L43.8524 41.85C43.8524 41.2568 43.3208 40.777 42.6663 40.777C42.0118 40.777 41.481 41.2568 41.481 41.85L41.481 43.2097L40.1789 42.5299C39.6114 42.2337 38.8861 42.4097 38.5593 42.923C38.2307 43.4363 38.4262 44.0921 38.9928 44.3891L40.2949 45.069L38.9928 45.7489C38.4262 46.0459 38.2307 46.7017 38.5593 47.215C38.8861 47.7283 39.6114 47.9043 40.1789 47.6081ZM29.6303 48.2881C29.6303 47.6958 29.0987 47.215 28.4442 47.215C27.7888 47.215 27.258 47.6958 27.258 48.2881L27.258 49.6488L25.9558 48.9689C25.3892 48.6719 24.6639 48.8479 24.3371 49.3613C24.0094 49.8746 24.2031 50.5314 24.7714 50.8267L26.0728 51.5084L24.7714 52.1883C24.2031 52.4836 24.0094 53.1404 24.3371 53.6538C24.6639 54.1671 25.3892 54.3431 25.9558 54.0461L27.258 53.3662L27.258 54.7269C27.258 55.3192 27.7888 55.8 28.4442 55.8C29.0987 55.8 29.6303 55.3192 29.6303 54.7269L29.6303 53.3662L30.9316 54.0461C31.4991 54.3431 32.2236 54.1671 32.5521 53.6538C32.8789 53.1404 32.6852 52.4836 32.1178 52.1883L30.8156 51.5084L32.1178 50.8267C32.6852 50.5314 32.8789 49.8746 32.5521 49.3613C32.2236 48.8479 31.4991 48.6719 30.9316 48.9689L29.6303 49.6488L29.6303 48.2881Z" fill-rule="evenodd"  fill="#FFFFFF" >
</path>
</svg>
