<svg xmlns="http://www.w3.org/2000/svg" xmlns:xlink="http://www.w3.org/1999/xlink" width="58" height="51.00042724609375" viewBox="0 0 58 51.00042724609375" fill="none">
<path d="M23.57 11.26C22.89 12.1 21.65 12.25 20.79 11.58C19.3 10.43 17.6 9.62 15.74 9.3C14.85 9.1 13.94 9 13 9C5.82 9 0 15.04 0 22.5C0 29.96 5.82 36 13 36C13.33 36 14 36 14 36L47 35.99L47.5 36C53.3 36 58 31.3 58 25.5C58 19.7 53.3 15 47.5 15C46.96 15 46.42 15.04 45.9 15.12C45.03 6.62 38.24 0 30 0C25.22 0 20.92 2.23 17.99 5.77C19.89 6.36 21.66 7.29 23.25 8.52C24.1 9.19 24.25 10.42 23.57 11.26Z"   fill="#FFFFFF" >
</path>
<path d="M32.8799 43.8404C32.2799 43.5304 31.5099 43.7104 31.1699 44.2504C30.8199 44.7904 31.0299 45.4804 31.6299 45.7904L32.9999 46.5004L31.6299 47.2104C31.0299 47.5204 30.8199 48.2104 31.1699 48.7504C31.5099 49.2904 32.2799 49.4704 32.8799 49.1604L34.2499 48.4504L34.2499 49.8704C34.2499 50.5004 34.8099 51.0004 35.4999 51.0004C36.1899 51.0004 36.7499 50.5004 36.7499 49.8704L36.7499 48.4504L38.1199 49.1604C38.7199 49.4704 39.4899 49.2904 39.8299 48.7504C40.1799 48.2104 39.9699 47.5204 39.3699 47.2104L37.9999 46.5004L39.3699 45.7904C39.9699 45.4804 40.1799 44.7904 39.8299 44.2504C39.4899 43.7104 38.7199 43.5304 38.1199 43.8404L36.7499 44.5504L36.7499 43.1304C36.7499 42.5004 36.1899 42.0004 35.4999 42.0004C34.8099 42.0004 34.2499 42.5004 34.2499 43.1304L34.2499 44.5504L32.8799 43.8404Z"   fill="#FFFFFF" >
</path>
<path d="M51.3699 45.7904C51.9699 45.4804 52.1799 44.7904 51.8299 44.2504C51.4899 43.7104 50.7199 43.5304 50.1199 43.8404L48.7499 44.5504L48.7499 43.1304C48.7499 42.5004 48.1899 42.0004 47.4999 42.0004C46.8099 42.0004 46.2499 42.5004 46.2499 43.1304L46.2499 44.5504L44.8799 43.8404C44.2799 43.5304 43.5099 43.7104 43.1699 44.2504C42.8199 44.7904 43.0299 45.4804 43.6299 45.7904L44.9999 46.5004L43.6299 47.2104C43.0299 47.5204 42.8199 48.2104 43.1699 48.7504C43.5099 49.2904 44.2799 49.4704 44.8799 49.1604L46.2499 48.4504L46.2499 49.8704C46.2499 50.5004 46.8099 51.0004 47.4999 51.0004C48.1899 51.0004 48.7499 50.5004 48.7499 49.8704L48.7499 48.4504L50.1199 49.1604C50.7199 49.4704 51.4899 49.2904 51.8299 48.7504C52.1799 48.2104 51.9699 47.5204 51.3699 47.2104L49.9999 46.5004L51.3699 45.7904Z"   fill="#FFFFFF" >
</path>
<path d="M21.2499 43.1304L21.2499 44.5504L19.8799 43.8404C19.2799 43.5304 18.5099 43.7104 18.1699 44.2504C17.8199 44.7904 18.0299 45.4804 18.6299 45.7904L19.9999 46.5004L18.6299 47.2104C18.0299 47.5204 17.8199 48.2104 18.1699 48.7504C18.5099 49.2904 19.2799 49.4704 19.8799 49.1604L21.2499 48.4504L21.2499 49.8704C21.2499 50.5004 21.8099 51.0004 22.4999 51.0004C23.1899 51.0004 23.7499 50.5004 23.7499 49.8704L23.7499 48.4504L25.1199 49.1604C25.7199 49.4704 26.4899 49.2904 26.8299 48.7504C27.1799 48.2104 26.9699 47.5204 26.3699 47.2104L24.9999 46.5004L26.3699 45.7904C26.9699 45.4804 27.1799 44.7904 26.8299 44.2504C26.4899 43.7104 25.7199 43.5304 25.1199 43.8404L23.7499 44.5504L23.7499 43.1304C23.7499 42.5004 23.1899 42.0004 22.4999 42.0004C21.8099 42.0004 21.2499 42.5004 21.2499 43.1304Z"   fill="#FFFFFF" >
</path>
<path d="M10.4999 42.0004C9.80988 42.0004 9.24988 42.5004 9.24988 43.1304L9.24988 44.5504L7.87988 43.8404C7.27988 43.5304 6.50988 43.7104 6.16988 44.2504C5.81988 44.7904 6.02988 45.4804 6.62988 45.7904L7.99988 46.5004L6.62988 47.2104C6.02988 47.5204 5.81988 48.2104 6.16988 48.7504C6.50988 49.2904 7.27988 49.4704 7.87988 49.1604L9.24988 48.4504L9.24988 49.8704C9.24988 50.5004 9.80988 51.0004 10.4999 51.0004C11.1899 51.0004 11.7499 50.5004 11.7499 49.8704L11.7499 48.4504L13.1199 49.1604C13.7199 49.4704 14.4899 49.2904 14.8299 48.7504C15.1799 48.2104 14.9699 47.5204 14.3699 47.2104L12.9999 46.5004L14.3699 45.7904C14.9699 45.4804 15.1799 44.7904 14.8299 44.2504C14.4899 43.7104 13.7199 43.5304 13.1199 43.8404L11.7499 44.5504L11.7499 43.1304C11.7499 42.5004 11.1899 42.0004 10.4999 42.0004Z"   fill="#FFFFFF" >
</path>
</svg>
