<svg xmlns="http://www.w3.org/2000/svg" xmlns:xlink="http://www.w3.org/1999/xlink" width="16" height="16" viewBox="0 0 16 16" fill="none">
<path d="M4.5 12C4.22386 12 4 12.2239 4 12.5C4 12.7761 4.22386 13 4.5 13L15.5 13C15.7761 13 16 12.7761 16 12.5C16 12.2239 15.7761 12 15.5 12L4.5 12ZM0.5 14C0.223858 14 0 14.2239 0 14.5C0 14.7761 0.223858 15 0.5 15L11.5 15C11.7761 15 12 14.7761 12 14.5C12 14.2239 11.7761 14 11.5 14L0.5 14Z" fill-rule="evenodd" style="mix-blend-mode:normal" fill="url(#linear_fill_3Iptqb_izRRoffubZBEbQ)" >
</path>
<path d="M11.7274 8.21748C10.8102 9.3074 9.43597 10 7.89998 10C6.3941 10 5.04371 9.33429 4.12704 8.2811C3.77907 8.42226 3.39862 8.5 3 8.5C1.34315 8.5 0 7.15685 0 5.5C0 3.84315 1.34315 2.5 3 2.5C3.18474 2.5 3.36559 2.5167 3.5411 2.54867C4.39849 1.02737 6.02926 0 7.89998 0C9.78634 0 11.4287 1.04461 12.2802 2.58691C12.5108 2.53012 12.7519 2.5 13 2.5C14.6569 2.5 16 3.84315 16 5.5C16 7.15685 14.6569 8.5 13 8.5C12.545 8.5 12.1137 8.39872 11.7274 8.21748Z"  style="mix-blend-mode:normal" fill="url(#linear_fill_Fn45xdILXmrWgGZVh_riM)" >
</path>
<defs>
<linearGradient id="linear_fill_3Iptqb_izRRoffubZBEbQ" x1="0" y1="13.5" x2="16" y2="13.5" gradientUnits="userSpaceOnUse">
<stop offset="0" stop-color="#B5F7EC"  />
<stop offset="1" stop-color="#FC5162" stop-opacity="0" />
</linearGradient>
<linearGradient id="linear_fill_Fn45xdILXmrWgGZVh_riM" x1="0" y1="5" x2="16" y2="5" gradientUnits="userSpaceOnUse">
<stop offset="0" stop-color="#B5F7EC"  />
<stop offset="1" stop-color="#FC5162" stop-opacity="0" />
</linearGradient>
</defs>
</svg>
