<svg xmlns="http://www.w3.org/2000/svg" xmlns:xlink="http://www.w3.org/1999/xlink" width="16" height="16" viewBox="0 0 16 16" fill="none">
<path d="M0.5 11C0.223858 11 0 11.2239 0 11.5C0 11.7761 0.223858 12 0.5 12L9.5 12C9.77614 12 10 11.7761 10 11.5C10 11.2239 9.77614 11 9.5 11L0.5 11ZM3.5 13C3.22386 13 3 13.2239 3 13.5C3 13.7761 3.22386 14 3.5 14L6.5 14C6.77614 14 7 13.7761 7 13.5C7 13.2239 6.77614 13 6.5 13L3.5 13ZM8 13.5C8 13.2239 8.22386 13 8.5 13L15.5 13C15.7761 13 16 13.2239 16 13.5C16 13.7761 15.7761 14 15.5 14L8.5 14C8.22386 14 8 13.7761 8 13.5ZM4.5 15C4.22386 15 4 15.2239 4 15.5C4 15.7761 4.22386 16 4.5 16L13.5 16C13.7761 16 14 15.7761 14 15.5C14 15.2239 13.7761 15 13.5 15L4.5 15Z" fill-rule="evenodd" style="mix-blend-mode:normal" fill="url(#linear_fill_PLNfeaevPcOZE_WAE_vQ4)" >
</path>
<path d="M11.7274 8.21748C10.8102 9.3074 9.43597 10 7.89998 10C6.3941 10 5.04371 9.33429 4.12704 8.2811C3.77907 8.42226 3.39862 8.5 3 8.5C1.34315 8.5 0 7.15685 0 5.5C0 3.84315 1.34315 2.5 3 2.5C3.18474 2.5 3.36559 2.5167 3.5411 2.54867C4.39849 1.02737 6.02926 0 7.89998 0C9.78634 0 11.4287 1.04461 12.2802 2.58691C12.5108 2.53012 12.7519 2.5 13 2.5C14.6569 2.5 16 3.84315 16 5.5C16 7.15685 14.6569 8.5 13 8.5C12.545 8.5 12.1137 8.39872 11.7274 8.21748Z"  style="mix-blend-mode:normal" fill="url(#linear_fill_IJNldJyXsrR9KbEgMGspa)" >
</path>
<defs>
<linearGradient id="linear_fill_PLNfeaevPcOZE_WAE_vQ4" x1="0" y1="13.5" x2="16" y2="13.5" gradientUnits="userSpaceOnUse">
<stop offset="0" stop-color="#FAA448"  />
<stop offset="1" stop-color="#32B4FA" stop-opacity="0.56" />
</linearGradient>
<linearGradient id="linear_fill_IJNldJyXsrR9KbEgMGspa" x1="0" y1="5" x2="16" y2="5" gradientUnits="userSpaceOnUse">
<stop offset="0" stop-color="#FAA448"  />
<stop offset="1" stop-color="#32B4FA" stop-opacity="0.56" />
</linearGradient>
</defs>
</svg>
