<svg xmlns="http://www.w3.org/2000/svg" xmlns:xlink="http://www.w3.org/1999/xlink" width="16" height="16" viewBox="0 0 16 16" fill="none">
<path d="M12.543 4.487C10.962 4.487 8.667 6.199 7.973 7.375C7.282 6.2 4.987 4.487 3.406 4.487C2.49618 4.5088 1.63095 4.88553 0.995176 5.53672C0.359401 6.18791 0.00349426 7.06191 0.00349426 7.972C0.00349426 8.88209 0.359401 9.75609 0.995176 10.4073C1.63095 11.0585 2.49618 11.4352 3.406 11.457C4.986 11.457 7.282 9.707 7.975 8.551C8.668 9.707 10.963 11.457 12.544 11.457C13.4538 11.4352 14.3191 11.0585 14.9548 10.4073C15.5906 9.75609 15.9465 8.88209 15.9465 7.972C15.9465 7.06191 15.5906 6.18791 14.9548 5.53672C14.3191 4.88553 13.4538 4.5088 12.544 4.487L12.543 4.487Z"  style="mix-blend-mode:normal" fill="url(#linear_fill_fOAK7lW7prY8_HJsf3rvC)" >
</path>
<defs>
<linearGradient id="linear_fill_fOAK7lW7prY8_HJsf3rvC" x1="0.0034942626953125" y1="7.97198486328125" x2="15.943496704101562" y2="7.97198486328125" gradientUnits="userSpaceOnUse">
<stop offset="0" stop-color="#FAA448"  />
<stop offset="1" stop-color="#32B4FA" stop-opacity="0.56" />
</linearGradient>
</defs>
</svg>
