<svg xmlns="http://www.w3.org/2000/svg" xmlns:xlink="http://www.w3.org/1999/xlink" width="16" height="16" viewBox="0 0 16 16" fill="none">
<path    style="mix-blend-mode:normal" fill="url(#linear_fill_lXloSqlqF7BPNneOzvYF6_0)"  d="M14.5556 7.46667L1.00708 7.46667C0.996243 7.47142 0.969924 7.48782 0.932893 7.53719C0.8654 7.62718 0.8 7.78817 0.8 8C0.8 8.21183 0.8654 8.37282 0.932893 8.46281C0.969924 8.51218 0.996243 8.52858 1.00708 8.53333L14.5556 8.53333L15.051 8L14.5556 7.46667ZM15.9143 7.75391C16.0286 7.87696 16.0286 8.12304 15.9143 8.24608L14.3429 9.93792C14.2016 10.09 14 9.94532 14 9.69184L14 9.33333L1 9.33333C0.447715 9.33333 0 8.73638 0 8C0 7.26362 0.447715 6.66667 1 6.66667L14 6.66667L14 6.30817C14 6.05468 14.2016 5.90999 14.3429 6.06208L15.9143 7.75391Z">
</path>
<path d="M10.4618 2.99018C10.8498 3.38001 11.5143 3.46556 11.9777 3.14604C12.4175 2.84275 12.5142 2.28432 12.1547 1.90777C11.6562 1.38576 11.1498 0.97206 10.6354 0.666667C9.91031 0.222222 9.05907 0 8.08172 0C6.82062 0 5.78809 0.354167 4.98414 1.0625C4.19596 1.75694 3.80186 2.61111 3.80186 3.625C3.80186 4.09722 3.90433 4.56944 4.10926 5.04167C4.31419 5.51389 4.63734 5.95833 5.07873 6.375C5.17578 6.46346 5.28953 6.56068 5.41997 6.66667L8.70418 6.66667C7.5465 5.89629 6.79516 5.33379 6.45017 4.97917C6.07184 4.59028 5.88268 4.13889 5.88268 3.625C5.88268 3.09722 6.07972 2.66667 6.47382 2.33333C6.88367 2 7.38023 1.83333 7.96349 1.83333C8.56251 1.83333 9.08271 1.96528 9.5241 2.22917C9.79978 2.38531 10.1124 2.63898 10.4618 2.99018ZM12.0201 9.33333L9.12507 9.33333C9.53139 9.65995 9.85357 9.95856 10.0916 10.2292C10.5803 10.7708 10.8246 11.3472 10.8246 11.9583C10.8246 12.5694 10.533 13.1042 9.94972 13.5625C9.36646 14.0208 8.66497 14.25 7.84526 14.25C6.78502 14.25 5.81174 13.6707 4.9254 12.512C4.6085 12.0977 3.98681 11.9351 3.49532 12.1842C3.03109 12.4195 2.8524 12.9378 3.13631 13.338C4.39552 15.1127 6.04399 16 8.08172 16C9.39011 16 10.533 15.5903 11.5103 14.7708C12.5034 13.9375 13 12.9583 13 11.8333C13 10.9722 12.6847 10.1528 12.0542 9.375C12.0429 9.36113 12.0316 9.34724 12.0201 9.33333Z" fill-rule="evenodd" style="mix-blend-mode:normal" fill="url(#linear_fill_AY6kXUQ8ygsL2DTydeZY6)" >
</path>
<defs>
<linearGradient id="linear_fill_lXloSqlqF7BPNneOzvYF6_0" x1="0" y1="8" x2="16" y2="8" gradientUnits="userSpaceOnUse">
<stop offset="0" stop-color="#AAF736"  />
<stop offset="0.5278" stop-color="#44F9FC" stop-opacity="0.59" />
<stop offset="1" stop-color="#FC44D5" stop-opacity="0.59" />
</linearGradient>
<linearGradient id="linear_fill_AY6kXUQ8ygsL2DTydeZY6" x1="3" y1="8" x2="13" y2="8" gradientUnits="userSpaceOnUse">
<stop offset="0" stop-color="#AAF736"  />
<stop offset="0.5278" stop-color="#44F9FC" stop-opacity="0.59" />
<stop offset="1" stop-color="#FC44D5" stop-opacity="0.59" />
</linearGradient>
</defs>
</svg>
