<svg xmlns="http://www.w3.org/2000/svg" xmlns:xlink="http://www.w3.org/1999/xlink" width="16" height="16" viewBox="0 0 16 16" fill="none">
<path d="M0.25 11C0.111929 11 0 11.1119 0 11.25C0 11.3881 0.111929 11.5 0.25 11.5L9.75 11.5C9.88807 11.5 10 11.3881 10 11.25C10 11.1119 9.88807 11 9.75 11L0.25 11ZM3.25 12.5C3.11193 12.5 3 12.6119 3 12.75C3 12.8881 3.11193 13 3.25 13L6.75 13C6.88807 13 7 12.8881 7 12.75C7 12.6119 6.88807 12.5 6.75 12.5L3.25 12.5ZM10 14.25C10 14.1119 10.1119 14 10.25 14L13.75 14C13.8881 14 14 14.1119 14 14.25C14 14.3881 13.8881 14.5 13.75 14.5L10.25 14.5C10.1119 14.5 10 14.3881 10 14.25ZM8.25 12.5C8.11193 12.5 8 12.6119 8 12.75C8 12.8881 8.11193 13 8.25 13L15.75 13C15.8881 13 16 12.8881 16 12.75C16 12.6119 15.8881 12.5 15.75 12.5L8.25 12.5ZM1 14.25C1 14.1119 1.11193 14 1.25 14L8.75 14C8.88807 14 9 14.1119 9 14.25C9 14.3881 8.88807 14.5 8.75 14.5L1.25 14.5C1.11193 14.5 1 14.3881 1 14.25ZM3.25 15.5C3.11193 15.5 3 15.6119 3 15.75C3 15.8881 3.11193 16 3.25 16L12.75 16C12.8881 16 13 15.8881 13 15.75C13 15.6119 12.8881 15.5 12.75 15.5L3.25 15.5Z" fill-rule="evenodd" style="mix-blend-mode:normal" fill="url(#linear_fill_zpwMXjOenErDwT57OYS2c)" >
</path>
<path d="M10 2.75C10 2.61193 10.1119 2.5 10.25 2.5L15.75 2.5C15.8881 2.5 16 2.61193 16 2.75C16 2.88807 15.8881 3 15.75 3L10.25 3C10.1119 3 10 2.88807 10 2.75ZM8 3.75C8 3.61193 8.11193 3.5 8.25 3.5L13.75 3.5C13.8881 3.5 14 3.61193 14 3.75C14 3.88807 13.8881 4 13.75 4L8.25 4C8.11193 4 8 3.88807 8 3.75ZM10.25 4.5C10.1119 4.5 10 4.61193 10 4.75C10 4.88807 10.1119 5 10.25 5L15.75 5C15.8881 5 16 4.88807 16 4.75C16 4.61193 15.8881 4.5 15.75 4.5L10.25 4.5Z" fill-rule="evenodd" style="mix-blend-mode:normal" fill="url(#linear_fill_iJvtycz2jqHiezpe4ECDN)" >
</path>
<path d="M9 0.121394C8.64605 0.0419308 8.27791 0 7.89998 0C6.10565 0 4.53208 0.945171 3.64997 2.3648C3.58248 2.47342 3.45684 2.53181 3.32971 2.51791C3.22143 2.50607 3.11143 2.5 3 2.5C1.34315 2.5 0 3.84315 0 5.5C0 7.15685 1.34315 8.5 3 8.5C3.3231 8.5 3.63426 8.44892 3.92586 8.35441C4.04774 8.3149 4.18289 8.34663 4.27104 8.43961C5.18224 9.40064 6.47112 10 7.89998 10C9.35312 10 10.6615 9.3801 11.575 8.39032C11.6672 8.29047 11.8124 8.25914 11.9395 8.30718C12.2692 8.4318 12.6267 8.5 13 8.5C14.4865 8.5 15.7205 7.41886 15.9585 6L14.937 6C14.715 6.86261 13.9319 7.5 13 7.5C12.552 7.5 12.1384 7.35271 11.805 7.10391C11.6329 6.97547 11.3674 7.00712 11.2498 7.18684C10.5356 8.27865 9.30203 9 7.89998 9C6.53223 9 5.32481 8.31351 4.60349 7.2663C4.49114 7.10319 4.25573 7.06925 4.08975 7.17731C3.77625 7.38141 3.40197 7.5 3 7.5C1.89543 7.5 1 6.60457 1 5.5C1 4.39543 1.89543 3.5 3 3.5C3.25671 3.5 3.50212 3.54836 3.72762 3.63648C3.9123 3.70864 4.13636 3.62762 4.2135 3.44496C4.82027 2.00827 6.24238 1 7.89998 1C8.28149 1 8.65051 1.05341 9 1.15316L9 0.121394Z"  style="mix-blend-mode:normal" fill="url(#linear_fill_1x_L8AwgdUDnh11R_-TP7)" >
</path>
<defs>
<linearGradient id="linear_fill_zpwMXjOenErDwT57OYS2c" x1="0" y1="13.5" x2="16" y2="13.5" gradientUnits="userSpaceOnUse">
<stop offset="0" stop-color="#FAA448"  />
<stop offset="1" stop-color="#32B4FA" stop-opacity="0.56" />
</linearGradient>
<linearGradient id="linear_fill_iJvtycz2jqHiezpe4ECDN" x1="8" y1="3.75" x2="16" y2="3.75" gradientUnits="userSpaceOnUse">
<stop offset="0" stop-color="#FAA448"  />
<stop offset="1" stop-color="#32B4FA" stop-opacity="0.56" />
</linearGradient>
<linearGradient id="linear_fill_1x_L8AwgdUDnh11R_-TP7" x1="0" y1="5" x2="15.960006713867188" y2="5" gradientUnits="userSpaceOnUse">
<stop offset="0" stop-color="#FAA448"  />
<stop offset="1" stop-color="#32B4FA" stop-opacity="0.56" />
</linearGradient>
</defs>
</svg>
