<svg xmlns="http://www.w3.org/2000/svg" xmlns:xlink="http://www.w3.org/1999/xlink" width="18" height="18" viewBox="0 0 18 18" fill="none">
<path d="M9 1C8.7345 1.00006 8.46917 1.01341 8.205 1.04C7.9935 1.06292 7.783 1.09427 7.574 1.134C7.531 1.142 7.487 1.145 7.444 1.154C5.62733 1.51332 3.99165 2.49191 2.81607 3.92279C1.64049 5.35366 0.997866 7.14814 0.997866 9C0.997866 10.8519 1.64049 12.6463 2.81607 14.0772C3.99165 15.5081 5.62733 16.4867 7.444 16.846C7.487 16.855 7.531 16.858 7.574 16.866C7.782 16.903 7.991 16.939 8.205 16.96C9.284 17.0683 10.3738 16.9561 11.4081 16.6302C12.4424 16.3044 13.3996 15.7716 14.2216 15.0643C15.0437 14.3571 15.7133 13.49 16.1899 12.516C16.6665 11.5419 16.9401 10.4811 16.9941 9.398C17.048 8.31492 16.8812 7.23218 16.5038 6.21556C16.1263 5.19894 15.5462 4.26967 14.7985 3.48421C14.0508 2.69875 13.1512 2.0735 12.1544 1.64645C11.1576 1.2194 10.0844 0.999459 9 1L9 1ZM9 16.5C8.4387 16.5003 7.87916 16.4372 7.332 16.312C8.60182 15.5602 9.65394 14.4906 10.3848 13.2085C11.1156 11.9265 11.4999 10.4762 11.4999 9.0005C11.4999 7.52479 11.1156 6.07452 10.3848 4.79249C9.65394 3.51045 8.60182 2.44085 7.332 1.689C8.36155 1.45339 9.42925 1.43789 10.4652 1.6435C11.5012 1.84912 12.482 2.27122 13.3435 2.88217C14.2051 3.49312 14.9278 4.27914 15.4645 5.18877C16.0013 6.0984 16.3398 7.11113 16.458 8.16066C16.5762 9.2102 16.4714 10.2729 16.1504 11.2791C15.8295 12.2853 15.2996 13.2124 14.5956 13.9997C13.8915 14.7869 13.0291 15.4166 12.0648 15.8475C11.1006 16.2784 10.0562 16.5007 9 16.5L9 16.5Z"  style="mix-blend-mode:normal" fill="url(#linear_fill_hI1IJ9TPbEGblwVa3cfU9)" >
</path>
<path fill-rule="evenodd" transform="translate(1, 1)" fill="url(#linear_border_RNOQ2ugCilJ6ww327Yvqb_0)"  d="M-1 17L-1 -1L17 -1L17 17L-1 17ZM16 16L0 16L0 0L16 0L16 16Z">
</path>
<defs>
<linearGradient id="linear_border_RNOQ2ugCilJ6ww327Yvqb_0" x1="0" y1="0" x2="0" y2="0" gradientUnits="userSpaceOnUse">
</linearGradient>
<linearGradient id="linear_fill_hI1IJ9TPbEGblwVa3cfU9" x1="0.99786376953125" y1="9" x2="17.00787353515625" y2="9" gradientUnits="userSpaceOnUse">
<stop offset="0" stop-color="#CBFA20"  />
<stop offset="1" stop-color="#EF32FC" stop-opacity="0" />
</linearGradient>
</defs>
</svg>
