<svg xmlns="http://www.w3.org/2000/svg" xmlns:xlink="http://www.w3.org/1999/xlink" width="18" height="18" viewBox="0 0 18 18" fill="none">
<path d="M9 1C8.64364 1.00267 8.28785 1.02907 7.935 1.079C6.04621 1.33121 4.3097 2.25 3.03861 3.66967C1.76753 5.08934 1.04552 6.91646 1.00281 8.82154C0.960093 10.7266 1.59948 12.5843 2.80565 14.0595C4.01183 15.5347 5.70542 16.5304 7.581 16.867L7.582 16.867C8.04974 16.9537 8.52431 16.9982 9 17C11.1217 17 13.1566 16.1571 14.6569 14.6569C16.1571 13.1566 17 11.1217 17 9C17 6.87827 16.1571 4.84344 14.6569 3.34315C13.1566 1.84285 11.1217 1 9 1L9 1ZM9 16.5C8.7578 16.4995 8.51579 16.4862 8.275 16.46C9.1286 13.8946 9.54276 11.2034 9.5 8.5C9.51981 6.14074 9.21461 3.78999 8.593 1.514C8.734 1.504 8.868 1.5 9 1.5C10.9891 1.5 12.8968 2.29018 14.3033 3.6967C15.7098 5.10322 16.5 7.01088 16.5 9C16.5 10.9891 15.7098 12.8968 14.3033 14.3033C12.8968 15.7098 10.9891 16.5 9 16.5Z"  style="mix-blend-mode:normal" fill="url(#linear_fill_DRxSXAbnRhfZ7shJxNcKZ)" >
</path>
<path fill-rule="evenodd" transform="translate(1, 1)" fill="url(#linear_border_H--pwTaSvCR4Aj_dVxnVg_0)"  d="M-1 17L-1 -1L17 -1L17 17L-1 17ZM16 16L0 16L0 0L16 0L16 16Z">
</path>
<defs>
<linearGradient id="linear_border_H--pwTaSvCR4Aj_dVxnVg_0" x1="0" y1="0" x2="0" y2="0" gradientUnits="userSpaceOnUse">
</linearGradient>
<linearGradient id="linear_fill_DRxSXAbnRhfZ7shJxNcKZ" x1="1.00079345703125" y1="9" x2="17.00079345703125" y2="9" gradientUnits="userSpaceOnUse">
<stop offset="0" stop-color="#CBFA20"  />
<stop offset="1" stop-color="#EF32FC" stop-opacity="0" />
</linearGradient>
</defs>
</svg>
