<svg xmlns="http://www.w3.org/2000/svg" xmlns:xlink="http://www.w3.org/1999/xlink" width="18" height="18" viewBox="0 0 18 18" fill="none">
<path d="M9 1C7.41775 1 5.87103 1.46919 4.55544 2.34824C3.23985 3.22729 2.21447 4.47672 1.60897 5.93853C1.00347 7.40034 0.84504 9.00887 1.15372 10.5607C1.4624 12.1126 2.22433 13.538 3.34315 14.6569C4.46197 15.7757 5.88743 16.5376 7.43928 16.8463C8.99113 17.155 10.5997 16.9965 12.0615 16.391C13.5233 15.7855 14.7727 14.7602 15.6518 13.4446C16.5308 12.129 17 10.5823 17 9C17 6.87827 16.1572 4.84344 14.6569 3.34315C13.1566 1.84285 11.1217 1 9 1L9 1ZM9 16C8.6827 15.9984 8.36591 15.9743 8.052 15.928C7.9638 15.9153 7.88077 15.8787 7.812 15.822C6.87255 14.9581 6.13135 13.901 5.63937 12.7233C5.14739 11.5457 4.9163 10.2755 4.962 9C4.9178 7.7357 5.1446 6.47658 5.6272 5.30717C6.10979 4.13776 6.83701 3.08515 7.76 2.22C7.86234 2.13465 7.98686 2.0802 8.119 2.063C8.41094 2.02239 8.70526 2.00134 9 2C10.8565 2 12.637 2.7375 13.9498 4.05025C15.2625 5.36301 16 7.14348 16 9C16 10.8565 15.2625 12.637 13.9498 13.9497C12.637 15.2625 10.8565 16 9 16Z"  style="mix-blend-mode:normal" fill="url(#linear_fill_8mbsU9erztvNlMGvB7mik)" >
</path>
<path fill-rule="evenodd" transform="translate(1, 1)" fill="url(#linear_border_f06GOTD2VcNVzoyVLl-az_0)"  d="M-1 17L-1 -1L17 -1L17 17L-1 17ZM16 16L0 16L0 0L16 0L16 16Z">
</path>
<defs>
<linearGradient id="linear_border_f06GOTD2VcNVzoyVLl-az_0" x1="0" y1="0" x2="0" y2="0" gradientUnits="userSpaceOnUse">
</linearGradient>
<linearGradient id="linear_fill_8mbsU9erztvNlMGvB7mik" x1="1" y1="9" x2="17" y2="9" gradientUnits="userSpaceOnUse">
<stop offset="0" stop-color="#CBFA20"  />
<stop offset="1" stop-color="#EF32FC" stop-opacity="0" />
</linearGradient>
</defs>
</svg>
