<svg xmlns="http://www.w3.org/2000/svg" xmlns:xlink="http://www.w3.org/1999/xlink" width="18" height="18" viewBox="0 0 18 18" fill="none">
<path d="M9 2C10.3845 2 11.7379 2.41054 12.889 3.17971C14.0401 3.94888 14.9373 5.04213 15.4672 6.32122C15.997 7.6003 16.1356 9.00776 15.8655 10.3656C15.5954 11.7235 14.9287 12.9708 13.9498 13.9497C12.9708 14.9287 11.7235 15.5954 10.3656 15.8655C9.00777 16.1356 7.6003 15.997 6.32122 15.4672C5.04214 14.9373 3.94889 14.0401 3.17972 12.889C2.41055 11.7378 2 10.3845 2 9C2.00212 7.14413 2.7403 5.36489 4.05259 4.05259C5.36489 2.7403 7.14414 2.00212 9 2ZM9 1C7.41775 1 5.87103 1.46919 4.55544 2.34824C3.23985 3.22729 2.21447 4.47672 1.60897 5.93853C1.00347 7.40034 0.84504 9.00887 1.15372 10.5607C1.4624 12.1126 2.22433 13.538 3.34315 14.6569C4.46197 15.7757 5.88743 16.5376 7.43928 16.8463C8.99113 17.155 10.5997 16.9965 12.0615 16.391C13.5233 15.7855 14.7727 14.7602 15.6518 13.4446C16.5308 12.129 17 10.5823 17 9C17 6.87827 16.1572 4.84344 14.6569 3.34315C13.1566 1.84285 11.1217 1 9 1L9 1Z"  style="mix-blend-mode:normal" fill="url(#linear_fill_Soad7w30EGdo28qM-fxyv)" >
</path>
<path fill-rule="evenodd" transform="translate(1, 1)" fill="url(#linear_border_FkSZQztizhndOTyVQ0ym2_0)"  d="M-1 17L-1 -1L17 -1L17 17L-1 17ZM16 16L0 16L0 0L16 0L16 16Z">
</path>
<defs>
<linearGradient id="linear_border_FkSZQztizhndOTyVQ0ym2_0" x1="0" y1="0" x2="0" y2="0" gradientUnits="userSpaceOnUse">
</linearGradient>
<linearGradient id="linear_fill_Soad7w30EGdo28qM-fxyv" x1="1" y1="9" x2="17" y2="9" gradientUnits="userSpaceOnUse">
<stop offset="0" stop-color="#CBFA20"  />
<stop offset="1" stop-color="#EF32FC" stop-opacity="0" />
</linearGradient>
</defs>
</svg>
