<svg xmlns="http://www.w3.org/2000/svg" xmlns:xlink="http://www.w3.org/1999/xlink" width="18" height="18" viewBox="0 0 18 18" fill="none">
<path d="M1 9C1 10.5823 1.46919 12.129 2.34824 13.4446C3.22729 14.7602 4.47672 15.7855 5.93853 16.391C7.40034 16.9965 9.00887 17.155 10.5607 16.8463C12.1126 16.5376 13.538 15.7757 14.6569 14.6569C15.7757 13.538 16.5376 12.1126 16.8463 10.5607C17.155 9.00887 16.9965 7.40034 16.391 5.93853C15.7855 4.47672 14.7602 3.22729 13.4446 2.34824C12.129 1.46919 10.5823 1 9 1C6.87827 1 4.84344 1.84285 3.34315 3.34315C1.84285 4.84344 1 6.87827 1 9L1 9ZM2 9C2.00212 7.14413 2.7403 5.36489 4.05259 4.05259C5.36489 2.7403 7.14413 2.00212 9 2C9.29474 2.00134 9.58906 2.02239 9.881 2.063C10.0135 2.08002 10.1384 2.13448 10.241 2.22C11.1635 3.08542 11.8901 4.13815 12.3722 5.30755C12.8543 6.47694 13.0806 7.73593 13.036 9C13.0818 10.2754 12.8509 11.5456 12.3591 12.7232C11.8673 13.9009 11.1263 14.958 10.187 15.822C10.1182 15.8787 10.0352 15.9153 9.947 15.928C9.63342 15.9743 9.31697 15.9983 9 16C7.14413 15.9979 5.36489 15.2597 4.05259 13.9474C2.7403 12.6351 2.00212 10.8559 2 9L2 9Z"  style="mix-blend-mode:normal" fill="url(#linear_fill_nazaWmS8pnaziJKBmxatT)" >
</path>
<path fill-rule="evenodd" transform="translate(1, 1)" fill="url(#linear_border_PtBEhPUPhs2rI8YJiS9KB_0)"  d="M-1 17L-1 -1L17 -1L17 17L-1 17ZM16 16L0 16L0 0L16 0L16 16Z">
</path>
<defs>
<linearGradient id="linear_border_PtBEhPUPhs2rI8YJiS9KB_0" x1="0" y1="0" x2="0" y2="0" gradientUnits="userSpaceOnUse">
</linearGradient>
<linearGradient id="linear_fill_nazaWmS8pnaziJKBmxatT" x1="1" y1="9" x2="17" y2="9" gradientUnits="userSpaceOnUse">
<stop offset="0" stop-color="#CBFA20"  />
<stop offset="1" stop-color="#EF32FC" stop-opacity="0" />
</linearGradient>
</defs>
</svg>
