<svg xmlns="http://www.w3.org/2000/svg" xmlns:xlink="http://www.w3.org/1999/xlink" width="18" height="18" viewBox="0 0 18 18" fill="none">
<path d="M9 1C8.64364 1.00267 8.28785 1.02907 7.935 1.079C6.04621 1.33121 4.3097 2.25 3.03861 3.66967C1.76753 5.08934 1.04552 6.91646 1.00281 8.82154C0.960093 10.7266 1.59948 12.5843 2.80565 14.0595C4.01183 15.5347 5.70542 16.5304 7.581 16.867L7.582 16.867C8.04974 16.9537 8.52431 16.9982 9 17C11.1217 17 13.1566 16.1571 14.6569 14.6569C16.1571 13.1566 17 11.1217 17 9C17 6.87827 16.1571 4.84344 14.6569 3.34315C13.1566 1.84285 11.1217 1 9 1L9 1ZM2 9C2.00263 7.28243 2.63592 5.62564 3.77962 4.34423C4.92332 3.06283 6.49777 2.24605 8.204 2.049C8.74615 4.15606 9.0137 6.32435 9 8.5C9.03198 11.0105 8.67198 13.5105 7.933 15.91C6.28276 15.6544 4.77809 14.8178 3.69025 13.5508C2.60242 12.2838 2.00298 10.6699 2 9L2 9Z"  style="mix-blend-mode:normal" fill="url(#linear_fill_yNI_xdIk9jP2j-_uZkprh)" >
</path>
<path fill-rule="evenodd" transform="translate(1, 1)" fill="url(#linear_border_BxXcmQvF4zyNoW_MvSnk3_0)"  d="M-1 17L-1 -1L17 -1L17 17L-1 17ZM16 16L0 16L0 0L16 0L16 16Z">
</path>
<defs>
<linearGradient id="linear_border_BxXcmQvF4zyNoW_MvSnk3_0" x1="0" y1="0" x2="0" y2="0" gradientUnits="userSpaceOnUse">
</linearGradient>
<linearGradient id="linear_fill_yNI_xdIk9jP2j-_uZkprh" x1="1.0008544921875" y1="9" x2="17.0008544921875" y2="9" gradientUnits="userSpaceOnUse">
<stop offset="0" stop-color="#CBFA20"  />
<stop offset="1" stop-color="#EF32FC" stop-opacity="0" />
</linearGradient>
</defs>
</svg>
