<svg xmlns="http://www.w3.org/2000/svg" xmlns:xlink="http://www.w3.org/1999/xlink" width="18" height="18" viewBox="0 0 18 18" fill="none">
<path d="M10.555 1.154C10.513 1.145 10.47 1.142 10.426 1.134C10.217 1.09427 10.0065 1.06291 9.795 1.04C8.716 0.931695 7.62624 1.04389 6.59194 1.36977C5.55764 1.69565 4.60039 2.22841 3.77835 2.93567C2.95632 3.64294 2.28665 4.50996 1.81005 5.48403C1.33345 6.45811 1.05987 7.51892 1.00592 8.602C0.951967 9.68508 1.11878 10.7678 1.49622 11.7844C1.87366 12.8011 2.45384 13.7303 3.20152 14.5158C3.94921 15.3012 4.84877 15.9265 5.84557 16.3536C6.84236 16.7806 7.91558 17.0005 9 17C9.2655 16.9999 9.53083 16.9866 9.795 16.96C10.009 16.939 10.218 16.903 10.426 16.866C10.469 16.858 10.513 16.855 10.556 16.846C12.3727 16.4867 14.0084 15.5081 15.1839 14.0772C16.3595 12.6463 17.0021 10.8519 17.0021 9C17.0021 7.14814 16.3595 5.35366 15.1839 3.92279C14.0084 2.49191 12.3727 1.51332 10.556 1.154L10.555 1.154ZM10.668 16.312C9.63867 16.5469 8.57135 16.5619 7.53585 16.3558C6.50035 16.1498 5.52001 15.7275 4.65898 15.1165C3.79794 14.5055 3.0756 13.7196 2.53923 12.8102C2.00285 11.9008 1.66453 10.8884 1.54638 9.83928C1.42823 8.79012 1.53293 7.72784 1.85362 6.72193C2.17431 5.71602 2.70376 4.78915 3.40735 4.00196C4.11094 3.21477 4.97279 2.585 5.93654 2.15386C6.90029 1.72271 7.94421 1.4999 9 1.5C9.56135 1.49987 10.1209 1.56328 10.668 1.689C9.39818 2.44085 8.34606 3.51045 7.61524 4.79249C6.88442 6.07452 6.50008 7.52479 6.50008 9.0005C6.50008 10.4762 6.88442 11.9265 7.61524 13.2085C8.34606 14.4906 9.39818 15.5602 10.668 16.312L10.668 16.312Z"  style="mix-blend-mode:normal" fill="url(#linear_fill_alP2zUEjsWIbDE-Wx0fyy)" >
</path>
<path fill-rule="evenodd" transform="translate(1, 1)" fill="url(#linear_border_PpWcXgkzgRnM1XIsIqsI1_0)"  d="M-1 17L-1 -1L17 -1L17 17L-1 17ZM16 16L0 16L0 0L16 0L16 16Z">
</path>
<defs>
<linearGradient id="linear_border_PpWcXgkzgRnM1XIsIqsI1_0" x1="0" y1="0" x2="0" y2="0" gradientUnits="userSpaceOnUse">
</linearGradient>
<linearGradient id="linear_fill_alP2zUEjsWIbDE-Wx0fyy" x1="0.9959716796875" y1="9" x2="17.0059814453125" y2="9" gradientUnits="userSpaceOnUse">
<stop offset="0" stop-color="#CBFA20"  />
<stop offset="1" stop-color="#EF32FC" stop-opacity="0" />
</linearGradient>
</defs>
</svg>
