<svg xmlns="http://www.w3.org/2000/svg" xmlns:xlink="http://www.w3.org/1999/xlink" width="16" height="16" viewBox="0 0 16 16" fill="none">
<path d="M4.9 2.5C4 2.8 3.7 3.6 3.8 4.1C3.1 3.3 3.1 2.4 3.2 1C1.1 1.8 1.6 4.2 1.5 5C1 4.5 0.9 3.5 0.9 3.5C0.3 3.8 0 4.6 0 5.3C0 6.9 1.3 8 2.8 8C4.3 8 5.5 6.8 5.5 5.3C5.5 4.2 4.9 3.9 4.9 2.5Z"  style="mix-blend-mode:normal" fill="url(#linear_fill_ELawg1lioGWx7qPeVmq41)" >
</path>
<path d="M11.5 3C11.2239 3 11 3.22386 11 3.5L11 9.56301C10.1374 9.78503 9.5 10.5681 9.5 11.5C9.5 12.6046 10.3954 13.5 11.5 13.5C12.6046 13.5 13.5 12.6046 13.5 11.5C13.5 10.5681 12.8626 9.78503 12 9.56301L12 3.5C12 3.22386 11.7761 3 11.5 3Z"  style="mix-blend-mode:normal" fill="url(#linear_fill_MCkjXlgFKHOAXFDA9mfO3)" >
</path>
<path d="M10.2 8.39855L9.66751 8.75498C8.7801 9.349 8.2 10.357 8.2 11.5C8.2 13.3225 9.67746 14.8 11.5 14.8C13.3225 14.8 14.8 13.3225 14.8 11.5C14.8 10.357 14.2199 9.349 13.3325 8.75498L12.8 8.39855L12.8 2.5C12.8 1.78203 12.218 1.2 11.5 1.2C10.782 1.2 10.2 1.78203 10.2 2.5L10.2 8.39855ZM9 2.5C9 1.11929 10.1193 0 11.5 0C12.8807 0 14 1.11929 14 2.5L14 7.75777C15.206 8.56504 16 9.93979 16 11.5C16 13.9853 13.9853 16 11.5 16C9.01472 16 7 13.9853 7 11.5C7 9.93979 7.79401 8.56504 9 7.75777L9 2.5Z"  style="mix-blend-mode:normal" fill="url(#linear_fill_GBjQQBEenDQDl7yEkTDx3)" >
</path>
<defs>
<linearGradient id="linear_fill_ELawg1lioGWx7qPeVmq41" x1="0" y1="4.5" x2="5.5" y2="4.5" gradientUnits="userSpaceOnUse">
<stop offset="0" stop-color="#FFBA44"  />
<stop offset="1" stop-color="#5CC1EB"  />
</linearGradient>
<linearGradient id="linear_fill_MCkjXlgFKHOAXFDA9mfO3" x1="9.5" y1="8.25" x2="13.5" y2="8.25" gradientUnits="userSpaceOnUse">
<stop offset="0" stop-color="#FFBA44"  />
<stop offset="1" stop-color="#5CC1EB"  />
</linearGradient>
<linearGradient id="linear_fill_GBjQQBEenDQDl7yEkTDx3" x1="7" y1="8" x2="16" y2="8" gradientUnits="userSpaceOnUse">
<stop offset="0" stop-color="#FFBA44"  />
<stop offset="1" stop-color="#5CC1EB"  />
</linearGradient>
</defs>
</svg>
