<svg xmlns="http://www.w3.org/2000/svg" xmlns:xlink="http://www.w3.org/1999/xlink" width="57.5999755859375" height="52.20501708984375" viewBox="0 0 57.5999755859375 52.20501708984375" fill="none">
<path d="M20.73 12.07C21.59 12.78 22.84 12.63 23.52 11.74C24.2 10.85 24.05 9.56 23.2 8.85C21.59 7.54 19.79 6.55 17.87 5.92C20.78 2.29 25.04 0 29.79 0C37.98 0 44.71 6.8 45.58 15.53C46.1 15.45 46.63 15.41 47.17 15.41C52.93 15.41 57.6 20.24 57.6 26.19C57.6 32.15 52.93 36.98 47.17 36.98L46.67 36.96L13.9 36.98L12.91 36.98C5.78 36.98 0 30.77 0 23.11C0 15.45 5.78 9.24 12.91 9.24L13.33 9.25L13.54 9.26L13.5872 9.264L14.13 9.31L14.92 9.41L14.9965 9.42275L14.9665 9.419L15.0865 9.439L15.0715 9.43525L15.1 9.44C15.3 9.48 15.56 9.54 15.56 9.54C17.44 9.96 19.2 10.82 20.73 12.07ZM15.0715 9.43525L15.0465 9.429L14.9965 9.42275L15.0715 9.43525ZM13.8205 9.282L13.7505 9.272C13.7705 9.272 13.8005 9.272 13.8205 9.282ZM14.0305 9.292C13.9605 9.292 13.8905 9.282 13.8205 9.282L13.9205 9.282L14.0305 9.292ZM14.0905 9.302C14.0705 9.302 14.0505 9.302 14.0305 9.292L14.0905 9.302ZM14.0905 9.302L14.1305 9.302L14.1905 9.312C14.1605 9.312 14.1205 9.302 14.0905 9.302ZM25.3667 46.765L24.0567 47.625C23.4967 48.005 23.2967 48.835 23.6267 49.485C23.9567 50.135 24.6767 50.355 25.2467 49.975L26.5467 49.115L26.5467 50.845C26.5467 51.595 27.0767 52.205 27.7367 52.205C28.3867 52.205 28.9167 51.595 28.9167 50.845L28.9167 49.115L30.2167 49.975C30.7867 50.355 31.5167 50.135 31.8367 49.485C32.1667 48.835 31.9767 48.005 31.4067 47.625L30.1067 46.765L31.4067 45.905C31.9767 45.525 32.1667 44.695 31.8367 44.045C31.5167 43.395 30.7867 43.175 30.2167 43.545L28.9167 44.405L28.9167 42.685C28.9167 41.935 28.3867 41.325 27.7367 41.325C27.0767 41.325 26.5467 41.935 26.5467 42.685L26.5467 44.405L25.2467 43.545C24.6767 43.175 23.9567 43.395 23.6267 44.045C23.2967 44.695 23.4967 45.525 24.0567 45.905L25.3667 46.765Z" fill-rule="evenodd"  fill="#FFFFFF" >
</path>
</svg>
