<svg xmlns="http://www.w3.org/2000/svg" xmlns:xlink="http://www.w3.org/1999/xlink" width="63.9200439453125" height="72" viewBox="0 0 63.9200439453125 72" fill="none">
<path d="M20.92 62.9998L20.92 70.0002C20.92 71.1046 21.8148 72 22.92 72C24.0252 72 24.92 71.1046 24.92 70.0002L24.92 62.9998C24.92 61.8954 24.0252 61 22.92 61C21.8148 61 20.92 61.8954 20.92 62.9998ZM34.92 70.0002L34.92 62.9998C34.92 61.8954 35.8148 61 36.92 61C38.0252 61 38.92 61.8954 38.92 62.9998L38.92 70.0002C38.92 71.1046 38.0252 72 36.92 72C35.8148 72 34.92 71.1046 34.92 70.0002ZM48.92 62.9998L48.92 70.0002C48.92 71.1046 49.8148 72 50.92 72C52.0252 72 52.92 71.1046 52.92 70.0002L52.92 62.9998C52.92 61.8954 52.0252 61 50.92 61C49.8148 61 48.92 61.8954 48.92 62.9998Z" fill-rule="evenodd"  fill="#00B2D7" >
</path>
<path d="M52.9165 57.9899C53.0876 57.9977 53.418 58.0016 53.418 58.0016C59.2177 58.0016 63.92 53.0759 63.92 46.9997C63.92 40.9235 59.2177 36.0017 53.418 36.0017C52.8811 36.0017 51.8309 36.1265 51.8309 36.1265C50.9695 27.0668 43.9544 20 35.4171 20C30.5496 20 26.1718 22.301 23.151 25.9631C24.9564 26.6456 26.6497 27.6791 28.166 29.0285C29.0274 29.7929 29.169 31.1891 28.4905 32.1563C27.812 33.1196 26.5671 33.2834 25.7057 32.519C24.2248 31.2047 22.5315 30.2843 20.7202 29.8124C20.6494 29.9684 20.5786 30.1283 20.5078 30.2882C19.67 30.0971 18.8086 29.9996 17.9177 29.9996C10.7374 29.9996 4.92004 36.4931 4.92004 44.4998C4.92004 52.5065 10.7374 59 17.9177 59C19.5992 59 21.1981 58.6451 22.6731 58.0016L52.9165 57.9899Z"   fill="#FFFFFF" >
</path>
<path d="M4.31007 31.553C7.48123 27.1419 12.585 24.2706 18.3685 24.2706L19.0269 24.2895L19.091 24.1885C22.7249 18.7456 28.633 15.2653 35.1959 15.0161L35.591 15.0066C33.9574 6.4589 26.4441 0 17.4182 0C16.8167 0 16.2188 0.0283977 15.6316 0.0851931C17.6923 2.69463 18.9202 5.96036 18.9202 9.50061C18.9202 18.0609 11.7557 24.9994 2.91846 24.9994C1.92191 24.9994 0.946721 24.9111 0 24.7439C0.925366 27.3281 2.41307 29.6472 4.31007 31.553Z"   fill="#757A9D" >
</path>
</svg>
