<svg xmlns="http://www.w3.org/2000/svg" xmlns:xlink="http://www.w3.org/1999/xlink" width="47" height="47" viewBox="0 0 47 47" fill="none">
<path d="M5 6C3.34 6 2 4.66 2 3C2 1.34 3.34 0 5 0C6.66 0 8 1.34 8 3C8 4.66 6.66 6 5 6ZM24 6C22.34 6 21 4.66 21 3C21 1.34 22.34 0 24 0C25.66 0 27 1.34 27 3C27 4.66 25.66 6 24 6ZM44 6C42.34 6 41 4.66 41 3C41 1.34 42.34 0 44 0C45.66 0 47 1.34 47 3C47 4.66 45.66 6 44 6ZM2 44C2 45.66 3.34 47 5 47C6.66 47 8 45.66 8 44C8 42.34 6.66 41 5 41C3.34 41 2 42.34 2 44ZM21 44C21 45.66 22.34 47 24 47C25.66 47 27 45.66 27 44C27 42.34 25.66 41 24 41C22.34 41 21 42.34 21 44ZM44 47C42.34 47 41 45.66 41 44C41 42.34 42.34 41 44 41C45.66 41 47 42.34 47 44C47 45.66 45.66 47 44 47Z" fill-rule="evenodd"  fill="#757A9D" >
</path>
<path d="M12 11C17.43 11 22.02 14.76 23.5 19.92C24.98 14.76 29.57 11 35 11C41.63 11 47 16.6 47 23.5C47 30.41 41.63 36 35 36C29.57 36 24.98 32.24 23.5 27.08C22.02 32.24 17.43 36 12 36C5.37 36 0 30.41 0 23.5C0 16.6 5.37 11 12 11ZM6 23.5C6 27.09 8.69 30 12 30C15.31 30 18 27.09 18 23.5C18 19.91 15.31 17 12 17C8.69 17 6 19.91 6 23.5ZM29 23.5C29 27.09 31.69 30 35 30C38.31 30 41 27.09 41 23.5C41 19.91 38.31 17 35 17C31.69 17 29 19.91 29 23.5Z" fill-rule="evenodd"  fill="#FFFFFF" >
</path>
</svg>
