<svg xmlns="http://www.w3.org/2000/svg" xmlns:xlink="http://www.w3.org/1999/xlink" width="57.28498840332031" height="35.910003662109375" viewBox="0 0 57.28498840332031 35.910003662109375" fill="none">
<path d="M13.8286 35.91L12.8376 35.91C5.74569 35.91 0 29.8807 0 22.4438C0 15.0068 5.74569 8.9775 12.8376 8.9775C13.7656 8.9775 14.6707 9.08164 15.5414 9.27555C18.1479 3.77055 23.4811 0 29.6278 0C37.768 0 44.4703 6.60026 45.3354 15.0858C45.8509 15.0032 46.3779 14.9637 46.9164 14.9637C52.6392 14.9637 57.285 19.6535 57.285 25.4351C57.285 31.2202 52.6392 35.91 46.9164 35.91L46.418 35.8992L13.8286 35.91ZM31.6555 19.9191C33.0382 18.7023 33.8864 17.9156 34.2025 17.5554C34.934 16.5781 35.299 15.3526 35.299 13.8753C35.299 12.0396 34.7073 10.6025 33.5213 9.56571C32.3557 8.50974 30.7965 7.98 28.8397 7.98C26.6671 7.98 24.9397 8.60764 23.6546 9.86467Q21.729 11.7214 21.729 15.0729C21.8131 16.0746 22.5337 16.7565 23.4117 16.7565C24.3358 16.7565 25.0849 16.0029 25.0916 15.0729C25.1066 13.7948 25.3535 12.8175 25.8475 12.1392C26.3998 11.3228 27.3293 10.9136 28.6334 10.9136C29.6607 10.9136 30.4504 11.1916 31.0027 11.7511C31.5564 12.349 31.8332 13.127 31.8332 14.0851C31.8332 14.8438 31.5659 15.5501 31.0326 16.2092L30.6771 16.6288C28.7406 18.3632 27.5858 19.6307 27.2099 20.4296C26.815 21.2076 26.6183 22.1832 26.6183 23.3615L26.6183 23.7794C26.6223 24.7042 27.3741 25.463 28.3023 25.463C29.2251 25.463 30.0135 24.7112 30.0243 23.7794L30.0243 23.3615C30.0243 22.6622 30.1736 22.0154 30.4694 21.4157C30.7463 20.8387 31.1412 20.3387 31.6555 19.9191ZM26.8812 27.807C26.4458 28.226 26.229 28.7642 26.229 29.423C26.229 30.081 26.4458 30.6201 26.8812 31.0381C27.3552 31.4769 27.8981 31.697 28.5108 31.697C29.1621 31.697 29.7059 31.4869 30.1399 31.0689C30.5951 30.649 30.822 30.1009 30.822 29.423C30.822 28.7841 30.6038 28.2458 30.1698 27.807C29.7348 27.3881 29.1818 27.178 28.5108 27.178C27.8779 27.178 27.335 27.3881 26.8812 27.807Z" fill-rule="evenodd"  fill="#FFFFFF" >
</path>
</svg>
