<svg xmlns="http://www.w3.org/2000/svg" xmlns:xlink="http://www.w3.org/1999/xlink" width="57.5999755859375" height="48.60197448730469" viewBox="0 0 57.5999755859375 48.60197448730469" fill="none">
<path d="M10.7999 41.4004L10.7999 46.5108C10.7999 47.5541 11.5671 48.439 12.5999 48.5858C12.6741 48.5957 12.7479 48.602 12.8228 48.602C13.694 48.602 14.3999 47.8962 14.3999 47.0239L14.3999 41.4004C14.3999 40.4057 13.5939 39.6 12.5999 39.6C11.606 39.6 10.7999 40.4057 10.7999 41.4004Z"   fill="#00B2D7" >
</path>
<path d="M44.9999 39.6003L44.9999 46.7996C44.9999 47.7943 45.8059 48.6 46.7999 48.6C47.7938 48.6 48.5999 47.7943 48.5999 46.7996L48.5999 39.6003C48.5999 38.6057 47.7938 37.8 46.7999 37.8C45.8059 37.8 44.9999 38.6057 44.9999 39.6003Z"   fill="#00B2D7" >
</path>
<path d="M21.5999 39.6003L21.5999 46.7996C21.5999 47.7943 22.4059 48.6 23.3999 48.6C24.3938 48.6 25.1999 47.7943 25.1999 46.7996L25.1999 39.6003C25.1999 38.6057 24.3938 37.8 23.3999 37.8C22.4059 37.8 21.5999 38.6057 21.5999 39.6003Z"   fill="#00B2D7" >
</path>
<path d="M32.3999 41.4L32.3999 46.8C32.3999 47.7936 33.2059 48.6 34.1999 48.6C35.1939 48.6 35.9999 47.7936 35.9999 46.8L35.9999 41.4C35.9999 40.4064 35.1939 39.6 34.1999 39.6C33.2059 39.6 32.3999 40.4064 32.3999 41.4Z"   fill="#00B2D7" >
</path>
<path d="M15.1737 9.20621C15.1762 9.20664 15.1787 9.20707 15.1812 9.2075L15.1488 9.2016C15.1567 9.20304 15.165 9.20458 15.1737 9.20621ZM14.3366 9.0828L13.9392 9.0432C13.9392 9.0432 13.7197 9.02674 13.5643 9.01777L13.3344 9.0072L12.9082 9C5.77728 9 0 15.0444 0 22.5C0 29.9556 5.77728 36 12.9082 36C13.2422 36 13.9046 36 13.9046 36L46.6733 35.9892L47.1744 36C52.9286 36 57.6 31.2984 57.6 25.4988C57.6 19.7028 52.9286 15.0012 47.1744 15.0012C46.633 15.0012 46.103 15.0408 45.5846 15.12C44.7149 6.6168 37.9757 0 29.7907 0C25.0445 0 20.7763 2.232 17.8675 5.7672C19.7856 6.3756 21.5885 7.3404 23.1955 8.6184C24.0538 9.306 24.1978 10.5624 23.5181 11.43C22.8384 12.294 21.5885 12.4416 20.7302 11.7576C19.1981 10.5372 17.4413 9.6948 15.5635 9.2844C15.5635 9.2844 15.3177 9.23319 15.1737 9.20621C14.84 9.14858 14.3366 9.0828 14.3366 9.0828ZM14.1696 9.0612C14.0198 9.0468 13.9392 9.0432 13.9392 9.0432L14.1696 9.0612ZM13.5014 9.0144C13.5205 9.01531 13.5417 9.01646 13.5643 9.01777L13.7261 9.0252L13.5014 9.0144ZM15.287 9.2268C15.2547 9.22055 15.2191 9.21408 15.1812 9.2075L15.287 9.2268Z" fill-rule="evenodd"  fill="#FFFFFF" >
</path>
</svg>
