<svg xmlns="http://www.w3.org/2000/svg" xmlns:xlink="http://www.w3.org/1999/xlink" width="58" height="53.00042724609375" viewBox="0 0 58 53.00042724609375" fill="none">
<path d="M12 51.0002L12 43.9998C12 42.8954 12.8948 42 14 42C15.1052 42 16 42.8954 16 43.9998L16 51.0002C16 52.1046 15.1052 53 14 53C12.8948 53 12 52.1046 12 51.0002ZM40 51.0002L40 43.9998C40 42.8954 40.8948 42 42 42C43.1052 42 44 42.8954 44 43.9998L44 51.0002C44 52.1046 43.1052 53 42 53C40.8948 53 40 52.1046 40 51.0002Z" fill-rule="evenodd"  fill="#00B2D7" >
</path>
<path d="M0 22.5C0 29.9556 5.8174 36 12.9978 36C13.3342 36 14.0012 36 14.0012 36L46.9974 35.9892L47.502 36C53.2962 36 58 31.2984 58 25.4988C58 19.7028 53.2962 15.0012 47.502 15.0012C46.9568 15.0012 46.4232 15.0408 45.9012 15.1236C45.0254 6.6168 38.2394 0 29.9976 0C25.2184 0 20.9206 2.232 17.9916 5.7672C19.8882 6.3612 21.663 7.2936 23.2464 8.5248C24.1048 9.1908 24.2498 10.4184 23.5712 11.2608C22.8926 12.1032 21.6456 12.2472 20.7872 11.5776C19.3024 10.4256 17.5972 9.6156 15.7354 9.2988C14.8538 9.1044 13.9374 9 12.9978 9C5.8174 9 0 15.0444 0 22.5Z"   fill="#FFFFFF" >
</path>
<path d="M24.8764 44.2466C24.2788 43.8671 23.5138 44.0926 23.1673 44.7504C22.8226 45.4071 23.0278 46.2486 23.6254 46.6281L24.9988 47.5004L23.6254 48.3716C23.0278 48.7511 22.8226 49.5926 23.1673 50.2504C23.5138 50.9071 24.2788 51.1337 24.8764 50.7531L26.2498 49.8819L26.2498 51.6254C26.2498 52.3844 26.8096 53.0004 27.5008 53.0004C28.1902 53.0004 28.75 52.3844 28.75 51.6254L28.75 49.8819L30.1243 50.7531C30.7228 51.1337 31.4878 50.9071 31.8325 50.2504C32.1772 49.5926 31.972 48.7511 31.3744 48.3716L30.001 47.5004L31.3744 46.6281C31.972 46.2486 32.1772 45.4071 31.8325 44.7504C31.4878 44.0926 30.7228 43.8671 30.1243 44.2466L28.75 45.1189L28.75 43.3754C28.75 42.6153 28.1902 42.0004 27.5008 42.0004C26.8096 42.0004 26.2498 42.6153 26.2498 43.3754L26.2498 45.1189L24.8764 44.2466Z"   fill="#FFFFFF" >
</path>
</svg>
