<svg xmlns="http://www.w3.org/2000/svg" xmlns:xlink="http://www.w3.org/1999/xlink" width="47" height="38" viewBox="0 0 47 38" fill="none">
<path d="M0 2.89C0 1.29 1.29 0 2.89 0L7.11 0C8.71 0 10 1.29 10 2.89L10 3.11C10 4.71 8.71 6 7.11 6L2.89 6C1.29 6 0 4.71 0 3.11L0 2.89ZM13 2.89C13 1.29 14.29 0 15.89 0L19.11 0C20.71 0 22 1.29 22 2.89L22 3.11C22 4.71 20.71 6 19.11 6L15.89 6C14.29 6 13 4.71 13 3.11L13 2.89ZM25 2.89C25 1.29 26.29 0 27.88 0L44.11 0C45.71 0 47 1.29 47 2.89L47 3.11C47 4.71 45.71 6 44.11 6L27.88 6C26.29 6 25 4.71 25 3.11L25 2.89ZM0 13.89C0 12.29 1.29 11 2.89 11L44.11 11C45.71 11 47 12.29 47 13.89L47 14.11C47 15.71 45.71 17 44.11 17L2.89 17C1.29 17 0 15.71 0 14.11L0 13.89ZM0 23.89C0 22.29 1.29 21 2.89 21L22.12 21C23.71 21 25 22.29 25 23.89L25 24.11C25 25.71 23.71 27 22.12 27L2.89 27C1.29 27 0 25.71 0 24.11L0 23.89ZM28 23.89C28 22.29 29.29 21 30.88 21L44.11 21C45.71 21 47 22.29 47 23.89L47 24.11C47 25.71 45.71 27 44.11 27L30.88 27C29.29 27 28 25.71 28 24.11L28 23.89ZM0 34.89C0 33.29 1.29 32 2.88 32L35.12 32C36.71 32 38 33.29 38 34.89L38 35.11C38 36.71 36.71 38 35.12 38L2.88 38C1.29 38 0 36.71 0 35.11L0 34.89ZM41 34.78C41 33.24 42.24 32 43.78 32L44.22 32C45.76 32 47 33.24 47 34.78L47 35.22C47 36.76 45.76 38 44.22 38L43.78 38C42.24 38 41 36.76 41 35.22L41 34.78Z" fill-rule="evenodd"  fill="#FFFFFF" >
</path>
</svg>
