<svg xmlns="http://www.w3.org/2000/svg" xmlns:xlink="http://www.w3.org/1999/xlink" width="54" height="63.00042724609375" viewBox="0 0 54 63.00042724609375" fill="none">
<path d="M23.5698 56.2504C23.2198 56.7904 23.4298 57.4804 24.0298 57.7904L25.3998 58.5004L24.0298 59.2104C23.4298 59.5204 23.2198 60.2104 23.5698 60.7504C23.9098 61.2904 24.6798 61.4704 25.2798 61.1604L26.6498 60.4504L26.6498 61.8704C26.6498 62.5004 27.2098 63.0004 27.8998 63.0004C28.5898 63.0004 29.1498 62.5004 29.1498 61.8704L29.1498 60.4504L30.5198 61.1604C31.1198 61.4704 31.8898 61.2904 32.2298 60.7504C32.5798 60.2104 32.3698 59.5204 31.7698 59.2104L30.3998 58.5004L31.7698 57.7904C32.3698 57.4804 32.5798 56.7904 32.2298 56.2504C31.8898 55.7104 31.1198 55.5304 30.5198 55.8404L29.1498 56.5504L29.1498 55.1304C29.1498 54.5004 28.5898 54.0004 27.8998 54.0004C27.2098 54.0004 26.6498 54.5004 26.6498 55.1304L26.6498 56.5504L25.2798 55.8404C24.6798 55.5304 23.9098 55.7104 23.5698 56.2504Z"   fill="#FFFFFF" >
</path>
<path d="M21.366 2.7C21.366 4.19 20.176 5.4 18.696 5.4C17.226 5.4 16.026 4.19 16.026 2.7C16.026 1.21 17.226 0 18.696 0C20.176 0 21.366 1.21 21.366 2.7ZM31.4378 5.7985C32.4778 4.7485 34.1778 4.7485 35.2178 5.7985C36.2578 6.8585 36.2578 8.5585 35.2178 9.6185C34.1778 10.6685 32.4778 10.6685 31.4378 9.6185C30.3978 8.5585 30.3978 6.8585 31.4378 5.7985ZM8.6248 6.6985C9.6648 7.7585 9.6648 9.4585 8.6248 10.5185C7.5848 11.5685 5.8948 11.5685 4.8448 10.5185C3.8048 9.4585 3.8048 7.7585 4.8448 6.6985C5.8948 5.6485 7.5848 5.6485 8.6248 6.6985ZM13.873 22.51C13.693 22.5 13.523 22.5 13.353 22.5C11.583 22.5 9.883 22.82 8.303 23.4C8.113 22.53 8.013 21.63 8.013 20.7C8.013 13.74 13.593 8.1 20.473 8.1C25.193 8.1 29.303 10.75 31.413 14.65C30.463 14.49 29.483 14.4 28.493 14.4C22.533 14.4 17.133 17.52 13.873 22.51ZM2.67 18C4.15 18 5.34 19.21 5.34 20.7C5.34 22.19 4.15 23.4 2.67 23.4C1.2 23.4 0 22.19 0 20.7C0 19.21 1.2 18 2.67 18Z" fill-rule="evenodd"  fill="#D8B63A" >
</path>
<path d="M14.44 26.14L14.68 26.16C14.55 26.15 14.44 26.14 14.44 26.14ZM13.98 26.11L14.3 26.13L13.91 26.11L13.5 26.1C7.03999 26.1 1.79999 31.54 1.79999 38.25C1.79999 44.96 7.03999 50.4 13.5 50.4C13.8 50.4 14.4 50.4 14.4 50.4L44.1 50.39L44.55 50.4C49.77 50.4 54 46.17 54 40.95C54 35.73 49.77 31.5 44.55 31.5C44.06 31.5 43.58 31.54 43.11 31.61C42.32 23.96 36.22 18 28.8 18C24.5 18 20.63 20.01 17.99 23.19C19.73 23.74 21.36 24.61 22.82 25.76C23.6 26.38 23.73 27.51 23.11 28.29C22.5 29.06 21.36 29.2 20.59 28.58C19.18 27.47 17.57 26.71 15.85 26.35L15.61 26.3L15.25 26.24L14.84 26.18L14.44 26.14C14.44 26.14 14.13 26.12 13.98 26.11ZM15.06 26.21L15.25 26.24L15.46 26.27C15.33 26.25 15.19 26.23 15.06 26.21Z" fill-rule="evenodd"  fill="#FFFFFF" >
</path>
</svg>
