<svg xmlns="http://www.w3.org/2000/svg" xmlns:xlink="http://www.w3.org/1999/xlink" width="62.99951171875" height="57" viewBox="0 0 62.99951171875 57" fill="none">
<path d="M22.8342 0L22.9216 0.352C23.2142 1.6736 23.3738 3.04 23.3738 4.4448C23.3738 15.2672 14.0752 24.0416 2.6106 24.0416C1.7252 24.0416 0.855 23.9904 0 23.888C1.1666 27.0816 3.2414 29.8784 5.9356 32C9.2378 28.3744 13.9194 26.1056 19.1368 26.1056L19.2926 26.1056L19.7258 25.4944C23.5182 20.3328 29.3436 17.0688 35.7694 16.8416L36.4876 16.8288C36.993 16.8288 37.4984 16.848 38 16.8896C37.5136 8.6048 31.1904 1.7856 22.8342 0Z"   fill="#757A9D" >
</path>
<path d="M34.9971 21C30.2179 21 25.9201 23.232 22.9911 26.7672C24.9283 27.3792 26.7379 28.3404 28.3561 29.6184C29.2203 30.306 29.3653 31.5624 28.6809 32.43C27.9965 33.294 26.7379 33.4416 25.8737 32.7576C24.3425 31.5444 22.5793 30.7056 20.4275 30.234L19.8881 30.1404L19.4067 30.0792L18.8789 30.0324L18.5367 30.0108L17.9973 30C10.8169 30 4.99951 36.0444 4.99951 43.5C4.99951 50.9556 10.8169 57 17.9973 57C18.3337 57 19.0007 57 19.0007 57L51.9969 56.9892L52.5015 57C58.2957 57 62.9995 52.2984 62.9995 46.4988C62.9995 40.7028 58.2957 36.0012 52.5015 36.0012C51.9563 36.0012 51.4227 36.0408 50.9007 36.1236C50.0249 27.6168 43.2389 21 34.9971 21Z"   fill="#FFFFFF" >
</path>
</svg>
