<svg xmlns="http://www.w3.org/2000/svg" xmlns:xlink="http://www.w3.org/1999/xlink" width="47" height="41" viewBox="0 0 47 41" fill="none">
<path d="M0 25.97C0 24.33 1.33 23 2.97 23L44.03 23C45.67 23 47 24.33 47 25.97L47 26.03C47 27.67 45.67 29 44.03 29L2.97 29C1.33 29 0 27.67 0 26.03L0 25.97ZM0 37.97C0 36.33 1.33 35 2.97 35L44.03 35C45.67 35 47 36.33 47 37.97L47 38.03C47 39.67 45.67 41 44.03 41L2.97 41C1.33 41 0 39.67 0 38.03L0 37.97Z" fill-rule="evenodd"  fill="#FFFFFF" >
</path>
<path d="M4.99982 6C3.33982 6 1.99982 4.66 1.99982 3C1.99982 1.34 3.33982 0 4.99982 0C6.65982 0 7.99982 1.34 7.99982 3C7.99982 4.66 6.65982 6 4.99982 6ZM17.9998 6C16.3398 6 14.9998 4.66 14.9998 3C14.9998 1.34 16.3398 0 17.9998 0C19.6598 0 20.9998 1.34 20.9998 3C20.9998 4.66 19.6598 6 17.9998 6ZM30.9998 6C29.3398 6 27.9998 4.66 27.9998 3C27.9998 1.34 29.3398 0 30.9998 0C32.6598 0 33.9998 1.34 33.9998 3C33.9998 4.66 32.6598 6 30.9998 6ZM43.9998 6C42.3398 6 40.9998 4.66 40.9998 3C40.9998 1.34 42.3398 0 43.9998 0C45.6598 0 46.9998 1.34 46.9998 3C46.9998 4.66 45.6598 6 43.9998 6ZM4.99982 18C3.33982 18 1.99982 16.66 1.99982 15C1.99982 13.34 3.33982 12 4.99982 12C6.65982 12 7.99982 13.34 7.99982 15C7.99982 16.66 6.65982 18 4.99982 18ZM17.9998 18C16.3398 18 14.9998 16.66 14.9998 15C14.9998 13.34 16.3398 12 17.9998 12C19.6598 12 20.9998 13.34 20.9998 15C20.9998 16.66 19.6598 18 17.9998 18ZM30.9998 18C29.3398 18 27.9998 16.66 27.9998 15C27.9998 13.34 29.3398 12 30.9998 12C32.6598 12 33.9998 13.34 33.9998 15C33.9998 16.66 32.6598 18 30.9998 18ZM43.9998 18C42.3398 18 40.9998 16.66 40.9998 15C40.9998 13.34 42.3398 12 43.9998 12C45.6598 12 46.9998 13.34 46.9998 15C46.9998 16.66 45.6598 18 43.9998 18Z" fill-rule="evenodd"  fill="#757A9D" >
</path>
</svg>
