<svg xmlns="http://www.w3.org/2000/svg" xmlns:xlink="http://www.w3.org/1999/xlink" width="52.20001220703125" height="61.20001220703125" viewBox="0 0 52.20001220703125 61.20001220703125" fill="none">
<path d="M14.4005 53.89L14.4005 59.51C14.4005 60.44 15.1505 61.2 16.0905 61.2C17.0205 61.2 17.7805 60.44 17.7805 59.51L17.7805 53.89C17.7805 52.96 17.0205 52.2 16.0905 52.2C15.1505 52.2 14.4005 52.96 14.4005 53.89ZM26.2125 59.51L26.2125 53.89C26.2125 52.96 26.9725 52.2 27.9025 52.2C28.8325 52.2 29.5925 52.96 29.5925 53.89L29.5925 59.51C29.5925 60.44 28.8325 61.2 27.9025 61.2C26.9725 61.2 26.2125 60.44 26.2125 59.51ZM38.0255 53.89L38.0255 59.51C38.0255 60.44 38.7855 61.2 39.7155 61.2C40.6455 61.2 41.3955 60.44 41.3955 59.51L41.3955 53.89C41.3955 52.96 40.6455 52.2 39.7155 52.2C38.7855 52.2 38.0255 52.96 38.0255 53.89Z" fill-rule="evenodd"  fill="#00B2D7" >
</path>
<path d="M21.366 2.7C21.366 4.19 20.176 5.4 18.696 5.4C17.226 5.4 16.026 4.19 16.026 2.7C16.026 1.21 17.226 0 18.696 0C20.176 0 21.366 1.21 21.366 2.7ZM31.4378 5.7985C32.4778 4.7485 34.1778 4.7485 35.2178 5.7985C36.2578 6.8585 36.2578 8.5585 35.2178 9.6185C34.1778 10.6685 32.4778 10.6685 31.4378 9.6185C30.3978 8.5585 30.3978 6.8585 31.4378 5.7985ZM8.6248 6.6985C9.6648 7.7585 9.6648 9.4585 8.6248 10.5185C7.5848 11.5685 5.8948 11.5685 4.8448 10.5185C3.8048 9.4585 3.8048 7.7585 4.8448 6.6985C5.8948 5.6485 7.5848 5.6485 8.6248 6.6985ZM13.873 22.51C13.693 22.5 13.523 22.5 13.353 22.5C11.583 22.5 9.883 22.82 8.303 23.4C8.113 22.53 8.013 21.63 8.013 20.7C8.013 13.74 13.593 8.1 20.473 8.1C25.193 8.1 29.303 10.75 31.413 14.65C30.463 14.49 29.483 14.4 28.493 14.4C22.533 14.4 17.133 17.52 13.873 22.51ZM2.67 18C4.15 18 5.34 19.21 5.34 20.7C5.34 22.19 4.15 23.4 2.67 23.4C1.2 23.4 0 22.19 0 20.7C0 19.21 1.2 18 2.67 18Z" fill-rule="evenodd"  fill="#D8B63A" >
</path>
<path d="M18.79 28.58C17.38 27.47 15.77 26.71 14.05 26.35L13.81 26.3L13.45 26.24L13.04 26.18L12.64 26.14C12.64 26.14 12.33 26.12 12.18 26.11L12.5 26.13L12.11 26.11L11.7 26.1C5.24 26.1 0 31.54 0 38.25C0 44.96 5.24 50.4 11.7 50.4C12 50.4 12.6 50.4 12.6 50.4L42.3 50.39L42.75 50.4C47.97 50.4 52.2 46.17 52.2 40.95C52.2 35.73 47.97 31.5 42.75 31.5C42.26 31.5 41.78 31.54 41.31 31.61C40.52 23.96 34.42 18 27 18C22.7 18 18.83 20.01 16.19 23.19C17.93 23.74 19.56 24.61 21.02 25.76C21.8 26.38 21.93 27.51 21.31 28.29C20.7 29.06 19.56 29.2 18.79 28.58ZM13.66 26.27C13.53 26.25 13.39 26.23 13.26 26.21L13.45 26.24L13.66 26.27ZM12.64 26.14L12.88 26.16C12.75 26.15 12.64 26.14 12.64 26.14Z" fill-rule="evenodd"  fill="#FFFFFF" >
</path>
</svg>
