<svg xmlns="http://www.w3.org/2000/svg" xmlns:xlink="http://www.w3.org/1999/xlink" width="52" height="47" viewBox="0 0 52 47" fill="none">
<path d="M5.99988 5.4996C5.99988 7.4323 7.56718 8.9996 9.49988 8.9996C11.4326 8.9996 12.9999 7.4323 12.9999 5.4996C12.9999 3.5669 11.4326 1.9996 9.49988 1.9996C7.56718 1.9996 5.99988 3.5669 5.99988 5.4996Z"   fill="#757A9D" >
</path>
<path d="M23.2128 10.6704C23.1648 10.6672 23.0688 10.6656 23.0688 10.6656L2.8544 10.6656C1.2768 10.6656 0 11.8496 0 13.3568C0 14.816 1.2768 16 2.8544 16L23.0688 16C23.0688 16 23.1648 15.9984 23.3568 16C28.1312 16 32 12.4176 32 8C32 3.5808 28.1312 0 23.3568 0C20.5856 0 18.0256 1.2208 16.4064 3.2448C15.4624 4.4272 15.7312 6.0976 17.0112 6.9744C18.288 7.8496 20.0928 7.6016 21.04 6.4176C21.5808 5.7376 22.432 5.3328 23.3568 5.3328C24.9504 5.3328 26.24 6.5264 26.24 8C26.24 9.472 24.9504 10.6656 23.2128 10.6704ZM43.3836 10C48.1416 10 52 13.5808 52 18C52 22.4176 48.1416 26 43.3836 26L2.8444 26C1.274 26 0 24.816 0 23.3568C0 21.8496 1.274 20.6656 2.8444 20.6656L43.2432 20.6704C44.9696 20.6656 46.2592 19.472 46.2592 18C46.2592 16.5264 44.9696 15.3328 43.3836 15.3328C42.4632 15.3328 41.6156 15.7376 41.0748 16.4176C40.1284 17.6016 38.3344 17.8496 37.0604 16.9744C35.7812 16.0976 35.516 14.4272 36.4572 13.2448C38.0692 11.2208 40.6224 10 43.3836 10ZM27.0655 36.3328C27.3023 36.3328 27.5391 36.3056 27.7611 36.2528C27.9868 36.3056 28.2199 36.3328 28.4604 36.3328C30.0329 36.3328 31.3094 37.5264 31.3094 39C31.3094 40.472 30.0329 41.6656 28.4604 41.6656C27.5465 41.6656 26.7066 41.2608 26.1701 40.5824C25.2377 39.3984 23.4543 39.1488 22.1889 40.0256C20.9272 40.9008 20.6608 42.5712 21.5932 43.7552C23.1916 45.7792 25.7224 47 28.4604 47C33.1779 47 37 43.4176 37 39C37 34.5808 33.1779 31 28.4604 31C28.2199 31 27.9868 31.0288 27.7611 31.0816C27.5391 31.0288 27.3023 31 27.0655 31L2.8194 31C1.2617 31 0 32.1824 0 33.6896C0 35.1504 1.2617 36.3328 2.8194 36.3328L27.0655 36.3328Z" fill-rule="evenodd"  fill="#FFFFFF" >
</path>
<path d="M3.99988 43.4996C3.99988 45.4323 5.56718 46.9996 7.49988 46.9996C9.43258 46.9996 10.9999 45.4323 10.9999 43.4996C10.9999 41.5669 9.43258 39.9996 7.49988 39.9996C5.56718 39.9996 3.99988 41.5669 3.99988 43.4996Z"   fill="#757A9D" >
</path>
</svg>
