<svg xmlns="http://www.w3.org/2000/svg" xmlns:xlink="http://www.w3.org/1999/xlink" width="58" height="52.00018310546875" viewBox="0 0 58 52.00018310546875" fill="none">
<path d="M23.2599 44.1202C23.0099 43.9502 22.9299 43.5802 23.0699 43.2902C23.1099 43.2102 23.1599 43.1502 23.2199 43.1002L28.6299 38.1102C28.8599 37.9202 29.1899 37.9802 29.3499 38.2602C29.4299 38.3802 29.4599 38.5402 29.4399 38.6902L28.6499 45.0602L30.7399 45.8802C30.9899 46.0502 31.0699 46.4202 30.9299 46.7102C30.8899 46.7902 30.8399 46.8502 30.7799 46.9002L25.3699 51.8902C25.1399 52.0802 24.8099 52.0202 24.6499 51.7402C24.5699 51.6102 24.5399 51.4602 24.5599 51.3102L25.3499 44.9402L23.2599 44.1202ZM11 42L11 48C11 49.11 11.89 50 13 50C14.11 50 15 49.11 15 48L15 42C15 40.9 14.11 40 13 40C11.89 40 11 40.9 11 42ZM39 42L39 48C39 49.11 39.89 50 41 50C42.11 50 43 49.11 43 48L43 42C43 40.9 42.11 40 41 40C39.89 40 39 40.9 39 42Z" fill-rule="evenodd"  fill="#00B2D7" >
</path>
<path d="M47.5 36C53.3 36 58 31.3 58 25.5C58 19.7 53.3 15 47.5 15C46.96 15 46.42 15.04 45.9 15.12C45.03 6.62 38.24 0 30 0C25.22 0 20.92 2.23 17.99 5.77C19.89 6.36 21.66 7.29 23.25 8.52C24.1 9.19 24.25 10.42 23.57 11.26C22.89 12.1 21.65 12.25 20.79 11.58C19.3 10.43 17.6 9.62 15.74 9.3C14.85 9.1 13.94 9 13 9C5.82 9 0 15.04 0 22.5C0 29.96 5.82 36 13 36C13.33 36 14 36 14 36L47 35.99L47.5 36Z"   fill="#FFFFFF" >
</path>
</svg>
