<svg xmlns="http://www.w3.org/2000/svg" xmlns:xlink="http://www.w3.org/1999/xlink" width="55.79998779296875" height="41.40231704711914" viewBox="0 0 55.79998779296875 41.40231704711914" fill="none">
<path d="M49.99 18.3503C49.99 15.5503 47.82 13.2803 45.14 13.2803C43.53 13.2803 42.23 11.9203 42.23 10.2403C42.23 8.56032 43.53 7.20032 45.14 7.20032C51.02 7.20032 55.8 12.1903 55.8 18.3503C55.8 24.3903 51.21 29.3003 45.49 29.5003L2.97 29.5003C1.33 29.5003 0 28.1803 0 26.5403C0 24.8803 1.33 23.5603 2.97 23.5603L44.28 23.5603C44.55 23.4703 44.84 23.4203 45.14 23.4203C47.82 23.4203 49.99 21.1503 49.99 18.3503ZM4.525 38.4323C4.525 36.7823 5.855 35.4523 7.495 35.4523L36.245 35.4523C37.885 35.4523 39.215 36.7823 39.215 38.4223C39.215 40.0723 37.885 41.4023 36.245 41.4023L7.495 41.4023C5.855 41.4023 4.525 40.0723 4.525 38.4323Z" fill-rule="evenodd"  fill="#FFFFFF" >
</path>
<path d="M14.4002 15.3C14.4002 16.79 15.6102 18 17.1002 18C18.5902 18 19.8002 16.79 19.8002 15.3C19.8002 13.81 18.5902 12.6 17.1002 12.6C15.6102 12.6 14.4002 13.81 14.4002 15.3Z"   fill="#757A9D" >
</path>
<path d="M5.40021 15.3C5.40021 16.79 6.61021 18 8.10021 18C9.59021 18 10.8002 16.79 10.8002 15.3C10.8002 13.81 9.59021 12.6 8.10021 12.6C6.61021 12.6 5.40021 13.81 5.40021 15.3Z"   fill="#757A9D" >
</path>
<path d="M23.4002 15.3C23.4002 16.79 24.6102 18 26.1002 18C27.5902 18 28.8002 16.79 28.8002 15.3C28.8002 13.81 27.5902 12.6 26.1002 12.6C24.6102 12.6 23.4002 13.81 23.4002 15.3Z"   fill="#757A9D" >
</path>
<path d="M34.2002 15.3C34.2002 16.79 35.4102 18 36.9002 18C38.3902 18 39.6002 16.79 39.6002 15.3C39.6002 13.81 38.3902 12.6 36.9002 12.6C35.4102 12.6 34.2002 13.81 34.2002 15.3Z"   fill="#757A9D" >
</path>
<path d="M21.6002 2.7C21.6002 4.19 22.8102 5.4 24.3002 5.4C25.7902 5.4 27.0002 4.19 27.0002 2.7C27.0002 1.21 25.7902 0 24.3002 0C22.8102 0 21.6002 1.21 21.6002 2.7Z"   fill="#757A9D" >
</path>
<path d="M10.8002 2.7C10.8002 4.19 12.0102 5.4 13.5002 5.4C14.9902 5.4 16.2002 4.19 16.2002 2.7C16.2002 1.21 14.9902 0 13.5002 0C12.0102 0 10.8002 1.21 10.8002 2.7Z"   fill="#757A9D" >
</path>
<path d="M30.6002 2.7C30.6002 4.19 31.8102 5.4 33.3002 5.4C34.7902 5.4 36.0002 4.19 36.0002 2.7C36.0002 1.21 34.7902 0 33.3002 0C31.8102 0 30.6002 1.21 30.6002 2.7Z"   fill="#757A9D" >
</path>
</svg>
