<svg xmlns="http://www.w3.org/2000/svg" xmlns:xlink="http://www.w3.org/1999/xlink" width="55.79998779296875" height="45" viewBox="0 0 55.79998779296875 45" fill="none">
<path d="M0 2.97C0 1.33 1.33 0 2.96 0L42.28 0C43.91 0 45.24 1.33 45.24 2.97L45.24 3.03C45.24 4.67 43.91 6 42.28 6L2.96 6C1.33 6 0 4.67 0 3.03L0 2.97ZM18.097 13.5C18.097 11.84 19.197 10.5 21.117 10.5L52.787 10.5C54.697 10.5 55.797 11.84 55.797 13.5C55.797 15.16 54.697 16.5 52.787 16.5L21.117 16.5C19.197 16.5 18.097 15.16 18.097 13.5ZM7.54 22.47C7.54 20.83 8.87 19.5 10.51 19.5L30.21 19.5C31.85 19.5 33.18 20.83 33.18 22.47L33.18 22.53C33.18 24.17 31.85 25.5 30.21 25.5L10.51 25.5C8.87 25.5 7.54 24.17 7.54 22.53L7.54 22.47ZM30.162 32.97C30.162 31.33 31.492 30 33.132 30L40.772 30C42.412 30 43.732 31.33 43.732 32.97L43.732 33.03C43.732 34.67 42.412 36 40.772 36L33.132 36C31.492 36 30.162 34.67 30.162 33.03L30.162 32.97ZM18.097 41.97C18.097 40.33 19.427 39 21.067 39L27.197 39C28.837 39 30.157 40.33 30.157 41.97L30.157 42.03C30.157 43.67 28.837 45 27.197 45L21.067 45C19.427 45 18.097 43.67 18.097 42.03L18.097 41.97Z" fill-rule="evenodd"  fill="#FFFFFF" >
</path>
<path d="M49.9495 3C49.9495 4.66 51.2595 6 52.8695 6C54.4895 6 55.7995 4.66 55.7995 3C55.7995 1.34 54.4895 0 52.8695 0C51.2595 0 49.9495 1.34 49.9495 3ZM8.99951 13C8.99951 14.66 10.3095 16 11.9295 16C13.5395 16 14.8495 14.66 14.8495 13C14.8495 11.34 13.5395 10 11.9295 10C10.3095 10 8.99951 11.34 8.99951 13ZM38.2495 23C38.2495 24.66 39.5595 26 41.1795 26C42.7895 26 44.0995 24.66 44.0995 23C44.0995 21.34 42.7895 20 41.1795 20C39.5595 20 38.2495 21.34 38.2495 23ZM20.6995 33C20.6995 34.66 22.0095 36 23.6195 36C25.2395 36 26.5495 34.66 26.5495 33C26.5495 31.34 25.2395 30 23.6195 30C22.0095 30 20.6995 31.34 20.6995 33Z" fill-rule="evenodd"  fill="#757A9D" >
</path>
</svg>
